<svg width="206" height="203" viewBox="0 0 206 203" fill="none" xmlns="http://www.w3.org/2000/svg">
<path d="M201 101.5C201 154.727 157.193 198 103 198C48.8067 198 5 154.727 5 101.5C5 48.2734 48.8067 5 103 5C157.193 5 201 48.2734 201 101.5Z" fill="url(#paint0_radial_183_634)" stroke="#FFE03F" stroke-width="10"/>
<path d="M141.7 150.667C146.326 146.04 150.663 141.715 155.277 137.101C153.851 135.651 152.367 134.179 150.929 132.671C148.692 130.352 148.541 128.787 149.793 125.83C151.254 122.398 152.587 118.92 153.851 115.407C154.872 112.543 155.869 111.661 158.883 111.569C160.599 111.522 162.316 111.511 164.032 111.557C165.527 111.592 166.304 110.966 166.304 109.424C166.304 104.368 166.304 99.3246 166.304 94.2692C166.304 92.7735 165.632 92.0546 164.09 92.0778C162.072 92.1126 160.043 92.0314 158.025 92.0778C155.59 92.1126 154.118 90.9879 153.214 88.7269C151.822 85.2716 150.268 81.8743 148.715 78.4886C147.509 75.8682 147.66 74.3376 149.712 72.1926C151.509 70.3026 153.376 68.4822 155.185 66.6618C150.512 62.1514 146.048 57.8613 141.329 53.3162C139.891 54.7423 138.117 56.5047 136.331 58.2556C133.467 61.0615 132.227 61.1659 128.528 59.473C125.78 58.2208 122.928 57.1888 120.087 56.1569C117.084 55.067 116.272 54.0582 116.203 50.8348C116.156 48.713 116.145 46.5911 116.18 44.4693C116.203 42.7532 115.542 41.8372 113.698 41.8488C108.852 41.8952 103.993 41.8836 99.1467 41.8488C97.3263 41.8488 96.6422 42.7184 96.7118 44.4925C96.793 46.4056 96.7582 48.3304 96.7118 50.2551C96.6422 52.8755 96.3176 53.2466 93.7203 53.2814C88.665 53.3625 83.6096 53.4437 78.5658 53.3625C76.2585 53.3277 74.7163 53.722 73.6032 56.1569C72.0379 59.589 67.6667 61.1775 64.0259 60.2383C60.0488 59.2179 57.4748 55.9482 57.44 51.8668C57.4052 47.797 59.7242 44.4693 63.3998 43.3214C67.2145 42.1271 71.7365 43.4489 73.4061 46.9738C74.6816 49.6638 76.4324 49.942 78.8905 49.8609C82.624 49.7333 86.3692 49.8261 90.1027 49.7913C93.0362 49.7681 93.0826 49.7101 93.1522 46.6723C93.1754 45.5592 93.1406 44.4461 93.1869 43.333C93.3377 40.0748 94.8334 38.3936 98.0104 38.3356C103.669 38.2312 109.327 38.2312 114.985 38.3356C117.954 38.3936 119.577 40.1792 119.704 43.1706C119.797 45.3853 119.797 47.6231 119.716 49.8377C119.658 51.4842 120.203 52.3422 121.884 52.8987C125.316 54.035 128.644 55.5076 132.32 56.9569C134.047 55.2409 135.891 53.3857 137.758 51.5769C140.749 48.6898 143.103 48.7014 146.094 51.6581C149.619 55.1365 153.144 58.615 156.611 62.1514C159.51 65.1081 159.452 67.4735 156.576 70.5229C154.988 72.2042 152.46 73.7347 152.112 75.6478C151.776 77.5262 153.666 79.8104 154.559 81.9207C155.034 83.0338 155.556 84.1353 155.927 85.2832C157.109 88.9703 157.109 88.4718 160.634 88.5181C162.153 88.5413 163.672 88.4718 165.179 88.5529C167.985 88.6921 169.817 90.2574 169.887 93.0633C170.038 98.9187 170.038 104.786 169.887 110.641C169.806 113.412 167.927 114.954 165.098 115.07C163.278 115.14 161.457 115.128 159.637 115.105C158.362 115.082 157.654 115.557 157.214 116.856C155.834 120.856 154.303 124.798 152.703 129.1C153.886 130.329 155.289 131.755 156.657 133.216C159.417 136.15 159.475 138.538 156.715 141.368C153.121 145.055 149.468 148.707 145.781 152.301C143.091 154.922 140.61 154.887 137.885 152.151C136.61 150.875 135.589 149.333 134.708 148.232C129.595 150.296 125.293 151.965 121.061 153.82C120.435 154.087 119.902 155.131 119.797 155.884C119.588 157.368 119.762 158.911 119.693 160.418C119.554 163.433 117.965 165.23 115.02 165.288C109.257 165.404 103.495 165.415 97.7437 165.288C94.8798 165.23 93.3957 163.537 93.1869 160.661C93.129 159.954 93.1174 159.247 93.1406 158.54C93.1869 157.032 92.526 156.325 90.9723 156.336C86.2184 156.371 81.4761 156.406 76.7223 156.313C75.0294 156.279 74.5656 157.322 73.9279 158.54C71.9104 162.377 68.0725 164.082 64.0259 163.073C59.9909 162.064 57.4748 158.899 57.4168 154.748C57.3704 150.597 59.8401 147.2 63.7012 146.145C67.5855 145.089 71.8988 146.527 73.5685 150.087C74.7163 152.522 76.2237 152.893 78.531 152.835C83.5864 152.707 88.6418 152.765 93.6855 152.812C96.2944 152.835 96.6074 153.194 96.7002 155.826C96.7466 157.032 96.7582 158.25 96.7118 159.467C96.6538 160.974 97.3495 161.751 98.8452 161.751C103.901 161.751 108.956 161.751 114 161.751C115.553 161.751 116.133 160.882 116.133 159.444C116.133 158.029 116.133 156.615 116.168 155.2C116.261 152.301 117.119 151.316 119.739 150.272C123.484 148.777 127.183 147.188 130.859 145.518C133.479 144.336 135.404 144.545 137.468 146.527C138.836 147.849 140.193 149.194 141.653 150.632L141.7 150.667ZM66.0202 46.5563C63.2374 46.6143 60.8837 49.0956 60.988 51.8784C61.0808 54.522 63.4577 56.8294 66.0898 56.8526C68.8377 56.8758 71.2959 54.4177 71.2843 51.6581C71.2843 48.9101 68.7798 46.4984 66.0086 46.5563H66.0202ZM71.319 154.725C71.4002 152.07 69.1276 149.658 66.4144 149.519C63.5273 149.368 61.0576 151.617 60.9764 154.458C60.9069 157.137 63.1447 159.537 65.8463 159.676C68.6986 159.815 71.2379 157.519 71.319 154.736V154.725Z" fill="#FFE03F"/>
<path d="M105.454 135.953C102.845 135.442 99.4946 134.793 96.1552 134.109C95.5639 133.993 95.0074 133.738 94.4508 133.495C93.3261 133.008 92.8623 131.999 93.4768 131.06C93.8363 130.515 94.9958 130.109 95.703 130.225C98.1843 130.631 100.584 131.477 103.066 131.825C119.113 134.028 134.615 121.552 136.482 105.505C138.384 89.2138 126.545 72.7375 107.936 71.6592C104.492 71.462 100.967 72.4708 97.4887 72.9578C96.8973 73.0389 96.3292 73.294 95.761 73.5027C94.6015 73.9202 93.7319 73.5723 93.3493 72.436C92.9551 71.2649 93.558 70.3953 94.6595 70.0938C97.3843 69.3634 100.097 68.459 102.88 68.1459C121.2 66.082 137.34 78.9987 140.03 97.7476C142.535 115.128 130.163 131.999 112.574 135.129C110.498 135.5 108.376 135.64 105.443 135.976L105.454 135.953Z" fill="#FFE03F"/>
<path d="M88.0737 140.938C89.5346 141.043 90.613 141.17 91.7029 141.17C96.5495 141.194 101.385 141.17 106.231 141.182C107.136 141.182 108.098 141.112 108.933 141.379C109.478 141.553 110.231 142.33 110.185 142.759C110.116 143.408 109.547 144.15 108.968 144.556C108.55 144.857 107.797 144.718 107.194 144.718C100.631 144.73 94.0798 144.753 87.5171 144.718C84.8387 144.718 84.3517 144.231 84.317 141.53C84.2706 137.506 84.3054 133.471 84.3054 129.077C83.0531 128.984 81.998 128.833 80.9429 128.833C72.8728 128.81 64.7912 128.891 56.7212 128.775C54.4718 128.741 53.1268 129.274 52.0485 131.465C50.344 134.909 46.1931 136.405 42.4479 135.489C38.7955 134.596 36.036 131.234 35.7925 127.396C35.5606 123.616 37.9723 120.01 41.6015 118.711C45.6713 117.25 50.286 118.769 52.2108 122.711C53.2195 124.775 54.4718 125.123 56.4313 125.111C65.7188 125.053 74.9947 125.088 84.2822 125.111C87.7027 125.111 88.0273 125.459 88.0621 128.961C88.0853 131.883 88.0621 134.816 88.0621 137.738C88.0621 138.724 88.0621 139.698 88.0621 140.927L88.0737 140.938ZM44.7669 132.138C47.5265 132.045 49.8338 129.541 49.7063 126.746C49.5904 124.08 47.2366 121.795 44.6046 121.795C41.8102 121.795 39.4912 124.195 39.526 127.048C39.5492 129.865 41.9841 132.231 44.7669 132.138Z" fill="#FFE03F"/>
<path d="M84.2937 76.0653C84.2937 71.8216 84.2821 68.0069 84.2937 64.1806C84.3169 60.6209 84.7227 60.2151 88.3403 60.2151C94.4044 60.2035 100.457 60.2151 106.521 60.2151C107.031 60.2151 107.53 60.2151 108.04 60.2267C109.269 60.2847 110.289 60.7253 110.278 62.1283C110.278 63.3805 109.304 63.8095 108.214 63.9139C107.414 63.995 106.602 63.9719 105.791 63.9719C101.048 63.9719 96.2944 63.9719 91.5521 63.9719C90.5549 63.9719 89.5578 63.9719 88.0736 63.9719C88.0736 66.372 88.0736 68.5518 88.0736 70.7316C88.0736 72.552 88.0968 74.3724 88.0736 76.1812C88.0273 79.393 87.5751 79.8684 84.3749 79.88C75.3889 79.9032 66.3913 79.9496 57.4052 79.8452C54.9123 79.8104 53.2079 80.1351 51.9209 82.7439C50.1585 86.3035 45.8568 87.6022 41.9261 86.4427C38.3665 85.3991 35.7113 81.7352 35.7692 77.9553C35.8272 74.013 38.5288 70.6041 42.4247 69.5606C46.1466 68.5518 50.3556 69.9896 52.002 73.526C53.2079 76.1117 54.8776 76.3783 57.2429 76.3552C64.9187 76.274 72.5945 76.332 80.2703 76.3204C81.4646 76.3204 82.6473 76.1928 84.2821 76.0885L84.2937 76.0653ZM49.7179 77.9089C49.6599 75.1957 47.3409 72.8999 44.6393 72.8999C41.7986 72.8999 39.4448 75.3232 39.526 78.164C39.6071 80.9235 41.8449 83.1266 44.5929 83.1497C47.4453 83.1729 49.7758 80.7844 49.7063 77.9089H49.7179Z" fill="#FFE03F"/>
<path d="M94.4276 103.603C90.694 103.603 86.9489 103.73 83.2154 103.557C80.7572 103.452 79.2151 103.951 78.0557 106.478C76.4092 110.073 72.0147 111.615 68.2232 110.583C64.5129 109.574 61.8808 106.2 61.7881 102.328C61.6837 98.4084 64.0607 94.9996 67.771 93.7705C71.806 92.4255 76.1309 93.9328 78.1484 97.7939C79.1108 99.6375 80.2703 100.124 82.1834 100.101C89.8592 100.02 97.5466 100.067 105.222 100.067C105.825 100.067 106.44 100.032 107.043 100.067C108.388 100.148 110.173 99.7303 110.115 101.933C110.057 103.893 108.423 103.591 107.159 103.603C102.915 103.638 98.6713 103.615 94.4276 103.603ZM70.403 96.9243C67.7014 97.0055 65.2433 99.6375 65.3941 102.316C65.5448 104.948 67.9449 107.244 70.5654 107.255C73.2902 107.255 75.7483 104.751 75.6903 102.003C75.6323 99.2201 73.1626 96.8431 70.403 96.9243Z" fill="#FFE03F"/>
<defs>
<radialGradient id="paint0_radial_183_634" cx="0" cy="0" r="1" gradientUnits="userSpaceOnUse" gradientTransform="translate(103 101.5) rotate(90) scale(101.5 103)">
<stop stopColor="#110223"/>
<stop offset="1" stopColor="#310667"/>
</radialGradient>
</defs>
</svg>
