<svg width="206" height="203" viewBox="0 0 206 203" fill="none" xmlns="http://www.w3.org/2000/svg">
<path d="M201 101.5C201 154.727 157.193 198 103 198C48.8067 198 5 154.727 5 101.5C5 48.2734 48.8067 5 103 5C157.193 5 201 48.2734 201 101.5Z" fill="url(#paint0_radial_183_636)" stroke="#FFE03F" stroke-width="10"/>
<path d="M46.7013 144.652C44.9088 146.559 43.0652 148.516 41.2129 150.473C40.8118 150.899 40.4021 151.316 39.9668 151.699C38.7974 152.745 37.5341 152.873 36.655 152.039C35.699 151.137 35.7843 149.801 36.9452 148.567C38.0975 147.35 39.318 146.193 40.5045 145.01C41.1276 144.389 41.6995 143.716 42.3738 143.163C43.509 142.236 43.7907 141.325 43.2871 139.793C42.1775 136.372 43.6797 132.781 46.9403 131.088C48.3914 130.33 48.673 129.428 48.656 128.007C48.6047 121.821 48.6901 115.625 48.6047 109.439C48.5791 107.507 49.2876 106.375 50.9606 105.439C56.4404 102.384 61.8434 99.1929 67.2976 96.0868C68.3304 95.4997 68.9194 94.921 68.8426 93.5594C68.7743 92.2064 68.339 91.4915 67.1355 90.9044C62.4665 88.6663 57.8402 86.326 53.2054 84.0114C52.6847 83.7561 51.9422 83.5604 51.7373 83.1349C51.3703 82.3605 50.952 81.2457 51.2593 80.6245C51.5666 80.0032 52.7104 79.6373 53.5468 79.5097C54.0931 79.4246 54.7504 79.9352 55.3393 80.2245C60.4436 82.7349 65.5478 85.2453 70.5924 87.7302C70.8228 87.6621 70.9594 87.6281 71.096 87.577C74.348 86.3771 74.6468 83.8752 74.5187 80.8202C74.2883 75.442 74.4931 70.0467 74.4334 64.66C74.4078 62.924 75.0394 61.8347 76.5673 60.9838C82.1068 57.8862 87.5696 54.6439 93.0921 51.5208C94.2359 50.8741 94.6968 50.1848 94.6456 48.7977C94.5346 45.6235 96.0454 43.2237 98.8365 41.6664C99.2804 41.4196 99.7328 41.1899 100.33 40.875C100.33 36.552 100.33 32.1865 100.33 27.8209C100.33 27.1657 100.279 26.5019 100.381 25.8551C100.586 24.7148 101.295 24 102.49 24C103.676 24 104.402 24.6893 104.624 25.8126C104.743 26.4508 104.7 27.1146 104.7 27.7699C104.7 32.1354 104.7 36.501 104.7 40.8495C105.383 41.2239 105.964 41.5218 106.519 41.8622C109.019 43.3854 110.471 45.649 110.342 48.5424C110.274 50.2443 110.923 50.9592 112.263 51.708C117.487 54.6269 122.6 57.7415 127.849 60.6093C129.829 61.6901 130.666 62.9751 130.614 65.2727C130.469 71.3147 130.597 77.3567 130.546 83.4072C130.538 84.8283 130.674 85.9346 132.27 86.4622C132.996 86.7005 133.593 87.3302 134.379 87.8748C138.749 85.7899 143.153 83.688 147.566 81.5946C148.155 81.3138 148.804 80.8117 149.367 80.8883C150.204 80.9989 151.236 81.3308 151.74 81.9435C152.474 82.8285 152.073 83.9008 151.16 84.6156C150.707 84.9645 150.152 85.2028 149.632 85.4495C145.748 87.3132 141.864 89.1768 137.972 91.015C136.948 91.5 136.154 91.9085 136.18 93.3637C136.197 94.6997 136.521 95.4486 137.708 96.1124C142.991 99.0653 148.155 102.239 153.498 105.099C155.769 106.316 156.52 107.822 156.452 110.315C156.289 116.281 156.426 122.255 156.375 128.229C156.366 129.496 156.605 130.296 157.886 130.977C161.445 132.858 162.853 136.389 161.624 140.227C161.24 141.427 161.53 142.091 162.341 142.874C164.552 145.001 166.711 147.171 168.854 149.35C170.194 150.711 170.348 152.013 169.374 152.975C168.418 153.928 167.07 153.767 165.73 152.447C163.545 150.303 161.36 148.15 159.234 145.946C158.449 145.138 157.783 144.763 156.588 145.231C154.258 146.142 151.945 145.75 149.905 144.38C148.889 143.699 148.155 143.759 147.148 144.346C141.677 147.554 136.137 150.66 130.674 153.903C129.044 154.873 127.704 154.941 126.031 153.937C120.585 150.677 115.054 147.563 109.54 144.406C107.457 143.214 104.709 144.78 104.692 147.163C104.666 150.15 104.735 153.137 104.649 156.115C104.624 156.932 104.402 157.936 103.881 158.481C103.454 158.923 102.217 159.17 101.756 158.864C101.09 158.43 100.441 157.443 100.399 156.651C100.245 153.596 100.339 150.541 100.33 147.478C100.322 144.661 97.6501 143.138 95.1833 144.55C89.7376 147.673 84.2749 150.763 78.8804 153.971C77.2928 154.907 75.9954 154.89 74.4163 153.954C69.0218 150.746 63.542 147.682 58.1304 144.499C57.0293 143.853 56.1929 143.58 54.9808 144.414C52.4884 146.133 49.757 145.946 46.6757 144.644L46.7013 144.652ZM104.7 130.007C105.033 130.228 105.264 130.424 105.52 130.543C108.917 132.16 110.616 134.832 110.351 138.585C110.274 139.734 110.897 140.108 111.674 140.559C116.736 143.461 121.814 146.354 126.842 149.316C127.934 149.954 128.762 149.954 129.846 149.316C134.814 146.388 139.816 143.529 144.826 140.678C145.859 140.091 146.422 139.487 146.345 138.142C146.166 134.858 147.703 132.381 150.605 130.858C151.561 130.356 152.005 129.837 151.996 128.714C151.945 122.74 151.945 116.774 151.996 110.8C152.005 109.703 151.603 109.09 150.673 108.562C145.535 105.643 140.413 102.699 135.309 99.7205C134.404 99.1929 133.713 99.0568 132.74 99.6865C129.829 101.584 126.816 101.55 123.897 99.661C123.137 99.1759 122.582 99.0142 121.737 99.5078C116.454 102.605 111.119 105.626 105.836 108.741C105.315 109.047 104.76 109.822 104.752 110.383C104.675 116.936 104.7 123.48 104.7 130.007ZM108.106 54.3461C104.666 56.8395 101.252 57.2394 97.6501 54.8737C97.2233 54.5929 96.2503 54.7631 95.7211 55.0694C90.5144 58.0053 85.3589 61.0263 80.1607 63.9707C79.2218 64.4983 78.8462 65.128 78.8548 66.2173C78.8975 72.1827 78.8889 78.1481 78.8548 84.1135C78.8548 85.0666 79.0596 85.6793 80.0327 86.1559C83.1482 87.6791 84.6846 90.2661 84.5224 93.7381C84.4797 94.7423 84.7187 95.338 85.615 95.84C90.8729 98.827 96.0881 101.891 101.372 104.843C101.935 105.158 102.976 105.201 103.531 104.895C108.874 101.916 114.158 98.8185 119.484 95.789C120.295 95.3295 120.534 94.7763 120.483 93.8573C120.303 90.3001 121.891 87.7472 125.024 86.0537C125.536 85.7814 126.091 85.007 126.099 84.4624C126.176 78.2843 126.167 72.0976 126.108 65.911C126.108 65.3663 125.749 64.5834 125.305 64.3196C119.595 60.9582 113.851 57.6649 108.098 54.3546L108.106 54.3461ZM53.0518 130.135C56.9525 131.888 58.9669 134.602 58.7365 138.798C58.7109 139.325 59.3083 140.091 59.8205 140.398C64.976 143.436 70.1827 146.388 75.3467 149.409C76.2685 149.946 77.0111 149.997 77.9671 149.444C83.1226 146.414 88.3122 143.436 93.5103 140.474C94.381 139.981 94.6968 139.419 94.6456 138.389C94.4663 134.926 95.9942 132.33 99.1097 130.781C100.04 130.313 100.364 129.76 100.356 128.765C100.322 122.791 100.322 116.825 100.356 110.851C100.356 109.762 99.9803 109.132 99.0414 108.605C93.8347 105.652 88.6536 102.665 83.4896 99.6525C82.636 99.1504 82.0044 99.2099 81.0911 99.6525C79.751 100.308 78.2061 101.023 76.7977 100.937C74.8431 100.818 72.9396 99.9843 70.4814 99.3036C65.3601 102.256 59.6583 105.516 54.0163 108.852C53.5212 109.141 53.0945 109.992 53.0945 110.588C53.0262 117.064 53.0518 123.54 53.0518 130.143V130.135ZM105.989 48.5254C105.955 46.6362 104.376 45.0704 102.507 45.0789C100.544 45.0874 98.9304 46.7893 99.0158 48.7466C99.1012 50.6358 100.689 52.0995 102.618 52.0569C104.538 52.0059 106.023 50.4571 105.989 48.5254ZM128.387 96.674C130.264 96.6485 131.826 95.0827 131.835 93.1935C131.852 91.2533 130.128 89.5853 128.19 89.6789C126.347 89.764 124.802 91.432 124.844 93.2871C124.887 95.1508 126.5 96.6995 128.378 96.674H128.387ZM50.8496 141.291C52.7701 141.274 54.298 139.759 54.315 137.845C54.3321 135.879 52.6421 134.219 50.7045 134.288C48.8608 134.356 47.2988 136.015 47.3329 137.87C47.3671 139.742 48.9803 141.308 50.8496 141.291ZM76.7721 96.674C78.6755 96.623 80.1949 95.0486 80.1693 93.1594C80.1437 91.2873 78.5475 89.6959 76.6953 89.6789C74.7919 89.6704 73.0677 91.4405 73.1616 93.3297C73.2469 95.1678 74.9199 96.7166 76.7721 96.6655V96.674ZM105.989 137.717C105.938 135.836 104.333 134.27 102.473 134.296C100.535 134.322 98.9219 136.049 99.0243 138.006C99.1268 139.887 100.766 141.376 102.652 141.3C104.547 141.223 106.041 139.632 105.989 137.717ZM157.681 137.879C157.715 136.032 156.136 134.364 154.301 134.296C152.372 134.228 150.664 135.904 150.682 137.853C150.699 139.742 152.261 141.291 154.164 141.308C156.033 141.325 157.655 139.751 157.681 137.887V137.879Z" fill="#FFE03F"/>
<defs>
<radialGradient id="paint0_radial_183_636" cx="0" cy="0" r="1" gradientUnits="userSpaceOnUse" gradientTransform="translate(103 101.5) rotate(90) scale(101.5 103)">
<stop stopColor="#110223"/>
<stop offset="1" stopColor="#310667"/>
</radialGradient>
</defs>
</svg>
