<svg width="206" height="203" viewBox="0 0 206 203" fill="none" xmlns="http://www.w3.org/2000/svg">
<path d="M201 101.5C201 154.727 157.193 198 103 198C48.8067 198 5 154.727 5 101.5C5 48.2734 48.8067 5 103 5C157.193 5 201 48.2734 201 101.5Z" fill="url(#paint0_radial_183_635)" stroke="#FFE03F" stroke-width="10"/>
<path d="M87.8883 145.452C82.5978 142.002 77.4983 138.67 72.2078 135.234C66.4911 138.817 60.8185 141.56 54.176 138.921C50.3698 137.402 47.5335 134.851 45.7406 131.15C41.42 122.2 45.1233 114.371 57.0711 108.016V99.302C45.1821 92.9766 41.3318 84.8228 45.8288 75.8434C50.2816 66.9525 59.7016 65.2274 71.5024 71.4496C73.8832 69.7539 76.4696 67.9404 79.012 66.0825C82.1569 63.7824 85.2578 61.438 88.5937 58.9757C86.2277 50.8809 86.9772 43.6856 94.2516 38.5692C99.1747 35.119 106.67 35.1927 111.563 38.4955C118.853 43.4202 119.146 50.5123 117.265 58.8725C122.732 62.9567 128.346 67.1589 134.342 71.6412C139.809 68.132 145.761 65.2568 152.021 68.7218C155.254 70.5059 158.473 73.4106 160.177 76.6249C164.748 85.2357 160.633 93.0945 148.847 99.361V107.692C161.647 115.683 164.909 123.424 159.442 132.551C154.534 140.749 145.202 141.869 133.828 135.19C128.802 138.449 123.526 141.869 117.971 145.482C118.926 152.22 119.426 159.18 113.474 163.677C110.344 166.036 106.023 167.923 102.202 167.997C91.9444 168.188 86.7273 159.784 87.8736 145.438L87.8883 145.452ZM114.738 63.0452C111.137 64.9177 108.36 66.3479 105.406 67.8814V87.1967C109.55 89.6591 113.253 91.8707 117.221 94.2299C121.571 92.1509 125.921 90.0719 130.124 88.0666C130.565 83.5991 130.977 79.5443 131.403 75.2389C125.862 71.1842 120.381 67.1884 114.738 63.0452ZM88.8876 94.2888C93.0466 91.7085 96.5295 89.5558 100.732 86.9461V67.8077C96.9557 65.9498 94.1781 64.5786 91.1655 63.0894C85.39 67.3063 79.7615 71.4201 74.471 75.2979C74.9266 79.9571 75.294 83.8055 75.6907 88.0077C80.0407 90.0719 84.3907 92.1509 88.9023 94.2888H88.8876ZM105.435 120.136V136.252C108.992 138.095 112.166 139.732 115.502 141.457C120.939 137.903 126.186 134.468 131.168 131.194C130.815 126.889 130.521 123.291 130.198 119.237C125.701 117.113 121.13 114.946 116.957 112.955C112.93 115.447 109.447 117.615 105.435 120.107V120.136ZM100.483 136.252V120.239C96.5589 117.762 92.8996 115.462 88.8582 112.896C84.5964 114.99 80.0701 117.202 75.3821 119.487V131.696C80.4816 134.984 85.5517 138.257 90.5189 141.457C93.8989 139.687 96.8969 138.124 100.483 136.252ZM132.167 114.916C136.693 112.085 140.176 109.918 143.644 107.751V99.6853C139.647 97.0756 136.223 94.8491 132.417 92.3573C127.89 94.4363 123.1 96.6627 118.617 98.7269V108.517C123.261 110.714 127.832 112.867 132.182 114.916H132.167ZM62.4351 107.913C66.3589 110.272 70.0769 112.513 74.0007 114.872C78.4242 112.749 82.7888 110.655 87.08 108.591V98.668C82.2598 96.3678 77.7188 94.1856 73.7803 92.3131C69.5185 95.0113 66.065 97.2083 62.3616 99.5526C62.244 100.821 61.9942 102.266 62.0089 103.711C62.0089 105.156 62.2881 106.601 62.4351 107.898V107.913ZM157.37 124.382C157.488 118.662 152.095 113.191 146.202 113.059C140.749 112.926 135.591 117.998 135.327 123.719C135.047 129.985 139.647 134.969 145.937 135.22C151.918 135.456 157.238 130.413 157.37 124.382ZM103.054 62.7355C108.992 62.6618 114.12 57.3095 113.959 51.338C113.797 45.2633 108.507 40.2206 102.525 40.4565C96.8822 40.6924 91.8121 45.9268 91.8856 51.4412C91.9738 57.4865 97.2202 62.8093 103.04 62.7355H103.054ZM70.8852 83.1125C70.9146 77.2736 65.4036 71.7297 59.7016 71.8771C53.8527 72.0393 48.5769 77.5685 48.7385 83.3779C48.9002 89.2315 53.6323 93.876 59.5547 93.9939C65.6976 94.1119 70.8558 89.1577 70.8852 83.0977V83.1125ZM103.348 92.49C97.6758 92.3278 91.9885 97.8275 91.915 103.534C91.8415 109.137 96.7205 114.327 102.378 114.666C108.639 115.049 113.68 110.464 113.929 104.168C114.179 98.0929 109.241 92.6669 103.348 92.5047V92.49ZM70.944 124.073C70.9734 118.337 65.2861 112.896 59.4959 113.103C53.8233 113.309 48.9737 118.263 48.7973 124.029C48.621 130 53.7645 135.249 59.7751 135.234C65.771 135.22 70.9146 130.074 70.944 124.058V124.073ZM114.003 152.574C114.135 146.735 109.418 141.693 103.554 141.383C97.7786 141.088 91.9444 146.558 91.9297 152.309C91.9003 158.103 96.7499 163.175 102.54 163.396C108.903 163.632 113.856 158.958 114.018 152.589L114.003 152.574ZM145.746 72.0983C139.868 72.2752 135.282 77.1262 135.341 83.1272C135.4 89.5116 140.353 94.2593 146.642 94.0087C152.565 93.758 157.267 88.8481 157.194 83.0093C157.121 76.8903 151.889 71.9214 145.746 72.1131V72.0983Z" fill="#FFE03F"/>
<defs>
<radialGradient id="paint0_radial_183_635" cx="0" cy="0" r="1" gradientUnits="userSpaceOnUse" gradientTransform="translate(103 101.5) rotate(90) scale(101.5 103)">
<stop stopColor="#110223"/>
<stop offset="1" stopColor="#310667"/>
</radialGradient>
</defs>
</svg>
