<svg width="206" height="206" viewBox="0 0 206 206" fill="none" xmlns="http://www.w3.org/2000/svg">
<circle cx="103" cy="103" r="103" fill="url(#paint0_radial_255_635)"/>
<path d="M103.06 172.79C70.17 172.95 41.48 150.18 34.64 118.04C30.58 98.98 33.79 80.98 44.66 64.57C47.57 60.18 48.93 60.01 52.87 63.51C57.85 67.93 62.82 72.36 67.78 76.8C70.06 78.84 70.4867 81.18 69.06 83.82C56.98 106.27 67.51 132.55 91.71 140.33C107.76 145.49 126.05 138.86 135.46 124.46C138.247 120.2 142.113 118.827 147.06 120.34C152.63 122.04 158.23 123.62 163.76 125.4C168.04 126.77 168.59 127.87 166.59 131.97C155.85 153.9 138.66 167.51 114.48 171.95C112.52 172.31 110.54 172.6 108.55 172.75C106.73 172.88 104.89 172.78 103.06 172.78V172.79ZM49.15 67.78C34.95 88.88 35.06 117.6 48.92 138.35C64.14 161.15 90.24 171.79 117.21 166.08C136.02 162.1 155.68 146.38 160.56 130.17C154.43 128.27 148.29 126.37 142.5 124.58C141.9 124.91 141.71 124.95 141.62 125.07C141.21 125.59 140.82 126.11 140.45 126.66C130.66 141.05 117.19 148.2 99.69 147.08C83.79 146.06 71.91 138.12 64.23 124.48C57.01 111.65 56.91 98.11 62.73 84.58C64.31 80.9 64.38 80.9 61.44 78.24C59.22 76.23 56.95 74.27 54.67 72.33C52.94 70.86 51.17 69.44 49.15 67.79V67.78Z" fill="#80CCDB"/>
<path d="M173.05 103.42C172.63 107.21 172.33 111.03 171.74 114.79C171.09 118.92 170.18 119.45 165.97 118.23C159.1 116.23 152.26 114.13 145.42 112.02C141.73 110.89 141.53 110.6 141.82 106.75C142.47 97.99 140.46 89.9 135.84 82.45C132.25 76.65 127.34 72.28 121.48 68.87C117.6 66.62 117.28 65.91 118.45 61.67C120.26 55.09 122.18 48.55 124.19 42.03C125.5 37.78 126.6 37.23 130.79 39.05C144.48 45.02 155.16 54.5 162.9 67.26C169.63 78.35 172.78 90.45 173.05 103.43V103.42ZM123.54 63.49C125.38 64.78 126.74 65.7 128.08 66.66C135.28 71.83 140.75 78.36 144.05 86.67C146.11 91.85 146.95 97.21 147.03 102.76C147.1 106.95 147.33 107.09 151.3 108.3C155.28 109.51 159.25 110.74 163.27 111.83C164.28 112.1 165.42 111.87 166.45 111.87C171.76 82.57 152.42 53.34 129.03 44.61C127.23 50.81 125.44 56.97 123.54 63.5V63.49Z" fill="#80CCDB"/>
<path d="M76.03 74.08C71.58 70.15 67.36 66.43 63.14 62.71C61.02 60.84 58.85 59.03 56.8 57.09C54.25 54.68 53.98 53.04 56.7 50.93C61.53 47.18 66.42 43.27 71.84 40.56C84.76 34.09 98.54 31.67 112.95 34.1C117.74 34.91 118.13 35.71 116.78 40.45C114.87 47.16 113.02 53.88 111.05 60.56C110.01 64.1 109.41 64.47 105.76 64.22C96.63 63.58 88.37 66.09 80.78 71.07C79.29 72.05 77.76 72.99 76.03 74.09V74.08ZM76.52 67.36C83.88 62.58 90.97 59.52 99.03 59.13C106.02 58.8 106.05 58.77 107.91 52.18C109.06 48.07 110.1 43.94 111.18 39.82C95.84 35.75 70.81 43.3 62.05 54.43C66.82 58.69 71.6 62.96 76.52 67.35V67.36Z" fill="#80CCDB"/>
<defs>
<radialGradient id="paint0_radial_255_635" cx="0" cy="0" r="1" gradientUnits="userSpaceOnUse" gradientTransform="translate(103 103) rotate(90) scale(103)">
<stop stop-color="#310667"/>
<stop offset="1"/>
</radialGradient>
</defs>
</svg>
