<svg width="206" height="206" viewBox="0 0 206 206" fill="none" xmlns="http://www.w3.org/2000/svg">
<circle cx="103" cy="103" r="103" fill="url(#paint0_radial_257_637)"/>
<g clip-path="url(#clip0_257_637)">
<path d="M82.29 127.43C78.27 128.13 74.66 128.75 71.05 129.4C56.14 132.06 41.22 134.74 26.31 137.39C23.16 137.95 22.18 137.13 22.18 133.88C22.17 113.95 22.17 94.02 22.18 74.09C22.18 70.54 23.12 69.8 26.64 70.43C44.52 73.63 62.4 76.83 80.28 80.02C80.84 80.12 81.42 80.16 82.3 80.27C82.3 79.31 82.27 78.49 82.3 77.68C82.45 74.43 84.56 72.06 87.78 71.93C91.62 71.77 95.48 71.84 99.33 71.93C101.18 71.97 102.74 72.85 103.76 74.42C104.3 75.25 104.91 75.42 105.85 75.37C110.99 75.05 115.11 73.29 117.9 68.53C120.99 63.27 124.59 58.3 128.01 53.24C131.05 48.75 136.21 47.23 140.76 49.43C146.05 51.98 147.86 58.58 144.65 63.82C143.3 66.02 141.81 68.13 140.14 70.66C141.24 70.73 142.02 70.83 142.79 70.83C150.08 70.84 157.36 70.77 164.64 70.88C166.44 70.91 168.35 71.2 170 71.88C173.41 73.31 175.47 76.04 175.8 79.77C176.13 83.56 174.67 86.64 171.52 88.85C170.91 89.28 170.27 89.65 169.66 90.04C172.27 97.19 171.13 100.78 164.75 105.01C166.2 107.57 166.74 110.36 165.82 113.31C164.89 116.3 162.78 118.24 159.98 119.74C160.27 120.41 160.55 120.99 160.78 121.59C163.19 127.76 159.1 134.88 152.5 134.95C141.3 135.08 130.05 135.94 118.9 134.21C114.79 133.57 110.77 132.31 106.71 131.31C106.16 131.18 105.63 130.96 105.08 130.78C104.55 131.8 104.18 132.74 103.62 133.54C102.55 135.09 100.96 135.85 99.11 135.88C95.43 135.93 91.74 135.99 88.06 135.86C84.52 135.74 82.44 133.47 82.3 129.88C82.27 129.22 82.3 128.56 82.3 127.43H82.29ZM104.83 80.53C104.83 81.69 104.83 82.6 104.83 83.5C104.83 91.62 104.83 99.74 104.83 107.87C104.83 112.98 104.88 118.09 104.8 123.19C104.78 124.66 105.2 125.58 106.63 126.03C107.59 126.33 108.5 126.76 109.46 127.06C115.81 129.05 122.31 130.14 128.98 130.16C135.93 130.18 142.88 130.16 149.83 130.16C150.58 130.16 151.34 130.19 152.09 130.1C154.48 129.81 156.28 128 156.54 125.68C156.78 123.54 155.42 121.43 153.18 120.65C152.32 120.35 151.24 120.47 150.53 120C149.8 119.51 149.09 118.59 148.92 117.74C148.72 116.72 149.45 115.8 150.56 115.53C151.28 115.36 152.05 115.36 152.8 115.33C154.22 115.28 155.66 115.39 157.06 115.21C159.38 114.91 161.05 113.11 161.29 110.88C161.53 108.66 160.24 106.64 158 105.8C157.46 105.6 156.86 105.56 156.3 105.41C155.74 105.26 154.96 105.22 154.69 104.85C154.2 104.16 153.74 103.24 153.77 102.45C153.83 101.23 154.81 100.58 156.03 100.53C157.87 100.46 159.72 100.57 161.55 100.42C163.96 100.22 165.8 98.38 166.1 96.09C166.39 93.88 164.92 91.7 162.6 90.9C162.21 90.76 161.79 90.67 161.38 90.59C161.05 90.53 160.71 90.53 160.38 90.46C159.15 90.19 158.45 89.36 158.42 88.17C158.39 86.84 159.15 85.87 160.5 85.75C162.41 85.59 164.35 85.71 166.27 85.56C168.93 85.35 170.82 83.34 170.88 80.81C170.94 78.42 169.2 76.35 166.69 75.91C165.87 75.77 165.02 75.79 164.19 75.79C154.9 75.79 145.6 75.81 136.31 75.77C133.08 75.76 132.1 73.91 133.79 71.2C134.53 70.02 135.32 68.87 136.17 67.59C133.35 65.64 130.76 63.85 128.06 61.97C127.15 63.26 126.4 64.25 125.72 65.29C124.12 67.74 122.59 70.24 120.95 72.67C118.12 76.87 114.22 79.33 109.13 79.83C107.81 79.96 106.5 80.23 104.82 80.49L104.83 80.53ZM27.26 90.05C28.36 90.05 29.34 90.03 30.31 90.05C33.15 90.13 36.03 89.96 38.82 90.36C46.01 91.41 50.81 97.73 50.29 105.09C49.8 112.08 43.88 117.57 36.71 117.66C34.2 117.69 31.69 117.66 29.18 117.68C28.54 117.68 27.91 117.81 27.31 117.88V132.23C45.76 128.92 63.99 125.66 82.16 122.4V85.39C63.87 82.12 45.66 78.86 27.25 75.57V90.04L27.26 90.05ZM87.3 76.86C87.22 78.16 87.1 79.14 87.1 80.12C87.09 96.01 87.09 111.89 87.09 127.78C87.09 128.37 86.93 129.03 87.16 129.51C87.43 130.09 88.02 130.91 88.49 130.93C91.83 131.05 95.18 131 98.52 130.99C99.41 130.99 99.91 130.5 99.94 129.59C99.96 129.01 99.96 128.42 99.96 127.83C99.96 111.86 99.96 95.89 99.96 79.92C99.96 79.42 99.95 78.92 99.96 78.42C99.96 77.41 99.53 76.86 98.46 76.86C94.87 76.86 91.29 76.86 87.31 76.86H87.3ZM27.25 101.22H44.68C43.87 98.19 41.96 96.12 38.94 95.42C35.11 94.54 31.21 95.08 27.26 95.1V101.22H27.25ZM27.24 112.82C31.23 112.76 35.16 113.35 39 112.38C41.92 111.64 43.87 109.64 44.94 106.57H27.23V112.82H27.24ZM138.84 63.45C140.74 61.21 142.03 59.04 140.88 56.24C140.1 54.35 138.51 53.4 136.54 53.41C133.63 53.42 132.2 55.43 131.01 57.97C133.65 59.82 136.21 61.61 138.84 63.44V63.45Z" fill="#81CDDB"/>
<path d="M120.77 100.75C120.77 97.2299 120.74 93.7199 120.78 90.1999C120.82 87.3599 121.54 86.6199 124.39 86.5999C129.08 86.5599 133.77 86.5599 138.46 86.5999C141.19 86.6299 141.95 87.3699 141.96 90.0299C142 97.2299 142 104.43 141.96 111.63C141.95 114.18 141.19 114.93 138.64 114.96C133.87 115.01 129.09 115.01 124.32 114.96C121.54 114.94 120.82 114.17 120.79 111.29C120.75 107.77 120.79 104.26 120.79 100.74L120.77 100.75ZM137.04 109.87C137.01 103.7 137.14 97.6799 136.96 91.7199H125.9V109.87H137.05H137.04Z" fill="#81CDDB"/>
<path d="M93.54 81.5699C94.9 81.5699 95.93 82.5899 95.92 83.9499C95.92 85.2999 94.87 86.3399 93.53 86.3399C92.19 86.3399 91.16 85.2999 91.15 83.9399C91.15 82.5699 92.15 81.5699 93.54 81.5699Z" fill="#81CDDB"/>
<path d="M93.6 99.62C92.24 99.66 91.21 98.73 91.14 97.39C91.07 96.04 91.99 95 93.33 94.9C94.79 94.79 95.93 95.81 95.92 97.24C95.92 98.58 94.95 99.58 93.59 99.62H93.6Z" fill="#81CDDB"/>
<path d="M93.5599 108.2C94.9099 108.22 95.9099 109.22 95.9199 110.54C95.9299 111.94 94.7599 113.05 93.3699 112.97C92.0899 112.9 91.0999 111.79 91.1299 110.47C91.1699 109.14 92.1999 108.17 93.5499 108.19L93.5599 108.2Z" fill="#81CDDB"/>
<path d="M95.93 123.92C95.93 125.27 94.9 126.25 93.52 126.24C92.13 126.24 91.14 125.24 91.15 123.87C91.15 122.52 92.19 121.52 93.56 121.54C94.91 121.55 95.95 122.59 95.94 123.92H95.93Z" fill="#81CDDB"/>
</g>
<defs>
<radialGradient id="paint0_radial_257_637" cx="0" cy="0" r="1" gradientUnits="userSpaceOnUse" gradientTransform="translate(103 103) rotate(90) scale(103)">
<stop stop-color="#310667"/>
<stop offset="1"/>
</radialGradient>
<clipPath id="clip0_257_637">
<rect width="158" height="158" fill="white" transform="translate(20 14)"/>
</clipPath>
</defs>
</svg>
