<svg width="206" height="206" viewBox="0 0 206 206" fill="none" xmlns="http://www.w3.org/2000/svg">
<circle cx="103" cy="103" r="103" fill="url(#paint0_radial_257_641)"/>
<path d="M89.86 144.7C89.86 152.74 89.86 159.72 89.86 166.69C89.85 172.34 89.46 172.76 84.01 172.82C80.35 172.86 76.68 172.91 73.02 172.79C69.44 172.68 68.65 171.86 68.55 168.31C68.46 164.99 68.53 161.67 68.53 157.7C63.46 157.44 58.47 157.18 53.33 156.91C51.59 150.57 53.33 144.51 52.06 138C49.01 137.93 45.92 137.83 42.84 137.78C37.32 137.68 36.61 136.98 36.56 131.34C36.52 126.34 36.57 121.35 36.54 116.35C36.52 112.44 37.44 108.27 33.37 105.65C34.51 102.29 37.15 102.82 39.31 102.8C46.47 102.74 53.63 102.93 60.79 102.93C72.94 102.93 85.1 102.88 97.25 102.83C98.06 102.83 98.86 102.64 100.22 102.46C100.34 100.64 100.54 98.89 100.54 97.13C100.57 87.3 100.51 77.48 100.58 67.65C100.59 65.74 101 63.84 101.3 61.28H116.57C116.57 57.47 116.57 54.36 116.57 51.25C116.57 47.09 116.53 42.92 116.55 38.76C116.58 33.97 117.14 33.41 122.1 33.33C125.43 33.28 128.76 33.29 132.09 33.33C137.34 33.39 137.85 33.89 137.86 39.03C137.88 48.02 137.84 57.02 137.86 66.01C137.86 67.79 138.01 69.58 138.11 71.78H148.4C148.5 64.17 148.6 56.79 148.71 48.87C155.88 47.65 162.46 47.66 169.51 48.87V100.19C170.1 101.49 170.19 101.84 170.38 102.09C171.36 103.31 173.43 103.99 172.63 106.1C171.79 108.33 169.63 107.95 167.9 107.99C162.57 108.11 157.24 108.07 151.91 108.07C138.75 108.07 125.59 108.07 112.44 108.09C110.49 108.09 108.54 108.25 106.15 108.35C106.04 110.56 105.87 112.33 105.87 114.11C105.84 122.44 105.89 130.77 105.85 139.09C105.83 143.97 105.21 144.58 100.41 144.66C97.13 144.72 93.86 144.67 89.87 144.67L89.86 144.7ZM122.62 38.87C121.45 44.01 121.57 98.44 122.75 102.53H132.18V38.87H122.62ZM84.5 167.31C84.57 147.55 84.57 128.18 84.5 108.5H74.2V167.31H84.49H84.5ZM164.28 102.54V53.5C160.63 52.91 157.29 52.3 154.24 53.8V102.55H164.28V102.54ZM58.69 108.5C57.35 113.74 57.55 148.2 58.88 151.81H68.15V108.5H58.69ZM106.43 66.58C105.38 73.5 105.64 98.81 106.77 102.5H116.23V66.58H106.44H106.43ZM90.21 138.9H100.18V108.63H90.21V138.9ZM138.22 77.49V102.38H148.28V77.49H138.22ZM42.2 131.89H52.46C52.53 123.82 52.72 116.27 52.36 108.52H42.21V131.89H42.2Z" fill="#81CDDB"/>
<defs>
<radialGradient id="paint0_radial_257_641" cx="0" cy="0" r="1" gradientUnits="userSpaceOnUse" gradientTransform="translate(103 103) rotate(90) scale(103)">
<stop stop-color="#310667"/>
<stop offset="1"/>
</radialGradient>
</defs>
</svg>
