<svg width="206" height="206" viewBox="0 0 206 206" fill="none" xmlns="http://www.w3.org/2000/svg">
<circle cx="103" cy="103" r="103" fill="url(#paint0_radial_257_644)"/>
<path d="M169.151 101.42C169.151 117.774 169.151 134.129 169.151 150.489C169.151 156.456 169.151 162.423 169.151 168.397C169.151 171.669 167.972 174.358 165.314 176.365C162.214 178.704 157.843 178.943 154.577 176.715C151.587 174.677 150.046 171.847 150.12 168.182C150.145 167.138 150.157 166.094 150.108 165.051C150.053 163.841 149.746 163.522 148.518 163.473C147.302 163.424 146.081 163.498 144.865 163.492C141.79 163.473 138.72 163.43 135.644 163.418C135.012 163.418 134.367 163.43 133.741 163.528C132.759 163.676 132.507 164.406 132.403 165.29C132.059 168.188 130.463 170.269 127.848 171.392C122.366 173.744 117.27 169.913 116.693 165.456C116.46 163.651 116.3 163.528 114.526 163.504C114.354 163.504 114.176 163.51 114.004 163.51C111.999 163.51 110.761 164.468 110.29 166.383C109.683 168.882 106.767 171.503 104.127 171.939C99.4734 172.7 95.7102 170.146 94.7157 165.548C94.2921 163.596 94.1632 163.492 92.1987 163.492C91.4436 163.492 90.6885 163.455 89.9396 163.479C89.1538 163.51 88.6934 163.884 88.5338 164.725C88.3619 165.628 88.0979 166.53 87.7602 167.39C85.6361 172.86 77.5265 173.639 74.1194 168.98C73.2845 167.838 72.8977 166.659 72.6767 165.333C72.4189 163.786 72.247 163.584 70.7245 163.467C69.7484 163.393 68.7539 163.479 67.7717 163.485C64.2356 163.498 60.6995 163.485 57.1635 163.516C55.242 163.534 55.0762 163.725 55.0517 165.622C55.0332 166.782 55.0946 167.948 54.9964 169.103C54.4623 175.34 49.2319 179.306 43.185 178.023C39.342 177.206 35.8734 173.664 35.898 168.415C35.9287 162.497 35.898 156.585 35.898 150.667C35.898 113.551 35.898 76.4283 35.9041 39.3119C35.9041 36.8317 35.6217 34.3516 36.2602 31.8714C37.6722 26.3709 44.0137 23.1418 49.1521 25.5605C53.1056 27.4207 54.8675 30.5945 55.0394 34.8181C55.0824 35.8618 55.0271 36.9054 55.0762 37.949C55.1315 39.2935 55.4446 39.6066 56.746 39.6188C60.2207 39.6434 63.7015 39.6495 67.1762 39.6373C68.5759 39.6373 68.7232 39.4838 68.9197 38.0657C69.6686 32.6204 75.9304 28.716 81.48 32.3012C83.0639 33.3202 84.1996 34.8059 84.6048 36.7335C84.7092 37.243 84.8749 37.7403 84.9977 38.2498C85.188 39.0602 85.5625 39.6373 86.514 39.6004C87.5147 39.5636 88.0733 39.1339 88.2084 38.0411C88.589 35.0085 90.2956 32.9949 92.9538 31.6566C95.434 30.4042 99.6146 31.0979 101.555 33.0624C102.985 34.5112 103.986 36.1687 104.151 38.2253C104.237 39.318 104.87 39.582 105.772 39.5943C107.393 39.6127 109.02 39.6311 110.64 39.6311C114.87 39.6311 119.106 39.625 123.336 39.625C124.969 39.625 125.233 39.4654 125.57 37.8447C125.871 36.4081 126.319 35.0821 127.222 33.8789C129.929 30.2569 136.105 29.8763 139.193 33.3141C140.457 34.7261 141.311 36.3406 141.544 38.2437C141.63 38.9251 141.833 39.539 142.655 39.5452C144.626 39.5636 146.596 39.6066 148.561 39.5083C149.954 39.4347 150.071 39.2137 150.114 37.7587C150.145 36.8317 150.163 35.8986 150.114 34.9778C149.961 31.8837 151.102 29.336 153.312 27.2242C155.516 25.1124 160.102 24.0258 163.196 25.4439C167.07 27.2242 168.948 30.1095 169.028 34.2779C169.065 36.2485 169.071 38.2191 169.077 40.1898C169.102 58.5147 169.12 76.8396 169.139 95.1645C169.139 97.2517 169.139 99.339 169.139 101.426L169.151 101.42ZM150.126 63.5732C150.126 59.632 150.132 55.6907 150.126 51.7495C150.126 49.6807 149.979 49.5395 147.978 49.5395C146.474 49.5395 144.963 49.564 143.459 49.5763C141.839 49.5947 141.771 49.6807 141.446 51.2768C141.047 53.2535 140.193 54.9541 138.585 56.2862C134.337 59.7916 128.572 58.0174 126.381 53.9043C125.951 53.1001 125.761 52.1608 125.484 51.2768C124.963 49.5886 124.889 49.5333 123.213 49.5395C119.505 49.5517 115.791 49.5456 112.083 49.5517C109.996 49.5517 107.908 49.5333 105.821 49.5517C104.483 49.5702 104.366 49.7543 104.102 50.976C103.894 51.9214 103.666 52.922 103.2 53.7508C100.044 59.3312 92.8556 59.4355 89.5712 54.4936C88.8407 53.3886 88.4294 52.2345 88.2268 50.9637C88.0733 49.9753 87.4226 49.607 86.5324 49.5517C85.6116 49.4903 85.188 50.0183 85.0038 50.8716C84.8442 51.6022 84.5987 52.3204 84.3654 53.0325C83.1253 56.9063 79.1411 58.4471 75.9856 58.0972C72.29 57.692 69.6809 54.7269 68.9135 51.3627C68.5083 49.5702 68.5697 49.521 66.728 49.5333C63.5971 49.5517 60.4663 49.5702 57.3415 49.5579C55.3954 49.5517 55.1376 49.7666 55.0701 51.7065C55.0639 51.9398 55.0578 52.1731 55.0578 52.4002C55.0517 59.8775 55.0455 67.3548 55.0394 74.8383C55.0394 75.3601 55.0455 75.8819 55.1131 76.3976C55.2174 77.1772 55.6103 77.6683 56.4821 77.6438C58.0475 77.607 59.6129 77.5885 61.1784 77.5701C61.9396 77.564 62.3018 77.1404 62.4983 76.4405C62.8052 75.3417 63.1306 74.2489 63.5296 73.1807C64.4996 70.5778 68.7539 68.202 71.9093 68.951C75.4884 69.7981 77.7107 71.8915 78.4658 75.5136C78.8464 77.3491 79.1534 77.5824 81.0196 77.5885C88.7302 77.607 96.4408 77.6254 104.151 77.6376C104.728 77.6376 105.312 77.6192 105.889 77.5578C106.656 77.478 107.123 77.079 107.325 76.2809C107.565 75.3355 107.865 74.3963 108.24 73.4938C109.652 70.0805 114.004 68.1283 117.504 69.307C120.518 70.3261 122.581 72.1924 123.17 75.4706C123.446 77.0115 124.017 77.5087 125.251 77.6131C126.952 77.7604 127.621 77.2448 127.977 75.5136C128.971 70.6576 133.023 68.466 136.627 68.865C140.046 69.2456 143.226 71.7381 143.865 75.9494C144.049 77.1404 144.319 77.4596 145.51 77.5701C146.314 77.6438 147.13 77.6192 147.941 77.6008C149.985 77.5456 150.139 77.3921 150.139 75.403C150.139 71.4618 150.139 67.5206 150.139 63.5793L150.126 63.5732ZM150.132 139.433C150.132 135.43 150.139 131.434 150.132 127.431C150.132 126.044 149.93 125.706 148.61 125.608C146.652 125.46 144.675 125.442 142.71 125.473C141.593 125.491 140.881 125.945 140.66 127.339C140.193 130.218 138.474 132.25 135.773 133.417C131.814 135.129 125.828 133.03 124.95 127.609C124.656 125.792 124.214 125.491 122.415 125.51C122.01 125.51 121.605 125.565 121.199 125.583C120.383 125.62 119.978 126.05 119.781 126.836C119.542 127.781 119.216 128.708 118.848 129.61C117.234 133.601 111.34 135.756 106.957 132.379C105.348 131.139 104.237 129.617 103.918 127.511C103.636 125.651 102.874 125.221 100.984 125.448C100.812 125.467 100.64 125.516 100.468 125.522C99.455 125.565 98.9087 126.037 98.7306 127.087C98.5833 127.928 98.307 128.788 97.908 129.543C95.0349 135.013 87.84 135.602 84.4145 130.765C83.6655 129.709 83.199 128.407 82.8368 127.149C82.5237 126.074 81.9896 125.577 80.9091 125.54C80.0988 125.516 79.2884 125.393 78.4842 125.393C75.5252 125.381 72.5724 125.399 69.6134 125.405C65.3283 125.411 61.0433 125.417 56.7583 125.43C55.5796 125.43 55.1929 125.792 55.0762 126.946C55.0394 127.351 55.0578 127.756 55.0578 128.162C55.0578 135.584 55.0517 143.006 55.0455 150.422C55.0455 150.943 55.0701 151.465 55.0639 151.987C55.0517 152.926 55.5428 153.362 56.4452 153.405C56.9056 153.424 57.3722 153.454 57.8326 153.454C61.8353 153.454 65.8317 153.454 69.8344 153.448C72.1488 153.448 72.3759 153.325 72.7934 150.986C73.4871 147.107 77.3976 144.774 80.5776 144.804C84.8811 144.847 87.7418 148.015 88.4601 151.392C88.8714 153.344 88.8714 153.405 90.8911 153.467C91.241 153.479 91.5848 153.473 91.9348 153.467C94.1693 153.411 94.3474 153.27 94.771 151.115C95.4708 147.555 98.3009 145.179 101.911 144.829C105.741 144.454 110.125 147.671 110.505 151.784C110.628 153.11 110.935 153.344 112.255 153.43C113.12 153.485 113.998 153.467 114.864 153.417C116.27 153.331 116.442 153.11 116.663 151.649C117.019 149.286 118.24 147.352 120.18 146.094C122.869 144.344 125.804 144.301 128.572 145.971C130.555 147.162 132.065 148.844 132.409 151.269C132.685 153.196 132.839 153.43 134.76 153.442C139.223 153.473 143.686 153.467 148.15 153.436C149.979 153.424 150.132 153.239 150.139 151.422C150.151 147.42 150.139 143.423 150.145 139.421L150.132 139.433ZM55.0271 101.5C55.0271 105.036 55.0271 108.578 55.0271 112.114C55.0271 112.869 55.0639 113.618 55.1069 114.373C55.1499 115.129 55.5551 115.54 56.3286 115.552C56.7951 115.564 57.2556 115.577 57.7221 115.577C64.4505 115.577 71.1788 115.577 77.9072 115.577C78.8341 115.577 79.7611 115.601 80.6881 115.577C82.1062 115.552 82.2413 115.435 82.6403 114.109C82.8552 113.385 83.0025 112.636 83.291 111.949C85.5748 106.479 91.8672 104.913 96.2505 108.977C97.7115 110.334 98.4605 112.071 98.8104 113.999C98.9393 114.699 99.0314 115.343 99.9216 115.546C102.402 116.117 103.439 115.497 103.979 113.041C104.065 112.642 104.145 112.237 104.299 111.869C105.072 109.984 106.294 108.308 108.136 107.559C113.133 105.521 117.798 107.479 119.523 112.685C119.701 113.232 119.714 113.833 119.886 114.38C120.002 114.736 120.248 115.313 120.475 115.331C121.611 115.429 122.789 115.54 123.888 115.331C124.809 115.153 124.852 114.091 124.95 113.311C125.227 111.071 126.503 109.505 128.198 108.167C130.445 106.393 135.718 106.38 137.91 108.664C139.408 110.223 140.599 111.832 140.77 114.048C140.826 114.797 141.077 115.472 141.961 115.491C144.276 115.54 146.596 115.54 148.917 115.534C149.592 115.534 149.991 115.141 150.046 114.459C150.083 113.999 150.102 113.532 150.108 113.072C150.114 106.865 150.12 100.659 150.126 94.4524C150.126 92.7703 150.151 91.0882 150.12 89.4061C150.089 87.8222 149.752 87.4969 148.143 87.4539C147.272 87.4293 146.4 87.4232 145.534 87.4723C144.171 87.546 144.184 87.6319 143.865 88.9518C143.594 90.063 143.281 91.2048 142.735 92.1993C139.727 97.6446 131.863 97.0921 129.272 92.5554C128.652 91.4688 128.296 90.2226 127.897 89.0193C127.43 87.6074 127.283 87.4723 125.632 87.46C124.079 87.4539 123.722 87.6872 123.33 89.0071C123.25 89.2833 123.213 89.5719 123.145 89.8542C122.39 93.1632 120.389 95.3793 117.068 96.0301C113.826 96.6624 110.953 95.717 108.878 93.0097C107.994 91.8556 107.466 90.5111 107.307 89.0132C107.172 87.7179 106.945 87.5828 105.649 87.4846C105.127 87.4416 104.606 87.4539 104.084 87.4539C96.8951 87.4478 89.7002 87.4232 82.5114 87.4478C78.3676 87.46 79.2823 87.1101 78.1097 90.7751C76.4583 95.9503 70.7859 97.2272 66.7587 95.1952C64.3584 93.9858 62.9526 91.8863 62.5351 89.1605C62.2895 87.5337 62.1729 87.4785 60.5338 87.4478C59.3735 87.4293 58.2132 87.4171 57.0591 87.4723C55.2051 87.5583 55.0394 87.767 55.0394 89.6762C55.0394 93.6175 55.0394 97.5648 55.0394 101.506L55.0271 101.5ZM153.368 101.34H153.362C153.362 123.257 153.362 145.173 153.349 167.095C153.349 168.568 153.57 169.937 154.135 171.319C155.062 173.602 156.965 174.585 159.108 174.904C162.275 175.383 165.529 172.645 165.775 169.41C165.953 167.101 165.891 164.768 165.793 162.454C165.768 161.846 165.345 161.14 164.903 160.68C163.982 159.728 162.834 158.998 161.944 158.028C160.243 156.162 159.108 153.964 158.524 151.484C157.831 148.519 157.868 145.51 157.868 142.49C157.898 115.055 157.886 87.6258 157.886 60.1906C157.886 59.0303 157.886 57.8701 157.886 56.7098C157.831 50.8225 159.967 45.9788 164.743 42.4244C165.584 41.7982 165.861 41.0001 165.854 40.0179C165.842 38.2191 165.768 36.4204 165.867 34.6278C165.989 32.3564 164.927 30.662 163.276 29.3913C161.846 28.2924 160.127 27.525 158.236 28.2003C154.89 29.3913 153.355 31.9758 153.362 35.0514C153.38 41.9517 153.368 48.8519 153.374 55.7521C153.374 70.9461 153.374 86.1402 153.374 101.34H153.368ZM51.6629 101.463C51.6629 87.147 51.6629 72.8247 51.6629 58.5085C51.6629 50.6261 51.6629 42.7436 51.6015 34.8611C51.5954 33.842 51.3499 32.7861 50.9999 31.8223C50.1282 29.4342 47.0894 27.6785 44.7443 28.0898C41.6564 28.63 39.4341 30.9444 39.3297 33.7929C39.256 35.7574 39.2806 37.728 39.2192 39.6986C39.1824 40.9571 39.6182 41.8473 40.6557 42.6515C44.8118 45.8376 47.0096 50.0613 47.0034 55.3531C47.0034 57.2685 47.0157 59.1777 47.0157 61.093C47.0157 89.7315 47.0034 118.364 47.0403 147.002C47.0464 152.687 44.8916 157.193 40.3426 160.612C39.8147 161.011 39.3358 161.828 39.3051 162.472C39.1885 164.787 39.1701 167.114 39.3174 169.422C39.4709 171.847 41.5643 174.155 43.891 174.775C46.1071 175.364 48.8267 174.29 50.3062 172.276C51.313 170.914 51.6875 169.422 51.6814 167.721C51.6507 145.633 51.6629 123.551 51.6629 101.463ZM165.597 46.6357C165.406 46.5989 165.216 46.5682 165.026 46.5313C164.455 47.2373 163.822 47.9065 163.325 48.6616C161.582 51.2952 161.342 54.2665 161.342 57.3237C161.361 86.6681 161.348 116.019 161.361 145.363C161.361 146.812 161.25 148.31 161.582 149.691C161.975 151.349 162.705 152.939 163.442 154.486C163.81 155.259 164.301 156.143 165.419 156.149C165.578 155.327 165.873 154.504 165.873 153.681C165.885 131.587 165.861 109.487 165.854 87.3864C165.854 74.5681 165.885 61.7499 165.879 48.9317C165.879 48.1582 165.695 47.3847 165.597 46.6112V46.6357ZM40.14 46.6234C39.962 46.6357 39.784 46.648 39.5998 46.6603C39.5077 47.3663 39.3297 48.0722 39.3297 48.7844C39.3174 79.6267 39.3297 110.463 39.3236 141.305C39.3236 143.104 39.2499 144.896 39.2499 146.695C39.2499 149.36 39.2683 152.03 39.3236 154.694C39.3358 155.21 39.5446 155.726 39.7533 156.61C40.5391 155.763 41.0916 155.265 41.5275 154.676C43.0561 152.601 43.6761 150.213 43.7375 147.671C43.7805 145.817 43.7682 143.963 43.7682 142.109C43.7682 115.847 43.7682 89.5903 43.7682 63.3276C43.7682 60.3134 43.7927 57.2991 43.6761 54.2849C43.5595 51.2584 42.0554 48.8273 40.1462 46.6234H40.14ZM107.098 120.402C107.135 120.402 107.178 120.402 107.215 120.402C107.215 122.483 107.178 124.564 107.239 126.645C107.258 127.247 107.448 127.916 107.761 128.426C108.811 130.138 110.751 130.918 112.697 130.531C114.649 130.138 116.11 128.69 116.374 126.651C116.558 125.227 116.577 123.772 116.583 122.33C116.595 119.788 116.644 117.234 116.485 114.699C116.313 112.01 114.14 110.064 111.708 110.18C108.983 110.309 107.166 112.194 107.104 115.024C107.061 116.817 107.098 118.609 107.098 120.402ZM91.4375 44.5055C91.4375 44.5055 91.4805 44.5055 91.505 44.5055C91.505 46.5866 91.3638 48.6861 91.5419 50.755C91.7751 53.5114 94.8569 55.3347 97.4476 54.42C99.7988 53.5851 100.916 52.0135 100.935 49.4105C100.959 46.2244 100.984 43.0383 100.904 39.8521C100.879 38.8944 100.628 37.8999 100.284 36.9975C99.3445 34.5296 96.4039 33.5228 94.0711 34.769C92.3215 35.7022 91.4436 37.1448 91.4375 39.1154C91.4375 40.908 91.4375 42.7068 91.4375 44.4993V44.5055ZM120.051 82.4445C120.002 82.4445 119.953 82.4445 119.91 82.4445C119.91 80.4186 120.033 78.3866 119.873 76.3792C119.738 74.6909 118.94 73.2851 117.141 72.7449C113.446 71.6337 110.524 73.8315 110.511 77.742C110.511 79.0128 110.511 80.2897 110.511 81.5605C110.511 83.7582 110.45 85.9621 110.542 88.1537C110.653 90.7198 112.789 92.7825 115.251 92.8071C117.909 92.8317 119.781 91.2294 119.953 88.5098C119.99 87.9327 120.039 87.3557 120.039 86.7786C120.051 85.3298 120.039 83.8871 120.039 82.4383L120.051 82.4445ZM75.8874 158.163C75.8506 158.163 75.8199 158.163 75.7831 158.163C75.7831 159.784 75.7585 161.404 75.7953 163.031C75.8138 163.78 75.8629 164.541 76.0286 165.266C76.6425 167.991 80.2522 169.784 82.7815 168.114C84.6171 166.899 85.2555 165.247 85.2985 163.271C85.3722 159.796 85.3783 156.315 85.3169 152.84C85.2739 150.434 82.8552 148.052 80.6022 148.113C78.7482 148.162 75.7769 149.943 75.8813 152.779C75.9427 154.572 75.8936 156.37 75.8936 158.169L75.8874 158.163ZM75.2305 82.6225H75.1078C75.1078 80.48 75.1876 78.3375 75.0832 76.2011C74.985 74.2244 73.6897 73.15 71.9278 72.4686C70.2457 71.8179 68.8644 72.3458 67.6059 73.3895C65.9791 74.74 65.7519 76.6247 65.7458 78.5769C65.7397 81.1798 65.709 83.7889 65.7151 86.3919C65.7151 87.0856 65.6537 87.8345 65.887 88.4546C66.2738 89.5166 66.6789 90.6769 67.4279 91.4749C68.8399 92.979 70.7859 93.157 72.5785 92.359C74.3343 91.5793 75.2183 89.9832 75.2367 88.0064C75.249 86.2077 75.2367 84.4151 75.2367 82.6164L75.2305 82.6225ZM138.211 44.5485C138.211 44.5485 138.247 44.5485 138.266 44.5485C138.266 43.0996 138.309 41.6508 138.247 40.2082C138.21 39.2935 138.112 38.3542 137.861 37.4763C137.326 35.5978 135.276 34.149 133.416 34.2165C131.175 34.2963 129.426 35.7267 128.99 37.8999C128.867 38.52 128.824 39.1646 128.818 39.7969C128.806 42.983 128.787 46.1691 128.842 49.3553C128.855 50.27 128.977 51.2215 129.266 52.081C130.003 54.2297 133.127 55.3961 135.178 54.4507C137.277 53.4807 138.143 51.7863 138.198 49.5947C138.241 47.9188 138.204 46.2367 138.204 44.5546L138.211 44.5485ZM129.229 158.408C129.229 158.408 129.254 158.408 129.26 158.408C129.26 156.61 129.192 154.811 129.278 153.018C129.395 150.526 127.166 148.291 124.588 148.144C122.482 148.021 119.879 150.09 119.861 152.748C119.843 155.646 119.8 158.543 119.794 161.435C119.794 162.479 119.726 163.541 119.916 164.554C120.549 167.869 124.109 170.3 127.375 167.721C128.505 166.831 129.205 165.634 129.217 164.142C129.235 162.233 129.217 160.318 129.217 158.408H129.229ZM107.295 158.359C107.295 158.359 107.264 158.359 107.252 158.359C107.252 156.505 107.295 154.651 107.239 152.804C107.184 150.882 105.711 148.985 103.887 148.371C101.07 147.42 97.908 149.673 97.8405 152.822C97.7607 156.585 97.8036 160.348 97.8712 164.112C97.908 166.395 99.7436 168.44 101.862 168.74C103.955 169.035 106.153 167.721 106.926 165.603C107.178 164.916 107.264 164.136 107.282 163.399C107.331 161.723 107.301 160.041 107.301 158.359H107.295ZM95.5261 120.506C95.5261 120.506 95.5629 120.506 95.5813 120.506C95.5813 118.941 95.6427 117.369 95.5568 115.81C95.5077 114.901 95.3296 113.968 95.0104 113.115C94.2123 110.997 92.2171 109.867 90.0501 110.18C87.9874 110.481 86.4342 112.12 86.1948 114.294C86.1273 114.926 86.1334 115.571 86.1334 116.203C86.1334 119.506 86.1088 122.815 86.1764 126.117C86.2255 128.303 87.3428 129.795 89.1538 130.347C92.3706 131.329 95.2437 129.365 95.4954 125.89C95.6243 124.104 95.5199 122.299 95.5199 120.5L95.5261 120.506ZM128.1 120.469C128.1 120.469 128.124 120.469 128.143 120.469C128.143 122.434 128.112 124.405 128.155 126.369C128.192 127.928 128.953 129.199 130.254 129.954C133.477 131.82 137.4 129.617 137.498 125.872C137.597 122.231 137.572 118.585 137.498 114.938C137.443 112.12 135.356 110.168 132.593 110.168C130.082 110.168 128.179 112.157 128.106 114.92C128.057 116.768 128.1 118.622 128.1 120.476V120.469ZM81.5721 44.659C81.5721 44.659 81.6028 44.659 81.6212 44.659C81.6212 43.382 81.6397 42.1051 81.6212 40.8344C81.6028 39.9074 81.6458 38.962 81.48 38.0595C80.9153 34.9593 77.858 33.5228 75.028 34.8427C72.91 35.8311 72.3084 37.6421 72.2347 39.6618C72.1181 42.9585 72.1672 46.2674 72.2347 49.5702C72.2531 50.4173 72.511 51.2891 72.8118 52.0933C73.4687 53.8429 75.9488 55.2917 77.5756 54.8374C79.8716 54.2051 81.5353 52.701 81.5721 50.2209C81.5967 48.3669 81.5721 46.5129 81.5721 44.659ZM131.261 82.4875C131.261 82.4875 131.237 82.4875 131.224 82.4875C131.224 84.4581 131.194 86.4287 131.23 88.3993C131.267 90.2963 132.372 91.567 133.968 92.3221C135.528 93.0588 137.118 92.9606 138.573 91.874C140.04 90.7751 140.648 89.2649 140.685 87.503C140.721 85.649 140.685 83.7889 140.678 81.9349C140.666 80.1976 140.82 78.4296 140.574 76.7229C140.163 73.856 138.112 72.1617 135.859 72.1862C133.434 72.2108 131.065 74.4085 131.237 77.0974C131.353 78.89 131.261 80.6887 131.261 82.4875ZM93.0398 80.9097C88.81 80.9097 84.5802 80.8913 80.3505 80.922C79.1718 80.9282 78.8157 81.3026 78.7789 82.2971C78.7298 83.5495 79.1288 84.0468 80.2952 84.145C80.639 84.1757 80.9889 84.1573 81.3388 84.1573C88.9328 84.1573 96.5206 84.1573 104.115 84.1573C104.753 84.1573 105.385 84.1204 106.024 84.059C106.674 83.9976 107.055 83.6293 107.221 82.9847C107.583 81.6096 107.086 80.922 105.563 80.9097C101.389 80.879 97.2204 80.8975 93.0459 80.8975L93.0398 80.9097ZM68.8644 122.041C68.8644 122.041 68.8644 122.004 68.8644 121.992C69.9633 121.992 71.0622 121.992 72.1672 121.992C75.0648 121.992 77.9563 122.01 80.8477 121.98C82.3272 121.961 82.9288 121.188 82.5728 119.911C82.3149 118.99 81.6642 118.886 80.8293 118.886C73.0144 118.886 65.1994 118.861 57.3845 118.843C57.0959 118.843 56.8013 118.855 56.5189 118.898C55.4016 119.076 54.9289 119.727 55.0946 120.838C55.2358 121.795 55.684 122.041 57.2249 122.041C61.1047 122.041 64.9784 122.041 68.8583 122.041H68.8644ZM114.815 46.0648C114.815 46.0648 114.815 46.0341 114.815 46.0218C116.835 46.0218 118.86 46.0218 120.88 46.0218C121.862 46.0218 122.857 46.1262 123.821 46.0034C124.306 45.942 125.012 45.5614 125.134 45.1746C125.3 44.659 125.159 43.8609 124.827 43.4373C124.551 43.0812 123.815 42.9585 123.28 42.9523C118.658 42.9278 114.035 42.94 109.412 42.9707C108.142 42.9769 106.871 43.0321 105.606 43.1365C104.391 43.2347 103.814 44.2906 104.336 45.3588C104.716 46.1507 105.471 46.0586 106.147 46.0648C109.038 46.0832 111.923 46.0709 114.815 46.0709V46.0648ZM141.335 160.097C143.423 160.097 145.51 160.103 147.597 160.097C148.057 160.097 148.524 160.066 148.978 159.98C149.887 159.802 150.157 159.157 150.132 158.304C150.108 157.481 149.715 157.003 148.886 156.911C148.254 156.843 147.615 156.757 146.983 156.751C142.987 156.732 138.984 156.72 134.988 156.757C134.374 156.757 133.686 156.88 133.17 157.181C132.133 157.782 132.268 159.391 133.379 159.851C133.895 160.06 134.509 160.078 135.08 160.084C137.167 160.109 139.254 160.097 141.341 160.097H141.335ZM63.5235 160.078C63.5235 160.078 63.5235 160.078 63.5235 160.084C64.2172 160.084 64.9109 160.084 65.6046 160.084C67.3358 160.084 69.0731 160.121 70.8043 160.048C71.8111 160.005 72.425 159.262 72.4005 158.353C72.382 157.506 71.8173 156.898 70.878 156.757C70.5404 156.708 70.1843 156.726 69.8405 156.726C66.0282 156.726 62.2097 156.708 58.3974 156.726C57.6485 156.726 56.8995 156.806 56.1567 156.886C55.4753 156.96 55.1806 157.414 55.0885 158.052C54.9043 159.335 55.4446 160.041 56.7706 160.066C59.0236 160.103 61.2766 160.078 63.5358 160.078H63.5235ZM61.9765 42.9462C61.9765 42.9462 61.9765 42.94 61.9765 42.9339C60.19 42.9339 58.3974 42.8848 56.611 42.9523C55.4875 42.9953 55.0455 43.5601 55.0762 44.6098C55.1008 45.5859 55.4384 45.9604 56.6539 45.9788C60.1716 46.0341 63.6892 46.0095 67.2069 46.0218C67.3235 46.0218 67.4402 46.0157 67.5507 45.9911C68.4654 45.8315 68.8337 45.3527 68.7662 44.4318C68.6987 43.4619 68.2444 43.0137 66.992 42.9585C65.3222 42.8909 63.6463 42.94 61.9703 42.94L61.9765 42.9462ZM145.418 121.955C145.418 121.955 145.418 121.949 145.418 121.943C146.517 121.943 147.609 121.949 148.708 121.943C149.574 121.937 150.145 121.611 150.139 120.623C150.139 119.592 149.807 118.978 148.825 118.941C146.584 118.849 144.331 118.861 142.09 118.953C141.157 118.996 140.801 119.677 140.807 120.678C140.813 121.71 141.501 121.924 142.305 121.949C143.343 121.986 144.38 121.955 145.418 121.955ZM145.682 45.9911C145.682 45.9911 145.682 46.0095 145.682 46.0218C146.664 46.0218 147.64 46.0341 148.622 46.0218C149.463 46.0034 150.071 45.6964 150.12 44.7265C150.169 43.7565 149.776 43.0567 148.831 43.0137C146.817 42.9216 144.798 42.9339 142.784 43.0014C141.796 43.0383 141.685 43.8793 141.679 44.6651C141.667 45.4816 142.054 45.985 142.913 45.9973C143.834 46.0095 144.761 45.9973 145.682 45.9973V45.9911ZM58.6614 84.1143C58.6614 84.1143 58.6614 84.1204 58.6614 84.1266C59.2937 84.1266 59.9322 84.1266 60.5645 84.1266C60.7364 84.1266 60.9083 84.102 61.0802 84.0713C62.1299 83.8749 62.5597 83.3224 62.4921 82.2664C62.4246 81.2597 62.087 80.9404 60.9021 80.9159C59.4595 80.8852 58.0107 80.8852 56.568 80.9159C55.3954 80.9404 55.0639 81.2658 55.021 82.291C54.978 83.396 55.3832 83.9915 56.4022 84.102C57.1451 84.1818 57.9002 84.1204 58.6491 84.1204L58.6614 84.1143ZM147.087 80.9466C146.51 80.9466 145.933 80.9036 145.362 80.9588C144.251 81.0632 143.871 81.4684 143.865 82.4383C143.865 83.3776 144.294 83.9915 145.27 84.0775C146.412 84.1757 147.572 84.1695 148.714 84.0713C149.795 83.9792 150.114 83.4267 150.083 82.2849C150.059 81.3088 149.488 80.9895 148.635 80.9588C148.119 80.9404 147.597 80.9588 147.081 80.9588L147.087 80.9466ZM113.679 160.127C114.09 160.103 114.68 160.133 115.238 160.029C116.067 159.876 116.54 159.348 116.558 158.464C116.577 157.555 116.086 156.978 115.269 156.892C114.133 156.775 112.973 156.782 111.831 156.874C110.984 156.941 110.517 157.512 110.536 158.415C110.548 159.397 110.923 159.857 111.966 160.023C112.476 160.103 112.998 160.084 113.679 160.121V160.127ZM91.2226 160.109C91.9593 160.109 92.3706 160.14 92.7697 160.103C93.9054 159.992 94.4395 159.489 94.4763 158.525C94.5193 157.494 93.9483 156.849 92.7635 156.775C91.8427 156.72 90.9034 156.732 89.9887 156.837C88.9021 156.966 88.5399 157.432 88.546 158.427C88.5522 159.409 88.9451 159.876 89.9948 160.041C90.5044 160.121 91.0323 160.103 91.2226 160.109ZM101.205 118.867C101.205 118.867 101.205 118.91 101.205 118.935C100.861 118.935 100.517 118.959 100.173 118.935C99.2586 118.849 98.9639 119.383 98.8718 120.162C98.7245 121.384 99.0621 121.832 100.308 121.961C100.935 122.029 101.573 122.084 102.193 122.041C103.095 121.973 103.666 121.335 103.709 120.476C103.746 119.677 103.12 118.984 102.236 118.886C101.898 118.849 101.548 118.879 101.205 118.879V118.867ZM122.28 121.943C122.28 121.943 122.28 121.967 122.28 121.98C122.452 121.986 122.63 122.004 122.802 122.004C124.115 122.004 124.637 121.581 124.662 120.5C124.686 119.432 124.164 118.91 122.894 118.849C122.317 118.818 121.727 118.849 121.163 118.947C120.205 119.125 119.855 119.684 119.879 120.684C119.904 121.593 120.463 121.875 121.236 121.937C121.58 121.961 121.93 121.937 122.28 121.937V121.943ZM125.423 80.6826C124.803 81.008 123.986 81.1921 123.63 81.7017C123.36 82.0884 123.526 82.9663 123.784 83.4881C124.263 84.4642 125.288 84.1757 126.123 84.145C127.326 84.102 127.762 83.5741 127.774 82.3831C127.786 81.2535 127.271 80.9159 125.423 80.6887V80.6826Z" fill="#81CDDB"/>
<defs>
<radialGradient id="paint0_radial_257_644" cx="0" cy="0" r="1" gradientUnits="userSpaceOnUse" gradientTransform="translate(103 103) rotate(90) scale(103)">
<stop stop-color="#310667"/>
<stop offset="1"/>
</radialGradient>
</defs>
</svg>
