<svg width="206" height="206" viewBox="0 0 206 206" fill="none" xmlns="http://www.w3.org/2000/svg">
<circle cx="103" cy="103" r="103" fill="url(#paint0_radial_257_645)"/>
<path d="M48.3784 141.339C48.3388 139.782 48.208 138.351 48.2833 136.933C48.4101 134.567 49.5475 132.776 51.6993 131.71C52.1828 131.468 52.3809 131.19 52.3809 130.624C52.3611 120.336 52.3651 110.049 52.3611 99.7609C52.3611 97.9142 52.3532 96.0675 52.373 94.2208C52.3769 93.8047 52.262 93.5868 51.8578 93.3846C49.4682 92.2156 48.2833 90.254 48.2595 87.6147C48.2476 86.3387 48.3388 85.0626 48.3863 83.6954C48.2516 83.6954 47.998 83.6954 47.7483 83.6954C45.2279 83.6954 42.7036 83.6637 40.1832 83.7034C37.96 83.739 35.9073 81.821 35.9707 79.5067C36.042 76.8357 35.9707 74.1568 35.9984 71.4819C36.0222 69.3697 36.9535 67.7171 38.7526 66.6155C41.9308 64.6737 45.1328 62.7675 48.3388 60.8653C51.3743 59.0622 54.4218 57.2789 57.4613 55.4877C60.7822 53.5301 64.0991 51.5685 67.416 49.6029C69.8889 48.1366 72.3617 46.6624 74.8306 45.1882C77.5253 43.5833 80.2121 41.9664 82.9069 40.3654C85.3242 38.9269 87.7535 37.5082 90.1748 36.0736C93.0439 34.3736 95.9408 32.7171 98.7703 30.9496C100.324 29.9787 101.941 29.7766 103.629 30.2324C104.485 30.4662 105.273 30.9932 106.062 31.445C107.897 32.5031 109.716 33.5968 111.539 34.6827C113.599 35.9151 115.652 37.1595 117.713 38.388C119.032 39.1766 120.364 39.9454 121.688 40.734C123.788 41.9823 125.876 43.2504 127.977 44.4947C129.526 45.4102 131.095 46.2899 132.645 47.2093C134.769 48.4695 136.877 49.7495 138.997 51.0137C141.062 52.2461 143.131 53.4786 145.199 54.707C147.938 56.3318 150.68 57.9526 153.418 59.5774C156.212 61.2339 159.01 62.8904 161.804 64.5508C163.032 65.28 164.292 65.9576 165.469 66.7581C167.047 67.8321 167.946 69.3697 167.982 71.2956C168.029 74.1013 167.982 76.9031 167.998 79.7088C168.013 81.825 166.088 83.7271 163.793 83.7034C161.253 83.6756 158.709 83.6954 156.168 83.6915C155.915 83.6915 155.661 83.6915 155.511 83.6915C155.554 85.0587 155.598 86.3347 155.63 87.6107C155.693 90.1272 154.27 92.4019 151.972 93.4124C151.591 93.5788 151.516 93.7968 151.516 94.1534C151.524 96.3925 151.516 98.6275 151.516 100.867C151.516 110.762 151.524 120.657 151.5 130.556C151.5 131.179 151.726 131.452 152.249 131.725C154.456 132.887 155.594 134.749 155.626 137.238C155.641 138.573 155.55 139.913 155.503 141.308C155.606 141.312 155.792 141.331 155.978 141.331C158.59 141.331 161.197 141.379 163.809 141.319C166.155 141.264 168.053 143.301 168.013 145.512C167.942 149.622 167.942 153.735 168.013 157.845C168.049 160.08 166.115 162.041 163.801 162.033C153.339 161.99 142.877 162.014 132.415 162.014C117.015 162.014 101.62 162.014 86.2198 162.014C70.8677 162.014 55.5116 161.998 40.1594 162.033C37.7936 162.037 35.935 159.945 35.9707 157.876C36.046 153.767 36.0499 149.653 35.9707 145.544C35.9271 143.253 37.9045 141.26 40.207 141.323C42.7511 141.395 45.2953 141.339 47.8395 141.339H48.3824H48.3784ZM40.1634 79.4195H163.753C163.777 79.2451 163.797 79.1579 163.797 79.0747C163.797 76.5742 163.797 74.0736 163.801 71.573C163.801 71.0024 163.488 70.5902 163.1 70.2415C162.866 70.0315 162.557 69.9007 162.279 69.7382C160.484 68.6841 158.681 67.6418 156.89 66.5798C153.85 64.7767 150.823 62.9538 147.783 61.1507C146.051 60.1203 144.304 59.1177 142.572 58.0834C140.341 56.7519 138.126 55.4005 135.894 54.069C133.33 52.5394 130.755 51.0255 128.187 49.5078C125.448 47.8869 122.714 46.2661 119.98 44.6453C118.022 43.4882 116.06 42.335 114.107 41.1699C112.062 39.9493 110.025 38.7169 107.976 37.5003C106.486 36.6126 104.948 35.7962 103.51 34.8372C102.448 34.1279 101.56 34.1041 100.478 34.8095C98.4968 36.0934 96.4401 37.2585 94.4111 38.4632C91.3755 40.2664 88.3281 42.0536 85.2925 43.8527C82.2015 45.6876 79.1184 47.5343 76.0273 49.3651C73.6853 50.7561 71.3274 52.1233 68.9853 53.5142C66.2153 55.1588 63.4571 56.8232 60.6871 58.4757C59.2922 59.3079 57.8814 60.1124 56.4864 60.9446C53.9027 62.4901 51.3268 64.0515 48.743 65.593C46.2305 67.091 43.7141 68.585 41.1818 70.0513C40.4329 70.4832 40.1356 71.1173 40.1356 71.9297C40.1277 74.2361 40.1317 76.5385 40.1356 78.8449C40.1356 79.0351 40.1555 79.2293 40.1634 79.4274V79.4195ZM40.1634 145.528C40.1277 145.726 40.1079 145.79 40.1079 145.853C40.1158 149.701 40.1277 153.549 40.1277 157.401C40.1277 157.813 40.2823 157.896 40.6706 157.892C44.5186 157.864 48.3665 157.857 52.2184 157.853C67.3724 157.845 82.5265 157.841 97.6844 157.833C103.859 157.833 110.033 157.833 116.207 157.833C123.229 157.833 130.251 157.833 137.27 157.833C145.794 157.833 154.318 157.825 162.842 157.821C163.139 157.821 163.436 157.821 163.753 157.821V145.528H40.1594H40.1634ZM87.7733 141.288C87.6782 140.614 87.5553 140.043 87.5236 139.465C87.48 138.684 87.4642 137.896 87.5117 137.119C87.6504 134.65 88.7799 132.791 91.0189 131.678C91.4667 131.456 91.6212 131.19 91.6212 130.679C91.6014 122.262 91.6094 113.849 91.6094 105.432C91.6094 101.691 91.6054 97.9499 91.6173 94.2089C91.6173 93.8007 91.542 93.563 91.114 93.3767C90.155 92.9527 89.3545 92.3028 88.7283 91.4389C87.8644 90.25 87.4919 88.9185 87.5038 87.4681C87.5157 86.2237 87.3968 84.9715 87.8327 83.739H77.0696C77.1053 85.1894 77.2122 86.6002 77.1647 88.0031C77.0775 90.4482 75.8728 92.2513 73.6972 93.3292C73.178 93.5868 73.071 93.8483 73.071 94.3476C73.079 104.675 73.079 115.002 73.079 125.333C73.079 127.117 73.1067 128.9 73.0631 130.683C73.0512 131.214 73.2533 131.48 73.6932 131.67C73.9508 131.781 74.2163 131.892 74.4422 132.054C76.2889 133.374 77.2202 135.173 77.1924 137.444C77.1766 138.716 77.1013 139.988 77.0537 141.288H87.7733ZM126.843 141.308C126.8 139.94 126.716 138.621 126.724 137.305C126.744 134.737 127.878 132.823 130.208 131.678C130.675 131.448 130.889 131.167 130.885 130.592C130.858 124.529 130.869 118.462 130.869 112.395C130.869 106.395 130.862 100.391 130.873 94.3912C130.873 93.8919 130.782 93.6105 130.259 93.3569C128.397 92.4573 127.172 91.0069 126.843 88.9066C126.76 88.3716 126.716 87.8287 126.724 87.2898C126.744 86.1088 126.808 84.9318 126.851 83.743H116.342C116.377 85.0824 116.441 86.3783 116.441 87.6741C116.441 90.2619 115.244 92.1601 112.965 93.3252C112.446 93.5907 112.351 93.8641 112.355 94.3595C112.367 98.251 112.363 102.143 112.363 106.034C112.363 114.233 112.363 122.429 112.355 130.628C112.355 131.099 112.434 131.412 112.918 131.654C115.204 132.783 116.401 134.65 116.437 137.206C116.457 138.561 116.373 139.921 116.334 141.304H126.839L126.843 141.308ZM95.8615 94.0147V131.008H108.15V94.0147H95.8615ZM135.054 94.0068V131.02H147.296V94.0068H135.054ZM68.8149 131.028V94.0385H56.6133V131.028H68.8149ZM102.008 135.233C99.2934 135.229 96.5748 135.248 93.8603 135.221C92.3583 135.205 91.7045 136.398 91.6807 137.388C91.6688 137.888 91.6965 138.387 91.6728 138.886C91.6133 140.111 92.3821 141.415 94.1099 141.351C96.0636 141.284 98.0173 141.335 99.971 141.335C103.272 141.335 106.577 141.288 109.874 141.355C111.23 141.383 112.41 140.388 112.256 138.926C112.192 138.347 112.268 137.753 112.236 137.166C112.22 136.897 112.145 136.612 112.03 136.366C111.65 135.546 110.972 135.221 110.088 135.225C107.393 135.233 104.699 135.225 102.008 135.225V135.233ZM141.137 135.229C140.769 135.229 140.4 135.229 140.032 135.229C137.642 135.233 135.252 135.217 132.863 135.252C131.694 135.268 130.98 136.013 130.937 137.186C130.909 137.904 130.937 138.621 130.933 139.338C130.933 140.131 131.274 140.745 131.987 141.066C132.383 141.244 132.859 141.331 133.299 141.331C137.733 141.351 142.164 141.343 146.598 141.339C147.51 141.339 148.425 141.316 149.336 141.339C150.438 141.371 151.465 140.368 151.413 139.362C151.373 138.581 151.425 137.797 151.381 137.02C151.365 136.734 151.231 136.441 151.092 136.18C150.664 135.395 149.931 135.221 149.103 135.221C146.451 135.229 143.8 135.221 141.149 135.225L141.137 135.229ZM62.7438 135.233C62.5259 135.233 62.3079 135.233 62.0939 135.233C59.6369 135.233 57.1839 135.268 54.7269 135.217C53.3082 135.185 52.373 136.219 52.48 137.472C52.5315 138.098 52.4483 138.736 52.5038 139.358C52.5355 139.73 52.6623 140.123 52.8565 140.444C53.2567 141.117 53.9145 141.335 54.6833 141.335C58.5075 141.327 62.3317 141.335 66.1558 141.335C67.7212 141.335 69.2865 141.347 70.8479 141.335C72.1636 141.319 72.9363 140.527 72.9522 139.207C72.9601 138.601 72.9641 137.991 72.9522 137.38C72.9244 135.982 72.219 135.248 70.8241 135.236C68.1294 135.217 65.4386 135.233 62.7438 135.233ZM101.996 83.7034C99.2577 83.7034 96.5193 83.6954 93.777 83.7034C92.7863 83.7034 92.1483 84.1155 91.859 85.0507C91.5222 86.1484 91.5578 87.2858 91.8471 88.3875C92.077 89.2593 92.7308 89.6992 93.6344 89.719C94.4388 89.7388 95.2393 89.7467 96.0438 89.7507C100.106 89.7586 104.172 89.7626 108.234 89.7626C108.951 89.7626 109.668 89.7547 110.381 89.719C111.4 89.6675 112.062 89.073 112.196 88.1576C112.331 87.266 112.236 86.3426 112.228 85.4351C112.228 85.2885 112.173 85.1379 112.113 84.9992C111.749 84.1274 111.099 83.6954 110.14 83.6994C107.421 83.7113 104.707 83.6994 101.988 83.6994L101.996 83.7034ZM141.177 83.7034C140.135 83.7034 139.088 83.6994 138.046 83.7034C136.33 83.7034 134.614 83.6915 132.898 83.7113C131.817 83.7232 131.012 84.4206 130.953 85.4193C130.901 86.2871 130.909 87.159 130.953 88.0268C130.996 88.8353 131.567 89.4931 132.316 89.6635C132.629 89.7348 132.962 89.7309 133.287 89.7348C136.481 89.7467 139.679 89.7586 142.873 89.7586C145.001 89.7586 147.133 89.7507 149.261 89.7348C150.644 89.7269 151.342 89.0532 151.401 87.6662C151.429 87.0599 151.429 86.4496 151.409 85.8393C151.365 84.4167 150.624 83.7073 149.194 83.7034C146.519 83.6994 143.848 83.7034 141.173 83.7034H141.177ZM62.7834 83.7034C60.0451 83.7073 57.3068 83.7034 54.5684 83.7113C53.2924 83.7152 52.5275 84.4484 52.4919 85.7086C52.4721 86.4457 52.4641 87.1867 52.5077 87.9238C52.5275 88.2329 52.6385 88.5579 52.793 88.8313C53.1854 89.5327 53.8511 89.7348 54.616 89.7348C57.2909 89.7309 59.9619 89.7348 62.6368 89.7348C65.3752 89.7348 68.1135 89.7428 70.8518 89.7348C72.2032 89.7309 72.9284 89.0215 72.9601 87.7059C72.9759 87.1392 72.9641 86.5764 72.9641 86.0097C72.9641 84.4167 72.2626 83.7073 70.6775 83.7034C68.0461 83.7034 65.4188 83.7034 62.7874 83.7034H62.7834Z" fill="#81CDDB"/>
<path d="M113.381 59.3796C113.595 65.5974 109.026 70.9631 102.551 71.288C96.1743 71.609 90.9592 66.8575 90.6144 60.5051C90.2697 54.1407 95.1321 49.0643 101.001 48.5927C107.797 48.0458 113.024 53.2253 113.381 59.3836V59.3796ZM109.141 59.9106C109.192 55.9398 105.824 52.6744 101.857 52.7577C97.9814 52.8409 94.7992 55.9517 94.8072 59.9027C94.8151 63.9092 97.9299 67.0834 102.012 67.0914C106.006 67.0993 109.204 63.7863 109.145 59.9106H109.141Z" fill="#81CDDB"/>
<defs>
<radialGradient id="paint0_radial_257_645" cx="0" cy="0" r="1" gradientUnits="userSpaceOnUse" gradientTransform="translate(103 103) rotate(90) scale(103)">
<stop stop-color="#310667"/>
<stop offset="1"/>
</radialGradient>
</defs>
</svg>
