<svg width="206" height="206" viewBox="0 0 206 206" fill="none" xmlns="http://www.w3.org/2000/svg">
<circle cx="103" cy="103" r="103" fill="url(#paint0_radial_255_634)"/>
<path d="M103.198 177.69C93.4369 177.69 83.6761 177.604 73.9152 177.747C71.3631 177.785 69.7442 177.014 68.8015 174.643C68.4396 173.719 67.7159 172.948 67.3254 172.024C66.716 170.586 65.8018 170.034 64.1734 170.024C61.1261 170.005 60.2691 168.51 61.6213 165.777C64.2972 160.387 67.0302 155.026 69.7538 149.655C74.858 139.57 79.9431 129.486 85.0759 119.41C86.0091 117.582 86.4758 115.725 86.4377 113.649C86.3424 108.726 86.3329 103.793 86.4377 98.8698C86.4758 97.0224 85.9806 95.5463 84.8569 94.1084C83.2285 92.0324 81.762 89.8231 80.2098 87.6805C79.486 86.6806 78.9242 85.6141 79.4956 84.3856C80.1336 83.0144 81.4477 82.881 82.7619 82.881C96.17 82.881 109.588 82.862 122.996 82.9191C123.929 82.9191 125.005 83.2715 125.748 83.8238C126.748 84.557 126.662 85.9093 125.643 87.2425C124.034 89.3375 122.377 91.4039 120.663 93.4132C119.72 94.5179 119.291 95.6797 119.31 97.1462C119.358 103.079 119.272 109.002 119.367 114.935C119.386 116.154 119.71 117.477 120.282 118.553C128.29 133.704 136.356 148.826 144.412 163.958C144.879 164.844 145.393 165.72 145.765 166.643C146.441 168.358 145.622 170.005 143.803 169.957C141.232 169.9 140.156 171.357 138.994 173.243C135.994 178.137 137.327 177.728 131.128 177.718C121.824 177.718 112.521 177.718 103.207 177.718V177.69H103.198ZM67.4683 165.196H139.356C138.937 164.339 138.689 163.768 138.394 163.215C130.776 148.912 123.158 134.599 115.501 120.306C114.654 118.725 114.244 117.154 114.273 115.363C114.349 110.354 114.301 105.336 114.292 100.327C114.292 99.5269 114.206 98.7269 114.149 97.7937H91.58C91.5228 98.8698 91.4466 99.7554 91.4466 100.641C91.4276 105.383 91.399 110.116 91.4466 114.859C91.4657 116.63 91.1514 118.249 90.342 119.848C85.133 130.076 79.9907 140.332 74.8199 150.578C72.4106 155.359 70.0109 160.13 67.4588 165.196H67.4683ZM72.2773 170.129C72.7439 172.405 74.0295 172.671 75.6388 172.681C94.1226 172.748 112.606 172.852 131.09 172.938C133.699 172.948 133.699 172.919 134.728 170.129H72.2773ZM86.571 87.9757C87.5614 89.3851 88.3041 90.404 88.9993 91.4515C89.5611 92.3086 90.323 92.5657 91.3133 92.5657C98.6744 92.5467 106.045 92.5657 113.406 92.5276C114.082 92.5276 114.949 92.3467 115.387 91.9182C116.53 90.804 117.482 89.4898 118.758 87.9757H86.571Z" fill="#80CCDB"/>
<path d="M122.729 49.437C122.738 56.8172 117.044 62.6832 109.902 62.6547C102.855 62.6356 96.9508 56.4553 96.7984 49.1514C96.6746 43.3996 101.388 35.8004 109.978 36.0385C116.93 36.2385 122.729 42.1045 122.738 49.4275L122.729 49.437ZM117.691 49.5608C117.729 44.8661 114.139 40.8475 109.673 40.8856C105.607 40.9237 101.788 43.9805 101.836 48.999C101.884 53.8461 105.321 57.5695 109.864 57.5981C114.33 57.6266 117.644 54.227 117.682 49.5608H117.691Z" fill="#80CCDB"/>
<path d="M107.502 71.2823C107.54 76.5675 103.655 80.6813 98.5888 80.7194C93.3608 80.7575 89.1327 76.4341 89.1422 71.0728C89.1422 65.8353 93.1037 61.8357 98.2555 61.8452C103.484 61.8548 107.464 65.921 107.502 71.2823ZM102.703 71.4442C102.703 69.0445 100.57 66.7209 98.3222 66.6447C96.0462 66.5685 94.1512 68.6159 94.1703 71.1299C94.1893 73.8154 96.0177 75.7009 98.5603 75.6628C100.846 75.6342 102.712 73.7392 102.703 71.4347V71.4442Z" fill="#80CCDB"/>
<path d="M99.7696 34.3815C99.7124 38.4192 96.589 41.476 92.6275 41.3808C88.6946 41.2855 85.3616 37.7812 85.4854 33.8863C85.5997 30.0296 88.9326 26.9252 92.8846 27.0014C96.6461 27.0776 99.8267 30.4772 99.7696 34.3815ZM92.7227 31.9437C91.2753 31.8961 90.4277 32.6389 90.3896 33.9911C90.3515 35.2767 91.2467 36.2289 92.5513 36.3242C93.9416 36.4194 95.0368 35.4386 95.0653 34.0482C95.0939 32.8579 94.1226 31.9913 92.7132 31.9437H92.7227Z" fill="#80CCDB"/>
<path d="M82.3523 155.568C86.0376 155.568 89.3134 155.568 92.5893 155.568C93.2273 155.568 93.8748 155.53 94.5033 155.607C95.9889 155.788 96.9507 156.759 96.9888 158.035C97.0173 159.301 96.0746 160.435 94.5986 160.539C92.694 160.673 90.7704 160.606 88.8563 160.606C85.9424 160.606 83.0189 160.635 80.1049 160.616C76.0101 160.597 75.0769 159.235 76.7814 155.607C81.1524 146.293 85.5805 136.999 89.98 127.705C90.4085 126.8 90.7418 125.838 91.2656 124.991C93.6653 121.125 94.3034 116.906 93.9986 112.44C93.8558 110.354 93.951 108.25 94.0082 106.155C94.0653 104.193 94.9604 103.088 96.3888 103.088C97.6459 103.088 98.7219 104.174 98.9029 105.85C99.0362 107.117 98.9981 108.402 98.9695 109.669C98.9029 112.859 98.9029 116.049 98.6743 119.22C98.5791 120.534 98.1506 121.886 97.5792 123.096C92.7511 133.399 87.8564 143.684 82.9808 153.969C82.7903 154.369 82.6475 154.797 82.3427 155.559L82.3523 155.568Z" fill="#80CCDB"/>
<defs>
<radialGradient id="paint0_radial_255_634" cx="0" cy="0" r="1" gradientUnits="userSpaceOnUse" gradientTransform="translate(103 103) rotate(90) scale(103)">
<stop stop-color="#310667"/>
<stop offset="1"/>
</radialGradient>
</defs>
</svg>
