<svg width="206" height="206" viewBox="0 0 206 206" fill="none" xmlns="http://www.w3.org/2000/svg">
<circle cx="103" cy="103" r="103" fill="url(#paint0_radial_257_639)"/>
<path d="M175.22 157.59C174.95 158.87 174.4 159.73 174.06 160.25C173.69 160.81 172.77 162.11 171.24 163.01C169.89 163.81 168.31 164.18 166.53 164.18C123.85 164.18 81.16 164.18 38.48 164.18C33.29 164.18 30.64 162.27 29.31 157.66C28.2 153.8 30.72 149.33 34.66 148.19C37.27 147.43 37.26 147.43 37.26 144.74C37.25 123.34 37.24 101.95 37.24 80.55C37.24 77.93 37.21 78 34.83 77.11C30.68 75.56 28.79 72.33 29.06 68.62C29.37 64.36 32.95 61.21 37.11 61.14C40.85 61.07 44.59 61.12 48.33 61.12C50.39 61.12 50.55 60.95 50.57 58.85C50.58 56.98 50.55 55.11 50.6 53.24C50.63 52.09 50.3 51.46 49.02 51.22C45.5 50.57 43.61 47.45 43.69 44.61C43.79 41.13 46.56 38.35 50.09 38.28C56.8 38.15 63.51 38.22 70.22 38.22C71.54 38.22 72.86 38.18 74.17 38.31C77.68 38.66 80.04 40.86 80.26 43.92C80.54 47.62 78.8 50.26 75.23 51.18C73.88 51.53 73.43 52.17 73.47 53.47C73.53 55.45 73.51 57.43 73.52 59.41C73.52 60.54 74.04 61.13 75.23 61.12C79.79 61.1 84.36 61.1 88.92 61.1C90.23 61.1 90.81 60.45 90.8 59.16C90.78 57.18 90.8 55.2 90.82 53.22C90.84 52.13 90.41 51.51 89.29 51.26C86.39 50.6 84.53 48.82 84.03 45.84C83.52 42.81 84.81 40.54 87.38 39.09C88.38 38.53 89.68 38.3 90.84 38.29C98.43 38.21 106.02 38.21 113.61 38.25C116.78 38.27 119.06 39.78 120.2 42.79C121.2 45.44 120.3 47.72 118.38 49.52C117.47 50.37 116.06 50.66 114.96 51.34C114.41 51.68 113.71 52.31 113.67 52.85C113.53 55.04 113.62 57.25 113.65 59.44C113.66 60.54 114.14 61.14 115.37 61.13C119.66 61.09 123.95 61.09 128.24 61.13C129.51 61.13 130.07 60.55 130.08 59.35C130.09 57.32 130.08 55.28 130.08 53.25C130.08 52.12 129.68 51.49 128.46 51.19C125.47 50.45 123.44 48.16 123.27 45.1C123.12 42.42 124.45 40.33 126.8 39.03C127.58 38.6 128.57 38.33 129.46 38.33C137.54 38.29 145.63 38.23 153.71 38.39C157.42 38.46 159.72 41.04 159.96 44.78C160.14 47.55 157.73 50.56 154.62 51.25C153.54 51.49 153.09 52.02 153.09 53.03C153.09 55.23 153.13 57.43 153.14 59.63C153.14 60.75 153.69 61.15 154.8 61.14C158.65 61.1 162.5 61.23 166.35 61.11C169.8 61.01 172.44 62.22 174.21 65.23C174.25 65.31 174.34 65.38 174.42 65.5C175.01 66.33 175.19 67.21 175.24 67.84C175.36 68.48 175.49 69.54 175.24 70.81C175.18 71.12 174.98 72.06 174.38 73.15C174.02 73.8 173.14 75.16 171.59 76.15C170.58 76.8 169.42 77.22 168.09 77.41C166.82 77.59 166.4 78.26 166.4 79.55C166.43 96.47 166.4 113.39 166.4 130.31C166.4 135.47 166.43 140.64 166.4 145.8C166.4 146.9 166.71 147.58 167.89 147.74C168.88 147.88 169.78 148.15 170.59 148.56C172.61 149.56 173.93 151.33 174.27 151.93C174.84 152.92 175.11 153.88 175.23 154.65C175.36 155.27 175.5 156.34 175.23 157.62L175.22 157.59ZM101.79 147.62V147.65C119.34 147.65 136.88 147.65 154.43 147.67C155.88 147.67 156.65 147.37 156.65 145.67C156.61 123.72 156.61 101.78 156.63 79.83C156.63 78.5 156.43 77.55 154.79 77.58C153.26 77.61 153.01 78.5 153.03 79.76C153.07 83.55 153.16 87.35 153.06 91.14C153.01 92.99 152.9 94.94 152.27 96.64C149.96 102.85 143.91 105.7 137.52 103.41C132.53 101.63 130.01 97.25 130.07 91.89C130.11 87.77 130.07 83.64 130.07 79.51C130.07 78.43 129.89 77.49 128.5 77.5C124.1 77.54 119.7 77.59 115.31 77.6C113.99 77.6 113.64 78.27 113.64 79.48C113.66 88.17 113.68 96.86 113.62 105.55C113.62 106.95 113.28 108.36 113 109.75C112.1 114.14 106.74 117.41 103.18 117.6C98.14 117.87 93.86 115.31 91.82 110.96C90.59 108.34 90.81 105.59 90.8 102.86C90.78 95.16 90.79 87.46 90.82 79.76C90.82 78.39 90.45 77.52 88.89 77.54C84.38 77.58 79.87 77.58 75.36 77.59C74.09 77.59 73.38 78.11 73.48 79.48C73.52 80.03 73.48 80.58 73.48 81.13C73.48 94.06 73.41 106.98 73.48 119.91C73.51 126.45 68.45 131.15 63.32 131.53C56.08 132.06 50.64 127.15 50.58 119.87C50.51 110.69 50.56 101.5 50.56 92.32C50.56 88.03 50.56 83.74 50.59 79.45C50.59 78.19 50.13 77.47 48.76 77.49C47.43 77.5 46.88 78.19 46.89 79.45C46.89 79.89 46.86 80.33 46.86 80.77C46.86 102.06 46.88 123.34 46.89 144.63C46.89 147.62 46.91 147.63 49.97 147.63C67.24 147.63 84.51 147.63 101.78 147.63L101.79 147.62ZM102.27 74.17V74.19C117.06 74.19 131.86 74.19 146.65 74.19C153.41 74.19 160.18 74.22 166.94 74.13C170.87 74.08 173.19 70 171.19 66.76C170.09 64.99 168.38 64.26 166.29 64.27C160.52 64.29 154.74 64.27 148.97 64.27C121.25 64.27 93.54 64.27 65.82 64.28C56.53 64.28 47.23 64.27 37.94 64.28C34.57 64.28 32.26 66.64 32.53 69.73C32.78 72.56 34.92 74.17 38.43 74.17C59.71 74.17 81 74.17 102.28 74.17H102.27ZM102.24 151.09C102.24 151.09 102.24 151.06 102.24 151.05C82.72 151.05 63.2 151.05 43.68 151.06C41.16 151.06 38.61 151.06 36.11 151.34C33.96 151.58 32.57 153.41 32.42 155.59C32.28 157.8 33.54 159.83 35.66 160.35C37.13 160.71 38.7 160.82 40.22 160.82C82.06 160.84 123.9 160.83 165.75 160.82C166.24 160.82 166.74 160.84 167.23 160.8C169.42 160.61 171.3 158.95 171.87 156.71C172.3 155.01 171.3 152.61 169.4 151.76C168.16 151.21 166.64 151.1 165.24 151.1C144.24 151.06 123.23 151.07 102.23 151.07L102.24 151.09ZM70.18 100.01C70.18 100.01 70.18 100.01 70.17 100.01C70.17 93.3 70.17 86.59 70.17 79.88C70.17 77.71 69.82 77.38 67.69 77.39C64.5 77.4 61.31 77.41 58.12 77.42C54.01 77.42 54 77.42 53.98 81.49C53.92 92.38 53.87 103.26 53.83 114.15C53.83 116.29 53.78 118.45 53.94 120.58C54.33 125.63 58.46 128.52 62.39 128.29C66.93 128.02 70.14 124.42 70.17 119.81C70.22 113.21 70.18 106.61 70.18 100.01ZM94.02 93C94.02 93 94.0499 93 94.06 93C94.06 97.51 93.93 102.02 94.1 106.52C94.28 111.26 98.24 114.36 102.32 114.29C106.81 114.21 110.26 110.58 110.29 106.03C110.34 97.13 110.25 88.24 110.23 79.34C110.23 77.96 109.66 77.37 108.24 77.39C104.28 77.44 100.32 77.41 96.37 77.41C94.3 77.41 94.03 77.69 94.03 79.81C94.03 84.21 94.03 88.61 94.03 93H94.02ZM40.55 112.55H40.56C40.56 117.28 40.56 122 40.56 126.73C40.56 133.05 40.56 139.37 40.58 145.69C40.58 147.23 41.23 147.79 42.54 147.55C43.85 147.31 43.53 146.27 43.53 145.45C43.56 123.52 43.57 101.59 43.58 79.65C43.58 79.27 43.64 78.83 43.49 78.51C43.3 78.11 42.95 77.56 42.6 77.51C42.07 77.42 41.25 77.51 40.96 77.87C40.6 78.31 40.56 79.09 40.56 79.72C40.54 90.66 40.54 101.6 40.54 112.54L40.55 112.55ZM163.08 112.51H163.09C163.09 101.57 163.08 90.64 163.11 79.7C163.11 78.57 162.97 77.68 161.62 77.65C160.24 77.62 160.08 78.58 160.08 79.67C160.08 101.38 160.08 123.09 160.09 144.79C160.09 145.39 159.97 146.09 160.24 146.57C160.5 147.03 161.18 147.55 161.66 147.53C162.14 147.51 162.73 146.93 162.99 146.44C163.22 146.01 163.08 145.37 163.08 144.82C163.08 134.05 163.08 123.28 163.08 112.51ZM62.28 41.52V41.47C58.43 41.47 54.58 41.45 50.73 41.48C49.35 41.49 48.12 41.93 47.43 43.26C46.26 45.54 47.65 47.92 50.37 47.96C58.12 48.08 65.88 48.09 73.63 48.07C75.48 48.07 77.07 46.38 77.04 44.7C77.01 43.01 75.43 41.55 73.49 41.53C69.75 41.5 66.01 41.53 62.27 41.53L62.28 41.52ZM141.89 41.5C141.89 41.5 141.89 41.48 141.89 41.46C138.32 41.46 134.75 41.47 131.19 41.46C128.24 41.44 126.64 42.58 126.62 44.75C126.6 46.91 128.15 48.05 131.18 48.06C138.31 48.07 145.45 48.08 152.58 48.08C154.9 48.08 156.45 46.74 156.47 44.76C156.49 42.75 155.15 41.54 152.76 41.52C149.14 41.48 145.52 41.52 141.89 41.52V41.5ZM102.42 41.5V41.47C98.63 41.47 94.83 41.44 91.04 41.48C88.82 41.51 87.16 42.92 87.1 44.7C87.04 46.5 88.6 48.02 90.87 48.03C98.46 48.09 106.05 48.13 113.63 47.98C114.67 47.96 116.1 47.06 116.64 46.15C117.94 43.99 116.31 41.57 113.64 41.52C109.9 41.44 106.16 41.5 102.42 41.5ZM133.53 86.14C133.53 88.39 133.47 90.65 133.54 92.9C133.69 97.31 137.04 100.73 141.22 100.83C145.66 100.93 149.37 97.75 149.58 93.29C149.8 88.57 149.68 83.84 149.69 79.12C149.69 78 149.16 77.41 147.96 77.41C143.73 77.44 139.5 77.46 135.26 77.41C133.94 77.4 133.51 78.02 133.52 79.21C133.54 81.52 133.52 83.83 133.52 86.14H133.53ZM62.17 51.36C60.03 51.36 57.89 51.38 55.75 51.36C54.64 51.35 53.9 51.77 53.89 52.95C53.89 55.2 53.86 57.45 54.06 59.68C54.1 60.19 54.98 61.03 55.49 61.04C59.82 61.14 64.16 61.08 68.5 61.08C69.75 61.08 70.24 60.46 70.21 59.22C70.16 57.3 70.13 55.37 70.24 53.46C70.33 51.84 69.6 51.32 68.11 51.35C66.13 51.4 64.16 51.36 62.18 51.37L62.17 51.36ZM102.18 61.12C102.18 61.12 102.18 61.12 102.18 61.11C104.32 61.11 106.46 61.09 108.6 61.12C109.6 61.14 110.18 60.77 110.2 59.72C110.23 57.47 110.29 55.22 110.28 52.97C110.28 51.94 109.78 51.36 108.65 51.37C104.37 51.39 100.08 51.38 95.8 51.37C94.66 51.37 94.06 51.81 94.07 53.02C94.09 55.16 94.08 57.3 94.07 59.44C94.06 60.73 94.72 61.17 95.93 61.14C98.02 61.1 100.1 61.13 102.19 61.13L102.18 61.12ZM141.43 61.11C141.43 61.11 141.43 61.12 141.43 61.13C143.63 61.13 145.82 61.1 148.02 61.14C149.03 61.16 149.63 60.75 149.65 59.74C149.7 57.44 149.71 55.13 149.69 52.83C149.69 51.85 149.18 51.36 148.13 51.37C143.85 51.4 139.57 51.4 135.28 51.35C133.98 51.34 133.53 51.94 133.54 53.15C133.56 55.24 133.56 57.32 133.54 59.41C133.53 60.66 134.09 61.17 135.35 61.13C137.38 61.07 139.41 61.11 141.44 61.11H141.43Z" fill="#80CCDB"/>
<path d="M55.46 107.63C55.46 103.56 55.41 99.5001 55.5 95.4301C55.52 94.5901 55.82 93.3801 56.4 93.0301C56.96 92.7001 58.21 93.0301 58.89 93.4701C61.77 95.3601 64.6 97.3401 67.34 99.4201C67.93 99.8701 68.4 100.88 68.41 101.65C68.49 107.97 68.52 114.29 68.42 120.6C68.37 123.89 65.38 126.62 62.18 126.59C58.52 126.56 55.57 123.96 55.49 120.48C55.39 116.2 55.47 111.91 55.47 107.62C55.47 107.62 55.46 107.62 55.45 107.62L55.46 107.63ZM58.76 109.31C58.82 109.31 58.89 109.31 58.95 109.31C58.95 112.99 58.82 116.67 58.99 120.34C59.11 122.89 61.64 123.99 63.81 122.65C65.12 121.84 65.27 120.54 65.27 119.19C65.27 113.97 65.31 108.76 65.2 103.54C65.18 102.75 64.62 101.79 64.02 101.22C62.99 100.26 61.74 99.5101 60.55 98.7401C60.17 98.4901 59.58 98.2201 59.25 98.3601C58.96 98.4801 58.78 99.1601 58.78 99.6001C58.74 102.84 58.76 106.08 58.76 109.32V109.31Z" fill="#80CCDB"/>
<path d="M95.7198 96.63C95.7198 93.45 95.6798 90.26 95.7298 87.08C95.7698 84.74 96.8898 83.98 98.8798 85.16C101.88 86.94 104.79 88.9 107.61 90.96C108.27 91.44 108.71 92.61 108.73 93.48C108.85 97.7 108.83 101.93 108.77 106.16C108.72 109.78 105.77 112.72 102.3 112.75C98.6998 112.78 95.8498 110.07 95.7298 106.35C95.6298 103.11 95.7098 99.87 95.6998 96.64L95.7198 96.63ZM99.3498 88.95C99.1398 89.91 98.9598 90.37 98.9598 90.82C98.9398 95.82 98.9098 100.82 98.9598 105.81C98.9798 107.94 100.45 109.45 102.26 109.4C104.03 109.35 105.37 107.71 105.38 105.61C105.39 102.26 105.46 98.91 105.41 95.56C105.4 94.72 105.33 93.57 104.81 93.1C103.22 91.65 101.39 90.46 99.3498 88.94V88.95Z" fill="#80CCDB"/>
<path d="M134.99 88.0699C134.99 86.4799 134.94 84.8899 135 83.2999C135.09 81.0599 136.44 80.37 138.27 81.63C141.2 83.65 144.1 85.72 146.98 87.79C147.36 88.06 147.72 88.47 147.91 88.9C148.98 91.3 147.84 96.0299 145.82 97.7199C143.76 99.4499 141.39 99.6499 139.01 98.7399C136.4 97.7299 135.2 95.54 135.01 92.83C134.9 91.25 134.99 89.6499 134.99 88.0599C134.99 88.0599 134.98 88.0599 134.97 88.0599L134.99 88.0699ZM138.38 90.0199H138.28C138.33 90.9499 138.34 91.8799 138.44 92.8099C138.63 94.5899 139.64 95.6999 141.13 95.8499C142.66 95.9999 143.83 95.44 144.42 93.98C145.2 92.09 144.79 90.4699 143.38 89.4899C142.26 88.7099 141.17 87.89 140.03 87.13C139.7 86.91 139.16 86.6699 138.87 86.7999C138.6 86.9199 138.43 87.4999 138.39 87.8899C138.32 88.5899 138.37 89.3099 138.37 90.0199H138.38Z" fill="#80CCDB"/>
<defs>
<radialGradient id="paint0_radial_257_639" cx="0" cy="0" r="1" gradientUnits="userSpaceOnUse" gradientTransform="translate(103 103) rotate(90) scale(103)">
<stop stop-color="#310667"/>
<stop offset="1"/>
</radialGradient>
</defs>
</svg>
