<svg width="206" height="206" viewBox="0 0 206 206" fill="none" xmlns="http://www.w3.org/2000/svg">
<circle cx="103" cy="103" r="103" fill="url(#paint0_radial_257_640)"/>
<path d="M133.44 122.65C125.06 111.88 127.31 102.03 133.82 94.6099C127.27 85.9499 118.56 79.9499 109.09 74.2999C108.09 75.9499 107.18 77.4499 106.34 78.8399C106.52 79.2399 106.56 79.5199 106.69 79.5699C109.95 80.9599 110.53 83.2299 109.76 86.6299C108.44 92.3899 107.68 98.2799 106.61 104.1C106.44 105.05 106.05 106.03 105.52 106.84C103.04 110.62 100.52 114.37 97.94 118.08C94.77 122.64 86.45 124.46 81.78 121.48C80.44 120.63 79.59 121.09 78.5 121.59C74.41 123.47 70.52 123.08 66.81 120.52C63.07 117.95 62.36 114.32 63.27 110.08C57.59 108 56.44 103.33 56.36 98.1699C56.34 96.8599 57.04 95.5299 57.41 94.2099C57.44 94.1199 57.52 94.0399 57.56 93.9499C61.33 85.7399 67.41 79.6899 75.04 75.0399C77.26 73.6799 79.38 72.1199 81.38 70.4499C83.52 68.6699 85.65 67.8799 88.38 69.8499C93.15 61.3999 97.82 53.1199 102.6 44.6699C99.83 43.2399 99.67 41.1199 100.3 38.5199C101.25 34.6199 101.84 30.6399 102.7 26.7299C103.33 23.8799 104.73 23.1399 107.25 24.4299C116.44 29.1599 125.61 33.9599 134.74 38.8099C137.07 40.0399 137.36 41.8299 135.51 43.6899C132.1 47.0999 128.66 50.4899 124.99 53.6099C123.97 54.4799 122.13 54.3699 119.99 54.8599C119.59 55.5699 118.81 56.9299 117.91 58.5199C120.99 60.5099 123.94 62.3699 126.84 64.2999C134.32 69.2899 141.09 75.0799 146.66 82.1999C147.03 82.6699 147.46 83.1199 147.73 83.6499C149.71 87.4699 152.47 90.0199 156.64 91.8599C163.75 94.9799 167.65 103.17 166.82 110.81C165.97 118.54 160.41 125.28 152.94 127.36C151.24 127.83 150.47 128.57 149.61 130.19C147.84 133.52 145.51 136.58 143.17 139.57C141.99 141.08 141.32 142.51 141.34 144.45C141.41 152.19 141.38 159.92 141.36 167.66C141.34 171.86 140.61 172.61 136.47 172.61C125.72 172.63 114.91 173.33 104.23 172.46C84.37 170.84 64.53 172.17 44.69 171.62C41.06 171.52 40.53 171.04 40.51 167.37C40.48 163.15 40.48 158.93 40.51 154.71C40.54 150.82 41.13 150.25 45.14 150.24C61.72 150.23 78.29 150.24 94.87 150.24C96.07 150.24 97.27 150.24 98.74 150.24V140.58C97.29 140.58 96 140.58 94.72 140.58C77.14 140.58 59.56 140.58 41.98 140.58C40.98 140.58 39.96 140.58 38.98 140.45C37.38 140.23 36.38 139.3 36.5 137.61C36.6 136.09 37.59 135.31 39.08 135.17C39.68 135.12 40.28 135.14 40.89 135.14C62.69 135.14 84.49 135.14 106.29 135.14C107.9 135.14 109.43 135.09 110.76 136.41C111.26 136.91 112.46 137 113.27 136.85C122.15 135.18 128.94 130.52 133.47 122.69L133.44 122.65ZM69.19 86.0799C69.66 87.3699 70 88.2999 70.34 89.2399C72.57 95.3899 72.58 95.5999 78.91 95.3099C82.77 95.1299 85.55 96.1199 87.13 99.7799C88.6 103.18 90.87 104.71 94.69 103.28C96.16 102.73 97.84 102.7 99.42 102.49C100.79 102.31 101.54 101.66 101.78 100.23C102.64 95.1099 103.58 89.9999 104.52 84.7199C98.03 81.2399 91.69 77.8299 85.27 74.3799C79.9 78.2899 74.64 82.1099 69.2 86.0699L69.19 86.0799ZM147.45 94.8599C139.63 94.8699 133.53 100.97 133.54 108.77C133.55 116.58 139.67 122.69 147.46 122.69C155.23 122.69 161.36 116.54 161.35 108.76C161.35 100.94 155.25 94.8499 147.44 94.8699L147.45 94.8599ZM98.37 156H46V165.98C47.28 166.05 48.36 166.16 49.44 166.16C64.18 166.16 78.93 166.16 93.67 166.16C94.57 166.16 95.47 166.11 96.38 166.11C97.75 166.11 98.38 165.44 98.38 164.08C98.36 161.49 98.38 158.9 98.38 156.01L98.37 156ZM135.9 166.97C135.9 165.63 135.9 164.64 135.9 163.65C135.9 157.42 136.13 151.19 135.82 144.97C135.63 141.06 136.55 138.06 139.57 135.44C141.7 133.59 143.4 131.2 144.46 128.27C142.1 127.43 140.07 126.7 138.25 126.04C135.98 128.65 134.05 131.25 131.73 133.42C129.39 135.61 126.64 137.36 124.04 139.33C134.24 143.41 135.07 152.59 132.37 158.11C129.19 164.61 121.24 167.45 114.68 164.26C111.38 162.66 109.1 160.07 107.86 156.58C106.03 151.45 107.68 147 110.82 142.78H104.55V166.96H135.91L135.9 166.97ZM93.21 72.3499C96.13 73.8999 98.65 75.2399 101.35 76.6699C106.18 68.0999 110.86 59.7699 115.65 51.2799C112.7 49.7799 110.16 48.4899 107.46 47.1099C102.66 55.6099 98.04 63.7999 93.21 72.3499ZM144.96 89.1899C137.32 77.7499 126.8 70.2699 115.29 63.4999C114.17 65.6399 113.17 67.5599 112.07 69.6499C121.87 75.8099 131.44 82.0199 138.09 91.4999C140.32 90.7499 142.39 90.0499 144.96 89.1799V89.1899ZM107.4 30.8499C106.88 33.4799 106.32 35.7099 106.07 37.9899C105.98 38.7899 106.4 40.0999 107 40.4399C111.63 43.0299 116.35 45.4699 121.09 47.8499C121.67 48.1399 122.8 48.1899 123.23 47.8199C125.25 46.1099 127.12 44.2099 129.34 42.0999C122.48 38.5099 116.1 35.1799 109.72 31.8499C109.12 31.5299 108.47 31.2999 107.41 30.8499H107.4ZM128.16 152.43C128.21 147.96 124.94 144.51 120.57 144.43C116.28 144.34 112.7 147.79 112.6 152.11C112.5 156.48 115.86 159.97 120.24 160.06C124.64 160.16 128.11 156.82 128.16 152.44V152.43ZM73.88 117.92C75.45 116.8 77.22 115.98 78.36 114.62C79.96 112.72 81.08 110.41 82.42 108.29C84.44 105.09 84.43 104.84 82.09 102.03C80.82 100.5 75.85 100.34 74.8 101.95C72.67 105.23 70.7 108.62 68.69 111.98C67.91 113.29 68.1 114.61 69.3 115.46C70.57 116.36 72.05 116.95 73.88 117.91V117.92ZM97.49 108.6C90.18 108.71 86.55 111.38 85.64 117.3C90.54 118.17 94.04 115.61 97.49 108.6ZM65.37 91.7199C64.36 93.2899 63.72 94.4099 62.97 95.4399C61.2 97.8699 61.69 100.39 62.69 102.86C63.43 104.69 64.58 104.82 65.82 103.32C67.54 101.25 68.82 99.0999 67.16 96.2999C66.46 95.1199 66.14 93.7199 65.38 91.7099L65.37 91.7199Z" fill="#81CDDB"/>
<path d="M91.04 176.12C103.59 176.12 116.13 176.12 128.68 176.12C131.95 176.12 133.16 176.85 133.15 178.79C133.15 180.74 131.9 181.57 128.69 181.57C103.49 181.57 78.3 181.57 53.1 181.55C52.2 181.55 51.1 181.69 50.46 181.25C49.6 180.65 48.55 179.51 48.6 178.66C48.65 177.8 49.81 176.79 50.73 176.27C51.42 175.88 52.49 176.12 53.39 176.12C65.94 176.12 78.48 176.12 91.03 176.12H91.04Z" fill="#81CDDB"/>
<defs>
<radialGradient id="paint0_radial_257_640" cx="0" cy="0" r="1" gradientUnits="userSpaceOnUse" gradientTransform="translate(103 103) rotate(90) scale(103)">
<stop stop-color="#310667"/>
<stop offset="1"/>
</radialGradient>
</defs>
</svg>
