<svg width="206" height="206" viewBox="0 0 206 206" fill="none" xmlns="http://www.w3.org/2000/svg">
<circle cx="103" cy="103" r="103" fill="url(#paint0_radial_257_648)"/>
<path d="M89.5784 28.0446V24.3875C89.7551 24.2652 89.8911 24.0884 90.0134 24.0884C98.4695 23.9661 106.926 23.5446 115.246 25.7334C135.366 31.0219 150.905 48.5866 153.42 69.2373C153.883 72.9759 153.883 76.7961 153.896 80.5755C153.896 82.7235 154.331 84.654 155.256 86.5981C159.429 95.3941 163.494 104.258 167.627 113.081C168.375 114.685 168.728 116.262 168.103 117.975C167.206 120.409 165.234 121.768 162.271 121.836C159.62 121.891 156.969 121.836 153.964 121.836C153.964 122.883 153.964 123.74 153.964 124.582C153.964 130.061 153.719 135.554 154.019 141.019C154.522 149.869 147.466 157.496 137.99 156.925C133.49 156.653 128.963 156.884 124.449 156.884C123.647 156.884 122.859 156.884 121.771 156.884V183H117.679V153.023C118.291 152.955 118.903 152.833 119.514 152.833C125.727 152.819 131.927 152.833 138.14 152.819C145.562 152.819 149.886 148.496 149.886 141.128C149.886 134.194 149.886 127.261 149.886 120.327C149.886 119.539 149.886 118.737 149.886 117.635C152.374 117.635 154.685 117.635 156.996 117.635C158.695 117.635 160.381 117.676 162.08 117.635C164.106 117.567 164.663 116.697 163.834 114.821C162.774 112.388 161.618 109.995 160.503 107.589C157.268 100.655 153.991 93.7491 150.851 86.7748C150.239 85.4289 149.899 83.8519 149.886 82.3837C149.845 76.0076 149.831 69.6588 148.118 63.4323C142.395 42.7271 123.484 28.2485 101.977 28.1805C98.6734 28.1805 95.3698 28.1805 92.0662 28.1805C91.2777 28.1805 90.5028 28.1125 89.6056 28.0717L89.5784 28.0446Z" fill="#81CDDB"/>
<path d="M82.6586 148.863H78.5937V93.9258C71.4835 92.7838 66.0183 89.4123 62.606 83.2266C60.1453 78.7674 59.4927 73.9684 60.5667 68.9519C62.5516 59.6665 71.4291 52.6651 80.9456 52.9098C90.9787 53.1817 99.4076 60.6317 100.781 70.4201C101.596 76.1436 100.264 81.3233 96.7702 85.8776C93.2763 90.4319 88.5452 93.0014 82.6586 93.8442V148.863ZM80.4426 89.6706C89.3609 89.7658 96.6886 82.642 96.8381 73.7645C96.9877 64.6966 89.8503 57.2466 80.9184 57.1242C71.8098 57.0019 64.4277 64.0849 64.3054 73.0439C64.1694 82.2749 71.2524 89.5618 80.4426 89.657V89.6706Z" fill="#81CDDB"/>
<path d="M55.8221 122.394C48.6576 120.164 46.1289 114.631 47.0262 109.234C47.869 104.176 52.5593 100.275 57.807 100.22C63.0682 100.166 67.8129 103.932 68.8053 108.962C70.0017 115.066 67.1331 119.607 60.0637 122.489C60.0637 126.812 60.023 131.23 60.1045 135.649C60.1045 136.247 60.6755 136.94 61.1513 137.43C63.2722 139.632 65.5153 141.726 67.5954 143.969C68.2343 144.662 68.8461 145.723 68.8597 146.634C68.9413 157.985 68.9005 169.337 68.8869 180.689C68.8869 180.852 68.8325 181.002 68.7509 181.369H64.822C64.822 180.526 64.822 179.669 64.822 178.813C64.822 169.065 64.7676 159.331 64.8628 149.584C64.8764 147.721 64.3598 146.389 63.0003 145.165C61.4368 143.779 60.1589 142.066 58.5139 140.774C56.2571 138.993 55.6318 136.832 55.7677 134.045C55.9717 130.197 55.8221 126.336 55.8221 122.407V122.394ZM57.9837 104.408C54.1907 104.38 51.0231 107.453 50.9415 111.219C50.8599 114.944 53.9868 118.166 57.7662 118.247C61.7223 118.329 64.8764 115.243 64.8764 111.314C64.8764 107.48 61.8311 104.435 57.9837 104.408Z" fill="#81CDDB"/>
<path d="M104.343 140.556C104.343 142.514 104.302 144.445 104.356 146.362C104.397 147.408 104.03 148.183 103.282 148.904C100.862 151.256 98.5375 153.73 96.0768 156.041C94.9348 157.115 94.4318 158.23 94.459 159.834C94.5406 166.197 94.4998 172.559 94.4998 178.935C94.4998 179.724 94.4998 180.512 94.4998 181.437H90.598C90.5437 180.811 90.4349 180.186 90.4349 179.574C90.4349 172.328 90.4621 165.068 90.4077 157.822C90.4077 156.422 90.7884 155.402 91.8216 154.437C94.0512 152.343 96.1312 150.073 98.3608 147.993C99.6795 146.756 100.468 145.464 100.21 143.575C100.074 142.555 100.182 141.508 100.182 140.543C92.9772 137.43 90.1358 132.984 91.4273 127.029C92.5285 121.972 97.0285 118.288 102.167 118.274C107.51 118.247 112.241 122.122 113.206 127.315C114.28 133.079 111.33 137.62 104.37 140.556H104.343ZM102.208 122.462C98.4152 122.462 95.3291 125.575 95.3291 129.381C95.3291 133.174 98.4016 136.301 102.181 136.369C105.974 136.437 109.305 133.079 109.237 129.286C109.155 125.493 106.042 122.448 102.222 122.462H102.208Z" fill="#81CDDB"/>
<path d="M141.715 75.9804H138.235C135.203 52.0804 121.499 40.3072 97.4771 40.1168V36.5821C122.614 33.3465 142.558 54.677 141.715 75.9804Z" fill="#81CDDB"/>
<path d="M58.4868 181.45H54.6938V150.154H58.4868V181.45Z" fill="#81CDDB"/>
<path d="M38.0806 70.4065C39.712 70.556 40.8132 70.6648 42.0639 70.7872V98.5753C40.9083 98.6704 39.7392 98.7656 38.2437 98.888C37.4552 89.3715 37.6863 80.0181 38.0806 70.4065Z" fill="#81CDDB"/>
<path d="M82.5361 160.025H78.6072V154.75H82.5361V160.025Z" fill="#81CDDB"/>
<path d="M82.5225 171.186H78.6479V165.857H82.5225V171.186Z" fill="#81CDDB"/>
<path d="M39.1003 64.574C39.6849 62.5619 40.1607 60.9034 40.7045 59.0544C42.0912 59.5303 43.2604 59.9245 44.5927 60.3867C44.1033 62.0997 43.6547 63.6767 43.1516 65.4713C41.8193 65.1722 40.6094 64.9139 39.1003 64.574Z" fill="#81CDDB"/>
<path d="M73.6993 30.9267C71.9456 31.6744 70.4773 32.2998 68.8323 32.9931C68.2613 31.8239 67.7039 30.7091 67.0242 29.3225C68.8051 28.5475 70.4365 27.8406 72.299 27.0249C72.802 28.398 73.2235 29.5672 73.7129 30.9267H73.6993Z" fill="#81CDDB"/>
<path d="M59.8462 38.7711C58.9761 37.6971 58.2284 36.7726 57.2632 35.5762C58.7722 34.4614 60.1997 33.401 61.8311 32.1775C62.6196 33.3467 63.3129 34.3799 64.1286 35.5762C62.7012 36.6366 61.3825 37.6291 59.8462 38.7711Z" fill="#81CDDB"/>
<path d="M83.5696 24.374C83.7463 25.8151 83.8959 27.0386 84.0726 28.4117C82.3596 28.738 80.8234 29.0371 79.0017 29.377C78.6482 28.1262 78.2947 26.8755 77.8733 25.3665C79.831 25.0266 81.5847 24.7139 83.5696 24.374Z" fill="#81CDDB"/>
<path d="M52.3009 46.3569C51.1726 45.4461 50.2481 44.7119 49.0925 43.7875C50.3569 42.3464 51.526 41.0005 52.8855 39.4507C53.8372 40.5655 54.6529 41.5171 55.5909 42.6047C54.6529 43.6787 53.5653 44.9159 52.3009 46.3569Z" fill="#81CDDB"/>
<path d="M45.6529 48.5728C46.9716 49.3749 47.9912 49.9866 49.174 50.6936C48.3447 52.2434 47.5834 53.6845 46.6725 55.3838C45.4762 54.8264 44.3614 54.3098 42.9475 53.6437C43.8312 51.9715 44.6741 50.4081 45.6529 48.5728Z" fill="#81CDDB"/>
<path d="M82.5224 177.086V181.423H78.5798V177.086H82.5224Z" fill="#81CDDB"/>
<path d="M80.5241 79.352C77.3972 79.352 74.6918 76.6738 74.6375 73.5197C74.5695 70.2977 77.3293 67.5107 80.6057 67.5107C83.7733 67.5107 86.4515 70.1754 86.4923 73.3566C86.5331 76.6466 83.8413 79.3656 80.5377 79.3656L80.5241 79.352Z" fill="#81CDDB"/>
<defs>
<radialGradient id="paint0_radial_257_648" cx="0" cy="0" r="1" gradientUnits="userSpaceOnUse" gradientTransform="translate(103 103) rotate(90) scale(103)">
<stop stop-color="#310667"/>
<stop offset="1"/>
</radialGradient>
</defs>
</svg>
