<svg width="206" height="206" viewBox="0 0 206 206" fill="none" xmlns="http://www.w3.org/2000/svg">
<circle cx="103" cy="103" r="103" fill="url(#paint0_radial_257_647)"/>
<path d="M168.11 161.1C167.46 161.1 166.74 161.1 166.03 161.1C162.45 161.1 158.87 161.07 155.28 161.12C154.26 161.13 153.5 160.8 152.79 160.08C149.87 157.11 146.91 154.18 143.96 151.24C143.65 150.93 143.32 150.63 143.09 150.41C139.58 153.2 136.12 155.93 132.58 158.74C134.17 161.5 135.81 164.36 137.46 167.23C138.53 169.09 139.61 170.95 140.68 172.81C141.72 174.63 141.5 175.45 139.63 176.5C131.08 181.32 121.95 184.48 112.22 185.84C97.3599 187.92 83.0499 185.98 69.2999 179.94C65.5599 178.3 61.9899 176.35 58.5599 174.14C57.9999 173.78 57.4499 173.42 56.8499 173.03C56.4299 173.43 56.0699 173.76 55.7299 174.1C52.7799 177.04 49.8199 179.97 46.9099 182.94C46.0999 183.77 45.2099 184.14 44.0499 184.11C41.1899 184.06 38.3199 184.09 35.4499 184.09C34.9599 184.09 34.4699 184.09 33.9699 184.09C33.7599 184.52 33.5899 184.88 33.4099 185.23C31.8299 188.39 28.2499 189.89 24.8999 188.82C21.5999 187.76 19.5599 184.47 20.0899 181.07C20.6399 177.56 23.5699 174.96 27.0599 175.02C29.9399 175.07 32.1299 176.41 33.3899 179.03C33.7799 179.83 34.1999 180.14 35.0999 180.12C37.7899 180.06 40.4699 180.12 43.1599 180.08C43.6499 180.08 44.2699 179.92 44.5999 179.6C47.5899 176.71 50.5399 173.76 53.5999 170.73C53.1399 170.33 52.7999 170.01 52.4299 169.72C37.8399 157.98 28.4499 143 24.3399 124.72C23.1999 119.64 22.6099 114.49 22.5599 109.28C22.5299 106.59 22.9899 106.13 25.6199 106.12C30.4099 106.12 35.1999 106.12 39.9899 106.12H41.6499C42.3999 90.6499 48.1199 77.3499 58.9299 66.1699C57.6099 64.8499 56.3499 63.5899 55.0999 62.3299C54.1799 61.4099 53.2899 60.4599 52.3299 59.5899C51.9999 59.2899 51.4999 59.0099 51.0699 58.9999C45.3899 58.9599 39.6999 58.9699 33.9299 58.9699C33.1199 61.1199 31.7699 62.7899 29.5799 63.6199C28.1099 64.1799 26.6099 64.2399 25.0999 63.7999C22.0399 62.9399 19.9099 60.0599 19.9999 56.9099C20.0999 53.6599 22.3699 50.8799 25.5399 50.1499C29.0199 49.3499 31.8599 50.9699 34.0299 55.0999C34.4499 55.0999 34.9299 55.0999 35.4099 55.0999C40.7799 55.0999 46.1599 55.1399 51.5299 55.0699C52.9099 55.0499 53.8999 55.4899 54.8299 56.4599C57.0899 58.8199 59.4299 61.0999 61.8299 63.4999C72.5299 54.2699 84.9399 49.3499 99.0499 48.6999C99.0899 48.2199 99.1399 47.8699 99.1399 47.5299C99.1399 45.4799 99.1399 43.4299 99.1399 41.2599C98.5399 41.2299 98.0599 41.1899 97.5899 41.1899C76.8599 41.1899 56.1299 41.1899 35.3999 41.1699C34.3899 41.1699 33.8399 41.4099 33.3699 42.3899C31.8399 45.5499 28.2899 46.9799 24.9799 45.9399C21.7099 44.8999 19.6099 41.6299 20.0799 38.3399C20.5999 34.7799 23.3999 32.1599 26.9099 32.1199C29.8499 32.0899 32.1099 33.4199 33.3999 36.0899C33.8299 36.9799 34.3199 37.2099 35.2299 37.2099C56.0499 37.1899 76.8699 37.1999 97.6899 37.1899C98.1199 37.1899 98.5599 37.1399 99.1299 37.1099C99.1299 35.4099 99.1299 33.8099 99.1299 32.2099C99.1299 30.1699 99.7399 29.5499 101.77 29.5899C124.05 30.0399 142.9 38.3499 158.34 54.3999C159.77 55.8799 161.08 57.4699 162.5 59.0799C162.75 58.8699 163.02 58.6799 163.26 58.4399C166.27 55.4399 169.27 52.4199 172.3 49.4299C172.85 48.8899 173.12 48.3399 173.1 47.5599C173.05 45.3699 173.08 43.1799 173.08 40.9899C172.64 40.7699 172.27 40.6099 171.92 40.4299C168.76 38.8299 167.26 35.2499 168.35 31.9099C169.38 28.7299 172.66 26.6199 175.86 27.0699C179.5 27.5899 182.15 30.4199 182.15 33.9799C182.15 36.9099 180.8 39.1599 178.13 40.4399C177.31 40.8399 177.03 41.2899 177.05 42.1699C177.11 44.3199 177.04 46.4699 177.08 48.6199C177.1 49.7299 176.74 50.5799 175.95 51.3599C172.6 54.6599 169.3 57.9999 165.96 61.3199C165.64 61.6299 165.23 61.8499 164.86 62.1099C165.18 62.6599 165.34 62.9699 165.53 63.2599C172.04 72.6799 176.33 83.0099 178.36 94.2799C179.15 98.6499 179.59 103.05 179.58 107.5C179.58 109.44 178.95 110.07 177.01 110.07C172.04 110.07 167.07 110.07 162.1 110.07C161.62 110.07 161.13 110.07 160.47 110.07C160.12 117 158.83 123.63 156.29 130C153.76 136.34 150.24 142.07 145.71 147.28C145.94 147.56 146.15 147.84 146.39 148.08C149.17 150.87 151.95 153.67 154.75 156.43C155.1 156.78 155.63 157.16 156.07 157.17C160.1 157.23 164.12 157.2 168.1 157.2C170.52 152.93 173.32 151.37 176.81 152.3C179.99 153.15 182.19 155.99 182.16 159.2C182.13 162.38 179.95 165.16 176.84 165.99C173.32 166.93 170.53 165.39 168.11 161.11V161.1ZM129.11 160.61C109.53 170.03 90.1799 170.3 71.4399 159.45C52.6699 148.59 43.1599 131.68 41.5999 110.12H26.7199C25.8099 114.92 29.1099 129.88 32.9799 138.48C38.2699 150.22 46.0599 159.98 56.3899 167.81C56.7999 167.42 57.1699 167.1 57.5099 166.76C58.7799 165.5 60.0299 164.21 61.3199 162.97C62.2399 162.09 63.4099 162.08 64.1899 162.87C65.0099 163.7 64.9699 164.75 64.0799 165.74C63.7499 166.11 63.3899 166.44 63.0399 166.79C61.9499 167.89 60.8599 168.98 59.7599 170.09C70.8299 177.83 87.8699 183.98 106.89 182.46C117.41 181.62 127.3 178.71 136.63 173.64C134.04 169.16 131.56 164.87 129.1 160.61H129.11ZM119.52 143.99C106.43 150.07 93.4799 150.13 80.9899 142.9C68.5099 135.67 62.0399 124.45 60.7999 110.12H45.7099C45.9399 117.96 47.7799 125.31 51.1799 132.26C56.3399 142.82 64.0999 150.97 74.3799 156.69C93.2799 167.22 114.98 164.2 126.96 156.88C124.48 152.59 122.01 148.3 119.51 143.99H119.52ZM103.09 67.8599C113.44 68.5399 122.29 72.3999 129.54 79.6599C136.79 86.9199 140.62 95.7799 141.3 106.02H156.46C156.06 96.1699 153.36 87.1499 148.2 78.8899C141.65 68.4199 132.62 60.8899 121.12 56.3799C115.35 54.1199 109.38 52.8299 103.09 52.7299V67.8599ZM64.6599 66.2599C65.0399 66.6599 65.3299 66.9899 65.6299 67.2999C67.5299 69.1999 69.4299 71.0999 71.3199 73.0099C71.6299 73.3199 71.9499 73.6599 72.1699 74.0399C72.6199 74.8299 72.4299 75.7599 71.7699 76.3599C71.1399 76.9399 70.2799 77.0699 69.5399 76.6299C69.1999 76.4299 68.9099 76.1299 68.6199 75.8499C66.6199 73.8599 64.6299 71.8599 62.6299 69.8699C62.3599 69.5999 62.0499 69.3599 61.6999 69.0599C55.3999 75.4799 50.8999 82.8599 48.2199 91.3299C46.7099 96.1099 45.7799 100.99 45.7399 106.04H60.8499C61.5399 95.7199 65.3899 86.8699 72.6599 79.6099C79.9199 72.3599 88.7899 68.5299 99.0499 67.8499V52.6799C85.9799 53.2599 74.6199 57.7899 64.6599 66.2599ZM101.04 144.37C121.3 144.34 137.37 128.17 137.36 107.82C137.36 88.1399 121.08 71.9299 101.46 71.7799C81.1199 71.6299 64.5899 88.2599 64.7799 108.56C64.9699 128.22 81.1999 144.4 101.04 144.37ZM103.11 48.6899C117.95 49.3999 130.76 54.7399 141.55 64.5799C145.19 60.9399 148.7 57.4399 152.31 53.8399C138.44 41.0699 122.09 34.2799 103.11 33.4999V48.6899ZM144.54 67.5799C154.49 78.4899 159.77 91.3299 160.47 106.03H175.62C175.11 91.0599 170.62 77.5499 162.12 65.2199C161.66 65.6399 161.34 65.9299 161.02 66.2399C160.22 67.0199 159.46 67.8399 158.63 68.5999C157.74 69.4099 156.62 69.3999 155.86 68.6599C155.06 67.8899 155.08 66.7099 155.92 65.7799C156.22 65.4499 156.55 65.1399 156.86 64.8299C157.79 63.8899 158.72 62.9399 159.73 61.9299C158.2 60.1599 156.74 58.4899 155.33 56.8599C151.71 60.4599 148.19 63.9599 144.54 67.5899V67.5799ZM141.34 110.11C140.3 123.67 134.12 134.26 122.92 141.98C125.45 146.37 127.95 150.69 130.48 155.08C134.03 152.84 137.21 150.35 140.11 147.42C139.77 147.06 139.53 146.79 139.28 146.54C137.99 145.24 136.67 143.96 135.41 142.63C134.63 141.8 134.66 140.72 135.36 139.96C136.11 139.14 137.19 139.07 138.12 139.83C138.5 140.14 138.83 140.51 139.18 140.86C140.38 142.05 141.58 143.23 142.87 144.52C151.38 134.53 155.89 123.17 156.47 110.12H141.34V110.11ZM171.98 159.14C171.98 160.89 173.4 162.29 175.12 162.27C176.78 162.25 178.16 160.86 178.18 159.18C178.21 157.44 176.81 156 175.09 155.98C173.36 155.97 171.96 157.38 171.97 159.13L171.98 159.14ZM27.1099 179.02C25.3599 179.02 24.0299 180.3 23.9899 182.03C23.9499 183.82 25.2899 185.21 27.0699 185.22C28.8699 185.22 30.2099 183.87 30.1799 182.07C30.1599 180.33 28.8499 179.03 27.0999 179.02H27.1099ZM23.9899 57.0299C23.9799 58.7699 25.3699 60.1899 27.0999 60.1899C28.7699 60.1899 30.1499 58.8399 30.1899 57.1499C30.2299 55.3999 28.8699 53.9499 27.1499 53.9199C25.4399 53.8899 23.9999 55.2999 23.9899 57.0399V57.0299ZM27.0899 36.0899C25.2999 36.0899 23.9499 37.4699 23.9899 39.2599C24.0199 40.9899 25.3499 42.2799 27.0899 42.2799C28.8899 42.2799 30.2199 40.9299 30.1799 39.1199C30.1499 37.3799 28.8199 36.0799 27.0799 36.0899H27.0899ZM175.07 37.1799C176.85 37.1799 178.2 35.8299 178.19 34.0599C178.19 32.3099 176.79 30.9599 175.02 30.9799C173.31 30.9999 172 32.3199 171.98 34.0399C171.96 35.8199 173.29 37.1699 175.07 37.1699V37.1799Z" fill="#81CDDB"/>
<path d="M101.1 140.68C83.1299 140.71 68.5299 126.15 68.5099 108.18C68.4899 90.1098 83.0199 75.5398 101.07 75.5198C119.04 75.4998 133.63 90.0598 133.65 108.03C133.67 126.11 119.16 140.66 101.09 140.69L101.1 140.68ZM99.1299 108.58C95.8999 106.6 94.7299 104.27 95.4899 101.46C96.1599 98.9998 98.3499 97.2898 100.92 97.2198C103.51 97.1498 105.74 98.6898 106.56 101.15C106.97 102.38 106.96 103.62 106.56 104.84C105.99 106.61 104.68 107.72 103.04 108.54C103.04 112.88 103.05 117.18 103.03 121.48C103.03 122.17 103.44 122.39 103.94 122.64C106.55 123.93 109.13 125.26 111.75 126.54C112.8 127.05 113.31 127.79 113.26 128.97C113.21 130.13 113.24 131.3 113.26 132.46C113.26 132.92 113.31 133.38 113.34 133.9C123.82 129.28 132.39 116.4 128.99 101.62C127.4 94.7198 123.66 89.1698 117.97 84.9598C115.05 82.7998 111.85 81.2398 108.2 80.3798V88.9898C108.58 89.1898 108.97 89.4098 109.36 89.6098C111.84 90.8498 114.31 92.1098 116.81 93.3198C117.91 93.8498 118.4 94.6298 118.37 95.8598C118.32 98.4098 118.35 100.96 118.36 103.52C118.36 104.9 118.36 106.29 118.36 107.65C118.79 107.9 119.14 108.09 119.48 108.3C121.69 109.7 122.69 112.35 121.95 114.85C121.21 117.34 118.91 119.03 116.31 118.99C113.78 118.95 111.53 117.23 110.83 114.79C110.12 112.3 111.11 109.6 113.39 108.29C114.21 107.82 114.49 107.32 114.47 106.41C114.42 103.5 114.42 100.59 114.47 97.6798C114.48 96.8498 114.21 96.3998 113.45 96.0398C110.99 94.8598 108.59 93.5598 106.11 92.4098C104.75 91.7798 104.16 90.9098 104.21 89.3898C104.3 86.6598 104.24 83.9298 104.24 81.1998C104.24 80.7198 104.24 80.2398 104.24 79.6698C102.08 79.3298 100.07 79.3098 97.9499 79.6698C97.9499 80.2398 97.9499 80.6798 97.9499 81.1198C97.9499 83.8998 97.8899 86.6698 97.9699 89.4498C98.0099 90.9098 97.4499 91.7698 96.1399 92.3798C93.5899 93.5698 91.0999 94.8998 88.5599 96.1298C87.9499 96.4198 87.7199 96.7898 87.7299 97.4698C87.7699 99.7098 87.7399 101.95 87.7399 104.19C87.7399 105.35 87.7399 106.51 87.7399 107.6C90.9699 109.6 92.1299 111.92 91.3699 114.73C90.7099 117.18 88.5199 118.89 85.9399 118.98C83.3399 119.06 81.0199 117.41 80.2399 114.92C79.3599 112.1 80.4299 109.86 83.8199 107.56C83.8199 107.12 83.8199 106.63 83.8199 106.14C83.8199 102.74 83.8599 99.3298 83.7999 95.9298C83.7799 94.6398 84.2499 93.8298 85.4099 93.2798C87.8699 92.0998 90.2799 90.8198 92.7599 89.6598C93.6899 89.2198 94.1199 88.7198 94.0499 87.6398C93.9399 85.9898 94.0199 84.3298 94.0199 82.6698C94.0199 81.9598 94.0199 81.2498 94.0199 80.3298C88.8299 81.6698 84.5199 84.1598 80.8799 87.7998C75.5499 93.1398 72.7099 99.6198 72.4599 107.14C72.2099 114.71 74.6499 121.41 79.6699 127.1C82.2099 129.99 85.1799 132.34 88.9299 133.95C88.9299 131.95 88.9299 130.21 88.9299 128.47C88.9299 127.57 88.8899 126.67 88.9599 125.78C89.0499 124.7 89.9299 123.95 90.9399 123.98C91.8999 124.01 92.6899 124.74 92.8099 125.76C92.8499 126.11 92.8299 126.48 92.8299 126.83C92.8299 129.29 92.8299 131.76 92.8299 134.22C92.8299 134.65 92.8799 135.08 92.8999 135.54C98.4299 137.13 103.82 137.15 109.32 135.5C109.32 134.03 109.24 132.65 109.34 131.27C109.42 130.13 109.07 129.5 107.99 129.01C105.55 127.9 103.19 126.59 100.77 125.45C99.5499 124.88 99.0799 124.05 99.0899 122.71C99.1499 118.46 99.1099 114.2 99.1099 109.95C99.1099 109.46 99.1099 108.97 99.1099 108.55L99.1299 108.58ZM85.7999 111.36C84.7699 111.36 83.9399 112.19 83.9399 113.21C83.9399 114.24 84.7899 115.06 85.8199 115.04C86.7799 115.02 87.5899 114.22 87.6099 113.26C87.6399 112.23 86.8099 111.37 85.7899 111.36H85.7999ZM116.36 111.36C115.34 111.38 114.53 112.25 114.56 113.28C114.6 114.25 115.4 115.03 116.38 115.04C117.41 115.05 118.25 114.21 118.24 113.19C118.24 112.16 117.38 111.34 116.36 111.36ZM101.1 101.15C100.06 101.15 99.2499 101.98 99.2599 103.02C99.2699 104.05 100.11 104.86 101.15 104.83C102.12 104.8 102.9 104.01 102.93 103.03C102.96 102 102.12 101.15 101.1 101.15Z" fill="#81CDDB"/>
<defs>
<radialGradient id="paint0_radial_257_647" cx="0" cy="0" r="1" gradientUnits="userSpaceOnUse" gradientTransform="translate(103 103) rotate(90) scale(103)">
<stop stop-color="#310667"/>
<stop offset="1"/>
</radialGradient>
</defs>
</svg>
