<svg width="206" height="206" viewBox="0 0 206 206" fill="none" xmlns="http://www.w3.org/2000/svg">
<circle cx="103" cy="103" r="103" fill="url(#paint0_radial_257_638)"/>
<path d="M81.16 99.28C79.22 99.28 77.41 99.28 75.6 99.28C65.28 99.27 54.96 99.3 44.64 99.22C40.76 99.19 39.74 98.43 39.71 95.23C39.6 83.91 39.67 72.59 39.65 61.27C39.65 58.76 40.93 57.64 43.36 57.65C45.36 57.65 47.35 57.63 49.35 57.63C58.17 57.63 66.99 57.64 75.82 57.63C82.25 57.62 82.25 57.59 82.31 51.37C82.33 49.71 82.21 48.02 82.46 46.39C82.86 43.83 84.51 43.1 86.77 44.46C88.04 45.23 89.15 46.27 90.28 47.25C100.46 56.08 110.66 64.89 120.79 73.77C125.72 78.09 125.66 78.82 120.88 82.96C110.56 91.89 100.27 100.84 89.96 109.78C88.95 110.65 87.99 111.59 86.88 112.32C84.48 113.92 82.77 113.17 82.4 110.29C82.19 108.65 82.34 106.97 82.29 105.3C82.25 103.97 82.18 102.64 82.03 101.33C81.98 100.86 81.65 100.42 81.15 99.29L81.16 99.28ZM88.01 104.32C98.45 95.25 107.91 87.03 117.34 78.85C113.29 73.41 91.31 54.88 88.13 54.04C87.96 54.32 87.72 54.58 87.64 54.88C87.52 55.36 87.5 55.86 87.46 56.36C86.98 62.9 86.99 62.83 80.46 62.79C70.48 62.73 60.5 62.74 50.52 62.77C48.9 62.77 47.28 63.07 45.53 63.24V93.83C47.75 93.83 49.54 93.83 51.33 93.83C61.48 93.83 71.62 93.81 81.77 93.87C86.85 93.9 87.16 94.27 87.42 99.17C87.49 100.44 87.71 101.69 88.02 104.32H88.01Z" fill="#80CCDB"/>
<path d="M145.64 149.59C139.98 149.59 134.32 149.68 128.66 149.55C125.62 149.48 124.42 150.79 124.56 153.72C124.65 155.55 124.75 157.41 124.49 159.2C124.29 160.56 123.87 162.5 122.93 162.97C122.03 163.43 120.08 162.67 119.04 161.87C115.63 159.22 112.41 156.32 109.14 153.49C101.22 146.62 93.2799 139.77 85.4199 132.84C81.3099 129.22 81.3799 128.22 85.5099 124.63C96.0699 115.47 106.63 106.32 117.2 97.17C117.83 96.63 118.39 95.91 119.12 95.59C120.38 95.04 122.11 94.06 122.96 94.52C123.9 95.03 124.27 96.92 124.5 98.28C124.75 99.73 124.53 101.27 124.58 102.76C124.72 107.65 124.89 107.87 129.66 107.89C139.98 107.92 150.3 107.89 160.62 107.91C166.91 107.92 167.21 108.23 167.22 114.36C167.24 124.35 167.25 134.33 167.21 144.32C167.19 149.08 166.79 149.47 162.11 149.52C156.62 149.58 151.12 149.53 145.63 149.53V149.57L145.64 149.59ZM117.92 153.93C118.3 153.67 118.67 153.41 119.05 153.15C119.19 152.18 119.39 151.22 119.45 150.25C119.8 144.51 120.02 144.36 126 144.4C136.15 144.47 146.3 144.46 156.44 144.43C158.05 144.43 159.66 144.12 161.35 143.95V113.37C159.08 113.37 157.29 113.37 155.49 113.37C145.18 113.37 134.86 113.39 124.55 113.33C120.17 113.3 119.75 112.78 119.48 108.49C119.38 106.99 119.13 105.5 118.81 102.97C108.41 112 98.9499 120.22 88.9799 128.87C99.0399 137.59 108.48 145.76 117.92 153.94V153.93Z" fill="#80CCDB"/>
<defs>
<radialGradient id="paint0_radial_257_638" cx="0" cy="0" r="1" gradientUnits="userSpaceOnUse" gradientTransform="translate(103 103) rotate(90) scale(103)">
<stop stop-color="#310667"/>
<stop offset="1"/>
</radialGradient>
</defs>
</svg>
