<svg width="206" height="206" viewBox="0 0 206 206" fill="none" xmlns="http://www.w3.org/2000/svg">
<circle cx="103" cy="103" r="103" fill="url(#paint0_radial_256_636)"/>
<path d="M107.855 42C115.613 49.8293 123.299 57.7304 131.184 65.432C133.378 67.5709 134.44 69.7577 134.169 72.7904C133.961 75.1688 134.209 77.579 134.089 79.9653C133.985 82.0962 132.86 83.3013 131.303 83.1018C129.484 82.8783 128.989 81.5376 128.909 79.9493C128.869 79.1513 128.758 78.3372 128.893 77.563C129.787 72.3116 127.608 68.6164 123.722 65.1447C117.983 60.013 112.708 54.3545 107.313 48.8556C106.004 47.5228 104.639 46.9402 102.764 46.9482C85.8839 47.004 69.0043 46.9801 52.1166 46.9961C51.3504 46.9961 50.5763 47.1557 49.5787 47.2594V151.403C51.1669 151.467 52.7072 151.586 54.2395 151.586C69.2597 151.602 84.2798 151.586 99.2999 151.602C100.625 151.602 102.029 151.49 103.242 151.897C104.072 152.177 105.246 153.326 105.182 153.965C105.078 154.914 104.168 156 103.306 156.582C102.636 157.029 101.511 156.846 100.585 156.846C83.3061 156.854 66.0274 156.83 48.7407 156.886C46.913 156.886 45.3647 156.51 44 155.321V43.5962C44.5427 43.0615 45.0694 42.5347 45.6042 42C66.3546 42 87.105 42 107.855 42Z" fill="#80CCDB"/>
<path d="M133.937 163.605C119.555 163.574 107.704 152.727 106.371 138.362C106.004 134.427 106.746 130.596 108.334 127.085C110.729 121.769 113.115 116.374 116.283 111.522C120.777 104.634 125.892 98.1538 130.904 91.6254C133.283 88.5288 134.607 88.6007 137.177 91.6574C144.28 100.117 150.897 108.936 155.988 118.793C157.449 121.618 158.702 124.555 159.843 127.524C166.595 145.002 152.612 163.885 133.953 163.613L133.937 163.605ZM133.993 95.7755C126.148 105.52 119.037 114.938 114.224 125.856C113.474 127.548 112.851 129.311 112.357 131.099C108.039 146.59 121.854 161.57 137.648 158.857C151.072 156.542 160.138 142.336 155.047 129.056C150.314 116.717 142.469 106.422 134.001 95.7755H133.993Z" fill="#80CCDB"/>
<path d="M72.8352 99.4069C75.1656 103.118 74.6947 107.204 74.0563 111.298C73.8488 112.607 73.5056 113.908 73.4976 115.217C73.4657 118.609 75.0698 120.668 78.3101 121.642C78.8129 121.793 79.3875 121.746 79.8664 121.929C81.1274 122.424 81.9414 123.445 81.4466 124.714C81.1274 125.528 80.1298 126.494 79.3157 126.614C78.0787 126.797 76.666 126.502 75.4529 126.063C70.5367 124.283 67.6157 119.048 68.3818 113.589C68.733 111.099 69.3236 108.625 69.4433 106.127C69.5949 103.014 69.0522 102.432 65.9955 101.961C64.3834 101.705 63.0905 101.306 63.0426 99.4468C62.9947 97.5713 64.2557 97.1323 65.8758 96.837C69.148 96.2385 69.6508 95.6638 69.4593 92.3358C69.3156 89.8377 68.6691 87.3716 68.3419 84.8736C67.5598 78.8241 71.5343 73.1257 77.2087 72.136C77.9829 72.0004 78.9406 71.745 79.5312 72.0642C80.3452 72.5111 81.2311 73.3651 81.4466 74.2031C81.6062 74.8416 80.8161 75.7674 80.3293 76.4936C80.1457 76.765 79.6349 76.8448 79.2598 76.9725C73.9685 78.8081 72.6756 81.0029 73.8168 86.4937C74.7187 90.8433 75.2295 95.1451 72.8352 99.3989V99.4069Z" fill="#80CCDB"/>
<path d="M109.14 74.5542C108.694 75.903 108.462 76.6612 108.199 77.4114C102.915 92.5433 97.624 107.667 92.3246 122.791C92.0214 123.661 91.7101 124.547 91.2871 125.361C90.6566 126.606 89.4116 127.181 88.3182 126.494C87.5041 125.983 86.9694 124.738 86.714 123.725C86.5464 123.062 87.0812 122.216 87.3445 121.466C92.7317 106.095 98.1347 90.7236 103.53 75.3523C103.745 74.7298 103.929 74.0834 104.224 73.5008C104.927 72.1201 106.164 71.4576 107.488 72.2478C108.326 72.7506 108.741 73.9557 109.14 74.5463V74.5542Z" fill="#80CCDB"/>
<defs>
<radialGradient id="paint0_radial_256_636" cx="0" cy="0" r="1" gradientUnits="userSpaceOnUse" gradientTransform="translate(103 103) rotate(90) scale(103)">
<stop stop-color="#310667"/>
<stop offset="1"/>
</radialGradient>
</defs>
</svg>
