<svg width="206" height="206" viewBox="0 0 206 206" fill="none" xmlns="http://www.w3.org/2000/svg">
<circle cx="103" cy="103" r="103" fill="url(#paint0_radial_257_643)"/>
<path d="M156.83 157.79H167.44C166.54 159 166.18 159.98 165.52 160.25C164.66 160.61 163.56 160.46 162.57 160.46C123.74 160.46 84.92 160.46 46.09 160.46C45.28 160.46 44.47 160.46 43.16 160.46C43.07 153.63 42.99 147.06 42.91 140.21C40.88 139.86 39.15 139.57 37.25 139.25C37.22 138.57 37.19 137.96 37.16 137.22H42.02C43.3 133.87 43.4 131.28 42.43 126.2C41.6 126.05 40.66 125.89 39.73 125.69C38.88 125.51 38.04 125.3 36.73 124.99C38.42 122.55 40.98 124.33 42.69 122.46V112.88C41.39 110.57 38.3 112.97 36.87 110.06C38.91 109.71 40.59 109.41 42.43 109.09C43.62 105.83 42.8 102.52 43.05 98.76C41.16 98.37 39.35 98 37.3 97.58V95.87C38.95 95.68 40.54 95.49 42.34 95.28C43.53 91.66 43.09 88.12 42.72 84.29H37.46C37.37 83.56 37.28 82.85 37.15 81.86C39.08 81.72 40.7 81.6 42.58 81.46C43.48 78.07 42.87 74.64 42.98 70.91C41.1 70.68 39.36 70.47 37.39 70.23C37.29 69.62 37.19 69.03 37.04 68.09C38.98 67.85 40.72 67.64 42.74 67.39V56.78C40.93 56.63 39.19 56.48 37.28 56.32V54.03C39.09 53.82 40.84 53.62 43.03 53.37C43.03 50.44 42.93 47.64 43.06 44.85C43.19 42.15 42.44 39.34 44.1 35.71C44.68 37.41 45.17 38.18 45.18 38.96C45.25 45.62 45.25 52.29 45.25 58.96C45.25 90.12 45.25 121.29 45.25 152.45C45.25 153.94 45.25 155.43 45.25 157.05C47.61 158.14 49.91 157.56 52.2 157.5C58.8 154.03 62.48 148.52 64.41 141.39C66.81 132.53 68.25 123.61 68.21 114.43C68.19 109.26 68.21 104.1 68.23 98.93C68.23 95.48 69.36 92.38 71.51 89.73C75.75 84.5 82.08 83.9 87.35 88.12C87.97 88.61 88.56 89.13 89.66 90.05C89.88 88.55 90.1 87.66 90.13 86.77C90.2 84.27 90.1 81.77 90.22 79.27C90.59 71.84 98.03 63.7 106.04 64.5C110.78 64.97 114.19 67.25 116.7 70.92C118.87 74.09 120.25 77.65 120.16 81.64C120.09 84.79 120.15 87.94 120.15 91.69C121.07 91.04 121.54 90.74 121.96 90.39C128.19 85.12 137.04 87.22 140.08 96.2C140.86 98.5 141 101.08 141.07 103.54C141.22 109.2 140.99 114.88 141.2 120.54C141.48 128.17 142.51 135.71 145.18 142.92C146.04 145.25 147.09 147.52 148.24 149.71C149.97 153.01 152.43 155.68 156.83 157.8V157.79ZM105.36 155.75C108.02 153.7 109.83 151.41 111.23 148.68C115.49 140.38 116.95 131.4 117.16 122.27C117.47 108.63 117.21 94.97 117.31 81.32C117.34 77.44 115.75 74.4 113.66 71.3C109.58 65.26 100.36 66.44 96.59 71.21C93.58 75.02 92.37 79.16 92.42 83.61C92.56 98.22 91.37 112.86 93.2 127.44C94.03 134.02 95.38 140.48 98.18 146.53C99.78 149.98 101.73 153.27 105.37 155.75H105.36ZM58.29 157.64C60.69 157.64 62.83 157.52 64.96 157.67C68.16 157.9 70.93 156.69 73.27 154.86C76.54 152.31 79.37 149.29 81.31 145.48C86.13 136.04 88.22 125.92 89.18 115.48C89.5 112.02 89.83 108.56 89.95 105.09C90.09 101.13 90.36 97.15 88.52 93.39C85.91 88.07 80.38 85.99 75.72 89.05C72.49 91.17 71.19 94.57 71.08 98.47C70.83 107.59 70.65 116.71 70.12 125.81C69.64 134.12 67.85 142.18 63.75 149.54C62.24 152.24 60.3 154.7 58.3 157.65L58.29 157.64ZM128.99 89.79C122.75 91.97 120.31 95.43 120.21 101.74C120.07 110.9 121.39 119.9 123.17 128.84C124.77 136.89 127.55 144.51 132.54 151.07C136.91 156.82 141.14 159.18 150.51 156.9C149.03 154.99 147.3 153.17 146.04 151.06C141.87 144.1 140.37 136.29 139.23 128.39C137.97 119.68 138.23 110.92 138.22 102.16C138.22 94.91 136.11 92.04 128.99 89.77V89.79ZM90.78 157.57C91.7 145.92 91.36 131.79 89.99 128.45C86.81 138.09 86.98 147.59 87.68 157.33C88.95 157.43 89.72 157.49 90.78 157.57ZM122.91 157.12C123.86 142.58 123.52 138.99 120.26 129.94C119.96 134.77 119.05 139.34 119.59 143.74C120.15 148.31 118.46 153.07 120.52 157.42C121.09 157.51 121.42 157.62 121.73 157.59C122.04 157.56 122.32 157.37 122.92 157.13L122.91 157.12ZM96.63 157.67C97.9 152.49 96.66 148.5 93.81 144.79C93.46 148.79 92.94 152.75 93.69 157.02C94.64 157.23 95.52 157.43 96.63 157.68V157.67ZM84.97 144.73C82.12 148.75 80.23 152.56 81.84 157.5C82.89 157.4 83.93 157.3 84.97 157.21V144.73ZM116.93 157.44V142.52C115.6 145.48 114.53 147.86 113.5 150.15C113.81 152.59 114.11 154.97 114.42 157.44H116.93ZM125.58 146.02C125.36 150.22 124.91 153.59 125.88 157.2C126.87 157.29 127.75 157.37 128.71 157.46C129.62 153.3 129.24 149.76 125.57 146.02H125.58ZM78.86 154.02C77.33 155.28 76.33 156.11 74.84 157.33H79.01C78.96 156.28 78.93 155.53 78.86 154.02ZM102.93 157.21C101.42 156.12 100.58 155.51 99.16 154.49C99.39 155.98 99.5 156.69 99.64 157.6C100.62 157.49 101.34 157.4 102.94 157.22L102.93 157.21ZM131.48 157.78C132.7 157.49 133.38 157.34 134.94 156.97C133.36 155.98 132.54 155.47 131.48 154.8V157.78ZM108.91 156.97C109.66 157.21 110.08 157.34 110.81 157.58C110.9 156.6 110.98 155.76 111.15 154C110.06 155.45 109.55 156.13 108.91 156.98V156.97Z" fill="#81CDDB"/>
<path d="M99.0599 61.7399H89.4399V51.8799H99.0599V61.7399ZM91.5899 54.6299C91.7499 55.6199 91.8899 56.2599 91.9399 56.9099C91.9899 57.6299 91.9499 58.3599 91.9499 59.2299H97.1599C97.0199 57.5099 96.8999 56.1199 96.7699 54.6399H91.5799L91.5899 54.6299Z" fill="#81CDDB"/>
<path d="M98.76 49.47H89.41V39.78H99.21C99.16 43.2 99.88 46.42 98.76 49.47ZM96.83 42.44C94.98 41.67 93.34 41.24 91.57 42.78C91.64 44.08 91.71 45.46 91.8 47.09H96.84V42.44H96.83Z" fill="#81CDDB"/>
<path d="M82.33 57.9H53.98C53.81 57.59 53.45 56.96 53.04 56.23C56.77 55.46 79.16 55.26 81.06 56C81.41 56.14 81.58 56.74 82.32 57.9H82.33Z" fill="#81CDDB"/>
<path d="M52.62 44.4699C57.02 43.2399 77.21 43.2199 81.47 44.3499C80.91 44.8799 80.52 45.5799 80.12 45.5799C71.52 45.6499 62.91 45.6499 54.31 45.6199C53.95 45.6199 53.59 45.1499 52.62 44.4699Z" fill="#81CDDB"/>
<defs>
<radialGradient id="paint0_radial_257_643" cx="0" cy="0" r="1" gradientUnits="userSpaceOnUse" gradientTransform="translate(103 103) rotate(90) scale(103)">
<stop stop-color="#310667"/>
<stop offset="1"/>
</radialGradient>
</defs>
</svg>
