<svg width="206" height="206" viewBox="0 0 206 206" fill="none" xmlns="http://www.w3.org/2000/svg">
<circle cx="103" cy="103" r="103" fill="url(#paint0_radial_257_646)"/>
<path d="M106.18 26.7255C108.342 26.9974 110.511 27.2314 112.668 27.5539C120.705 28.7554 128.274 31.3417 135.401 35.256C144.437 40.22 151.981 46.8976 158.02 55.232C163.357 62.5989 167.056 70.7436 169.162 79.6029C171.23 88.3167 171.59 97.1127 170.212 105.959C168.119 119.378 162.522 131.165 153.518 141.314C150.242 145.007 146.657 148.397 142.527 151.128C140.991 152.146 140.409 153.247 140.453 155.112C140.586 161.328 140.51 167.551 140.504 173.767C140.504 177.542 138.48 179.559 134.699 179.565C130.07 179.572 125.448 179.578 120.819 179.565C117.012 179.553 115.058 177.58 115.045 173.754C115.033 170.276 115.045 166.804 115.045 163.086C106.534 164.667 98.1489 164.692 89.6375 163.086C89.6059 163.706 89.5616 164.18 89.5616 164.661C89.5553 167.747 89.5742 170.832 89.5553 173.912C89.53 177.542 87.5317 179.553 83.921 179.565C79.1973 179.578 74.4673 179.584 69.7436 179.565C66.1519 179.553 64.1031 177.497 64.0967 173.912C64.0841 167.494 64.0462 161.075 64.1284 154.657C64.1473 153.221 63.7489 152.323 62.5411 151.489C56.0216 146.967 50.5328 141.39 45.9925 134.883C40.7187 127.333 37.051 119.074 35.1539 110.057C31.676 93.5083 33.8323 77.6995 41.8759 62.8202C50.4632 46.9355 63.496 36.1982 80.5063 30.2794C85.9192 28.3949 91.5282 27.3073 97.2636 26.9342C97.6557 26.9089 98.0351 26.7888 98.4209 26.7129C101.007 26.7129 103.594 26.7129 106.18 26.7129V26.7255ZM102.278 159.21C137.304 159.216 165.855 130.691 165.912 95.633C165.975 60.5122 137.412 31.8666 102.335 31.8602C67.2206 31.8539 38.7141 60.3857 38.6825 95.5635C38.6572 130.526 67.3091 159.21 102.278 159.216V159.21ZM135.325 155.972C135.002 156.067 134.851 156.086 134.724 156.149C130.38 158.457 125.852 160.329 121.103 161.638C120.288 161.866 120.142 162.296 120.149 163.023C120.174 166.495 120.155 169.972 120.167 173.444C120.167 173.767 120.269 174.089 120.319 174.399H135.325V155.96V155.972ZM69.3136 155.928V174.393H84.4269C84.4269 170.383 84.4459 166.463 84.3826 162.542C84.3826 162.239 83.8198 161.821 83.4341 161.676C80.3735 160.512 77.275 159.456 74.227 158.255C72.5829 157.61 71.021 156.744 69.3136 155.928Z" fill="#81CDDB"/>
<path d="M102.323 36.9189C135.028 37.1972 160.91 63.4461 160.828 95.7214C160.746 127.826 134.927 154.113 102.259 154.081C69.3959 154.05 43.735 127.516 43.7666 95.4938C43.7982 63.2059 69.7437 37.1276 102.323 36.9189ZM155.731 95.5507C155.674 66.2981 132.347 42.1422 102.367 42.0916C72.6399 42.041 48.9456 65.9123 48.8824 95.4116C48.8191 124.822 72.3363 148.947 102.291 148.947C132.062 148.947 155.598 124.961 155.725 95.5507H155.731Z" fill="#81CDDB"/>
<path d="M127.572 98.0802C125.865 98.0802 124.328 98.0802 122.798 98.0802C118.719 98.0802 114.641 98.0802 110.562 98.0802C109.949 98.0802 109.474 98.0992 109.127 98.8074C107.729 101.659 105.377 103.177 102.215 103.133C98.9837 103.088 96.6819 101.463 95.316 98.5292C95.2528 98.3964 95.139 98.2889 94.9872 98.0802C92.4705 98.0802 89.8841 98.1182 87.3041 98.0676C85.5082 98.036 84.3447 96.8219 84.5154 95.2852C84.6609 93.9447 85.6663 93.0277 87.1903 92.9961C89.4794 92.9519 91.7685 92.9582 94.0513 92.9961C94.7785 93.0088 95.1643 92.8001 95.5247 92.0982C96.9159 89.4107 99.1734 87.9373 102.234 87.9183C105.358 87.8994 107.628 89.3917 109.089 92.1172C109.367 92.6357 109.582 93.0025 110.271 92.9961C115.893 92.9645 121.508 92.9645 127.13 92.9519C127.218 92.9519 127.307 92.8823 127.484 92.8127C127.433 89.4802 126.295 86.407 124.727 83.5425C120.971 76.6941 115.267 72.3055 107.622 70.4717C93.5707 67.0949 78.8369 77.1936 76.9399 91.5291C75.8838 99.4904 77.9959 106.484 83.3519 112.473C84.8316 114.123 85.8118 115.906 84.9771 118.151C84.6609 119.005 84.1044 119.833 83.4721 120.497C81.341 122.729 79.1531 124.898 76.9462 127.055C74.265 129.666 71.3056 129.483 68.7762 126.732C63.0154 120.485 59.1897 113.25 57.4507 104.922C56.0027 97.998 56.1481 91.0991 57.906 84.2444C59.7272 77.1367 63.1166 70.8701 67.9668 65.356C74.5875 57.8373 82.7638 52.9239 92.521 50.7613C101.481 48.7757 110.322 49.4144 118.878 52.8101C130.835 57.5591 139.321 65.9694 144.469 77.6995C147.732 85.136 148.731 92.9519 147.763 101.027C146.575 110.936 142.477 119.46 135.768 126.795C133.339 129.445 130.266 129.59 127.693 127.067C125.524 124.943 123.386 122.793 121.255 120.63C118.738 118.075 118.637 115.432 121.053 112.726C124.202 109.191 126.301 105.15 127.225 100.508C127.37 99.7813 127.446 99.0414 127.585 98.0802H127.572ZM79.9625 116.488C69.2441 104.998 69.1935 87.3302 78.6472 76.125C76.2632 73.741 73.8982 71.376 71.5459 69.0236C56.869 85.351 59.3288 110.152 72.975 123.507C75.2831 121.193 77.5849 118.878 79.9688 116.488H79.9625ZM129.084 64.9955C113.61 51.0079 89.8715 51.8047 75.7068 64.9323C78.0402 67.2657 80.3799 69.6054 82.6879 71.9198C95.784 62.5736 108.937 62.4851 122.065 71.9894C124.392 69.675 126.712 67.3605 129.084 64.9955ZM124.423 116.646C125.663 117.886 126.814 119.043 127.977 120.187C129.172 121.363 130.38 122.527 131.581 123.691C147.58 107.173 145.563 82.2588 132.909 68.9667C130.576 71.3001 128.236 73.6398 125.827 76.0427C129.842 80.8486 132.113 86.5714 132.783 92.9835C133.75 92.9835 134.547 92.9455 135.338 92.9898C136.912 93.0847 137.911 94.0901 137.911 95.5192C137.911 96.9357 136.912 97.9538 135.331 98.0549C134.503 98.1119 133.662 98.0676 132.751 98.0676C132.056 105.257 129.28 111.398 124.43 116.64L124.423 116.646ZM104.776 95.5002C104.763 94.1344 103.663 93.0341 102.31 93.0214C100.893 93.0088 99.7805 94.1849 99.831 95.6267C99.8816 96.9863 101.033 98.0802 102.36 98.036C103.714 97.9917 104.789 96.8598 104.776 95.5002Z" fill="#81CDDB"/>
<defs>
<radialGradient id="paint0_radial_257_646" cx="0" cy="0" r="1" gradientUnits="userSpaceOnUse" gradientTransform="translate(103 103) rotate(90) scale(103)">
<stop stop-color="#310667"/>
<stop offset="1"/>
</radialGradient>
</defs>
</svg>
