<svg width="206" height="206" viewBox="0 0 206 206" fill="none" xmlns="http://www.w3.org/2000/svg">
<circle cx="103" cy="103" r="103" fill="url(#paint0_radial_257_642)"/>
<path d="M51.1919 45.6443C50.28 44.9463 49.5031 44.4959 48.9064 43.8654C46.9361 41.8163 46.9924 35.8267 48.9514 33.7551C50.0998 32.5392 51.5522 32.0213 53.2072 32.01C55.2338 32.01 57.2604 32.01 59.2757 32.01C72.4371 32.01 85.5986 32.01 98.7487 32.01C99.3229 32.01 99.8859 31.9875 100.46 32.01C103.624 32.1564 105.662 34.0253 105.954 37.1778C106.056 38.3036 106.033 39.452 105.954 40.5891C105.819 42.4806 104.817 43.8992 103.218 45.0476C104.119 48.3577 104.997 51.6452 105.898 54.9215C107.756 61.688 109.681 68.4432 111.449 75.2322C111.989 77.3038 113.07 78.3284 115.186 78.6098C117.686 78.9363 120.163 79.4993 122.64 79.9496C123 80.0172 123.36 80.0397 124.002 80.1072C124.002 78.0582 124.002 76.1104 124.002 74.1626C124.002 72.8341 124.002 71.5056 123.98 70.1771C123.923 67.5875 124.914 65.6398 127.357 64.5477C127.582 64.4464 127.774 64.2775 128.1 64.0636C128.1 61.9019 128.145 59.6839 128.089 57.4772C128.044 55.8109 128.506 54.3811 129.575 53.0976C130.543 51.9379 131.422 50.6882 132.367 49.4948C133.549 48.0086 135.058 47.6596 136.308 48.5603C137.591 49.4835 137.693 51.1273 136.51 52.7486C135.722 53.8181 134.833 54.8202 134.101 55.9235C133.741 56.4752 133.448 57.1732 133.414 57.815C133.324 59.5826 133.403 61.3615 133.369 63.1291C133.369 63.9059 133.628 64.4013 134.383 64.7391C136.522 65.7186 137.366 67.5087 137.355 69.8055C137.332 73.8586 137.344 77.9005 137.355 81.9537C137.355 83.6537 137.366 83.6762 138.987 84.1941C144.054 85.8041 149.053 87.6393 153.669 90.3076C155.954 91.6249 158.105 93.2124 160.21 94.8224C162.293 96.4211 163.261 98.6278 163.205 101.285C163.16 103.311 163.081 105.338 163.227 107.353C163.464 110.675 161.021 113.816 156.607 113.118C153.714 112.656 150.82 112.667 147.927 113.14C140.102 114.424 134.889 118.961 131.962 126.155C130.904 128.767 130.239 131.571 129.643 134.34C128.798 138.225 127.121 139.711 123.09 139.711C116.008 139.711 108.915 139.722 101.834 139.7C100.899 139.7 99.9196 139.621 99.0302 139.362C96.7222 138.698 95.3486 136.806 95.4162 134.408C95.4499 133.215 95.7427 132.032 95.8327 130.828C96.846 118.522 92.6915 108.378 83.1104 100.508C79.9016 97.8735 76.2989 95.9933 72.3583 94.721C62.3381 91.4898 52.8132 92.7845 43.6936 97.851C42.9731 98.245 42.275 98.7291 41.4982 98.9431C39.2802 99.551 37.3437 98.9881 35.8801 97.198C34.8781 95.9708 33.9436 94.6985 33.0541 93.3925C31.1739 90.6229 31.8495 87.4479 34.6979 85.6916C36.6907 84.4531 38.6948 83.2597 40.7326 82.1113C41.6108 81.6159 42.1287 80.9854 42.3876 79.9609C45.1235 69.3101 47.9156 58.6706 50.674 48.0199C50.8767 47.2318 51.023 46.4324 51.2032 45.6218L51.1919 45.6443ZM158.048 107.939C158.048 105.935 157.97 104.167 158.071 102.422C158.183 100.519 157.418 99.202 155.943 98.0536C152.813 95.633 149.357 93.8091 145.731 92.2892C135.576 88.0334 124.914 85.6015 114.128 83.7325C110.098 83.0345 107.609 81.0417 106.54 77.1012C104.299 68.8035 101.991 60.5171 99.7057 52.2307C99.109 50.0465 98.4898 47.8735 97.8818 45.7119H56.81C56.5849 46.4099 56.3484 47.0517 56.1683 47.7159C53.3986 58.3667 50.6402 69.0061 47.8819 79.6569C47.454 81.3119 47.3752 83.2484 46.4295 84.5094C45.4275 85.8267 43.581 86.5022 42.0836 87.4367C40.5412 88.3936 38.9762 89.3169 37.2649 90.3527C38.2444 91.6249 39.1001 92.7508 39.9782 93.8879C40.5975 93.5389 41.0366 93.3024 41.4757 93.0548C47.6679 89.5646 54.3106 87.7857 61.4148 87.7969C64.8375 87.7969 68.1701 88.2811 71.5139 89.148C75.0942 90.0825 78.438 91.4673 81.6467 93.2124C85.9138 95.5317 89.5053 98.7291 92.5339 102.512C99.5594 111.249 102.284 121.213 100.922 132.325C100.843 132.989 100.843 133.654 100.798 134.352H124.126C124.238 133.935 124.306 133.642 124.385 133.338C125.004 130.952 125.488 128.52 126.276 126.2C128.01 121.078 130.735 116.563 135.058 113.163C141.059 108.434 147.983 107.072 155.425 107.691C156.179 107.759 156.923 107.837 158.037 107.95L158.048 107.939ZM52.9708 40.1838C56.4272 40.5891 99.2216 40.4315 100.595 40.0262V37.4254H52.9708V40.1726V40.1838ZM131.962 82.1676V69.6141H129.384V81.4921C130.239 81.7172 131.016 81.9199 131.962 82.1676Z" fill="#81CDDB"/>
<path d="M69.5211 157.972C68.3276 157.713 67.2693 158.074 66.3123 158.772C64.8937 159.808 63.3851 159.886 61.8314 159.188C61.0207 158.817 60.2777 158.918 59.4783 159.211C57.5981 159.898 55.8079 159.864 54.0854 158.603C53.4774 158.164 52.5654 158.017 51.7886 157.972C49.7395 157.86 47.8368 157.691 46.3844 155.833C45.8552 155.158 44.6168 154.888 43.6598 154.73C42.1173 154.471 41.1153 153.683 40.5074 152.321C40.1246 151.465 39.5166 150.958 38.6497 150.575C36.792 149.754 35.2721 148.616 35.0018 146.342C34.9343 145.813 34.3939 145.25 33.9323 144.89C32.1872 143.527 31.0613 141.963 31.2302 139.576C31.2865 138.866 30.8249 137.966 30.3182 137.414C29.0347 136.029 28.483 134.554 29.1248 132.742C29.5188 131.627 29.3162 130.636 28.697 129.679C27.785 128.261 27.7737 126.842 28.6294 125.39C29.1248 124.557 29.2486 123.735 29.0798 122.71C28.7533 120.762 28.7758 118.792 30.4871 117.272C30.8136 116.979 30.9149 116.394 31.0275 115.921C31.2302 115.122 31.3765 114.311 31.5116 113.5C31.7143 112.296 32.3223 111.384 33.3581 110.776C34.1462 110.303 34.6866 109.695 34.9343 108.761C35.486 106.7 36.5893 105.147 38.8073 104.493C39.4378 104.313 40.0007 103.582 40.3835 102.962C41.3968 101.307 42.6353 100.069 44.7294 100.08C45.7877 100.08 46.4857 99.4046 47.105 98.6953C48.2421 97.3893 49.5706 96.8038 51.3157 97.1979C52.284 97.423 53.1959 97.1979 54.0066 96.5899C55.6616 95.3852 57.3842 95.0024 59.3432 95.9256C59.7823 96.1283 60.4465 96.0269 60.9644 95.8806C62.9797 95.3064 64.8712 95.0812 66.7064 96.5336C67.8435 97.4343 69.3297 97.4681 70.7257 97.3104C72.0318 97.1641 72.9437 97.6144 73.653 98.6277C74.2272 99.4496 74.9478 99.8324 75.9723 100.024C77.9876 100.407 79.8566 101.127 80.7347 103.311C80.9374 103.807 81.6017 104.201 82.1421 104.46C84.0673 105.36 85.576 106.509 85.9475 108.806C86.0376 109.391 86.6118 110.022 87.1297 110.416C88.7284 111.643 89.798 113.05 89.6179 115.212C89.5391 116.191 89.9781 117.058 90.6649 117.779C91.8921 119.074 92.2749 120.515 91.8246 122.305C91.6107 123.138 91.8021 124.208 92.1511 125.029C92.8942 126.831 93.1418 128.52 92.0272 130.276C91.7683 130.681 91.7683 131.368 91.8809 131.875C92.365 134.048 92.1173 135.984 90.5298 137.707C90.1133 138.157 89.9331 138.911 89.8205 139.553C89.449 141.557 89.1563 143.527 87.0847 144.676C86.5217 144.991 86.1614 145.835 85.925 146.522C85.272 148.414 84.2925 149.877 82.2322 150.508C81.5904 150.699 80.9824 151.375 80.6109 151.972C79.5301 153.75 78.1903 154.933 75.9498 155.068C75.1955 155.113 74.3736 155.811 73.7881 156.407C72.5947 157.623 71.2887 158.333 69.5436 157.972H69.5211ZM86.7131 121.449C86.578 121.179 86.3979 120.661 86.0826 120.233C85.1369 118.916 84.5064 117.497 84.4839 115.854C84.4839 115.156 84.2024 114.694 83.617 114.289C82.3785 113.433 81.5003 112.262 81.1175 110.81C80.8586 109.841 80.1831 109.447 79.4287 108.941C78.3929 108.254 77.3684 107.443 76.6366 106.464C75.9836 105.586 75.2968 105.011 74.2497 104.82C72.8987 104.572 71.7841 103.987 70.8721 102.895C70.5343 102.478 69.7688 102.14 69.2509 102.197C67.517 102.411 65.9971 101.881 64.5222 101.127C63.9142 100.812 63.3963 100.733 62.7321 100.947C61.1896 101.454 59.6359 101.386 58.0597 100.981C57.5193 100.846 56.7875 100.913 56.3146 101.172C54.941 101.938 53.5224 102.343 51.9575 102.23C51.2257 102.185 50.6289 102.343 50.0885 102.906C49.0189 104.032 47.7017 104.775 46.148 105.011C45.3373 105.135 44.8082 105.563 44.3804 106.261C43.6148 107.533 42.5339 108.502 41.1491 109.087C40.4511 109.38 40.0345 109.83 39.8206 110.562C39.3702 112.048 38.5371 113.32 37.2874 114.255C36.6231 114.75 36.3079 115.347 36.3079 116.18C36.2966 117.621 35.7787 118.916 34.8667 120.019C34.2813 120.717 34.1687 121.404 34.3151 122.282C34.5628 123.746 34.4276 125.198 33.7409 126.538C33.3918 127.225 33.4031 127.844 33.7409 128.52C34.4276 129.871 34.5515 131.312 34.3263 132.775C34.1912 133.654 34.3263 134.352 34.8893 135.05C35.7787 136.164 36.3079 137.448 36.3079 138.889C36.3079 139.722 36.6231 140.307 37.2986 140.803C38.5709 141.726 39.3139 143.021 39.8769 144.473C40.0795 145.002 40.5299 145.577 41.0253 145.824C42.4776 146.567 43.626 147.558 44.5492 148.909C44.8645 149.382 45.4612 149.832 46.0016 149.956C47.5328 150.294 48.8838 150.924 49.9647 152.039C50.5501 152.647 51.1919 152.838 52.0138 152.715C53.5224 152.478 54.9072 152.85 56.1344 153.739C56.7987 154.223 57.463 154.201 58.2623 154.111C59.6809 153.942 61.1446 153.953 62.5632 154.111C63.3513 154.189 64.0268 154.268 64.7248 153.84C65.9971 153.075 67.3932 152.681 68.8906 152.782C69.7012 152.838 70.3429 152.636 70.9171 152.017C71.9417 150.924 73.2364 150.26 74.7226 150.058C75.4769 149.956 75.9836 149.618 76.3664 148.954C77.132 147.592 78.2466 146.579 79.6989 145.971C80.3857 145.678 80.8473 145.25 81.05 144.507C81.4778 142.919 82.4573 141.715 83.6958 140.668C84.0786 140.341 84.4163 139.756 84.4501 139.26C84.5965 137.56 85.2044 136.097 86.184 134.723C86.4767 134.318 86.6681 133.654 86.5668 133.181C86.2402 131.559 86.533 130.062 87.0734 128.542C87.2648 128.002 87.3323 127.292 87.1409 126.774C86.5442 125.131 86.1277 123.509 86.7131 121.472V121.449Z" fill="#81CDDB"/>
<path d="M132.502 141.321C131.635 138.855 132.086 136.412 132.187 133.924C132.299 131.188 134.123 129.184 134.371 126.617C136.386 125.097 136.589 122.023 139.156 120.976C140.642 118.713 143.254 118.06 145.326 116.63C145.799 116.304 151.856 114.502 152.498 114.728C154.682 115.493 156.922 114.142 159.174 115.234C161.133 116.191 163.632 115.921 165.299 117.734C168.012 117.779 169.037 120.346 170.838 121.674C172.561 122.947 174.092 124.996 174.756 127.022C175.443 129.128 177.098 130.985 176.805 133.372C176.546 135.466 177.92 137.358 177.008 139.666C176.299 141.478 176.929 143.798 175.364 145.475C175.679 147.963 173.236 149.078 172.583 151.048C171.829 153.323 169.397 153.762 168.159 155.552C166.976 157.252 164.589 157.466 162.811 158.513C161.066 159.537 158.701 160.033 156.675 159.875C154.783 159.729 152.959 160.539 151.102 159.965C149.255 159.391 147.341 159.019 145.574 158.265C143.873 157.533 142.241 156.565 140.777 155.439C139.314 154.313 137.704 153.075 136.904 151.51C136.015 149.765 134.157 148.751 133.774 146.646C133.448 144.856 132.615 143.156 132.018 141.411C132.176 141.377 132.333 141.355 132.491 141.321H132.502ZM137.692 140.353C138.571 144.631 140.676 148.234 144.144 150.981C147.701 153.795 151.912 154.572 156.292 154.538C157.688 154.527 159.242 154.302 160.458 153.66C162.732 152.444 165.119 151.285 166.875 149.303C167.855 148.2 168.845 147.063 169.588 145.79C170.343 144.518 170.928 143.1 171.322 141.67C171.705 140.296 172.043 138.81 171.885 137.425C171.592 134.847 171.165 132.235 170.05 129.859C169.419 128.52 168.609 127.225 167.674 126.088C166.774 124.996 165.704 123.937 164.488 123.228C162.18 121.888 159.681 120.886 157.069 120.323C155.639 120.019 154.063 119.895 152.644 120.166C148.49 120.954 144.459 122.564 141.791 125.795C138.424 129.882 136.409 134.712 137.692 140.353Z" fill="#81CDDB"/>
<path d="M77.3797 49.0896C81.8044 49.0896 86.2291 49.0896 90.6537 49.0896C93.9976 49.1009 95.6639 50.3168 96.6659 53.4805C99.2216 61.6205 101.789 69.7493 104.277 77.9006C104.693 79.2742 104.93 80.7491 104.941 82.179C104.997 86.4798 104.941 90.7694 104.873 95.0702C104.817 98.9094 102.813 100.88 98.9739 100.958C98.5348 100.958 98.0845 100.97 97.6454 100.958C94.4141 100.835 92.7704 99.4949 92.1399 96.3087C91.5319 93.2801 90.0345 90.7806 87.9179 88.6189C85.3959 86.0407 82.2435 84.6334 78.742 84.0366C77.0082 83.7327 75.2293 83.5976 73.4729 83.575C68.4178 83.5075 63.3626 83.5638 58.2962 83.5187C57.3617 83.5187 56.3822 83.4287 55.504 83.136C52.8245 82.2353 51.5747 79.5895 52.3178 76.4821C52.937 73.9038 53.6238 71.3368 54.2768 68.7698C55.504 63.9286 56.7312 59.0986 57.9359 54.2573C58.9154 50.3731 60.5029 49.1009 64.4772 49.1009C68.778 49.1009 73.0789 49.1009 77.3685 49.1009L77.3797 49.0896ZM99.7395 95.5993C99.7733 95.194 99.8183 94.9463 99.8183 94.6987C99.7845 90.4654 99.7508 86.2321 99.672 81.9988C99.6607 81.1882 99.5256 80.355 99.2892 79.5895C96.8685 71.7421 94.4029 63.8948 91.9485 56.0587C91.7796 55.5296 91.5544 55.0117 91.318 54.4037C86.6681 54.3699 82.0971 54.3587 77.5598 54.4037C77.1658 57.4661 77.481 77.1238 77.9314 78.5199C88.0079 80.0285 94.8307 85.3201 97.2176 95.6106H99.7395V95.5993ZM63.3401 54.4487C61.3473 62.3636 59.377 70.1772 57.3392 78.2722C62.4844 78.2159 67.3144 78.351 72.0994 78.1821V54.4487H63.3513H63.3401Z" fill="#81CDDB"/>
<path d="M128.719 104.111C128.382 103.852 127.56 103.458 127.064 102.816C126.31 101.825 125.815 100.643 125.15 99.5735C124.148 97.9748 123.101 96.3985 122.077 94.8223C121.536 93.9892 121.311 93.1222 121.581 92.1315C121.897 90.9718 122.505 90.3188 123.608 90.195C124.621 90.0824 125.511 90.4089 126.051 91.2983C127.886 94.3044 129.631 97.3668 131.534 100.317C132.502 101.825 131.455 104.212 128.731 104.099L128.719 104.111Z" fill="#81CDDB"/>
<path d="M143.761 102.366C143.727 103.694 143.288 104.482 142.354 104.955C141.352 105.462 140.361 105.349 139.517 104.629C139.1 104.268 138.774 103.773 138.481 103.289C137.073 101.037 135.621 98.8079 134.326 96.4998C133.853 95.6554 133.594 94.6196 133.493 93.6514C133.369 92.4917 134.225 91.7937 135.204 91.3996C136.116 91.0393 136.938 91.4221 137.625 92.0639C137.805 92.2328 137.974 92.4354 138.109 92.6493C139.866 95.4978 141.633 98.3463 143.367 101.217C143.615 101.634 143.694 102.152 143.761 102.366Z" fill="#81CDDB"/>
<path d="M39.2351 127.495C39.2351 115.707 48.6699 106.385 60.5141 106.34C71.3337 106.306 81.6129 114.852 81.6579 127.473C81.703 139.384 72.3808 148.752 60.4465 148.74C47.7129 148.729 39.0662 138.348 39.2351 127.506V127.495ZM44.5267 127.439C44.2903 135.207 50.5051 143.381 60.3114 143.46C69.7687 143.527 76.3776 135.995 76.4226 127.518C76.4789 118.837 69.3296 111.778 60.6717 111.598C51.9462 111.418 44.3578 118.781 44.5267 127.439Z" fill="#81CDDB"/>
<path d="M166.492 137.448C166.47 144.023 161.133 149.258 154.434 149.292C148.073 149.314 142.567 143.899 142.624 137.583C142.703 129.668 148.861 125.457 154.58 125.435C161.156 125.412 166.503 130.839 166.481 137.448H166.492ZM161.212 137.301C161.178 133.687 158.161 130.692 154.547 130.704C150.865 130.704 147.837 133.822 147.915 137.526C147.983 141.141 151.034 144.045 154.682 144C158.318 143.944 161.246 140.949 161.223 137.301H161.212Z" fill="#81CDDB"/>
<defs>
<radialGradient id="paint0_radial_257_642" cx="0" cy="0" r="1" gradientUnits="userSpaceOnUse" gradientTransform="translate(103 103) rotate(90) scale(103)">
<stop stop-color="#310667"/>
<stop offset="1"/>
</radialGradient>
</defs>
</svg>
