<svg width="224" height="240" viewBox="0 0 224 240" fill="none" xmlns="http://www.w3.org/2000/svg">
<path d="M181.436 17.8184C184.17 15.2842 186.885 12.732 189.636 10.2159C192.768 7.33777 193.601 7.19296 197.221 9.03929C204.86 12.9311 212.48 16.8952 220.137 20.7689C222.418 21.9274 223.612 23.5384 222.852 26.0907C222.128 28.4982 219.612 29.186 216.662 27.7198C210.254 24.534 203.846 21.3663 197.583 17.927C195.212 16.6237 193.637 16.6237 191.899 18.7235C190.741 20.1173 189.274 21.2395 187.935 22.4885C180.061 29.8014 180.025 29.8014 180.676 40.5174C180.749 41.694 181.255 43.1059 182.07 43.9204C186.052 47.8484 190.179 51.5954 194.469 55.5776C201.475 51.9936 208.389 48.4457 215.304 44.8979C219.178 42.9068 221.621 43.1059 222.762 45.5314C223.92 47.9932 222.725 49.8757 218.743 51.9031C211.557 55.5776 204.335 59.1436 197.239 62.963C194.216 64.5921 191.935 64.212 189.6 61.7864C187.012 59.1255 184.206 56.6818 181.473 54.1476L180.586 54.4554C180.586 56.3379 180.622 58.2204 180.586 60.103C180.531 62.3294 179.409 64.1214 177.183 64.1214C172.802 64.1214 168.313 64.1576 164.041 63.2888C159.824 62.4199 156.728 59.3427 154.882 55.3966C153.977 53.4779 152.891 52.7538 150.737 52.7538C123.947 52.8262 97.1389 52.8262 70.349 52.7538C68.3036 52.7538 66.8374 53.2426 65.9504 55.1613C65.6789 55.7406 65.3169 56.356 64.8281 56.7542C60.5562 60.1392 61.4794 63.9042 63.199 68.3933C73.39 94.9841 83.3276 121.665 93.2109 148.383C94.2789 151.279 95.546 152.582 98.7499 152.311C102.624 151.985 106.552 152.383 110.443 152.184C113.846 152.003 115.602 153.469 116.869 156.547C123.169 171.806 129.721 186.975 135.984 202.252C137.106 205.004 138.555 205.891 141.451 205.854C154.592 205.71 167.734 205.818 180.875 205.782C187.319 205.764 193.275 207.103 198.325 211.357C205.982 217.783 207.665 226.327 206.851 235.703C206.652 237.948 205.276 239.215 202.995 239.36C201.692 239.432 200.389 239.414 199.103 239.414C142.392 239.414 85.6627 239.414 28.9514 239.414C27.7748 239.414 26.6164 239.414 25.4398 239.36C22.978 239.197 21.6747 237.839 21.4394 235.414C19.8284 218 29.2954 208.95 40.3733 206.271C41.6042 205.981 43.0523 204.678 43.5591 203.483C50.0213 188.423 56.3748 173.326 62.6198 158.176C63.1447 156.89 63.199 155.08 62.7103 153.777C52.8994 127.041 42.9256 100.378 33.1147 73.6427C32.264 71.3076 30.7073 70.9637 28.7342 70.5474C14.1989 67.3616 3.44675 55.8311 1.20219 41.0966C-0.95186 26.9776 5.99903 12.6595 18.5432 5.38284C34.4904 -3.84881 54.6371 0.604103 65.2264 15.9359C66.9279 18.3976 68.6294 19.2665 71.5437 19.2484C97.5552 19.1398 123.585 19.1398 149.596 19.2484C152.438 19.2484 153.941 18.4519 155.298 15.8997C158.068 10.7046 162.665 7.98942 168.621 7.80841C170.956 7.736 173.309 7.7541 175.644 7.80841C179.391 7.89891 180.477 9.00309 180.586 12.732C180.64 14.2887 180.586 15.8454 180.586 17.384C180.857 17.5288 181.129 17.6917 181.4 17.8365L181.436 17.8184ZM198.85 231.413C199.99 221.114 192.533 213.565 181.346 213.547C136.636 213.529 91.9076 213.529 47.1975 213.565C45.134 213.565 43.0161 213.765 41.025 214.271C33.2595 216.263 28.1007 224.173 29.8384 231.413H198.85ZM128.472 205.565C128.418 204.768 128.472 204.479 128.364 204.261C122.499 190.233 116.58 176.223 110.805 162.158C109.882 159.895 108.289 159.913 106.443 159.913C95.6546 159.913 84.8481 160.004 74.0598 159.859C71.2722 159.823 69.9508 160.782 68.9009 163.353C63.5972 176.349 58.0764 189.255 52.646 202.198C52.2296 203.212 51.9581 204.28 51.5237 205.583H128.472V205.565ZM36.4272 63.5965C51.5237 63.4879 63.9774 50.9256 63.905 35.8835C63.8326 20.8232 51.2703 8.31524 36.2281 8.35144C20.9326 8.36955 8.4789 20.968 8.64181 36.2817C8.80472 51.4506 21.2584 63.7051 36.4272 63.5965ZM152.619 44.8436V27.2854H71.1998V44.8436H152.619ZM86.4048 152.22C75.526 123.24 64.9367 94.9841 54.3837 66.8909C49.5145 68.5744 45.1702 70.0949 40.6267 71.6697C43.9031 80.5212 47.107 89.1555 50.3109 97.7898C56.6283 114.841 62.9456 131.893 69.2991 148.926C69.8603 150.41 69.9689 152.311 72.4126 152.257C76.8112 152.148 81.2279 152.22 86.4048 152.22ZM172.549 15.6282C164.476 14.9041 160.783 18.1442 160.729 25.6382C160.692 32.6433 160.674 39.6304 160.747 46.6356C160.837 54.0933 164.892 57.3516 172.549 56.0483V15.6282Z" fill="#80CCDC"/>
<path d="M89.9345 170.086C97.2112 170.014 103.13 175.716 103.293 182.974C103.456 190.36 97.5008 196.369 90.0612 196.369C82.8207 196.369 76.9016 190.505 76.8654 183.3C76.8292 176.114 82.7121 170.177 89.9345 170.104V170.086ZM95.4373 183.246C95.4554 180.295 92.9393 177.761 90.0431 177.798C87.3098 177.834 84.8662 180.223 84.7394 182.993C84.6127 185.943 87.0021 188.513 89.9707 188.586C92.9393 188.658 95.4192 186.251 95.4373 183.264V183.246Z" fill="#80CCDC"/>
<path d="M51.1798 35.8834C51.2522 44.1194 44.7358 50.8531 36.554 51.016C28.2093 51.1789 21.3127 44.4815 21.2403 36.1187C21.1679 27.9007 27.6844 21.1851 35.9205 21.0403C44.3738 20.8774 51.1074 27.4301 51.1798 35.8834ZM43.4144 36.0644C43.4506 32.1364 40.1924 28.7877 36.3006 28.7515C32.4269 28.7153 29.0782 32.0278 29.0601 35.9377C29.0239 39.9199 32.2097 43.1601 36.1739 43.1963C40.12 43.2325 43.3963 40.0105 43.4325 36.0644H43.4144Z" fill="#80CCDC"/>
</svg>
