<svg width="264" height="265" viewBox="0 0 264 265" fill="none" xmlns="http://www.w3.org/2000/svg">
<path d="M177.267 0.430664C179.812 1.64844 180.677 3.6943 180.567 6.47082C180.409 10.1972 180.53 13.9479 180.53 18.0518C183.063 18.0518 185.402 18.0518 187.752 18.0518C192.27 18.064 193.707 19.4645 193.707 23.9093C193.719 29.7668 193.707 35.6243 193.707 41.4818C193.707 42.3708 193.707 43.2719 193.707 44.4166C194.876 44.4166 195.765 44.4166 196.654 44.4166C201.099 44.4532 202.475 45.8536 202.487 50.3959C202.487 56.2534 202.487 62.1109 202.487 67.9684V70.7692C204.362 70.7692 206.067 70.8423 207.772 70.7571C214.579 70.3795 215.773 72.0479 215.724 78.5386C215.578 98.2178 215.675 117.897 215.675 137.576V140.937H228.937C228.937 140.097 228.937 139.232 228.937 138.368C228.937 132.328 228.925 126.287 228.937 120.247C228.949 116.277 230.459 114.755 234.393 114.731C238.143 114.706 241.894 114.706 245.645 114.731C256.459 114.78 263.972 122.22 263.984 133.034C264.021 161.311 263.984 189.6 263.984 217.876C263.984 227.034 263.997 236.179 263.984 245.337C263.96 256.662 256.58 264.018 245.206 264.03C180.311 264.03 115.416 264.03 50.521 264.03C45.7108 264.03 44.3956 262.69 44.3956 257.795C44.3956 249.283 44.3712 240.77 44.3956 232.258C44.3956 229.482 45.6621 227.74 47.8175 227.326C50.7767 226.742 53.0296 228.714 53.0783 232.063C53.1392 237.093 53.1027 242.134 53.1027 247.164C53.1027 249.794 53.1027 252.424 53.1027 255.323C54.357 255.323 55.3434 255.323 56.3176 255.323C119.106 255.323 181.894 255.323 244.683 255.323C245.413 255.323 246.144 255.347 246.875 255.298C251.6 255.03 255.277 251.158 255.265 246.47C255.265 241.781 251.575 237.933 246.838 237.677C245.925 237.628 245.012 237.665 244.098 237.665C227.049 237.604 228.961 239.48 228.925 222.358C228.888 199.378 228.925 176.411 228.925 153.432V149.985H215.663C215.663 150.972 215.663 151.946 215.663 152.92C215.663 161.615 215.663 170.31 215.663 179.005C215.663 182.792 214.19 184.838 211.438 184.923C208.588 185.009 206.968 182.89 206.968 178.981C206.968 170.371 206.968 161.773 206.968 153.164C206.968 152.165 206.968 151.179 206.968 149.985H193.707C193.707 150.972 193.707 151.934 193.707 152.908C193.707 161.603 193.707 170.298 193.707 178.993C193.707 182.78 192.233 184.826 189.481 184.911C186.631 185.009 185.012 182.877 185 178.968C185 175.23 185 171.491 185 167.558H167.342C167.342 170.821 167.342 174.085 167.342 177.337C167.342 178.433 167.403 179.541 167.305 180.625C167.098 183.194 165.186 184.984 162.836 184.899C160.571 184.814 158.769 183.097 158.671 180.612C158.55 177.324 158.635 174.024 158.623 170.724C158.623 169.725 158.623 168.739 158.623 167.546H145.361C145.361 170.347 145.361 173.147 145.361 175.948C145.361 177.592 145.446 179.248 145.3 180.892C145.081 183.291 143.108 184.984 140.868 184.899C138.7 184.826 136.971 183.194 136.703 180.892C136.593 179.991 136.654 179.066 136.654 178.152C136.654 152.336 136.654 126.531 136.654 100.714V97.2558H110.216V100.434C110.216 126.336 110.216 152.238 110.216 178.14C110.216 179.054 110.277 179.979 110.168 180.88C109.887 183.279 107.976 184.972 105.735 184.899C103.579 184.826 101.862 183.194 101.558 180.892C101.509 180.527 101.521 180.162 101.521 179.796C101.521 145.2 101.521 110.603 101.521 76.0057C101.521 73.1804 102.629 71.5121 104.821 70.9519C105.516 70.7692 106.271 70.7936 107.001 70.7814C107.988 70.7571 108.986 70.7814 110.301 70.7814C110.301 67.3108 110.301 64.0471 110.301 60.7835C110.301 59.6875 110.241 58.5793 110.338 57.4955C110.533 55.0234 112.274 53.3064 114.539 53.2333C116.914 53.1602 118.862 54.926 118.972 57.532C119.106 60.82 119.009 64.1202 119.021 67.4204C119.021 68.4189 119.021 69.4053 119.021 70.7936C120.251 70.7936 121.31 70.7936 122.357 70.7936C126.279 70.8423 127.777 72.3523 127.801 76.3345C127.825 80.2435 127.801 84.1526 127.801 88.2077H136.666C136.666 87.1239 136.666 85.9792 136.666 84.8345C136.666 81.9971 136.654 79.1597 136.666 76.3223C136.691 72.3402 138.188 70.8179 142.11 70.7814C144.57 70.7571 147.029 70.7814 149.709 70.7814C149.757 69.7219 149.843 68.8451 149.843 67.9562C149.843 62.0013 149.843 56.0585 149.843 50.1036C149.843 45.9388 151.316 44.4532 155.408 44.4166C156.394 44.4166 157.368 44.4166 158.623 44.4166C158.623 41.6036 158.623 39.0706 158.623 36.5255C158.623 32.312 158.623 28.1106 158.623 23.8971C158.635 19.4523 160.06 18.064 164.59 18.0518C166.867 18.0518 169.144 18.0518 171.799 18.0518C171.799 14.9952 171.799 12.1091 171.799 9.21081C171.799 8.11481 171.872 7.00664 171.787 5.92282C171.58 3.29243 172.785 1.56319 175.05 0.442842H177.242L177.267 0.430664ZM237.754 228.836C243.514 229.287 249.59 227.947 255.29 231.381C255.29 229.993 255.29 229.092 255.29 228.191C255.29 196.736 255.29 165.281 255.29 133.826C255.29 133.095 255.314 132.364 255.265 131.634C254.973 127.603 251.892 123.974 247.91 123.584C244.597 123.255 241.212 123.523 237.754 123.523V228.848V228.836ZM158.525 79.6468H145.544V105.744H158.525V79.6468ZM206.773 123.389V97.2314H193.877V123.389H206.773ZM158.44 158.534V132.389H145.556V158.534H158.44ZM167.427 44.2096H184.805V26.9294H167.427V44.2096ZM176 70.6475V53.3064H158.757V70.6475H176ZM184.78 140.949V132.401H167.549V140.949H184.78ZM185.073 53.2333V70.5987H193.621V53.2333H185.073ZM184.854 88.1956V79.6103H167.488V88.1956H184.854ZM167.452 105.707H184.793V97.2314H167.452V105.707ZM167.452 123.304H184.817V114.792H167.452V123.304ZM184.902 149.949H167.537V158.449H184.902V149.949ZM145.593 114.731V123.28H158.44V114.731H145.593ZM206.871 132.389H193.914V140.864H206.871V132.389ZM206.822 88.2077V79.6224H193.865V88.2077H206.822ZM110.326 88.1468H118.911V79.6468H110.326V88.1468Z" fill="#80CCDC"/>
<path d="M0.433594 69.0764C0.677148 68.4067 0.957236 67.7613 1.1399 67.0793C3.73376 57.6172 11.5884 51.2361 21.4524 50.5907C30.4152 50.0061 39.3171 55.6688 42.7268 64.5463C46.7211 74.9583 50.411 85.4677 54.2226 95.9527C66.2055 128.93 78.1519 161.907 90.22 194.848C91.3282 197.868 91.1211 200.73 90.768 203.726C89.6355 213.443 88.5273 223.161 87.3826 233.11H119.081C119.081 232.222 119.081 231.259 119.081 230.285C119.081 221.505 119.081 212.713 119.081 203.933C119.081 199.634 120.543 198.185 124.853 198.185C132.72 198.173 140.599 198.173 148.466 198.185C152.619 198.185 154.129 199.67 154.141 203.774C154.165 213.468 154.141 223.173 154.141 233.098H185.292C187.983 221.651 195.119 214.393 206.956 211.653C206.956 208.694 206.895 205.784 206.968 202.861C207.041 200.048 208.868 198.185 211.328 198.209C213.787 198.233 215.504 200.109 215.638 202.934C215.675 203.567 215.638 204.213 215.638 204.858C215.638 213.918 215.638 222.979 215.638 232.039C215.638 233.598 215.663 235.156 215.638 236.703C215.578 240.454 214.031 242.025 210.256 242.025C199.454 242.049 188.653 242.025 177.863 242.025C146.749 242.025 115.635 242 84.5208 242.061C81.9635 242.061 80.0029 241.367 78.1519 239.589C69.6396 231.406 60.9813 223.38 52.5056 215.173C51.0564 213.772 49.8021 211.909 49.108 210.009C42.1789 191.243 35.3837 172.417 28.5641 153.602C28.2597 152.75 27.9674 151.861 27.8822 150.96C27.6874 148.877 28.9417 147.087 30.8292 146.551C32.802 145.979 34.787 146.709 35.8099 148.475C36.2239 149.182 36.4675 149.973 36.7476 150.752C42.9339 167.753 49.108 184.753 55.2943 201.753C55.6596 202.764 56.0736 203.762 56.5851 205.077C59.3738 204.067 61.992 203.105 64.9147 202.045C52.8587 168.922 40.8758 136.005 28.8321 102.918C26.4452 103.771 24.3019 104.526 22.1708 105.305C21.6716 105.488 21.2088 105.768 20.539 106.097C22.39 111.175 24.1923 116.131 25.9946 121.088C27.3951 124.948 28.8564 128.796 30.1229 132.705C30.8901 135.08 29.721 137.296 27.5899 138.075C25.4345 138.867 23.1938 137.917 22.11 135.689C21.7933 135.031 21.5741 134.325 21.3306 133.643C18.5541 125.995 15.7897 118.36 13.001 110.712C9.43294 100.921 5.84051 91.1547 2.28461 81.3638C1.60266 79.4884 1.04248 77.5643 0.433594 75.6646C0.433594 73.4726 0.433594 71.2684 0.433594 69.0764ZM37.0033 99.947C49.0714 133.095 61.0543 165.999 73.1103 199.086C76.106 197.978 78.712 197.028 81.4033 196.029C69.2987 162.76 57.3523 129.892 45.3451 96.866C42.4468 97.9255 39.8285 98.8997 37.0033 99.9348V99.947ZM145.227 233.184V224.452C143.912 224.452 142.645 224.501 141.391 224.452C138.578 224.33 136.702 222.577 136.702 220.129C136.702 217.669 138.553 215.903 141.366 215.782C142.694 215.721 144.021 215.782 145.239 215.782V207.135H127.947V233.196H145.227V233.184ZM36.1996 72.2427C34.6652 65.9955 31.8521 61.1244 25.264 59.6752C19.8205 58.4696 15.2661 60.2111 11.905 64.5707C7.80112 69.9045 8.77534 75.4698 11.6858 81.1811C19.8814 78.1976 27.9918 75.2384 36.1996 72.2548V72.2427ZM39.3171 80.353C30.8049 83.4583 22.7067 86.4175 14.4745 89.4254C15.5705 92.3846 16.5326 95.0028 17.5433 97.7428C25.9338 94.6862 34.0441 91.727 42.3493 88.6948C41.3142 85.8452 40.3644 83.227 39.3171 80.3408V80.353ZM62.0773 212.347C67.8982 217.84 73.293 222.93 79.1991 228.519C80.1247 220.348 80.9771 212.932 81.8539 205.138C75.0709 207.61 68.8359 209.875 62.0651 212.347H62.0773ZM194.34 233.11H206.773V220.665C200.343 222.674 196.337 226.705 194.34 233.11Z" fill="#80CCDC"/>
<path d="M123.441 149.742C121.079 149.742 119.082 147.684 119.13 145.333C119.179 142.971 121.249 140.998 123.599 141.083C125.852 141.169 127.74 143.093 127.776 145.346C127.813 147.696 125.791 149.742 123.441 149.73V149.742Z" fill="#80CCDC"/>
<path d="M127.776 127.968C127.703 130.318 125.584 132.291 123.246 132.169C120.884 132.048 118.972 129.917 119.13 127.578C119.276 125.313 121.261 123.487 123.514 123.523C125.877 123.56 127.862 125.63 127.776 127.98V127.968Z" fill="#80CCDC"/>
<path d="M127.777 162.906C127.825 165.256 125.816 167.302 123.454 167.314C121.213 167.314 119.24 165.451 119.118 163.198C118.996 160.848 120.933 158.741 123.295 158.656C125.646 158.57 127.728 160.543 127.764 162.906H127.777Z" fill="#80CCDC"/>
<path d="M127.776 110.298C127.752 112.649 125.681 114.658 123.343 114.585C120.981 114.524 119.02 112.429 119.13 110.079C119.227 107.814 121.164 105.951 123.429 105.926C125.791 105.902 127.813 107.936 127.788 110.286L127.776 110.298Z" fill="#80CCDC"/>
</svg>
