<svg width="240" height="240" viewBox="0 0 240 240" fill="none" xmlns="http://www.w3.org/2000/svg">
<path d="M224.441 0C227.219 1.34333 230.245 2.33452 232.723 4.10824C237.444 7.47309 239.622 12.416 239.948 18.1806C239.987 18.8849 239.974 19.5891 239.974 20.2934C239.974 72.9832 239.961 125.686 240 178.376C240 183.749 238.696 188.575 235.005 192.566C231.353 196.517 226.801 198.578 221.233 198.669V191.366C221.402 191.261 221.519 191.131 221.663 191.118C228.38 190.44 232.41 185.38 232.397 178.167C232.292 132.181 232.344 86.2079 232.344 40.2216C232.344 39.4522 232.344 38.6827 232.344 37.7306H7.57791C7.57791 38.4088 7.57791 39.1522 7.57791 39.8956C7.57791 86.1948 7.57791 132.481 7.57791 178.78C7.57791 186.449 12.1687 191.053 19.8113 191.092C24.8847 191.118 29.958 191.092 35.0314 191.092C35.7878 191.092 36.5443 191.157 37.4311 191.196V198.722C35.6965 198.722 34.0793 198.722 32.4621 198.722C28.3278 198.722 24.1935 198.722 20.0461 198.722C10.0037 198.695 3.39142 193.805 0.443918 184.245C0.326539 183.88 0.156993 183.541 0.000488281 183.188C0.000488281 127.277 0.000488281 71.366 0.000488281 15.4548C0.287413 14.6593 0.613464 13.8767 0.861263 13.0681C2.19155 8.80338 4.70866 5.38636 8.47781 3.06488C10.6428 1.76067 13.1338 1.00424 15.4683 0C85.1259 0 154.77 0 224.428 0H224.441ZM232.266 29.8271C232.266 25.6928 232.501 21.7802 232.214 17.9067C231.77 12.0769 227.493 8.07302 221.637 7.60351C220.789 7.5383 219.915 7.55134 219.068 7.55134C153.01 7.55134 86.9517 7.55134 20.8938 7.55134C19.9548 7.55134 19.0158 7.52526 18.0898 7.61655C13.1338 8.09911 8.88212 11.2292 8.17785 15.82C7.48662 20.3847 7.64312 25.0668 7.42141 29.8011H232.279L232.266 29.8271Z" fill="#80CCDC"/>
<path d="M75.0446 108.627C78.9311 108.627 82.4395 108.627 85.9478 108.627C96.7987 108.627 107.65 108.627 118.501 108.627C122.57 108.627 124.109 109.944 123.665 113.935C123.131 118.787 122.074 123.586 121.213 128.412C121.07 129.233 120.718 130.016 120.366 131.111H123.091C137.686 131.111 152.293 131.111 166.887 131.111C171.425 131.111 172.482 132.194 172.495 136.811C172.495 141.076 172.495 145.353 172.495 149.853C173.577 149.853 174.412 149.853 175.26 149.853C181.585 149.853 187.91 149.814 194.236 149.853C205.635 149.931 213.681 157.965 213.721 169.364C213.773 181.389 213.773 193.413 213.721 205.425C213.668 216.824 205.635 224.91 194.249 224.936C174.738 224.988 155.214 224.988 135.703 224.936C124.291 224.91 116.218 216.876 116.166 205.49C116.114 193.387 116.101 181.284 116.166 169.194C116.231 157.952 124.304 149.931 135.586 149.853C144.402 149.801 153.232 149.853 162.048 149.853C162.896 149.853 163.73 149.853 164.722 149.853V138.754H162.178C147.819 138.754 133.447 138.78 119.088 138.715C117.327 138.715 116.271 139.198 115.305 140.71C110.023 149.11 102.837 155.422 93.9164 159.739C84.0828 164.499 73.7143 166.247 62.9547 164.264C42.3091 160.469 27.9629 148.64 21.4549 128.751C14.7382 108.262 19.6551 89.8595 34.9143 74.6264C44.461 65.0797 56.3554 60.3845 69.8669 59.9281C73.7274 59.7976 75.0446 61.1279 75.0446 65.0666C75.0446 78.6434 75.0446 92.2332 75.0446 105.81C75.0446 106.658 75.0446 107.492 75.0446 108.601V108.627ZM164.943 217.319C174.542 217.319 184.141 217.345 193.74 217.319C201.513 217.293 206.065 212.716 206.078 204.89C206.104 193.257 206.091 181.636 206.078 170.003C206.078 162.034 201.539 157.496 193.584 157.496C174.464 157.482 155.344 157.482 136.225 157.496C128.295 157.496 123.77 162.06 123.757 170.042C123.744 181.597 123.744 193.139 123.757 204.695C123.757 212.82 128.256 217.319 136.368 217.319C145.889 217.332 155.41 217.319 164.93 217.319H164.943ZM50.4082 152.005C50.6299 151.601 50.8777 151.222 51.0603 150.792C56.3554 138.128 61.6505 125.477 66.8803 112.8C67.2846 111.835 67.3759 110.688 67.3889 109.618C67.4281 96.5762 67.415 83.5472 67.415 70.5052C67.415 69.6835 67.415 68.8488 67.415 68.0141C52.208 68.4706 33.2971 80.1041 27.8585 101.037C22.5896 121.317 32.1755 142.862 50.4213 152.005H50.4082ZM73.7404 116.4C68.3671 129.286 63.0199 142.132 57.6596 154.991C75.5533 161.46 97.5552 153.544 107.102 138.741C104.494 138.741 102.016 138.845 99.5637 138.702C97.7508 138.598 96.6944 139.08 95.7162 140.802C92.8861 145.758 86.8346 147.544 81.683 145.275C76.4532 142.967 73.7013 137.111 75.4228 131.685C76.8835 127.082 80.118 124.317 84.8783 123.73C89.7691 123.13 93.5121 125.23 96.0423 129.442C96.564 130.303 96.8379 131.177 98.1942 131.138C102.329 131.033 106.463 131.138 110.61 131.059C111.184 131.059 112.084 130.681 112.28 130.238C114.21 125.882 115.605 121.369 115.762 116.387H73.7404V116.4ZM89.8473 134.907C89.8473 133.042 88.1258 131.32 86.2608 131.294C84.4088 131.268 82.6612 132.95 82.596 134.815C82.5308 136.759 84.3566 138.585 86.2999 138.532C88.1649 138.48 89.8604 136.746 89.8473 134.894V134.907Z" fill="#80CCDC"/>
<path d="M44.9175 209.833C44.9175 208.751 44.9175 207.916 44.9175 207.082C44.9175 198.5 44.9175 189.918 44.9175 181.324C44.9175 177.359 46.1434 176.107 50.043 176.094C55.5076 176.094 60.9722 176.081 66.4368 176.094C69.9321 176.107 71.2624 177.424 71.2885 180.88C71.3146 184.154 71.2885 187.427 71.2885 190.922C72.0449 190.975 72.7101 191.066 73.3752 191.079C77.353 191.092 81.3309 191.066 85.3217 191.092C88.6344 191.118 90.0168 192.474 90.0168 195.8C90.0429 207.042 90.0168 218.272 90.0168 229.514C90.0168 230.349 90.0168 231.196 90.0168 232.24H104.82V239.752H7.57812V232.37H26.0587C26.1109 231.431 26.1761 230.688 26.1761 229.931C26.1761 224.858 26.1761 219.785 26.1761 214.711C26.1891 211.112 27.5064 209.833 31.1581 209.807C34.9012 209.794 38.6443 209.807 42.4004 209.807C43.1568 209.807 43.9132 209.807 44.9175 209.807V209.833ZM63.5415 232.201V183.867H52.6775V232.201H63.5415ZM82.2047 232.201V198.852H71.4972V232.201H82.2047ZM44.8001 232.201V217.593H33.9361V232.201H44.8001Z" fill="#80CCDC"/>
<path d="M122.53 59.4718C126.717 55.2853 130.786 51.2945 134.738 47.1993C136.316 45.569 138.024 44.8256 140.32 44.8647C145.928 44.9821 151.536 44.9039 157.326 44.9039V52.5465C155.983 52.5465 154.614 52.5465 153.231 52.5465C149.488 52.5465 145.732 52.5204 141.989 52.5726C141.259 52.5726 140.294 52.6508 139.837 53.0943C135.755 57.046 131.777 61.1021 127.891 64.9886C129.925 68.523 131.999 71.7444 133.681 75.1484C136.981 81.8128 138.611 88.9207 138.729 96.3677C138.781 99.85 137.437 101.272 134.007 101.272C118.396 101.285 102.772 101.285 87.1603 101.272C83.8085 101.272 82.413 99.9021 82.413 96.6155C82.4 80.926 82.3869 65.2234 82.413 49.5338C82.413 46.2602 83.8868 44.8647 87.2125 44.956C99.6807 45.2821 110.688 49.4686 120.209 57.5286C120.926 58.1285 121.63 58.7415 122.53 59.4979V59.4718ZM109.54 72.0444C112.175 69.6837 114.679 67.4535 117.274 65.1321C109.319 57.9068 100.581 53.7072 90.1469 52.8595V93.4594H130.825C130.095 84.969 127.069 77.6133 122.113 70.7532C119.726 73.1268 117.444 75.3962 115.162 77.6524C113.257 75.7613 111.601 74.118 109.527 72.0444H109.54Z" fill="#80CCDC"/>
<path d="M202.386 135.011C196.531 135.011 190.688 135.011 184.832 135.011C181.193 135.011 179.863 133.707 179.863 130.108C179.85 120.822 179.85 111.536 179.863 102.25C179.863 98.7546 181.193 97.4113 184.649 97.3982C196.504 97.3852 208.373 97.3852 220.228 97.3982C223.567 97.3982 224.949 98.7676 224.962 102.067C224.988 111.431 224.988 120.796 224.962 130.16C224.962 133.655 223.632 134.998 220.176 135.011C214.242 135.038 208.321 135.011 202.386 135.011ZM187.662 109.319V123.078C190.636 120.691 193.322 118.526 196.244 116.192C193.257 113.805 190.57 111.64 187.662 109.319ZM208.568 116.192C211.581 118.605 214.281 120.756 217.137 123.039V109.332C214.202 111.679 211.542 113.818 208.568 116.205V116.192ZM195.396 105.132C195.331 105.263 195.265 105.393 195.213 105.523C197.6 107.428 200 109.332 202.426 111.262C204.995 109.188 207.303 107.323 210.029 105.132H195.396ZM209.377 127.33C209.455 127.186 209.533 127.043 209.599 126.886C207.212 124.982 204.838 123.078 202.386 121.122C199.83 123.182 197.483 125.06 195.135 126.951C195.226 127.082 195.331 127.199 195.422 127.33H209.377Z" fill="#80CCDC"/>
<path d="M224.871 75.0439V82.3214H165.021V75.0439H224.871Z" fill="#80CCDC"/>
<path d="M164.97 67.3884V60.0979H224.976C224.976 61.3369 224.976 62.5498 224.976 63.7758C224.976 64.9235 224.976 66.0842 224.976 67.3884H164.97Z" fill="#80CCDC"/>
<path d="M224.872 45.0603V52.3638H164.865V45.0603H224.872Z" fill="#80CCDC"/>
<path d="M97.4897 198.565V191.288H108.641V198.565H97.4897Z" fill="#80CCDC"/>
<path d="M52.5204 18.6762C52.5596 20.776 50.7858 22.5628 48.6861 22.5367C46.6906 22.5106 44.9821 20.8151 44.943 18.8197C44.9039 16.7199 46.6776 14.9332 48.7774 14.9593C50.7728 14.9854 52.4813 16.6808 52.5204 18.6762Z" fill="#80CCDC"/>
<path d="M37.535 18.7676C37.535 20.8674 35.6961 22.615 33.6094 22.5367C31.6009 22.4585 29.9446 20.7369 29.9576 18.7285C29.9576 16.6287 31.7965 14.8811 33.8832 14.9593C35.8917 15.0376 37.5481 16.7591 37.535 18.7676Z" fill="#80CCDC"/>
<path d="M22.537 18.8457C22.4718 20.9454 20.6068 22.654 18.5331 22.5235C16.5376 22.4062 14.9074 20.6324 14.9726 18.637C15.0378 16.5372 16.9028 14.8287 18.9765 14.9592C20.9719 15.0765 22.6022 16.8502 22.537 18.8457Z" fill="#80CCDC"/>
<path d="M182.681 196.896C185.615 188.145 188.419 179.759 191.315 171.151C193.806 171.972 196.062 172.729 198.475 173.537C198.162 174.633 197.953 175.52 197.653 176.394C194.405 186.149 191.145 195.905 187.884 205.66C187.637 206.403 187.402 207.147 187.037 207.838C185.641 210.42 182.498 210.72 180.646 208.438C180.164 207.838 179.785 207.134 179.381 206.469C174.047 197.574 168.7 188.679 163.365 179.785C162.922 179.054 162.466 178.337 161.826 177.32C161.422 178.076 161.096 178.624 160.848 179.198C158.631 184.349 156.427 189.514 154.223 194.679C154.04 195.109 153.884 195.552 153.675 195.97C152.11 199.074 149.384 199.635 146.841 197.222C144.637 195.135 142.603 192.866 140.203 190.375C138.286 195.109 136.538 199.4 134.712 203.886C132.351 202.947 130.134 202.073 127.8 201.147C127.982 200.482 128.074 199.961 128.269 199.478C130.395 194.118 132.508 188.758 134.686 183.41C136.381 179.263 139.185 178.728 142.394 181.937C144.376 183.919 146.267 185.98 148.419 188.249C148.928 187.271 149.267 186.697 149.528 186.097C152.097 180.163 154.666 174.229 157.184 168.269C157.927 166.521 158.84 165.047 160.94 164.904C163.052 164.76 164.135 166.13 165.113 167.747C170.382 176.589 175.69 185.406 180.998 194.235C181.468 195.018 181.976 195.774 182.694 196.909L182.681 196.896Z" fill="#80CCDC"/>
</svg>
