<svg width="180" height="150" viewBox="0 0 271 232" fill="none" xmlns="http://www.w3.org/2000/svg">
<path d="M243.389 88.6639C241.563 88.6639 239.819 88.5537 238.111 88.7281C237.579 88.7832 236.918 89.5179 236.679 90.0964C232.944 99.1872 229.263 108.306 225.573 117.424C225.472 117.672 225.389 117.929 225.279 118.177C224.48 119.958 223.397 120.17 222.112 118.728C219.588 115.909 217.091 113.053 214.585 110.216C214.237 109.821 213.879 109.426 213.383 108.875C201.698 124.587 190.086 140.188 178.31 156.019C178.943 156.092 179.328 156.166 179.714 156.166C188.37 156.166 197.035 156.184 205.691 156.101C206.425 156.101 207.371 155.661 207.857 155.11C213.126 149.077 218.312 142.979 223.526 136.9C223.985 136.368 224.425 135.817 224.93 135.321C226.004 134.274 227.161 134.201 228.079 135.156C229.033 136.148 229.143 137.286 228.235 138.361C226.105 140.877 223.884 143.328 221.773 145.863C205.36 165.578 188.976 185.312 172.554 205.018C172.004 205.679 171.177 206.404 170.397 206.514C169.736 206.606 168.617 206.019 168.332 205.422C168.02 204.76 168.13 203.548 168.58 202.952C170.443 200.435 172.499 198.057 174.491 195.624C176.354 193.337 178.218 191.06 180.329 188.48C177.906 188.48 175.868 188.369 173.849 188.544C173.197 188.599 172.472 189.306 172.004 189.894C166.955 196.248 161.98 202.658 156.913 209.003C156.317 209.756 155.408 210.454 154.517 210.693C153.985 210.83 152.746 210.132 152.636 209.618C152.434 208.746 152.571 207.524 153.085 206.817C155.334 203.704 157.767 200.729 160.126 197.699C162.411 194.761 164.697 191.813 167.13 188.672H104.721C106.749 191.225 108.668 193.613 110.568 196.019C113.322 199.499 116.057 202.997 118.792 206.487C118.93 206.661 119.068 206.827 119.187 207.001C120.013 208.259 119.885 209.6 118.893 210.344C117.856 211.115 116.626 210.895 115.644 209.664C113.478 206.964 111.357 204.219 109.209 201.51C106.043 197.525 102.848 193.576 99.6999 189.572C99.0665 188.773 98.3873 188.434 97.3592 188.48C95.5418 188.562 93.7151 188.507 91.558 188.507C92.8248 190.096 93.8803 191.427 94.9543 192.75C97.4877 195.853 100.03 198.948 102.564 202.042C102.738 202.254 102.913 202.456 103.078 202.676C104.014 203.943 103.959 205.33 102.958 206.156C101.93 207.001 100.599 206.781 99.5622 205.523C97.194 202.639 94.8992 199.692 92.5035 196.827C76.3391 177.543 60.1564 158.278 43.9736 139.013C43.2118 138.103 42.3948 137.093 43.2944 136.01C43.8176 135.376 44.8824 134.889 45.6993 134.908C46.3327 134.917 47.0486 135.716 47.5718 136.304C51.4546 140.739 55.3006 145.211 59.165 149.683C60.7897 151.565 62.3777 153.494 64.0667 155.321C64.4797 155.771 65.2232 156.147 65.8199 156.157C74.8613 156.212 83.8935 156.193 93.4673 156.193C81.8741 140.73 70.5012 125.551 59.5689 110.959C56.5123 113.687 53.5107 116.249 50.656 118.958C48.71 120.803 47.8931 120.711 46.8467 118.195C43.0374 109.022 39.2005 99.8484 35.4187 90.6565C34.923 89.4536 34.3081 88.9761 32.9495 89.0036C28.5711 89.0863 28.617 89.0312 27.7542 93.2919C25.7899 103.062 25.2758 112.915 26.1203 122.842C26.1754 123.521 26.5517 124.274 27.0015 124.807C33.8675 132.823 40.7701 140.803 47.6636 148.792C48.1226 149.325 48.6091 149.839 49.0221 150.408C49.8299 151.529 49.8391 152.704 48.7376 153.585C47.682 154.43 46.4887 154.348 45.5616 153.282C43.1383 150.509 40.7518 147.718 38.356 144.917C33.4269 139.159 28.5436 133.374 23.5685 127.654C22.4395 126.35 21.9622 124.991 21.8245 123.283C20.6037 107.856 22.4762 92.8236 27.5522 78.2323C40.5498 40.7395 73.2457 11.2355 112.055 3.07211C149.524 -4.81581 183.037 4.08221 211.905 29.408C227.647 43.2188 238.882 60.1608 245.409 80.1056C249.806 93.5215 251.32 107.314 250.466 121.391C250.292 124.283 249.512 126.662 247.465 128.921C240.397 136.68 233.568 144.66 226.647 152.557C226.472 152.759 226.289 152.961 226.096 153.154C225.068 154.173 223.645 154.366 222.755 153.604C221.819 152.805 221.809 151.271 222.81 150.105C224.939 147.653 227.133 145.257 229.263 142.805C234.495 136.809 239.727 130.812 244.895 124.77C245.445 124.127 245.859 123.172 245.932 122.337C246.804 111.051 246.253 99.8667 243.389 88.6363V88.6639ZM49.4719 112.851C52.0604 110.482 54.704 108.104 57.3017 105.67C58.9447 104.128 59.8902 104.164 61.267 105.982C68.0963 114.991 74.9255 124.008 81.7639 133.016C82.0393 133.384 82.3606 133.723 82.6819 134.1C82.8471 133.852 82.948 133.723 83.0215 133.576C93.0175 113.981 103.023 94.3847 112.991 74.7797C118.802 63.3656 124.584 51.9332 130.312 40.4732C131.524 38.0489 132.423 35.4778 133.534 32.8056C132.791 32.8056 132.359 32.7873 131.928 32.8056C120.316 33.3841 109.347 36.3685 99.0574 41.7771C84.8848 49.2334 73.7231 59.9313 65.1406 73.3931C64.6449 74.1644 64.1952 75.0735 63.4884 75.5602C62.956 75.9183 61.827 75.9918 61.3405 75.652C60.8907 75.3398 60.8081 74.3113 60.7989 73.5951C60.7989 73.1727 61.2211 72.7411 61.4782 72.3279C66.9856 63.4023 73.7139 55.5236 81.8557 48.9304C103.463 31.4282 127.99 25.2758 155.132 31.2629C176.107 35.8818 192.638 47.7091 205.498 64.7705C207.508 67.4427 209.252 70.3261 211.07 73.136C211.703 74.1185 211.685 75.1745 210.583 75.8081C209.509 76.4234 208.61 75.9183 207.949 74.9725C207.582 74.4399 207.27 73.8706 206.921 73.3196C193.143 51.7587 174.06 37.9663 148.597 33.6137C145.173 33.026 141.676 32.9066 138.206 32.5669C138.096 32.7322 137.995 32.8975 137.885 33.0719C139.858 37.3786 141.685 41.7679 143.833 45.992C157.895 73.5308 172.022 101.024 186.13 128.535C187.048 130.335 187.957 132.144 188.939 134.072C189.269 133.659 189.481 133.42 189.673 133.163C196.539 123.971 203.405 114.789 210.262 105.597C212.979 101.96 213.355 101.933 216.384 105.349C218.45 107.672 220.515 110.004 222.635 112.401C222.847 112.015 222.975 111.832 223.049 111.63C226.573 102.97 230.107 94.3204 233.586 85.652C234.137 84.2746 234.917 83.742 236.386 83.8246C238.212 83.9348 240.039 83.8521 242.325 83.8521C240.324 78.6456 238.423 73.7053 236.422 68.4803C235.817 69.1231 235.514 69.417 235.248 69.7384C228.437 78.0854 221.635 86.4325 214.824 94.7704C214.42 95.2662 214.025 95.9457 213.484 96.1386C212.869 96.359 211.868 96.3957 211.446 96.0376C211.061 95.707 210.978 94.6326 211.207 94.0725C211.538 93.2552 212.254 92.5757 212.832 91.8686C219.762 83.3471 226.693 74.8164 233.669 66.3316C234.366 65.4776 234.412 64.8991 233.898 63.9441C226.381 49.9864 216.559 37.9388 204.048 28.2051C176.446 6.736 145.43 -0.0867285 111.348 7.4798C91.3194 11.9242 74.2371 21.9976 59.5047 36.1665C50.6193 44.7064 43.2668 54.4033 37.585 65.4042C37.741 65.6245 37.8787 65.8541 38.0531 66.0561C44.5152 73.9165 50.9865 81.7677 57.4485 89.6281C58.5867 91.0055 59.8167 92.3278 60.7622 93.8245C61.1018 94.3663 61.0376 95.5784 60.6429 96.0743C59.982 96.8916 58.9814 96.6253 58.2379 95.8539C57.9717 95.5784 57.7331 95.2846 57.4944 94.9907C54.0339 90.831 50.5826 86.662 47.1312 82.5023C43.4137 78.012 39.6962 73.5125 35.7125 68.6915C33.7114 74.0359 31.8113 79.1047 29.8287 84.4031C32.0225 84.4031 33.8124 84.5317 35.5748 84.3664C37.1903 84.2103 37.8695 84.9541 38.4203 86.3039C41.1189 92.9063 43.8818 99.4811 46.6264 106.056C47.6361 108.48 48.655 110.895 49.4719 112.842V112.851ZM163.797 168.296C162.861 168.296 162.182 168.296 161.503 168.296C158.795 168.296 156.096 168.333 153.388 168.314C152.241 168.314 151.479 167.672 151.497 166.533C151.525 165.468 152.186 164.733 153.352 164.651C153.783 164.623 154.215 164.632 154.646 164.632C158.217 164.632 161.787 164.669 165.358 164.595C165.955 164.586 166.762 164.274 167.102 163.824C172.628 156.34 178.053 148.792 183.597 141.317C184.432 140.188 184.45 139.371 183.817 138.168C181.128 133.117 178.512 128.021 175.923 122.915C175.464 122.015 174.904 121.722 173.913 121.731C166.12 121.777 158.327 121.758 150.543 121.767C150.258 121.767 149.983 121.85 149.607 121.914C157.868 130.757 156.142 141.979 149.928 148.562C143.319 155.551 132.662 156.68 124.814 151.069C120.904 148.269 118.132 144.568 117.058 139.839C115.506 133.044 117.351 127.066 122.134 121.786C113.625 121.786 105.409 121.767 97.1848 121.841C96.68 121.841 95.9915 122.474 95.7162 122.989C93.0267 128.103 90.4382 133.283 87.7303 138.388C87.1429 139.499 87.1796 140.243 87.9415 141.262C93.4856 148.728 98.9564 156.258 104.491 163.732C104.831 164.191 105.593 164.586 106.162 164.605C109.733 164.678 113.303 164.641 116.874 164.641C119.132 164.641 120.068 165.165 120.105 166.45C120.142 167.745 119.178 168.314 116.938 168.314C114.001 168.314 111.054 168.314 107.823 168.314C109.76 170.932 111.467 173.291 113.248 175.587C113.478 175.881 114.093 175.991 114.533 175.991C128.706 176.01 142.888 176.01 157.06 175.991C157.592 175.991 158.345 175.835 158.62 175.468C160.346 173.209 161.962 170.867 163.788 168.314L163.797 168.296ZM134.048 48.6366C133.956 48.5998 133.874 48.5539 133.782 48.5172C122.152 71.2351 110.522 93.9531 98.8462 116.772H134.048V48.6366ZM172.811 116.818C161.117 94.1184 149.515 71.6025 137.912 49.0773C137.821 49.1416 137.738 49.2059 137.646 49.2702V116.818H172.811ZM135.893 150.096C143.916 150.16 150.616 143.576 150.69 135.569C150.754 127.709 143.998 120.978 135.976 120.913C127.852 120.849 121.225 127.295 121.124 135.358C121.023 143.301 127.77 150.032 135.893 150.105V150.096ZM98.6902 181.005C99.7641 182.382 100.554 183.539 101.508 184.568C101.921 185.009 102.637 185.431 103.215 185.431C125.025 185.468 146.835 185.468 168.644 185.449C169.094 185.449 169.718 185.385 169.957 185.091C171.021 183.833 171.976 182.483 173.096 181.005H98.6902ZM107.64 175.973C107.282 175.403 107.08 175.045 106.841 174.706C103.39 169.995 99.8835 165.33 96.5147 160.573C95.6794 159.398 94.7982 159.067 93.4306 159.086C85.7018 159.15 77.973 159.123 70.235 159.132C69.3355 159.132 68.4451 159.132 67.2885 159.132C68.647 160.766 69.7669 162.272 71.0611 163.622C71.5752 164.155 72.4655 164.614 73.1907 164.623C78.1107 164.706 83.0307 164.696 87.9507 164.623C89.4285 164.605 90.0251 165.192 90.0068 166.616C89.9792 168.131 90.0068 169.646 90.0068 171.161C90.0068 172.759 90.0068 174.347 90.0068 175.973H107.631H107.64ZM204.406 159.251C203.855 159.159 203.598 159.086 203.341 159.086C194.584 159.104 185.818 159.123 177.061 159.196C176.584 159.196 175.951 159.591 175.648 159.995C172.049 164.862 168.497 169.765 164.936 174.66C164.669 175.027 164.44 175.422 164.146 175.872H181.697C181.697 172.777 181.697 169.802 181.697 166.836C181.697 165.018 182.046 164.66 183.863 164.66C188.783 164.66 193.703 164.66 198.623 164.632C199.165 164.632 199.89 164.504 200.22 164.155C201.615 162.658 202.882 161.051 204.397 159.251H204.406ZM185.332 168.388V176.01C186.892 176.01 188.352 176.037 189.793 175.991C190.132 175.982 190.582 175.844 190.784 175.605C192.767 173.282 194.713 170.913 196.815 168.388H185.322H185.332ZM74.9163 168.351C77.0092 170.867 78.9184 173.19 80.8644 175.477C81.0847 175.734 81.4886 175.954 81.8098 175.964C83.2969 176.019 84.793 175.982 86.3443 175.982V168.351H74.9163ZM85.4264 180.959C86.638 182.502 87.6477 183.815 88.6942 185.091C88.8686 185.302 89.2357 185.431 89.5203 185.44C91.7141 185.468 93.9171 185.458 96.4505 185.458C95.1838 183.897 94.119 182.575 93.0175 181.271C92.8706 181.097 92.5494 180.977 92.3107 180.977C90.1169 180.959 87.9231 180.968 85.4264 180.968V180.959ZM186.204 180.959C183.854 180.959 181.862 180.931 179.87 180.987C179.448 180.996 178.906 181.225 178.64 181.538C177.603 182.731 176.648 184.008 175.519 185.44C177.887 185.44 179.98 185.459 182.064 185.422C182.394 185.422 182.844 185.266 183.046 185.027C184.065 183.796 185.02 182.502 186.204 180.959Z" fill="url(#paint0_linear_47_1218)"/>
<path d="M133.415 231.721C108.319 231.464 83.4254 222.263 62.0748 204.081C52.7397 196.129 44.1664 187.277 35.3086 178.774C24.3028 168.204 13.3614 157.562 2.38318 146.965C1.10728 145.725 0.877807 144.439 1.81407 143.448C2.89721 142.309 4.07213 142.419 5.59586 143.898C15.2339 153.236 24.8536 162.594 34.5008 171.932C43.9094 181.042 53.0977 190.39 62.8183 199.159C77.0459 211.987 93.5958 220.702 112.367 224.788C144.173 231.721 173.27 225.293 199.715 206.478C208.087 200.527 215.311 193.264 222.645 186.138C237.203 171.997 251.77 157.865 266.328 143.732C267.631 142.474 268.852 142.337 269.889 143.347C270.945 144.366 270.835 145.578 269.504 146.855C251.081 164.623 232.815 182.566 214.154 200.087C198.614 214.678 180.439 224.669 159.456 229.223C151.874 230.867 144.2 231.693 133.415 231.739V231.721Z" fill="url(#paint1_linear_47_1218)"/>
<path d="M89.6855 202.07C89.1164 202.749 88.6942 203.732 88.0424 203.916C87.2622 204.136 86.0322 203.98 85.4448 203.466C83.2877 201.583 81.3417 199.462 79.2764 197.469C55.0803 174.09 30.8751 150.711 6.67899 127.341C5.11854 125.835 3.5581 124.348 1.99765 122.842C0.795193 121.685 0.666686 120.271 1.63967 119.288C2.62183 118.306 3.76922 118.407 5.04511 119.637C31.9031 145.56 58.7612 171.482 85.6192 197.405C86.5922 198.342 87.6019 199.251 88.5198 200.243C88.942 200.693 89.199 201.299 89.6763 202.079L89.6855 202.07Z" fill="url(#paint2_linear_47_1218)"/>
<path d="M271 120.941C270.348 121.767 269.926 122.447 269.366 122.989C258.379 133.576 247.336 144.109 236.377 154.724C219.781 170.803 203.249 186.946 186.644 203.007C185.956 203.668 184.744 204.283 183.891 204.164C182.064 203.897 181.743 201.739 183.23 200.252C185.754 197.727 188.333 195.256 190.903 192.777C215.678 168.81 240.452 144.853 265.236 120.886C265.86 120.289 266.401 119.518 267.136 119.141C267.769 118.82 268.76 118.664 269.357 118.948C270.018 119.261 270.394 120.16 271 120.941Z" fill="url(#paint3_linear_47_1218)"/>
<path d="M135.911 215.458C130.551 215.458 126.292 211.133 126.319 205.706C126.347 200.39 130.597 196.175 135.957 196.156C141.3 196.138 145.669 200.509 145.65 205.853C145.623 211.28 141.382 215.458 135.911 215.458Z" fill="url(#paint4_linear_47_1218)"/>
<path d="M73.6037 196.661C73.0346 197.35 72.6308 198.287 71.979 198.516C71.2539 198.764 70.1524 198.608 69.5007 198.186C68.5277 197.552 67.8117 196.533 66.9673 195.688C62.6439 191.363 58.3206 187.038 54.0064 182.713C53.8136 182.52 53.6209 182.336 53.4556 182.116C52.6387 181.069 52.6662 179.683 53.5841 178.902C54.6673 177.984 55.7779 178.076 56.7693 179.058C62.0106 184.292 67.2518 189.536 72.4655 194.797C72.897 195.229 73.1264 195.853 73.6037 196.652V196.661Z" fill="url(#paint5_linear_47_1218)"/>
<path d="M200.376 199.233C199.669 198.59 198.742 198.14 198.568 197.488C198.375 196.753 198.605 195.605 199.109 195.036C200.752 193.181 202.616 191.51 204.378 189.756C207.866 186.285 211.354 182.814 214.842 179.343C216.082 178.103 217.293 177.91 218.248 178.792C219.34 179.811 219.267 181.207 218 182.465C212.832 187.626 207.664 192.777 202.469 197.91C201.964 198.406 201.257 198.691 200.385 199.233H200.376Z" fill="url(#paint6_linear_47_1218)"/>
<path d="M136.398 14.9912C169.984 15.6248 196.539 29.9131 216.733 56.5061C218.138 58.3518 219.386 60.3261 220.689 62.2545C221.387 63.2921 221.718 64.4767 220.442 65.2205C219.276 65.9 218.294 65.2848 217.587 64.192C212.805 56.8642 207.334 50.1058 200.881 44.183C186.993 31.4466 170.911 22.87 152.241 19.9774C119.417 14.8902 91.301 24.679 67.7475 47.9111C62.956 52.6402 58.7979 57.9019 55.0528 63.4941C53.8044 65.3582 52.5561 65.9918 51.6015 65.1103C50.2062 63.8247 51.2343 62.6401 51.987 61.5382C66.8112 39.7018 86.6381 24.7983 112.303 18.0215C120.178 15.9462 128.229 15.028 136.398 15.0004V14.9912Z" fill="url(#paint7_linear_47_1218)"/>
<path d="M154.572 42.0434C156.197 42.5025 157.62 42.8423 158.997 43.3106C178.273 49.9313 192.62 62.429 202.689 80.023C202.827 80.2525 202.937 80.5005 203.056 80.7484C203.57 81.7861 203.662 82.8329 202.506 83.4022C201.386 83.9532 200.431 83.5308 199.761 82.438C198.091 79.7199 196.539 76.9284 194.685 74.3389C184.698 60.4455 171.655 50.7761 155.142 45.9736C153.26 45.4226 152.489 44.3207 153.223 43.1729C153.535 42.6862 154.15 42.3924 154.582 42.0434H154.572Z" fill="url(#paint8_linear_47_1218)"/>
<path d="M71.0244 83.5491C69.207 83.6042 68.4176 82.5023 69.0417 81.1249C69.7026 79.6557 70.5379 78.2507 71.4191 76.8917C82.0302 60.5006 96.2302 48.6733 115.038 42.7505C117.379 42.0159 118.499 42.3005 118.866 43.6504C119.196 44.8349 118.425 45.4869 116.011 46.2491C97.7631 51.9974 84.1414 63.5676 74.0719 79.6097C73.4661 80.5739 72.9612 81.5932 72.282 82.5023C71.8964 83.0165 71.2723 83.3563 71.0153 83.5583L71.0244 83.5491Z" fill="url(#paint9_linear_47_1218)"/>
<path d="M104.308 126.653C105.593 126.699 106.52 127.901 106.235 129.279C104.436 137.956 107.447 144.963 113.707 150.831C115.506 152.52 115.855 153.668 114.827 154.761C113.882 155.762 112.642 155.56 110.898 154.026C103.583 147.58 100.434 139.536 101.747 129.83C102.041 127.617 102.903 126.607 104.308 126.662V126.653Z" fill="url(#paint10_linear_47_1218)"/>
<path d="M170.195 133.457C169.892 142.447 166.386 149.251 159.997 154.605C158.786 155.615 157.473 155.596 156.684 154.651C155.903 153.714 156.087 152.484 157.317 151.391C161.383 147.764 164.468 143.494 165.376 138.048C165.817 135.385 165.633 132.585 165.486 129.857C165.385 128.113 165.789 126.919 167.12 126.689C168.332 126.478 169.351 127.369 169.635 129.068C169.92 130.711 170.058 132.383 170.195 133.457Z" fill="url(#paint11_linear_47_1218)"/>
<defs>
<linearGradient id="paint0_linear_47_1218" x1="136.079" y1="0.287476" x2="136.079" y2="210.792" gradientUnits="userSpaceOnUse">
<stop stop-color="#F9A36E"/>
<stop offset="1" stop-color="#FFDF41"/>
</linearGradient>
<linearGradient id="paint1_linear_47_1218" x1="135.922" y1="142.678" x2="135.922" y2="231.739" gradientUnits="userSpaceOnUse">
<stop stop-color="#F9A36E"/>
<stop offset="1" stop-color="#FFDF41"/>
</linearGradient>
<linearGradient id="paint2_linear_47_1218" x1="45.3391" y1="118.624" x2="45.3391" y2="204.013" gradientUnits="userSpaceOnUse">
<stop stop-color="#F9A36E"/>
<stop offset="1" stop-color="#FFDF41"/>
</linearGradient>
<linearGradient id="paint3_linear_47_1218" x1="226.645" y1="118.799" x2="226.645" y2="204.179" gradientUnits="userSpaceOnUse">
<stop stop-color="#F9A36E"/>
<stop offset="1" stop-color="#FFDF41"/>
</linearGradient>
<linearGradient id="paint4_linear_47_1218" x1="135.985" y1="196.156" x2="135.985" y2="215.458" gradientUnits="userSpaceOnUse">
<stop stop-color="#F9A36E"/>
<stop offset="1" stop-color="#FFDF41"/>
</linearGradient>
<linearGradient id="paint5_linear_47_1218" x1="63.2359" y1="178.264" x2="63.2359" y2="198.635" gradientUnits="userSpaceOnUse">
<stop stop-color="#F9A36E"/>
<stop offset="1" stop-color="#FFDF41"/>
</linearGradient>
<linearGradient id="paint6_linear_47_1218" x1="208.756" y1="178.247" x2="208.756" y2="199.233" gradientUnits="userSpaceOnUse">
<stop stop-color="#F9A36E"/>
<stop offset="1" stop-color="#FFDF41"/>
</linearGradient>
<linearGradient id="paint7_linear_47_1218" x1="136.108" y1="14.9912" x2="136.108" y2="65.5049" gradientUnits="userSpaceOnUse">
<stop stop-color="#F9A36E"/>
<stop offset="1" stop-color="#FFDF41"/>
</linearGradient>
<linearGradient id="paint8_linear_47_1218" x1="178.184" y1="42.0434" x2="178.184" y2="83.6435" gradientUnits="userSpaceOnUse">
<stop stop-color="#F9A36E"/>
<stop offset="1" stop-color="#FFDF41"/>
</linearGradient>
<linearGradient id="paint9_linear_47_1218" x1="93.8846" y1="42.3555" x2="93.8846" y2="83.5583" gradientUnits="userSpaceOnUse">
<stop stop-color="#F9A36E"/>
<stop offset="1" stop-color="#FFDF41"/>
</linearGradient>
<linearGradient id="paint10_linear_47_1218" x1="108.428" y1="126.653" x2="108.428" y2="155.376" gradientUnits="userSpaceOnUse">
<stop stop-color="#F9A36E"/>
<stop offset="1" stop-color="#FFDF41"/>
</linearGradient>
<linearGradient id="paint11_linear_47_1218" x1="163.205" y1="126.659" x2="163.205" y2="155.361" gradientUnits="userSpaceOnUse">
<stop stop-color="#F9A36E"/>
<stop offset="1" stop-color="#FFDF41"/>
</linearGradient>
</defs>
</svg>
