<svg width="180" height="180" viewBox="0 0 231 231" fill="none" xmlns="http://www.w3.org/2000/svg">
<path d="M145.324 143.565C147.447 144.789 149.605 146.014 151.746 147.275C154.875 149.12 157.995 150.975 161.097 152.857C161.895 153.341 162.44 153.003 163.011 152.492C166.077 149.741 169.578 147.777 173.532 146.662C181.659 144.369 189.233 145.667 196.198 150.418C202.366 154.63 206.03 160.596 207.309 167.905C209.595 180.98 202.557 193.387 190.312 198.019C183.255 200.687 176.271 200.45 169.532 197.215C161.27 193.25 156.19 186.663 154.458 177.508C153.787 173.963 153.76 170.491 154.685 167.001C154.875 166.288 154.685 165.831 153.995 165.429C148.971 162.56 143.973 159.646 138.966 156.749C137.851 156.101 137.778 155.936 138.622 155.004C141.379 151.943 143.302 148.398 144.735 144.552C144.844 144.269 144.962 143.995 145.089 143.72C145.116 143.666 145.216 143.638 145.343 143.565H145.324Z" fill="url(#paint0_linear_27_950)"/>
<path d="M87.4846 143.446C89.1353 148.033 91.2668 152.199 94.6953 155.772C94.1329 156.192 93.7157 156.557 93.2441 156.831C88.5095 159.591 83.7658 162.341 79.0131 165.073C78.1424 165.575 77.6617 166.05 77.9247 167.22C79.4666 174.118 78.2694 180.632 74.6595 186.617C69.7344 194.794 62.2879 199.143 52.9185 199.664C45.336 200.084 38.6422 197.508 33.0641 192.108C28.7921 187.969 26.1528 183.008 25.2004 177.17C24.0394 169.997 25.4271 163.318 29.4996 157.279C33.7353 151.011 39.6581 147.211 47.0139 145.95C54.9684 144.588 62.2335 146.461 68.5553 151.614C70.8319 153.469 70.2333 153.341 72.5734 151.98C77.2807 149.239 81.979 146.498 86.6864 143.766C86.8769 143.656 87.0855 143.602 87.4574 143.446H87.4846Z" fill="url(#paint1_linear_27_950)"/>
<path d="M109.253 95.4332C109.253 92.4638 109.28 89.4944 109.217 86.525C109.217 86.1778 108.827 85.6388 108.491 85.5108C105.371 84.3139 102.405 82.8429 99.7746 80.7324C94.0241 76.1275 90.641 70.0882 89.7159 62.8246C87.9563 49.1013 97.1896 36.2369 110.894 33.1396C124.627 30.0331 141.207 39.5444 142.894 57.0411C144.118 69.7593 136.345 81.4724 124.463 85.2459C123.674 85.5017 123.438 85.8398 123.447 86.6803C123.52 92.6557 123.529 98.6311 123.574 104.606C123.574 105.383 123.311 105.484 122.613 105.328C118.504 104.396 114.377 104.369 110.26 105.237C109.334 105.429 109.126 105.191 109.135 104.323C109.171 101.354 109.144 98.3844 109.144 95.415C109.171 95.415 109.198 95.415 109.226 95.415L109.253 95.4332Z" fill="url(#paint2_linear_27_950)"/>
<path d="M116.482 112.628C128.636 112.647 138.613 122.788 138.395 135.196C138.177 147.786 128.345 157.033 116.618 157.261C104.455 157.498 94.0423 147.494 94.1783 134.712C94.3234 121.665 104.763 112.546 116.473 112.628H116.482Z" fill="url(#paint3_linear_27_950)"/>
<path d="M90.4142 167.786C94.0604 165.639 97.4888 163.574 100.981 161.61C101.371 161.391 102.142 161.592 102.632 161.829C105.57 163.273 108.582 164.461 111.847 164.826C118.196 165.53 124.354 164.872 130.096 161.802C130.667 161.5 131.112 161.345 131.746 161.72C134.803 163.529 137.896 165.274 140.971 167.055C142.322 167.841 142.322 168.115 140.971 168.901C138.359 170.418 135.828 172.126 133.098 173.387C128.082 175.708 122.767 176.85 117.207 176.969C109.616 177.133 102.55 175.324 95.9379 171.642C94.3869 170.774 92.9357 169.742 91.4572 168.755C91.0944 168.517 90.8133 168.161 90.4142 167.777V167.786Z" fill="url(#paint4_linear_27_950)"/>
<path d="M74.8682 141.107C74.7593 138.494 74.4963 135.991 74.5779 133.496C74.8228 125.602 77.0903 118.33 81.4984 111.77C86.1967 104.798 92.3825 99.6178 100.038 96.2098C100.827 95.8626 101.099 96.1093 101.099 96.8677C101.099 100.632 101.099 104.396 101.035 108.161C101.035 108.517 100.682 108.992 100.355 109.202C91.675 114.922 86.9586 122.98 86.2965 133.414C86.242 134.246 86.0425 134.867 85.2988 135.306C82.0607 137.188 78.8409 139.079 75.6119 140.961C75.494 141.034 75.3307 141.016 74.8772 141.098L74.8682 141.107Z" fill="url(#paint5_linear_27_950)"/>
<path d="M157.533 141.409C155.9 140.449 154.485 139.609 153.061 138.768C151.175 137.654 149.297 136.521 147.374 135.452C146.658 135.05 146.395 134.547 146.349 133.734C145.86 124.543 142.132 116.977 135.012 111.166C134.195 110.5 133.225 110.006 132.427 109.321C132.019 108.965 131.601 108.352 131.592 107.85C131.529 104.049 131.565 100.239 131.574 96.4382C131.574 96.3286 131.629 96.2189 131.71 95.9083C139.746 99.097 146.123 104.305 150.884 111.422C156.916 120.449 159.102 130.427 157.542 141.409H157.533Z" fill="url(#paint6_linear_27_950)"/>
<defs>
<linearGradient id="paint0_linear_27_950" x1="172.894" y1="143.565" x2="172.894" y2="199.848" gradientUnits="userSpaceOnUse">
<stop stopColor="#F8A16F"/>
<stop offset="1" stopColor="#FFE03F"/>
</linearGradient>
<linearGradient id="paint1_linear_27_950" x1="59.7503" y1="143.446" x2="59.7503" y2="199.708" gradientUnits="userSpaceOnUse">
<stop stopColor="#F8A16F"/>
<stop offset="1" stopColor="#FFE03F"/>
</linearGradient>
<linearGradient id="paint2_linear_27_950" x1="116.261" y1="32.5571" x2="116.261" y2="105.39" gradientUnits="userSpaceOnUse">
<stop stopColor="#F8A16F"/>
<stop offset="1" stopColor="#FFE03F"/>
</linearGradient>
<linearGradient id="paint3_linear_27_950" x1="116.288" y1="112.628" x2="116.288" y2="157.265" gradientUnits="userSpaceOnUse">
<stop stopColor="#F8A16F"/>
<stop offset="1" stopColor="#FFE03F"/>
</linearGradient>
<linearGradient id="paint4_linear_27_950" x1="116.199" y1="161.5" x2="116.199" y2="176.979" gradientUnits="userSpaceOnUse">
<stop stopColor="#F8A16F"/>
<stop offset="1" stopColor="#FFE03F"/>
</linearGradient>
<linearGradient id="paint5_linear_27_950" x1="87.8306" y1="96.0555" x2="87.8306" y2="141.107" gradientUnits="userSpaceOnUse">
<stop stopColor="#F8A16F"/>
<stop offset="1" stopColor="#FFE03F"/>
</linearGradient>
<linearGradient id="paint6_linear_27_950" x1="144.792" y1="95.9083" x2="144.792" y2="141.409" gradientUnits="userSpaceOnUse">
<stop stopColor="#F8A16F"/>
<stop offset="1" stopColor="#FFE03F"/>
</linearGradient>
</defs>
</svg>
