<svg width="57" height="57" viewBox="0 0 57 57" fill="none" xmlns="http://www.w3.org/2000/svg">
<path d="M57 28.5C57 12.7599 44.2401 0 28.5 0C12.7599 0 0 12.7599 0 28.5C0 44.2401 12.7599 57 28.5 57C44.2401 57 57 44.2401 57 28.5Z" fill="#7289DA"/>
<path d="M25.9208 27.987C25.1085 27.987 24.4673 28.6995 24.4673 29.5687C24.4673 30.438 25.1228 31.1505 25.9208 31.1505C26.733 31.1505 27.3743 30.438 27.3743 29.5687C27.3885 28.6995 26.733 27.987 25.9208 27.987ZM31.122 27.987C30.3097 27.987 29.6685 28.6995 29.6685 29.5687C29.6685 30.438 30.324 31.1505 31.122 31.1505C31.9342 31.1505 32.5755 30.438 32.5755 29.5687C32.5755 28.6995 31.9342 27.987 31.122 27.987Z" fill="white"/>
<path d="M38.0475 16.0312H18.9525C17.3422 16.0312 16.0312 17.3422 16.0312 18.9667V38.2327C16.0312 39.8572 17.3422 41.1682 18.9525 41.1682H35.112L34.3567 38.532L36.1807 40.2277L37.905 41.8237L40.9687 44.5312V18.9667C40.9687 17.3422 39.6577 16.0312 38.0475 16.0312ZM32.547 34.6417C32.547 34.6417 32.034 34.029 31.6065 33.4875C33.4732 32.9602 34.1857 31.7917 34.1857 31.7917C33.6015 32.1765 33.0457 32.4472 32.547 32.6325C31.8345 32.9317 31.1505 33.1312 30.4807 33.2452C29.1127 33.5017 27.8587 33.4305 26.79 33.231C25.9777 33.0742 25.2795 32.8462 24.6952 32.6182C24.3675 32.49 24.0112 32.3332 23.655 32.1337C23.6122 32.1052 23.5695 32.091 23.5267 32.0625C23.4982 32.0482 23.484 32.034 23.4697 32.0197C23.2132 31.8772 23.0707 31.7775 23.0707 31.7775C23.0707 31.7775 23.7547 32.9175 25.5645 33.459C25.137 34.0005 24.6097 34.6417 24.6097 34.6417C21.4605 34.542 20.2635 32.4757 20.2635 32.4757C20.2635 27.8872 22.3155 24.168 22.3155 24.168C24.3675 22.629 26.3197 22.6717 26.3197 22.6717L26.4622 22.8427C23.8972 23.5837 22.7145 24.7095 22.7145 24.7095C22.7145 24.7095 23.028 24.5385 23.5552 24.2962C25.08 23.6265 26.2912 23.4412 26.79 23.3985C26.8755 23.3842 26.9467 23.37 27.0322 23.37C27.9015 23.256 28.8847 23.2275 29.9107 23.3415C31.2645 23.4982 32.718 23.8972 34.2 24.7095C34.2 24.7095 33.0742 23.6407 30.6517 22.8997L30.8512 22.6717C30.8512 22.6717 32.8035 22.629 34.8555 24.168C34.8555 24.168 36.9075 27.8872 36.9075 32.4757C36.9075 32.4757 35.6962 34.542 32.547 34.6417Z" fill="white"/>
</svg>
