<svg width="57" height="57" viewBox="0 0 57 57" fill="none" xmlns="http://www.w3.org/2000/svg">
<path d="M0 28.5C0 44.2401 12.7599 57 28.5 57C44.2401 57 57 44.2401 57 28.5C57 12.7599 44.2401 0 28.5 0C12.7599 0 0 12.7599 0 28.5Z" fill="#231E1B"/>
<path fill-rule="evenodd" clip-rule="evenodd" d="M28.4564 14.592C20.6124 14.592 14.25 20.9544 14.25 28.7985C14.25 35.0737 18.3463 40.3902 23.9243 42.3076C24.6216 42.3948 24.883 41.959 24.883 41.6104C24.883 41.2618 24.883 40.3902 24.883 39.17C20.961 40.0416 20.0894 37.2526 20.0894 37.2526C19.4794 35.5966 18.5206 35.1609 18.5206 35.1609C17.2133 34.2893 18.6078 34.2893 18.6078 34.2893C20.0023 34.3764 20.7867 35.7709 20.7867 35.7709C22.094 37.9498 24.0986 37.3398 24.883 36.9911C24.9702 36.0324 25.406 35.4223 25.7546 35.0737C22.617 34.7251 19.305 33.5049 19.305 28.0141C19.305 26.4453 19.828 25.2251 20.7867 24.1792C20.6995 23.9177 20.1766 22.4361 20.961 20.5186C20.961 20.5186 22.1812 20.17 24.883 22.0003C26.0161 21.6517 27.2362 21.5645 28.4564 21.5645C29.6766 21.5645 30.8968 21.7388 32.0298 22.0003C34.7317 20.17 35.9518 20.5186 35.9518 20.5186C36.7362 22.4361 36.2133 23.9177 36.1262 24.2664C36.9977 25.2251 37.6078 26.5324 37.6078 28.1012C37.6078 33.592 34.2959 34.7251 31.1583 35.0737C31.6812 35.5095 32.117 36.381 32.117 37.6884C32.117 39.6058 32.117 41.0875 32.117 41.6104C32.117 41.959 32.3784 42.3948 33.0757 42.3076C38.7408 40.3902 42.75 35.0737 42.75 28.7985C42.6628 20.9544 36.3005 14.592 28.4564 14.592Z" fill="white"/>
</svg>
