<svg width="57" height="57" viewBox="0 0 57 57" fill="none" xmlns="http://www.w3.org/2000/svg">
<path d="M0 28.5C0 44.2401 12.7599 57 28.5 57C44.2401 57 57 44.2401 57 28.5C57 12.7599 44.2401 0 28.5 0C12.7599 0 0 12.7599 0 28.5Z" fill="#2867B2"/>
<path d="M20.6623 42.75H14.606V23.6906H20.6623V42.75ZM17.6341 21.0188C15.6748 21.0188 14.2498 19.5937 14.2498 17.6344C14.2498 15.675 15.8529 14.25 17.6341 14.25C19.5935 14.25 21.0185 15.675 21.0185 17.6344C21.0185 19.5937 19.5935 21.0188 17.6341 21.0188ZM42.7498 42.75H36.6935V32.4188C36.6935 29.3906 35.4466 28.5 33.6654 28.5C31.8841 28.5 30.1029 29.925 30.1029 32.5969V42.75H24.0466V23.6906H29.7466V26.3625C30.281 25.1156 32.4185 23.1562 35.4466 23.1562C38.831 23.1562 42.3935 25.1156 42.3935 30.9937V42.75H42.7498Z" fill="white"/>
</svg>
