<svg width="57" height="57" viewBox="0 0 57 57" fill="none" xmlns="http://www.w3.org/2000/svg">
<path d="M0 28.5C0 44.2401 12.7599 57 28.5 57C44.2401 57 57 44.2401 57 28.5C57 12.7599 44.2401 0 28.5 0C12.7599 0 0 12.7599 0 28.5Z" fill="black"/>
<path d="M17.6344 21.7313C17.6344 21.3751 17.4562 21.0188 17.2781 20.8407L14.6062 17.6345V17.1001H22.8L29.2125 31.172L34.9125 17.1001H42.75V17.6345L40.4344 19.772C40.2563 19.9501 40.0781 20.1282 40.2563 20.4845V36.5157C40.2563 36.6938 40.2563 37.0501 40.4344 37.2282L42.5719 39.3657V39.9001H31.35V39.3657L33.6656 37.0501C33.8438 36.872 33.8438 36.6938 33.8438 36.3376V23.3345L27.4313 39.5438H26.7188L19.2375 23.3345V34.2001C19.2375 34.7345 19.4156 35.0907 19.5938 35.447L22.6219 39.0095V39.5438H14.25V39.0095L17.2781 35.447C17.6344 35.0907 17.8125 34.7345 17.6344 34.2001V21.7313Z" fill="white"/>
</svg>
