<svg width="57" height="57" viewBox="0 0 57 57" fill="none" xmlns="http://www.w3.org/2000/svg">
<path d="M0 28.5C0 44.2401 12.7599 57 28.5 57C44.2401 57 57 44.2401 57 28.5C57 12.7599 44.2401 0 28.5 0C12.7599 0 0 12.7599 0 28.5Z" fill="#0088CC"/>
<path d="M14.4282 27.9804C22.0786 24.6472 27.1801 22.4498 29.7326 21.3881C37.0206 18.3568 38.535 17.8302 39.522 17.8127C39.7391 17.809 40.2245 17.8628 40.5389 18.118C40.8044 18.3334 40.8775 18.6244 40.9124 18.8287C40.9474 19.0329 40.9909 19.4982 40.9563 19.8618C40.5614 24.0114 38.8525 34.0815 37.9831 38.7292C37.6152 40.6958 36.8909 41.3552 36.1896 41.4198C34.6656 41.56 33.5084 40.4126 32.0323 39.445C29.7226 37.931 28.4178 36.9885 26.1758 35.511C23.5847 33.8036 25.2644 32.8651 26.741 31.3315C27.1274 30.9301 33.8422 24.8225 33.9721 24.2685C33.9884 24.1992 34.0035 23.9409 33.85 23.8045C33.6966 23.6681 33.4701 23.7148 33.3067 23.7519C33.075 23.8044 29.3852 26.2433 22.2372 31.0684C21.1898 31.7876 20.2412 32.138 19.3912 32.1196C18.4542 32.0994 16.6518 31.5898 15.3118 31.1543C13.6684 30.62 12.3622 30.3376 12.4759 29.4303C12.5351 28.9577 13.1859 28.4744 14.4282 27.9804Z" fill="white"/>
</svg>
