<svg width="57" height="57" viewBox="0 0 57 57" fill="none" xmlns="http://www.w3.org/2000/svg">
<path d="M0 28.5C0 44.2401 12.7599 57 28.5 57C44.2401 57 57 44.2401 57 28.5C57 12.7599 44.2401 0 28.5 0C12.7599 0 0 12.7599 0 28.5Z" fill="#1DA1F2"/>
<path d="M42.7502 19.5937C41.6815 20.1281 40.6127 20.3062 39.3659 20.4844C40.6127 19.7719 41.5034 18.7031 41.8596 17.2781C40.7909 17.9906 39.544 18.3469 38.119 18.7031C37.0502 17.6344 35.4471 16.9219 33.844 16.9219C30.1034 16.9219 27.2534 20.4844 28.144 24.0469C23.3346 23.8687 19.0596 21.5531 16.0315 17.9906C14.4284 20.6625 15.319 24.0469 17.8127 25.8281C16.9221 25.8281 16.0315 25.4719 15.1409 25.1156C15.1409 27.7875 17.1002 30.2812 19.7721 30.9937C18.8815 31.1719 17.9909 31.35 17.1002 31.1719C17.8127 33.4875 19.9502 35.2687 22.6221 35.2687C20.4846 36.8719 17.2784 37.7625 14.2502 37.4062C16.9221 39.0094 19.9502 40.0781 23.1565 40.0781C34.0221 40.0781 40.0784 30.9937 39.7221 22.6219C40.969 21.9094 42.0377 20.8406 42.7502 19.5937Z" fill="white"/>
</svg>
