<svg width="57" height="57" viewBox="0 0 57 57" fill="none" xmlns="http://www.w3.org/2000/svg">
<path d="M0 28.5C0 44.2401 12.7599 57 28.5 57C44.2401 57 57 44.2401 57 28.5C57 12.7599 44.2401 0 28.5 0C12.7599 0 0 12.7599 0 28.5Z" fill="#FF0000"/>
<path d="M42.0374 21.553C41.6811 20.3062 40.7905 19.4155 39.5436 19.0593C37.4061 18.5249 28.3217 18.5249 28.3217 18.5249C28.3217 18.5249 19.4155 18.5249 17.0999 19.0593C15.853 19.4155 14.9624 20.3062 14.6061 21.553C14.2499 23.8687 14.2499 28.4999 14.2499 28.4999C14.2499 28.4999 14.2499 33.1312 14.7843 35.4468C15.1405 36.6937 16.0311 37.5843 17.278 37.9405C19.4155 38.4749 28.4999 38.4749 28.4999 38.4749C28.4999 38.4749 37.4061 38.4749 39.7217 37.9405C40.9686 37.5843 41.8593 36.6937 42.2155 35.4468C42.7499 33.1312 42.7499 28.4999 42.7499 28.4999C42.7499 28.4999 42.7499 23.8687 42.0374 21.553ZM25.6499 32.7749V24.2249L33.1311 28.4999L25.6499 32.7749Z" fill="white"/>
</svg>
