<svg width="303" height="254" viewBox="0 0 303 254" fill="none" xmlns="http://www.w3.org/2000/svg">
<path d="M77.0256 133.029C77.479 134.335 77.9865 135.62 78.3859 136.948C81.9594 148.91 85.5004 160.893 89.1063 172.845C89.4841 174.097 89.3222 175.187 88.9551 176.332C88.0915 179.009 87.2386 181.697 86.3101 184.601H93.5866C94.3639 182.442 95.206 180.207 95.9941 177.962C106.606 147.506 117.284 117.073 127.799 86.5741C136.349 61.7542 144.705 36.8588 153.126 11.9957C153.601 10.6031 153.817 9.12402 154.184 7.68816C154.443 6.69493 155.07 6.05797 156.128 6.06877C157.11 6.07957 157.639 6.69493 157.844 7.64498C159.582 15.9579 162.378 23.9469 165.077 31.979C171.058 49.7708 176.899 67.6057 183.042 85.3434C193.557 115.68 204.267 145.952 214.901 176.245C215.883 179.031 216.898 181.805 217.956 184.774C219.543 184.774 221.087 184.774 222.631 184.774C224.174 184.774 225.589 184.774 227.467 184.774C222.037 169.994 216.714 155.474 211.381 140.964C211.219 140.932 211.057 140.899 210.906 140.867C209.848 143.037 208.779 145.207 207.603 147.625C206.372 145.434 205.897 143.555 206.933 141.407C208.045 139.118 208.93 136.732 209.999 134.422C210.323 133.72 210.874 132.727 211.446 132.63C212.515 132.435 212.579 133.688 212.849 134.422C215.063 140.521 217.211 146.654 219.424 152.753C223.106 162.901 226.819 173.039 230.479 183.198C230.9 184.364 231.483 184.914 232.79 184.828C234.474 184.72 236.169 184.806 238.382 184.806C237.648 183.91 237.183 183.36 236.73 182.798C233.351 178.664 231.451 173.957 231.472 168.58C231.526 156.834 241.448 147.712 253.151 148.694C257.113 149.029 260.632 150.67 263.526 152.926C265.307 152.721 266.829 152.548 268.556 152.354C269.139 148.791 270.878 145.747 274.041 143.641C276.103 142.26 278.392 141.644 280.864 141.687C286.769 141.795 290.44 145.013 292.988 152.548C294.121 152.548 295.374 152.548 296.626 152.548C297.263 152.548 297.975 152.429 298.504 152.689C299.066 152.958 299.832 153.639 299.811 154.103C299.778 154.718 299.185 155.495 298.612 155.83C298.073 156.143 297.241 156.024 296.55 156.024C287.493 156.014 278.446 155.981 269.388 155.97C268.621 155.97 267.866 156.068 266.948 156.122C267.919 158.086 268.978 159.825 269.647 161.703C270.338 163.603 270.651 165.633 271.18 167.857C276.869 165.158 282.397 165.331 287.482 169.206C292.502 173.028 294.262 178.21 293.366 184.645C294.024 184.698 294.683 184.785 295.341 184.785C297.112 184.796 298.882 184.774 300.642 184.774C301.754 184.774 302.391 185.454 302.467 186.458C302.542 187.527 301.83 188.153 300.793 188.294C300.167 188.38 299.519 188.337 298.882 188.337C285.02 188.337 271.147 188.391 257.286 188.315C255.483 188.315 254.522 188.877 253.69 190.464C252.373 192.957 250.732 195.268 249.232 197.664C248.983 198.064 248.778 198.496 248.39 199.219C249.275 199.219 249.89 199.219 250.495 199.219C266.84 199.219 283.174 199.219 299.519 199.208C301.419 199.208 302.402 199.78 302.456 200.914C302.499 202.058 301.581 202.566 299.562 202.566C282.3 202.566 265.037 202.566 247.774 202.523C246.284 202.523 245.313 202.976 244.384 204.164C230.987 221.362 214.156 233.939 193.697 241.539C185.179 244.702 176.359 246.57 167.323 247.498C160.478 248.2 153.623 248.33 146.778 247.758C133.218 246.624 120.231 243.288 107.945 237.361C91.7297 229.545 78.116 218.533 67.1797 204.25C66.2189 202.998 65.258 202.469 63.6602 202.479C45.9765 202.544 28.2927 202.533 10.5982 202.544C10.1015 202.544 9.60493 202.544 9.11911 202.512C8.15827 202.469 7.40256 201.994 7.38096 201.022C7.37017 200.093 8.0719 199.478 8.97876 199.284C9.59413 199.154 10.2419 199.219 10.8789 199.219C27.645 199.219 44.4111 199.219 61.1772 199.208C61.7385 199.208 62.2891 199.208 63.0664 199.208C62.8397 198.647 62.7426 198.269 62.5482 197.945C60.9828 195.343 59.3311 192.785 57.8628 190.129C57.1179 188.79 56.2542 188.272 54.6888 188.283C40.1143 188.348 25.5397 188.326 10.9652 188.337C10.4038 188.337 9.83164 188.38 9.27025 188.326C8.25544 188.218 7.52131 187.678 7.35937 186.653C7.21902 185.8 8.17986 184.871 9.30264 184.817C10.6413 184.742 11.9908 184.817 13.3295 184.796C14.0852 184.796 14.841 184.731 15.8234 184.688C15.0677 179.344 16.1689 174.691 19.9366 170.89C23.6397 167.155 28.1955 165.903 33.3668 166.615C33.6907 165.903 33.9606 165.341 34.2089 164.769C39.2938 153.153 53.9331 150.119 63.2284 158.702C64.729 160.084 65.3228 161.444 64.4483 163.344C64.2108 163.852 64.0813 164.402 63.8222 165.179C63.304 164.488 62.8829 163.906 62.4511 163.333C58.4458 158.086 51.8279 156.1 45.8037 158.313C40.0711 160.429 36.0982 166.389 36.476 172.596C36.7891 177.778 39.4125 181.643 43.8389 184.288C44.3571 184.601 45.0372 184.774 45.6418 184.774C52.2921 184.806 58.9424 184.785 65.5927 184.774C65.9166 184.774 66.2513 184.645 66.7263 184.537C65.9706 182.086 65.3336 179.7 64.4915 177.4C63.7682 175.446 63.8438 173.633 64.4591 171.657C68.2809 159.393 72.0163 147.107 75.7841 134.832C75.9676 134.238 76.2483 133.677 76.475 133.105C76.6585 133.083 76.8313 133.072 77.0148 133.051L77.0256 133.029ZM213.001 225.216C220.396 221.2 236.611 206.215 237.529 202.674H73.193C84.5396 216.395 97.9266 226.662 113.775 233.615C135.335 243.083 157.639 244.907 180.516 239.466C191.128 236.94 201.06 232.794 210.453 226.889C209.956 226.371 209.74 226.101 209.481 225.874C206.696 223.37 203.91 220.865 201.125 218.349C200.65 217.928 200.164 217.518 199.743 217.032C199.16 216.352 199.117 215.64 199.786 214.96C200.402 214.333 201.049 214.398 201.686 214.895C202.291 215.381 202.863 215.91 203.446 216.428C206.62 219.332 209.794 222.247 213.011 225.205L213.001 225.216ZM179.231 184.601C179.987 184.677 180.462 184.763 180.937 184.763C184.899 184.763 188.861 184.698 192.823 184.796C194.388 184.839 195.198 184.331 195.813 182.852C198.987 175.122 199.959 167.209 198.34 158.972C194.604 140.003 179.263 124.943 158.47 123.55C146.962 122.784 136.695 126.303 127.885 133.742C118.741 141.45 113.84 151.49 112.566 163.279C111.843 169.994 112.987 176.504 115.481 182.798C116.042 184.213 116.776 184.882 118.439 184.828C122.39 184.698 126.363 184.796 130.325 184.785C130.908 184.785 131.502 184.688 132.193 184.634C122.401 169.055 127.605 153.39 136.403 145.574C146.292 136.786 160.467 135.642 171.339 142.821C176.759 146.405 180.71 151.177 182.858 157.331C186.205 166.928 184.553 175.943 179.252 184.612L179.231 184.601ZM155.383 141.644C152.673 141.558 149.823 142.001 147.08 143.015C131.675 148.759 125.489 166.842 134.082 181.017C136.393 184.828 136.393 184.763 140.754 184.763C142.071 184.763 142.751 184.245 143.41 183.176C146.541 178.059 149.736 172.985 152.921 167.9C153.375 167.187 153.806 166.443 154.368 165.816C155.177 164.91 156.3 164.942 157.121 165.838C157.455 166.194 157.704 166.626 157.974 167.047C161.061 171.862 164.117 176.699 167.226 181.492C169.882 185.584 168.608 184.591 173.433 184.774C174.383 184.806 175.01 184.461 175.549 183.705C179.825 177.746 182.049 171.214 180.958 163.808C178.831 149.45 166.977 141.364 155.383 141.655V141.644ZM170.875 122.417C165.909 87.5997 160.996 53.1607 156.095 18.7216C155.933 18.7216 155.771 18.7216 155.598 18.7324C154.033 30.1653 152.478 41.5982 150.881 53.0203C149.272 64.5612 147.566 76.0805 145.979 87.6213C144.414 99.0434 142.633 110.444 141.175 122.233C151.194 119.253 160.802 119.351 170.875 122.417ZM112.318 184.688C112.102 183.986 111.994 183.511 111.821 183.057C108.679 174.561 107.956 165.881 110.029 157.028C113.537 142.087 121.958 131.032 135.928 124.414C136.965 123.928 137.44 123.28 137.58 122.212C137.774 120.603 138.033 118.994 138.26 117.386C139.318 109.839 140.376 102.293 141.445 94.7467C142.363 88.1827 143.291 81.608 144.22 75.0441C144.997 69.5273 145.774 63.9998 146.541 58.4831C147.34 52.826 148.128 47.1689 148.927 41.5011C149.315 38.7373 149.726 35.9735 150.125 33.199C150.049 33.1882 149.974 33.1774 149.887 33.1558C132.441 83.616 114.995 134.076 97.5055 184.677H112.307L112.318 184.688ZM213.918 184.612C196.655 134.918 179.425 85.3218 162.195 35.7144C162.324 37.8088 162.648 39.8817 162.951 41.9653C164.127 50.2134 165.293 58.4507 166.47 66.6988C167.83 76.1992 169.191 85.7104 170.551 95.2109C171.846 104.29 173.153 113.38 174.427 122.46C174.567 123.485 175.053 124.079 175.97 124.543C177.665 125.407 179.35 126.325 180.958 127.34C197.854 138.06 206.048 158.626 201.147 178.016C200.596 180.186 199.808 182.291 199.063 184.612H213.929H213.918ZM248.185 184.591C247.947 183.91 247.774 183.317 247.548 182.734C245.529 177.692 243.499 172.661 241.469 167.619C240.573 165.395 241.048 164.575 243.445 164.532C248.606 164.456 253.766 164.434 258.926 164.456C261.291 164.456 261.928 165.514 261.01 167.749C258.905 172.909 256.778 178.059 254.673 183.219C254.5 183.64 254.435 184.094 254.187 184.99C255.871 184.677 257.437 184.796 258.516 184.126C265.426 179.83 268.934 172.229 267.067 164.553C265.361 157.547 259.056 152.203 252.093 151.911C244.924 151.609 238.155 156.273 235.812 163.139C233.275 170.556 235.942 178.426 242.517 183.403C244.266 184.731 246.025 184.979 248.185 184.601V184.591ZM248.141 188.812C248.044 188.639 247.947 188.466 247.85 188.294C245.464 188.294 243.067 188.294 240.681 188.294C226.83 188.294 212.968 188.326 199.117 188.294C197.627 188.294 196.731 188.682 195.889 190.021C194.129 192.817 192.056 195.43 190.135 198.129C189.962 198.377 189.897 198.701 189.692 199.219C190.61 199.219 191.301 199.219 192.002 199.219C206.847 199.208 221.691 199.197 236.536 199.187C237.594 199.187 238.673 199.284 239.71 199.143C240.336 199.068 241.156 198.798 241.502 198.334C243.769 195.203 245.939 192.007 248.141 188.823V188.812ZM63.7898 188.434C63.7898 188.736 63.7358 188.909 63.7898 189.006C65.841 192.137 67.9138 195.246 69.9651 198.377C70.5157 199.23 71.3253 199.23 72.1998 199.23C87.8863 199.208 103.584 199.208 119.27 199.187C119.939 199.187 120.609 199.122 121.559 199.068C121.213 198.55 121.03 198.269 120.846 197.999C119.011 195.408 117.057 192.893 115.405 190.183C114.498 188.704 113.505 188.24 111.843 188.24C96.4367 188.304 81.0309 188.294 65.6143 188.315C65.0097 188.315 64.3943 188.391 63.7898 188.434ZM71.3038 184.655H81.9054C82.7906 181.838 83.6543 179.02 84.5828 176.234C84.993 174.982 85.0254 173.805 84.626 172.521C82.1429 164.445 79.7354 156.338 77.2739 148.251C77.1768 147.927 76.8853 147.658 76.637 147.312C76.475 147.593 76.3778 147.701 76.3455 147.83C73.6897 156.294 71.0231 164.758 68.4104 173.244C68.2161 173.881 68.2269 174.68 68.4104 175.317C69.2957 178.361 70.2781 181.363 71.3145 184.666L71.3038 184.655ZM174.081 199.035C174.081 198.744 174.135 198.571 174.081 198.474C172.138 195.365 170.184 192.256 168.241 189.146C167.755 188.369 167.053 188.294 166.232 188.294C159.302 188.315 152.381 188.348 145.45 188.315C144.306 188.315 143.637 188.704 143.075 189.665C141.402 192.526 139.642 195.343 137.926 198.183C137.796 198.409 137.764 198.69 137.666 199.046H174.081V199.035ZM289.792 184.709C289.986 184.299 290.127 184.062 290.213 183.792C290.299 183.522 290.353 183.241 290.386 182.971C290.936 178.189 289.177 174.324 285.355 171.56C281.501 168.785 277.29 168.483 272.95 170.567C271.536 171.247 270.629 172.197 270.241 173.816C269.366 177.368 267.65 180.51 265.156 183.198C264.756 183.63 264.346 184.062 263.752 184.709H289.792ZM37.534 184.677C36.2169 182.269 34.6623 180.11 33.8418 177.703C32.9889 175.23 32.8594 172.51 32.4168 169.886C24.1363 167.857 16.3308 177.39 19.4076 184.677H37.534ZM118.558 188.445C118.784 188.974 118.871 189.319 119.065 189.589C120.404 191.489 121.656 193.454 123.124 195.257C126.428 199.295 126.471 199.262 131.621 199.219C131.761 199.219 131.901 199.197 132.042 199.219C133.197 199.403 133.834 198.809 134.395 197.859C136.036 195.073 137.764 192.32 139.437 189.557C139.61 189.276 139.696 188.93 139.89 188.445H118.558ZM192.909 188.38H171.652C173.908 191.997 175.97 195.343 178.086 198.647C178.27 198.938 178.777 199.154 179.144 199.187C182.157 199.478 184.92 199.392 187.015 196.498C188.904 193.886 191.117 191.511 192.898 188.369L192.909 188.38ZM146.238 184.634H165.369C162.054 179.495 159.096 174.529 155.674 169.476C152.446 174.658 149.445 179.484 146.238 184.634ZM250.959 182.993C251.153 182.993 251.337 182.993 251.531 182.993C253.475 178.081 255.418 173.158 257.415 168.116H245.097C247.116 173.244 249.037 178.124 250.959 183.004V182.993ZM289.155 152.44C288.68 148.1 284.437 144.807 279.935 145.142C276.092 145.423 272.421 149.007 272.529 152.44H289.166H289.155Z" fill="#7FCCDB"/>
<path d="M121.797 29.4852C129.829 26.9589 137.699 25.4799 145.904 24.7458C145.796 25.2316 145.742 25.5447 145.667 25.8578C144.35 30.7159 144.317 30.5 139.383 31.4069C133.975 32.3893 128.663 33.8683 123.287 35.0343C121.937 35.3258 121.635 36.0167 121.646 37.2475C121.689 42.4079 121.678 47.5792 121.678 52.7397C121.678 53.3766 121.743 54.0244 121.646 54.6505C121.505 55.6222 120.858 56.1944 119.897 56.1512C118.893 56.108 118.407 55.4602 118.461 54.4346C118.483 53.938 118.461 53.4414 118.461 52.9448C118.461 48.4861 118.461 44.0273 118.461 39.5794C118.461 38.8129 118.396 38.0464 118.342 37.0747C117.63 37.2583 117.101 37.3338 116.604 37.5282C110.353 40.0112 104.351 42.9801 98.5856 46.4348C97.4628 47.1042 97.085 47.8599 97.0958 49.1338C97.1497 54.4346 97.1174 59.7462 97.0958 65.047C97.0958 65.6732 97.0742 66.3318 96.9014 66.9255C96.6747 67.7244 95.9946 67.9511 95.2173 67.8648C94.4184 67.7784 93.9002 67.379 93.9002 66.5045C93.9002 64.8095 93.8786 63.1038 93.8786 61.4088C93.8786 57.5978 93.8786 53.7977 93.8786 49.4577C70.419 65.8136 55.6069 87.5674 48.2225 114.784C49.2157 115.032 50.0038 115.259 50.8027 115.432C60.7674 117.677 66.9535 126.39 65.7443 136.473C65.6688 137.099 65.5392 137.736 65.3341 138.33C64.1573 141.795 62.959 145.261 61.6959 148.942C60.6918 148.78 59.6878 148.618 58.4355 148.413C58.9321 146.762 59.3531 145.293 59.7958 143.825C60.6271 141.126 61.8362 138.492 62.2357 135.739C63.6499 126.033 54.7972 118.336 47.4128 118.843C45.0377 129.153 44.5627 139.679 45.1133 150.335C43.3751 151.015 41.7665 151.641 39.9528 152.354C39.8233 151.577 39.6829 150.983 39.6289 150.367C38.0635 131.842 41.0972 114.017 48.1793 96.8951C57.4099 74.5691 72.1787 56.745 92.4211 43.5307C93.5331 42.8074 93.8786 42.0085 93.8786 40.767C93.8462 32.9831 93.8678 25.1992 93.8786 17.4261C93.8786 16.7892 93.8894 16.1522 93.9002 15.5152C93.9002 14.576 94.386 14.0686 95.3036 13.9822C96.34 13.8851 96.9014 14.468 97.0742 15.4073C97.1713 15.9579 97.1173 16.5301 97.1173 17.1022C97.1173 24.0332 97.1173 30.9642 97.1173 37.8952C97.1173 38.6402 97.1173 39.3959 97.1173 40.4107C97.8731 40.0436 98.3157 39.8601 98.7259 39.6226C104.394 36.4162 110.245 33.62 116.388 31.4393C118.504 30.6835 118.504 30.6404 118.504 28.4272C118.493 20.0819 118.472 11.7367 118.45 3.38059C118.45 2.67886 118.331 1.91235 118.558 1.27538C118.731 0.778771 119.281 0.271362 119.789 0.0878308C120.523 -0.182068 121.246 0.184994 121.441 0.983894C121.624 1.71802 121.678 2.51692 121.678 3.28343C121.7 11.1321 121.7 18.9915 121.711 26.8402C121.711 27.6067 121.775 28.3732 121.829 29.4636L121.797 29.4852Z" fill="#7FCCDB"/>
<path d="M224.974 159.652C223.257 157.352 223.743 155.506 225.211 153.498C227.575 150.27 230.253 147.409 233.405 144.969C234.075 144.451 234.744 143.944 235.413 143.426C234.183 135.523 236.687 129.143 243.337 124.846C250.031 120.517 256.843 121.132 263.699 125.925C260.168 103.448 251.294 83.9939 236.633 66.8392C234.528 68.8904 232.596 70.7689 230.663 72.6582L230.879 73.1548C232.973 73.1548 235.068 73.1116 237.151 73.1656C239.041 73.2196 239.397 73.7162 239.127 75.8322C238.328 75.8754 237.497 75.951 236.666 75.951C221.605 75.951 206.534 75.951 191.474 75.951C191.053 75.951 190.621 75.9294 190.2 75.9186C189.466 75.897 188.861 75.5623 189.012 74.7958C189.109 74.2776 189.552 73.6406 190.005 73.4355C190.61 73.1548 191.377 73.198 192.078 73.1764C193.331 73.144 194.583 73.1764 195.868 73.1764C196.138 71.6326 196.354 70.3155 196.602 69.0092C196.699 68.5233 196.872 68.0591 197.023 67.5949C197.304 66.688 197.789 66.0079 198.858 66.3534C199.873 66.6772 199.949 67.4006 199.689 68.383C199.312 69.7973 199.128 71.2655 198.826 72.9497C199.668 73.0361 200.272 73.1548 200.877 73.1548C208.801 73.1656 216.715 73.1872 224.639 73.1548C225.297 73.1548 226.15 73.0469 226.593 72.6366C229.26 70.1211 231.829 67.5085 234.539 64.8203C233.848 64.0214 233.286 63.3089 232.66 62.6719C216.941 46.7155 198.124 36.4918 176.133 32.1626C173.639 31.6768 171.113 31.3745 168.619 30.8887C168.09 30.7915 167.399 30.3705 167.204 29.917C166.557 28.384 166.114 26.7646 165.563 25.1021C215.16 28.0601 267.143 70.5206 270.608 137.455C268.87 137.747 267.099 138.049 264.94 138.416C264.94 137.153 264.951 136.117 264.94 135.08C264.919 133.461 264.314 132.122 263.267 130.859C259.315 126.109 253.594 124.651 248.638 126.282C243.208 128.063 239.095 133.051 238.706 138.816C238.609 140.219 239.138 141.709 239.58 143.091C239.915 144.149 239.84 144.775 238.792 145.326C233.232 148.23 229.162 152.656 226.032 158.011C225.718 158.54 225.373 159.058 224.995 159.663L224.974 159.652Z" fill="#7FCCDB"/>
<path d="M96.7926 102.984C95.2812 108.533 91.8589 111.912 86.5041 113.499C86.5041 116.371 86.5041 119.189 86.5041 122.006C86.5041 123.345 86.5365 124.695 86.4933 126.033C86.4501 127.242 85.77 128.139 85.0143 127.966C84.0211 127.75 83.7619 126.994 83.7727 126.044C83.8051 122.719 83.7943 119.394 83.7835 116.069C83.7835 115.378 83.708 114.687 83.6648 113.845C76.8094 113.24 72.4046 109.613 70.2562 102.984C68.3885 102.984 66.4884 102.984 64.5991 102.984C62.4076 102.984 60.216 103.027 58.0244 102.962C57.0744 102.941 56.1027 102.649 56.1459 101.419C56.1891 100.263 57.0528 99.8856 58.0568 99.8748C60.8853 99.8532 63.7139 99.8748 66.5424 99.8748C67.6652 99.8748 68.788 99.8748 69.9971 99.8748C71.5085 92.3608 75.5678 87.4055 83.5244 87.4378C91.4055 87.481 95.6159 92.3176 97.2245 99.8748C98.045 99.8748 98.8115 99.8748 99.578 99.8748C105.375 99.8748 111.173 99.8532 116.97 99.864C117.607 99.864 118.309 99.7668 118.849 100.015C119.335 100.242 119.972 100.922 119.928 101.321C119.853 101.872 119.302 102.541 118.773 102.822C118.266 103.092 117.532 102.962 116.895 102.962C111.162 102.962 105.44 102.973 99.7076 102.973C98.8007 102.973 97.883 102.973 96.8034 102.973L96.7926 102.984ZM85.1762 90.8494C84.9927 91.0653 84.8847 91.1516 84.82 91.2704C83.1142 94.2825 81.3221 97.2406 79.7566 100.317C78.8822 102.023 77.8566 103.006 75.8377 102.639C75.2547 102.531 74.6286 102.682 73.9916 102.714C75.2224 107.561 79.8214 110.865 84.4313 110.358C89.5054 109.807 93.4135 105.705 93.5323 100.803C93.651 95.8371 90.1855 91.6591 85.187 90.8386L85.1762 90.8494ZM73.6785 99.6696C76.7014 100.048 76.6906 100.037 78.0185 97.7372C79.0441 95.9666 80.1129 94.2285 81.1169 92.458C81.3652 92.0153 81.484 91.5079 81.7107 90.8925C77.252 91.9182 74.1104 95.416 73.6785 99.6696Z" fill="#7FCCDB"/>
<path d="M214.912 79.7727C223.182 79.7727 231.441 79.7727 239.711 79.7727C240.488 79.7727 241.265 79.8159 242.043 79.8375C242.917 79.8591 243.36 80.3773 243.37 81.1762C243.37 82.0507 242.917 82.6444 241.945 82.6552C241.449 82.6552 240.952 82.666 240.466 82.666C236.796 82.666 233.125 82.6984 229.444 82.666C228.45 82.666 227.813 82.9575 227.144 83.7672C220.246 92.2312 208.219 92.6739 200.813 84.6201C199.399 83.0871 198.038 82.5257 196.084 82.6229C193.763 82.7416 191.42 82.6552 189.088 82.6552C188.592 82.6552 188.095 82.6768 187.609 82.6229C186.767 82.5257 186.055 82.1478 186.066 81.1978C186.066 80.2909 186.659 79.8159 187.577 79.7727C188.138 79.7511 188.711 79.7187 189.272 79.7079C197.822 79.7079 206.362 79.7079 214.912 79.7079V79.7403V79.7727ZM203.328 82.8172C209.115 89.3595 219.727 88.2152 223.689 82.8172H203.328Z" fill="#7FCCDB"/>
<path d="M266.743 102.25C273.534 102.984 278.813 106.061 282.365 111.847C285.938 117.656 286.165 123.82 283.531 130.427C285.83 130.427 287.925 130.427 290.019 130.427C291.218 130.427 292.427 130.395 293.625 130.46C294.608 130.514 295.223 131.172 295.266 132.09C295.32 133.051 294.672 133.644 293.733 133.828C293.247 133.914 292.751 133.925 292.254 133.925C286.878 133.936 281.512 133.947 276.136 133.958C275.499 133.958 274.862 133.958 274.225 133.893C273.21 133.796 272.454 133.396 272.465 132.209C272.476 131.118 273.059 130.535 274.419 130.46C275.693 130.395 276.967 130.363 278.23 130.46C279.493 130.557 280.119 129.985 280.659 128.905C283.779 122.622 281.922 114.309 276.265 109.483C274.246 107.767 271.99 106.525 269.367 105.942C266.97 105.402 266.83 105.154 266.722 102.25H266.743Z" fill="#7FCCDB"/>
<path d="M208.801 125.073C209.73 125.116 210.486 125.191 211.252 125.191C218.043 125.191 224.833 125.191 231.624 125.191C232.185 125.191 232.758 125.191 233.319 125.288C234.215 125.45 234.776 126.152 234.56 126.94C234.399 127.556 233.74 128.16 233.146 128.506C232.725 128.754 232.045 128.57 231.473 128.57C224.963 128.56 218.464 128.549 211.954 128.527C210.982 128.527 210.011 128.527 208.909 128.527C208.877 132.403 206.837 135.285 205.196 138.427V128.722C203.436 128.646 201.914 128.57 200.262 128.495C199.895 127.491 199.528 126.53 199.074 125.31C201.147 125.213 203.004 125.126 205.066 125.029C205.131 124.144 205.217 123.399 205.217 122.654C205.217 119.966 205.196 117.278 205.185 114.59C205.185 114.093 205.044 113.467 205.282 113.143C205.692 112.582 206.297 111.966 206.944 111.793C207.819 111.556 208.38 112.279 208.575 113.1C208.704 113.64 208.693 114.223 208.693 114.784C208.693 117.472 208.693 120.16 208.693 122.849C208.693 123.539 208.758 124.22 208.801 125.073Z" fill="#7FCCDB"/>
<path d="M67.9033 238.138C67.8817 241.593 65.1287 244.217 61.5877 244.152C58.079 244.098 55.4664 241.388 55.5204 237.89C55.5743 234.435 58.3273 231.79 61.8252 231.823C65.2475 231.855 67.9141 234.641 67.8925 238.138H67.9033Z" fill="#7FCCDB"/>
<path d="M121.948 69.7972C121.289 69.8404 120.598 69.9268 119.907 69.9376C117.457 70.0024 115.719 71.2331 114.747 73.3815C113.84 75.4003 114.142 77.4192 115.589 79.1465C117.208 81.079 119.357 81.5324 121.732 81.0034C122.477 80.8415 123.179 80.496 123.869 80.2477C125.521 82.4069 125.251 83.3569 122.855 84.1019C118.04 85.5917 112.825 83.0007 111.368 78.3908C109.867 73.6298 112.437 68.6097 117.23 67.0551C117.953 66.8176 118.741 66.7204 119.508 66.688C122.045 66.5908 122.38 67.0227 121.937 69.808L121.948 69.7972Z" fill="#7FCCDB"/>
<path d="M92.0645 167.716C92.3128 166.972 92.4747 166.432 92.6798 165.903C97.4084 153.444 102.137 140.997 106.876 128.538C107.082 128.009 107.233 127.415 107.589 127.016C107.848 126.735 108.442 126.584 108.831 126.66C109.057 126.703 109.338 127.34 109.295 127.664C109.219 128.279 108.939 128.873 108.712 129.466C104.037 141.795 99.3625 154.114 94.6771 166.443C94.4504 167.036 94.2452 167.662 93.8674 168.148C93.6191 168.472 93.0145 168.796 92.7122 168.699C92.3991 168.602 92.2372 167.986 92.0753 167.706L92.0645 167.716Z" fill="#7FCCDB"/>
<path d="M87.3897 156.046C87.638 155.323 87.7892 154.859 87.9619 154.394C90.5313 147.604 93.0792 140.813 95.681 134.055C95.9941 133.245 96.1452 131.766 97.4947 132.317C98.6283 132.781 97.9697 133.904 97.6566 134.724C95.0332 141.644 92.399 148.543 89.7648 155.463C89.6353 155.787 89.5597 156.186 89.3222 156.413C88.9659 156.759 88.4909 156.985 88.0698 157.255C87.8215 156.813 87.5624 156.359 87.3789 156.046H87.3897Z" fill="#7FCCDB"/>
<path d="M241.513 103.858C241.481 105.931 239.786 107.594 237.713 107.583C235.467 107.561 233.826 105.92 233.848 103.718C233.869 101.44 235.51 99.8208 237.724 99.8855C239.937 99.9503 241.556 101.656 241.513 103.858Z" fill="#7FCCDB"/>
<path d="M6.33398 155.01C8.47158 154.977 10.1342 156.532 10.1557 158.605C10.1773 160.678 8.56874 162.372 6.50671 162.437C4.43389 162.513 2.72813 160.883 2.67415 158.799C2.62017 156.726 4.25036 155.031 6.33398 154.999V155.01Z" fill="#7FCCDB"/>
<path d="M139.641 0.983907C141.563 0.973111 143.312 2.70046 143.334 4.64373C143.355 6.57621 141.617 8.30356 139.652 8.29276C137.644 8.29276 135.96 6.61939 135.982 4.65453C136.014 2.64648 137.655 0.994702 139.641 0.983907Z" fill="#7FCCDB"/>
<path d="M44.8641 222.484C42.8992 222.441 41.3662 220.908 41.377 219.008C41.3986 217.086 43.1368 215.348 45.0368 215.359C46.8937 215.359 48.6859 217.216 48.6535 219.062C48.6103 221.005 46.9261 222.538 44.8641 222.484Z" fill="#7FCCDB"/>
<path d="M0.882047 139.215C0.860455 137.186 2.50144 135.501 4.4555 135.545C6.28002 135.588 7.96419 137.283 7.98578 139.107C8.00737 140.953 6.38798 142.54 4.44471 142.562C2.39348 142.584 0.903639 141.18 0.882047 139.215Z" fill="#7FCCDB"/>
<path d="M205.768 100.544C204.353 100.544 202.939 100.598 201.525 100.512C201.158 100.49 200.812 100.037 200.456 99.7775C200.802 99.3997 201.125 98.7088 201.482 98.698C204.31 98.6116 207.139 98.6116 209.956 98.698C210.28 98.698 210.583 99.4321 210.896 99.8207C210.529 100.069 210.172 100.501 209.795 100.533C208.456 100.62 207.106 100.566 205.768 100.566V100.544Z" fill="#7FCCDB"/>
<path d="M85.5008 253.35C84.0434 253.318 83.1905 252.421 83.2013 250.942C83.2121 249.517 84.3996 248.384 85.7707 248.481C87.0338 248.567 88.2106 249.776 88.1782 250.975C88.135 252.357 86.9799 253.382 85.5008 253.361V253.35Z" fill="#7FCCDB"/>
<path d="M235.964 92.4256C234.571 92.4148 233.524 91.3676 233.6 90.0397C233.664 88.7226 234.787 87.5998 236.018 87.5998C237.292 87.5998 238.458 88.7873 238.415 90.0289C238.371 91.3352 237.249 92.4364 235.964 92.4256Z" fill="#7FCCDB"/>
<path d="M4.7146 119.707C3.25714 119.75 2.22073 118.832 2.23153 117.494C2.23153 116.231 3.17078 115.194 4.40151 115.119C5.7618 115.032 6.93856 116.004 7.02493 117.278C7.1113 118.595 6.09648 119.675 4.7146 119.718V119.707Z" fill="#7FCCDB"/>
<path d="M223.689 99.2702C223.689 100.587 222.793 101.559 221.519 101.613C220.072 101.678 219.079 100.728 219.122 99.3242C219.155 97.9747 220.213 96.9167 221.53 96.9167C222.718 96.9167 223.7 97.9747 223.7 99.2702H223.689Z" fill="#7FCCDB"/>
<path d="M145.699 229.761C144.716 229.361 143.961 229.059 143.032 228.681C143.183 227.71 143.216 226.803 143.464 225.95C145.029 220.444 149.909 216.579 155.534 216.32C160.953 216.082 166.276 219.785 168.208 225.162C168.327 225.486 168.424 225.831 168.5 226.166C168.996 228.368 168.716 228.768 166.136 229.253C165.866 228.519 165.574 227.764 165.315 226.986C163.804 222.452 160.144 219.71 155.728 219.796C151.421 219.882 147.642 222.927 146.379 227.364C146.185 228.033 146.001 228.714 145.699 229.761Z" fill="#7FCCDB"/>
<path d="M185.233 218.943C185.816 218.717 186.323 218.49 186.852 218.328C188.936 217.691 190.976 218.349 192.099 219.99C193.286 221.739 193.254 223.855 192.002 225.507C190.739 227.17 188.612 227.731 186.474 226.954C184.617 226.285 183.257 224.363 183.581 222.301C183.797 220.908 183.268 220.066 182.426 219.138C179.122 215.467 175.873 211.742 172.623 208.039C171.457 206.711 171.241 205.783 172.018 205.362C173.249 204.693 173.8 205.783 174.415 206.485C177.794 210.371 181.141 214.279 184.509 218.177C184.736 218.436 184.984 218.684 185.233 218.954V218.943Z" fill="#7FCCDB"/>
<path d="M122.077 220.584C122.077 221.847 122.26 222.862 122.045 223.791C121.483 226.198 119.043 227.569 116.431 227.073C113.969 226.608 112.598 224.546 112.965 221.88C113.289 219.559 115.308 218.036 117.856 218.187C117.931 218.187 118.007 218.187 118.061 218.209C120.382 219.353 121.613 217.864 122.93 216.309C125.542 213.243 128.241 210.252 130.94 207.251C131.567 206.56 132.258 205.373 133.337 206.387C134.374 207.359 133.294 208.169 132.668 208.86C129.127 212.8 125.564 216.719 122.088 220.573L122.077 220.584Z" fill="#7FCCDB"/>
<path d="M79.6387 205.114C81.0313 203.635 81.2689 203.591 82.4672 204.617C82.953 205.027 83.3633 205.513 83.8167 205.967C89.5925 211.742 95.9729 216.698 103.336 220.314C103.714 220.498 104.21 220.638 104.405 220.951C104.685 221.416 105.02 222.182 104.826 222.528C104.61 222.905 103.822 223.067 103.26 223.111C102.893 223.143 102.483 222.83 102.105 222.635C94.1268 218.522 87.1095 213.135 80.8802 206.69C80.4052 206.204 80.0381 205.61 79.6387 205.103V205.114Z" fill="#7FCCDB"/>
<path d="M141.003 205.826C142.352 204.023 142.536 203.937 144.371 204.574C151.443 206.992 158.557 207.294 165.758 205.124C167.421 204.628 167.637 204.768 169.062 206.798C162.854 210.663 146.941 210.242 141.003 205.826Z" fill="#7FCCDB"/>
<path d="M218.949 217.183C217.989 217.259 217.276 216.341 217.654 215.64C217.913 215.165 218.356 214.765 218.766 214.387C221.918 211.451 225.081 208.536 228.223 205.61C229.724 204.207 230.447 203.969 230.998 204.865C231.818 206.182 230.479 206.744 229.81 207.402C227.489 209.67 225.082 211.84 222.696 214.042C221.821 214.852 220.947 215.683 220.04 216.46C219.673 216.773 219.23 217 218.949 217.183Z" fill="#7FCCDB"/>
<path d="M212.611 209.95C212.644 211.71 211.057 213.351 209.265 213.394C207.419 213.448 205.885 211.958 205.853 210.091C205.821 208.126 207.17 206.733 209.113 206.722C211.046 206.722 212.568 208.126 212.601 209.95H212.611Z" fill="#7FCCDB"/>
<path d="M108.658 210.037C108.615 211.947 107.157 213.383 105.29 213.351C103.562 213.319 102.083 211.829 102.062 210.08C102.04 208.158 103.627 206.657 105.603 206.744C107.492 206.83 108.701 208.126 108.658 210.037Z" fill="#7FCCDB"/>
</svg>
