<svg width="270" height="269" viewBox="0 0 270 269" fill="none" xmlns="http://www.w3.org/2000/svg">
<path d="M134.73 191.74C97.62 191.74 60.52 191.74 23.41 191.75C20.89 191.75 18.36 191.84 15.85 192.01C13.9 192.14 12.69 191.39 11.92 189.59C7.79001 180 4.45001 170.17 2.45001 159.9C0.760012 151.3 1.17004e-05 142.59 1.17004e-05 133.84C-0.0099883 109.05 6.39001 86.01 19.34 64.87C34.65 39.87 55.76 21.5 82.88 10.21C93.63 5.74002 104.81 2.86002 116.37 1.31002C126.08 2.2769e-05 135.8 -0.399977 145.55 0.450023C169.33 2.54002 191.49 9.59002 211.31 23.05C240.37 42.78 258.65 70.04 266.67 104.16C269.46 116.01 270.28 128.09 269.73 140.24C268.94 157.5 264.67 173.91 257.52 189.61C256.72 191.36 255.58 192.09 253.61 192.08C213.98 191.86 174.36 191.7 134.73 191.52C134.73 191.59 134.73 191.66 134.73 191.72V191.74ZM145.72 126.92C151.12 121.16 156.3 115.66 161.45 110.13C169.19 101.82 176.91 93.49 184.66 85.18C187.64 81.98 188.69 82 191.79 85.22C199.37 93.1 206.95 100.99 214.54 108.87C214.97 109.32 215.48 109.68 216.44 110.5V103.47H228.42C228.57 106.18 228.71 108.72 228.85 111.41C230.55 111.41 231.89 111.39 233.22 111.41C236 111.45 236.46 111.88 236.47 114.65C236.5 120.46 236.49 126.26 236.49 132.07C236.49 133.05 236.49 134.03 236.49 135.42H245.8C245.8 138.93 245.83 142.03 245.79 145.13C245.77 146.48 246.21 147.5 247.18 148.48C251.21 152.54 255.15 156.69 259.15 160.79C259.52 161.17 260.01 161.43 260.44 161.75C260.62 161.51 260.69 161.45 260.71 161.37C263.8 147.82 264.52 134.15 263.08 120.31C261.87 108.61 259.27 97.28 254.79 86.43C243.71 59.63 226.1 38.36 200.86 23.76C183.58 13.77 164.92 8.19002 145 6.64002C133.18 5.72002 121.43 6.09002 109.84 8.46002C73.64 15.86 45.46 35.22 25.64 66.36C10.19 90.64 4.01001 117.3 6.60001 146C7.71001 158.31 10.55 170.17 15.27 181.59C15.77 182.81 16.36 184 16.87 185.12H21.31C21.38 184.11 21.49 183.21 21.5 182.31C21.53 178.1 21.65 173.89 21.5 169.69C21.35 165.49 23.87 163.7 27.38 163.97C28.68 164.07 30 163.99 31.08 163.99C32.24 161.81 30.8 161.27 29.54 160.62C29.69 159.78 29.69 158.99 29.96 158.32C31.02 155.76 32.04 153.17 33.3 150.71C43.4 130.95 63.66 117.73 87.92 120.47C100.1 121.84 110.43 126.83 119.19 135.28C119.49 135.57 119.98 135.88 120 136.21C120.06 137.15 120.28 138.42 119.78 138.96C119.33 139.44 117.98 139.27 117.1 139.07C116.53 138.94 116.09 138.23 115.58 137.79C102.58 126.18 87.54 121.84 70.5 125.8C54.89 129.43 44.16 139.3 36.97 153.34C36.84 153.59 36.87 153.91 36.8 154.34C43.4 154.36 43.92 158.84 43.67 163.83C44.8 163.88 45.63 164.01 46.45 163.94C50.54 163.6 53.09 164.96 52.82 170.34C52.62 174.37 52.78 178.42 52.8 182.46C52.8 183.36 52.93 184.26 53.01 185.26H57.16C57.5 174.19 57.01 163.39 57.43 152.71C58.66 152.48 59.46 152.32 60.32 152.16C60.66 147.49 61.95 143.44 66.38 141.15C65.76 138.86 65.64 136.71 67.58 135.08C68.77 134.08 70.15 133.86 71.57 134.61C74.27 136.03 73.94 138.59 73.9 140.51C75.47 142.58 77.07 144.15 78 146.06C78.93 147.95 79.18 150.18 79.73 152.25C80.77 152.38 81.73 152.49 83 152.64V185.11H92.03C92.08 184.02 92.16 183.04 92.17 182.05C92.2 176.24 92.18 170.44 92.24 164.63C92.26 162.1 92.84 161.52 95.38 161.39C97.06 161.31 98.75 161.34 100.43 161.39C101.97 161.44 103.16 160.9 104.22 159.77C107.14 156.63 110.14 153.56 113.09 150.44C119.97 143.16 126.82 135.86 133.7 128.59C136.2 125.95 137.17 125.96 139.73 128.47C140.32 129.05 140.97 129.55 141.59 130.09C141.71 129.95 141.83 129.81 141.95 129.67C141.57 129.03 141.2 128.39 140.82 127.76C136.13 120.06 133.77 111.62 133.27 102.69C132.7 92.51 135.27 83.06 140.32 74.23C151.24 55.14 173.54 44.92 195 49.81C216.53 54.72 229.75 68.48 235.35 89.7C235.9 91.8 236.11 94 236.35 96.17C236.53 97.77 235.55 99.03 234.22 99.06C232.76 99.1 232.16 98.24 232.06 96.85C231.97 95.6 231.81 94.34 231.58 93.1C227.72 72.12 211.28 55.5 189.08 53.31C172.06 51.63 158.05 58.04 147.58 71.51C138.62 83.04 135.86 96.22 138.71 110.54C139.87 116.35 142.12 121.73 145.74 126.92H145.72ZM205.18 144.2C205.25 143.12 205.35 142.14 205.36 141.16C205.38 132.75 205.42 124.35 205.35 115.94C205.33 113.68 205.55 111.76 208.51 111.1C201.66 103.95 195.07 97.06 188.25 89.94C174.07 105.16 160.08 120.18 146.44 134.82C149 137.53 151.39 140.07 153.84 142.67C156.43 139.91 159.01 137.16 161.58 134.4C163.81 132 166 129.56 168.26 127.18C170.19 125.16 171.59 125.18 173.62 127.13C174.04 127.54 174.43 127.98 174.84 128.41C179.71 133.4 184.59 138.39 189.48 143.37C189.84 143.74 190.36 143.96 191.25 144.54V137.31H201.88C201.99 139.66 202.09 141.89 202.2 144.21H205.17L205.18 144.2ZM134.3 185.12C134.3 182.69 134.27 180.59 134.3 178.5C134.35 175.73 134.27 173.08 135.58 170.33C137.77 165.74 140.3 163.57 145.38 163.54C147.8 163.52 150.23 163.54 152.67 163.54C153.67 159.43 155.66 156.32 159.97 156.05C165.02 155.73 167.78 158.78 168.89 163.53C169.95 163.53 170.79 163.53 171.62 163.53C173.13 163.53 174.65 163.51 176.16 163.53C180.5 163.6 183.38 165.63 185.01 169.71C185.43 170.77 185.67 172.14 187.49 171.27C187.55 170.83 187.69 170.35 187.69 169.86C187.72 163.81 187.79 157.75 187.69 151.7C187.67 150.77 186.99 149.69 186.31 148.96C181.9 144.22 177.41 139.56 172.97 134.85C172.4 134.25 171.98 133.51 171.38 132.67C170.2 133.83 169.4 134.55 168.66 135.34C164.59 139.7 160.54 144.09 156.46 148.45C154.32 150.74 152.94 150.74 150.78 148.49C148.68 146.31 146.6 144.11 144.51 141.92C142.02 139.31 139.54 136.7 137.07 134.11C134.2 136.15 112.51 159.52 111.78 161.44C112.7 161.44 113.52 161.44 114.34 161.44C117.45 161.44 120.56 161.39 123.67 161.42C126.63 161.45 127.33 162.19 127.34 165.19C127.36 170.91 127.34 176.63 127.35 182.35C127.35 183.25 127.43 184.14 127.48 185.13H134.3V185.12ZM197.64 153.41H220.3C220.3 158.84 220.3 164.04 220.3 169.23C220.3 174.42 220.3 179.79 220.3 185.18H223.46C224.11 181.88 223.95 151.3 223.32 149.76H194.31V185.21H197.64V153.42V153.41ZM246.26 156.36C245.47 158.36 245.35 182.66 246.11 185.11H252.8C254.64 180.22 256.46 175.36 258.29 170.5C258.74 169.3 258.21 168.43 257.39 167.58C254.06 164.13 250.77 160.64 247.45 157.18C247.13 156.85 246.68 156.64 246.26 156.35V156.36ZM165.52 171.82C166.11 168.47 166.04 165.29 165.44 162.16C165.1 160.39 162.55 158.81 160.54 158.83C158.56 158.85 155.9 160.75 155.77 162.66C155.57 165.64 155.72 168.64 155.72 171.83H165.53L165.52 171.82ZM229.11 121.02V157.72H231.94V121.02H229.11ZM238.54 145.77V185.13C239.1 185.18 239.5 185.26 239.9 185.24C240.29 185.22 240.68 185.11 241.14 185.02V145.84C240.66 145.75 240.35 145.65 240.03 145.64C239.62 145.64 239.22 145.7 238.54 145.76V145.77ZM95.6 179.27H123.74V176.54H95.6V179.27ZM123.76 164.59H95.78C95.64 165.15 95.51 165.46 95.5 165.78C95.5 166.18 95.59 166.59 95.68 167.23H124C123.91 166.26 123.84 165.49 123.76 164.59ZM211.69 167.82V185.06H214.96C214.96 183.47 214.88 182.05 214.97 180.65C215.31 175.42 214.09 170.13 215.74 164.94C216.17 163.6 215.07 162.04 213.76 161.5C212.56 161 210.75 161.6 209.99 162.75C209.26 163.84 209.45 165.61 210.42 166.69C210.75 167.06 211.16 167.36 211.68 167.82H211.69ZM123.59 170.49H95.47C95.52 171.52 95.57 172.3 95.62 173.26H123.59V170.49ZM95.61 184.94C99.24 185.56 122.06 185.38 123.93 184.69C123.83 184.01 123.73 183.3 123.63 182.59H95.62V184.93L95.61 184.94ZM209.87 120.98V144.09C210.5 144.16 210.9 144.25 211.31 144.24C211.63 144.24 211.96 144.14 212.72 144C212.73 136.36 212.95 128.71 212.63 120.97H209.87V120.98ZM152.71 166.33C149.52 166.33 146.68 166.2 143.85 166.37C141.21 166.52 139.12 168.65 138.66 171.42H152.71V166.34V166.33ZM182.74 171.47C182.07 168.87 180.83 167.18 178.65 166.65C175.47 165.88 172.23 166.2 168.96 166.4V171.47H182.73H182.74ZM76.02 155.13H73.43V177.56C74.4 177.51 75.16 177.46 76.02 177.41V155.13ZM65.8 177.47V155.38C65.3 155.26 64.99 155.13 64.68 155.12C64.29 155.11 63.89 155.2 63.38 155.26V177.47H65.81H65.8ZM40.86 163.89C41.35 161.67 41.46 159.54 39.86 157.76C38.93 156.72 36.79 156.6 35.64 157.4C33.26 159.06 33.86 161.42 34.11 163.88H40.85L40.86 163.89ZM232.1 166.91C230.94 166.97 230.08 167.02 229.18 167.07V181.22C230.27 181.17 231.14 181.13 232.1 181.08V166.91ZM155.82 178.73C159.21 178.6 162.35 179.45 165.61 178.49C165.53 177.06 165.47 175.86 165.4 174.66H155.82V178.73ZM169.08 178.52H177.94V174.69H169.08V178.52ZM190.81 185.37V173.84C189.84 173.92 189.15 173.98 188.34 174.04V185.37H190.81ZM34.03 179.46H40.53V174.54H34.03V179.46ZM43.34 174.51V179.38H49.65V174.51H43.34ZM31.03 179.47V174.57H24.61V179.47H31.03ZM40.56 171.71V166.99H34.07V171.71H40.56ZM24.41 171.61H31.09V166.96C29.38 166.96 27.81 166.87 26.25 166.99C25.14 167.08 24.43 167.8 24.41 169C24.4 169.82 24.41 170.64 24.41 171.61ZM165.39 185.13V181.94H155.91V185.13H165.39ZM43.39 171.64H49.59C50.32 167.55 49.7 166.77 45.85 166.81C45.11 166.81 44.37 166.89 43.39 166.95V171.65V171.64ZM152.65 174.72H145.66V178.49H152.65V174.72ZM169.14 185.07H177.88V182.07H169.14V185.07ZM76.56 152.31C76.82 148.72 76.15 145.84 73.44 143.78C73.22 143.82 73 143.87 72.78 143.91C72.93 146.68 73.09 149.44 73.24 152.31H76.55H76.56ZM67.23 143.87C64.07 145 62.29 148.99 63.25 152.22H65.85C66.32 149.38 66.76 146.72 67.23 143.87ZM152.54 181.95H145.72V185.09H152.54V181.95ZM181.11 174.63V178.45H186.54V174.63H181.11ZM142.37 174.67H137.64V178.55H142.37V174.67ZM31.02 182.32H24.57V185.05H31.02V182.32ZM34.06 185.14H40.39V182.31H34.06V185.14ZM43.21 185.11H49.73V182.17H43.47C43.39 183.09 43.31 183.95 43.2 185.11H43.21ZM181.18 185.11H186.58V181.88H181.18V185.11ZM137.64 185.16H142.18V181.68C140.52 181.76 139.08 181.83 137.64 181.9V185.16ZM80.36 167.63C78.99 169.16 79.53 171 79.5 172.73C79.43 176.95 79.49 176.95 80.7 178.18C81.2 174.49 81.12 171.1 80.36 167.63ZM73.47 180.26V185.48H75.93V180.26H73.47ZM79.84 165.75C81.27 163.11 81.18 156.87 79.7 154.89C79.29 158.81 79.46 162.27 79.84 165.75ZM71.42 140.72C72.32 139.31 72.32 137.99 71.14 137C70.73 136.65 69.61 136.64 69.15 136.96C67.8 137.87 68.08 139.24 68.58 140.72H71.43H71.42ZM65.77 185.38V180.3C64.84 180.38 64.13 180.44 63.38 180.5V185.38H65.77ZM241.2 142.35C241.42 140.76 241.88 139.41 240.8 138.05C240.05 138.15 239.35 138.24 238.54 138.35V142.36H241.19L241.2 142.35ZM59.72 155.29C58.95 157.05 58.91 163.82 59.66 165.78C60.77 164.16 60.81 157 59.72 155.29ZM59.34 178.07C60.84 176.09 60.8 169.17 59.34 167.57V178.07ZM232.22 117.45C232.14 116.36 232.08 115.56 232.01 114.64H228.77V117.45H232.23H232.22ZM79.84 179.77C79.29 181.9 79.24 183.68 79.86 185.77C81.35 183.89 81.36 181.72 79.84 179.77ZM213.1 117.58C212.87 115.89 212.36 114.81 210.89 114.62C210.51 114.57 210.06 115.02 209.6 115.26C209.66 116.03 209.71 116.67 209.77 117.42C210.28 117.49 210.68 117.56 211.08 117.58C211.65 117.61 212.22 117.58 213.1 117.58ZM59.61 185.61C60.81 183.71 60.78 181.66 59.54 180.02C58.94 181.94 58.82 183.67 59.61 185.61Z" fill="#7FCCDB"/>
<path d="M135.37 268.12C97.0496 267.78 65.2597 254.32 38.7896 228.18C30.4896 219.98 23.7296 210.55 17.7096 200.59C16.9296 199.3 16.4596 197.96 17.5596 196.62C18.6196 195.32 19.9396 195.34 21.4396 195.83C22.3696 196.14 23.4096 196.26 24.3996 196.26C97.3496 196.27 170.29 196.26 243.24 196.24C244.74 196.24 246.23 195.96 247.73 195.81C248.15 195.77 248.56 195.67 248.98 195.66C252.01 195.57 253.18 197.4 251.66 200.04C250.2 202.59 248.63 205.08 247 207.53C231.87 230.26 211.88 247.19 186.66 257.78C174.5 262.89 161.86 266.18 148.7 267.31C143.93 267.72 139.14 267.89 135.38 268.11L135.37 268.12ZM243.36 201.85H26.1196C44.9797 233.38 86.4996 265.57 143 261.75C186.07 258.84 219.17 238.11 243.37 201.85H243.36Z" fill="#7FCCDB"/>
<path d="M77.6099 105.34C62.0299 105.67 45.8799 92.4 45.8799 74.07C45.8799 56.66 60.4999 42.21 78.0899 42.39C96.8699 42.58 109.91 58.16 109.79 73.99C109.67 90.13 96.0899 105.67 77.6099 105.34ZM104.17 70.17C103.66 58.62 91.1299 47.8 78.2899 47.69C65.1899 47.57 52.1999 58.35 51.4599 70.11H53.9599C55.6899 67.21 55.9099 67.07 59.0899 67.03C61.4299 67 63.7699 67.03 65.9999 67.03C70.9499 56.05 84.6199 56.23 89.4599 67.05C91.6399 67.05 93.9799 67.14 96.3099 67.02C98.4299 66.91 100.1 67.52 101.26 69.35C101.92 70.39 102.78 70.88 104.16 70.18L104.17 70.17ZM78.4699 94.82C78.5699 96.7 78.6599 98.32 78.7499 99.92C94.3799 100.14 106.08 84.17 104.13 72.83C103.33 72.87 102.52 72.92 101.71 72.96C100.32 75.4 98.2299 76.12 95.6799 75.95C94.5099 75.87 93.3199 76.04 92.1599 75.93C89.8799 75.71 88.0599 76.27 86.7899 78.34C86.3699 79.03 85.6699 79.67 84.9499 80.03C82.8199 81.11 82.2999 82.87 82.4899 85.05C82.5599 85.88 82.4399 86.74 82.5199 87.57C82.8399 90.82 81.8999 93.38 78.4799 94.82H78.4699ZM76.2399 99.74V94.5C73.0899 93.62 72.2799 91.34 72.4099 88.45C72.4699 87.11 72.4499 85.76 72.4099 84.42C72.3599 82.52 72.0399 80.79 70.1099 79.73C69.3399 79.31 68.6299 78.54 68.2199 77.75C67.4599 76.3 66.2499 76.06 64.8499 76.03C62.7499 76 60.6499 75.94 58.5399 75.98C56.8799 76.02 55.5199 75.42 54.6799 74.05C53.8099 72.62 52.7099 72.47 51.3299 72.86C49.5199 87.56 64.7199 100.49 76.2299 99.74H76.2399ZM77.7199 78.23C82.3799 78.26 85.7299 74.96 85.7099 70.37C85.6899 66.12 82.2699 62.65 78.0599 62.62C73.4799 62.59 70.1499 65.92 70.0999 70.57C70.0499 74.91 73.3199 78.19 77.7199 78.22V78.23ZM75.0599 82.23C75.0599 84.8 74.9799 87.28 75.0899 89.75C75.1499 91.1 76.0599 91.79 77.4499 91.81C78.5799 91.83 79.5299 91.47 79.6299 90.26C79.8499 87.64 79.9299 85.02 80.0799 82.23H75.0599ZM89.5199 73.17C92.4399 73.17 95.0099 73.2 97.5699 73.16C98.6399 73.14 99.2399 72.52 99.2899 71.42C99.3399 70.27 98.6299 69.63 97.6499 69.59C95.1099 69.49 92.5599 69.56 89.8899 69.56C89.7599 70.87 89.6699 71.76 89.5199 73.18V73.17ZM65.5799 69.35C62.4299 69.5 59.6399 69.64 56.9999 69.76C56.3699 71.35 56.1999 72.75 57.7399 72.97C60.4199 73.36 63.1599 73.26 66.0199 73.07C65.8599 71.71 65.7499 70.75 65.5799 69.34V69.35Z" fill="#7FCCDB"/>
<path d="M41.21 115.82C41.24 117.66 39.75 119.25 37.94 119.32C36.17 119.39 34.76 118.02 34.72 116.2C34.67 114.11 36.11 112.52 38.02 112.56C39.77 112.59 41.18 114.03 41.21 115.82ZM38.12 113.51C37.32 114.64 36.63 115.24 36.45 115.96C36.22 116.9 36.91 117.52 37.88 117.57C38.98 117.62 39.71 116.95 39.6 115.92C39.53 115.27 38.86 114.68 38.11 113.51H38.12Z" fill="#7FCCDB"/>
<path d="M122.27 42.62C120.28 42.58 118.98 41.26 119.02 39.31C119.05 37.37 120.64 35.78 122.51 35.81C124.2 35.84 125.85 37.53 125.85 39.24C125.85 41.12 124.21 42.65 122.26 42.61L122.27 42.62ZM124.2 39.73C124.04 38.18 123.54 37.47 122.4 37.53C121.32 37.59 120.7 38.27 120.7 39.34C120.7 40.44 121.48 41.19 122.44 41.05C123.14 40.95 123.73 40.1 124.2 39.72V39.73Z" fill="#7FCCDB"/>
<path d="M164.47 221.14C164.72 221.93 165.11 222.71 165.18 223.52C165.3 224.77 165.12 226.05 165.22 227.3C165.37 229.19 166.59 230.27 168.33 230.21C170.03 230.15 170.97 229.22 171.09 227.29C171.18 225.95 171.07 224.6 171.12 223.26C171.19 221.51 171.93 221.15 173.57 221.75C174.63 222.14 175.8 222.42 176.93 222.42C184.75 222.46 192.57 222.4 200.39 222.39C201.47 222.39 202.56 222.49 203.84 222.97C203.46 223.24 203.12 223.64 202.7 223.73C202.14 223.86 201.53 223.76 200.94 223.76C192.95 223.76 184.96 223.77 176.97 223.78C176.06 223.78 175.15 223.78 173.82 223.78C173.82 225.09 173.87 226.15 173.82 227.2C173.64 230.64 171.25 232.96 168.03 232.89C164.92 232.82 162.65 230.51 162.52 227.21C162.47 225.95 162.4 224.68 162.54 223.43C162.63 222.63 163.09 221.88 163.39 221.11C163.75 221.11 164.1 221.13 164.46 221.13L164.47 221.14Z" fill="#7FCCDB"/>
<path d="M65.4 222.64H98.15C98.19 222.85 98.23 223.06 98.27 223.26C97.73 223.42 97.19 223.73 96.65 223.73C86.75 223.76 76.85 223.77 66.95 223.75C66.38 223.75 65.82 223.46 65.25 223.3C65.3 223.08 65.35 222.86 65.4 222.64Z" fill="#7FCCDB"/>
<path d="M76.86 218.59C75.13 219.47 56.88 219.7 53.75 218.84C54.49 218.46 54.92 218.07 55.35 218.06C62.14 218.03 68.94 218.04 75.73 218.07C76.07 218.07 76.41 218.37 76.87 218.59H76.86Z" fill="#7FCCDB"/>
<path d="M214.18 219.15H192.53C192.48 218.99 192.43 218.82 192.38 218.66C192.81 218.46 193.24 218.07 193.67 218.07C200.22 218.04 206.78 218.05 213.33 218.07C213.66 218.07 213.99 218.36 214.32 218.52C214.27 218.73 214.23 218.94 214.18 219.14V219.15Z" fill="#7FCCDB"/>
<path d="M106.13 224.34C104.07 224.32 102.39 222.58 102.38 220.46C102.38 218.36 104.15 216.55 106.16 216.62C108.07 216.68 110.07 218.66 110.11 220.53C110.15 222.33 108.03 224.36 106.13 224.35V224.34ZM106.09 218.23C104.72 218.27 103.65 219.35 103.73 220.62C103.81 221.77 105.16 223.01 106.29 222.97C107.47 222.93 108.47 221.65 108.4 220.31C108.33 218.99 107.44 218.19 106.09 218.23Z" fill="#7FCCDB"/>
<path d="M157.8 242.7C156.93 243.11 156.54 243.45 156.14 243.45C149.66 243.45 143.18 243.55 136.68 243.01C138.82 241.83 141.12 242.27 143.35 242.19C145.7 242.1 148.06 242.09 150.41 242.19C152.69 242.29 155.02 241.8 157.8 242.69V242.7Z" fill="#7FCCDB"/>
<path d="M78 73.45C76.2 73.48 75.1 72.48 75.03 70.78C74.96 69.06 76.3 67.65 77.96 67.69C79.36 67.72 80.84 69.21 80.9 70.66C80.96 72.22 79.71 73.43 78 73.45Z" fill="#7FCCDB"/>
</svg>
