<svg width="264" height="253" viewBox="0 0 264 253" fill="none" xmlns="http://www.w3.org/2000/svg">
<path d="M57.2799 24.23C79.6099 7.8 104.66 0 132.15 0C159.61 0 184.7 7.62 207.06 24.07C207.63 23.74 208.22 23.43 208.78 23.07C216.14 18.38 223.51 13.68 230.87 8.99C231.04 8.88 231.22 8.78 231.39 8.66C232.32 8.05 233.29 7.49 234.4 8.14C235.5 8.78 235.5 9.91 235.5 11.02C235.49 22.8 235.52 34.59 235.43 46.37C235.42 48.32 235.95 49.8 237.17 51.31C248.5 65.3 256.64 80.96 260.57 98.55C267.83 131.05 262.77 161.59 244.99 189.87C242.37 194.04 239.37 197.99 236.42 201.95C235.67 202.96 235.41 203.91 235.42 205.1C235.45 217.15 235.46 229.21 235.47 241.26C235.47 241.8 235.49 242.35 235.45 242.88C235.27 245.21 233.81 245.95 231.84 244.69C228.48 242.54 225.14 240.35 221.78 238.19C217.17 235.23 212.55 232.27 207.94 229.32C207.6 229.1 207.24 228.94 206.78 228.69C184.51 244.82 159.56 252.64 132.12 252.55C104.8 252.46 79.8699 244.71 57.5299 228.72C54.0399 230.93 50.6199 233.08 47.2099 235.27C42.4199 238.34 37.6499 241.42 32.8699 244.5C32.0699 245.01 31.2899 245.59 30.2499 245.05C29.1399 244.48 29.1199 243.47 29.1199 242.43C29.1199 230.44 29.0799 218.46 29.1799 206.47C29.1999 204.31 28.6399 202.64 27.3099 200.95C16.1799 186.83 8.36988 171.08 4.14988 153.56C1.22988 141.55 0.489883 129.38 1.30988 117.08C2.82988 94.15 10.8999 73.66 24.4399 55.22C25.5199 53.75 26.5999 52.26 27.8099 50.9C28.7799 49.82 29.1399 48.7 29.1399 47.24C29.0899 35.19 29.0999 23.13 29.0999 11.08C29.0999 10.61 29.0499 10.12 29.1299 9.66C29.3899 8.29 30.5799 7.61 31.8799 8.12C32.4399 8.34 32.9399 8.72 33.4499 9.05C41.3299 14.06 49.1999 19.08 57.2699 24.22L57.2799 24.23ZM34.2999 16.11C34.2499 16.85 34.1799 17.3 34.1799 17.75C34.1999 27.91 34.2099 38.07 34.2899 48.22C34.2999 49.74 33.8899 50.91 32.9099 52.08C25.2799 61.15 19.1199 71.15 14.5399 82.09C7.32988 99.28 4.81988 117.19 6.29988 135.73C7.53988 151.26 11.9699 165.85 19.1199 179.64C23.0299 187.18 27.7399 194.19 33.0699 200.8C33.6699 201.54 34.2699 202.56 34.2699 203.45C34.3199 214.08 34.2499 224.71 34.2199 235.34C34.2199 235.84 34.2699 236.34 34.3099 237.08C34.9799 236.65 35.4199 236.37 35.8599 236.08C42.1799 232.03 48.5299 228.01 54.8199 223.89C56.4099 222.85 57.6199 222.86 59.1799 224.02C66.8699 229.74 75.1999 234.33 84.0499 238.02C96.3999 243.17 109.26 246.12 122.56 247.21C129.85 247.81 137.16 247.68 144.46 246.96C154.54 245.96 164.37 243.95 173.92 240.57C185.16 236.59 195.58 231.03 205.2 223.99C206.73 222.87 207.93 222.81 209.56 223.88C216 228.13 222.53 232.23 229.04 236.38C229.35 236.58 229.73 236.68 230.2 236.88C230.23 236.18 230.28 235.64 230.28 235.11C230.28 224.75 230.3 214.39 230.25 204.03C230.25 202.72 230.62 201.73 231.41 200.7C234.07 197.2 236.81 193.74 239.22 190.07C255.73 164.83 262.08 137.28 257.31 107.41C253.98 86.54 245.06 68.15 231.6 51.92C230.73 50.87 230.27 49.86 230.27 48.46C230.31 38.51 230.27 28.55 230.27 18.6C230.27 17.82 230.27 17.05 230.27 15.98C229.5 16.37 229.08 16.55 228.7 16.79C222.29 20.83 215.89 24.89 209.48 28.93C207.32 30.29 207.31 30.26 205.22 28.67C197.96 23.16 190.12 18.61 181.75 15.06C158.98 5.39 135.35 2.75 110.97 6.78C91.7399 9.96 74.2499 17.31 58.6599 29.06C57.3499 30.05 56.3799 30 55.0399 29.15C48.2599 24.81 41.4299 20.57 34.3099 16.1L34.2999 16.11Z" fill="#7FCCDB"/>
<path d="M132.02 217.23C101.02 216.31 75.9897 203.93 56.9597 179.71C47.7897 168.04 41.9897 154.76 39.7597 140.11C35.9997 115.42 41.5397 92.85 56.6897 72.94C71.7597 53.13 91.7797 41.01 116.26 36.59C153.38 29.88 191.69 46.99 211.61 78.89C218.93 90.62 223.41 103.35 224.64 117.14C227.24 146.25 217.45 170.81 196.63 190.92C181.73 205.31 163.73 213.74 143.14 216.41C139.39 216.9 135.59 216.98 132.02 217.23ZM205.8 171.37C206.07 171.02 206.29 170.77 206.47 170.49C219.36 149.66 223.06 127.34 216.47 103.7C210.74 83.13 198.6 67 180.7 55.35C161.61 42.94 140.63 38.48 118.24 42.03C93.2097 46 73.3497 58.74 58.7697 79.47C49.9197 92.05 45.0597 106.14 44.2897 121.51C43.4397 138.46 47.4397 154.25 56.2797 168.78C56.8297 169.68 57.3897 170.57 57.9797 171.53C60.1497 170.5 61.1697 169 61.1697 166.81C61.1697 162.75 61.1297 158.68 61.1697 154.62C61.2597 146.96 67.3597 140.73 75.0397 140.41C76.1797 140.36 77.3197 140.41 78.7397 140.41C78.8596 138.9 78.9697 137.57 79.0697 136.18C77.7597 136.56 76.7696 136.84 75.6697 137.15C74.1996 133.2 73.6597 129.38 73.4097 125.56C72.8697 117.14 74.3297 109.02 77.1497 101.06C80.1197 92.67 85.6597 85.92 90.6497 78.8C99.3697 72.36 107.71 65.24 118.68 63.16C120.64 54.29 124.77 50.03 131.33 49.83C134.37 49.73 137.08 50.62 139.5 52.39C143.08 55 144.61 58.74 144.94 63.02C145.33 63.14 145.58 63.22 145.84 63.29C154.61 65.72 162.26 70.17 169.12 76.09C170.17 76.99 171.43 77.64 172.57 78.44C172.84 78.63 173.07 78.9 173.26 79.17C174.26 80.6 175.16 82.1 176.23 83.47C188.07 98.59 192.82 115.45 188.83 134.47C188.21 137.42 188.08 137.46 185.21 136.47C185.11 136.44 184.97 136.52 184.64 136.61C184.74 137.81 184.84 139.03 184.94 140.31C186 140.31 186.74 140.31 187.48 140.31C192.23 140.35 196.16 142.15 199.21 145.8C201.62 148.69 202.56 152.09 202.5 155.8C202.45 159.39 202.34 162.98 202.33 166.56C202.33 169.17 203.22 170.39 205.77 171.37H205.8ZM75.0196 190.18C92.0597 204.64 111.66 211.85 133.93 211.37C154.69 210.93 172.86 203.61 188.71 190.32C187.63 190.1 186.62 190.1 185.61 190.1C180.33 190.11 175.05 190.17 169.76 190.13C166.79 190.11 165.57 188.87 165.44 185.96C165.43 185.64 165.39 185.32 165.34 184.81C161.84 185.23 159.21 184.25 158.61 180.96C157.11 180.1 155.86 179.58 154.84 178.77C153.05 177.35 152.64 175.29 152.64 173.11C152.64 167.22 152.59 161.33 152.63 155.44C152.69 146.76 158.71 140.62 167.36 140.35C168.22 140.32 169.08 140.35 169.88 140.35C170.29 138.09 170.33 136.25 169.42 134.23C168.07 131.22 168.82 128.19 170.97 125.71C173.12 123.23 175.93 122.25 179.2 122.94C183.39 123.83 185.83 126.9 186.16 131.66C191.21 120.83 182.67 91.42 172.02 83.24C171.55 83.79 171.08 84.36 170.59 84.91C169.57 86.09 168.61 87.33 167.49 88.39C167.12 88.74 166.19 88.87 165.74 88.65C164.96 88.26 165.26 87.5 165.7 86.92C166.06 86.43 166.48 85.98 166.87 85.52C168.05 84.14 169.23 82.76 170.49 81.29C163.07 73.84 154.55 68.56 144.63 65.96C143.31 68.14 142.13 70.08 140.86 72.17C144.38 76.63 147.95 81.16 151.59 85.77C155.01 82.24 156.78 78.09 158.16 73.85C160.4 74.27 160.67 74.58 160.18 76.21C159.83 77.37 159.46 78.56 158.87 79.61C157.22 82.53 155.45 85.39 153.63 88.44C153.68 88.51 153.92 88.83 154.16 89.14C158.01 94.04 161.88 98.91 165.67 103.86C166.29 104.67 166.89 105.78 166.85 106.74C166.69 111.2 166.33 115.65 165.99 120.1C165.91 121.21 165.42 122.11 164.44 122.82C163.9 123.2 163.46 123.93 163.3 124.58C161.95 129.88 159.71 134.77 156.61 139.27C150.63 147.96 142.42 153.85 132.85 157.97C132.16 158.27 131.09 158.14 130.38 157.82C128.16 156.82 125.97 155.74 123.88 154.51C112.16 147.63 104.07 137.91 100.61 124.58C100.45 123.96 99.9397 123.3 99.3997 122.93C98.3697 122.22 97.7397 121.37 97.6497 120.12C97.3497 115.94 97.0797 111.76 96.7497 107.58C96.6297 106.07 97.0997 104.87 98.0697 103.69C100.11 101.19 101.99 98.56 103.85 96.1C99.5397 91.82 95.3797 87.69 91.2297 83.57C78.5797 96.53 73.6597 117.97 77.2897 130.92C77.4897 130.15 77.6596 129.29 77.9496 128.47C79.6596 123.77 84.7597 121.51 89.3697 123.37C94.1597 125.31 96.2497 130.47 93.9597 135.08C93.0897 136.82 93.3197 138.42 93.6597 140.24C94.2097 140.24 94.6797 140.24 95.1397 140.24C104.43 140.25 110.85 146.68 110.83 155.96C110.82 161.58 110.78 167.2 110.78 172.82C110.78 174.61 110.58 176.33 109.48 177.83C108.35 179.36 106.85 180.29 104.96 180.59C104.4 184.57 101.63 185.17 98.4297 184.85C97.7897 189.53 97.0497 190.16 92.3697 190.15C87.1597 190.14 81.9397 190.12 76.7297 190.11C76.1497 190.11 75.5797 190.16 74.9997 190.19L75.0196 190.18ZM107.88 154.94C107.88 154.17 107.91 153.84 107.88 153.51C107.34 148.47 102.33 143.65 97.2497 143.34C95.8297 143.25 94.3997 143.36 92.9897 143.27C91.3697 143.17 90.8896 142.62 90.7696 140.99C90.7197 140.28 90.6897 139.57 90.6397 138.54C87.6097 140.04 84.8196 140.18 81.9897 138.58C81.8396 139.52 81.7197 140.18 81.6197 140.84C81.3197 142.82 80.8997 143.21 78.8497 143.27C77.6297 143.31 76.4096 143.27 75.1996 143.33C70.0497 143.59 65.7997 147 64.4497 152.01C64.2097 152.88 64.1797 153.81 64.0297 154.86C66.4697 154.86 68.6196 154.8 70.7696 154.88C72.9496 154.96 73.5297 155.57 73.5597 157.74C73.5997 160.92 73.5597 164.1 73.5997 167.29C73.5997 168.2 73.7397 169.11 73.8197 170.01H98.2497C98.3097 169.08 98.4197 168.28 98.4097 167.48C98.4097 164.43 98.3697 161.39 98.3597 158.34C98.3397 155.48 98.7797 155.01 101.61 154.96C103.63 154.93 105.65 154.96 107.89 154.96L107.88 154.94ZM165.33 170.01H189.85C189.89 169.23 189.95 168.57 189.95 167.91C189.95 164.6 189.95 161.28 189.95 157.97C189.96 155.58 190.52 155.01 192.94 154.9C193.75 154.86 194.56 154.88 195.37 154.88C196.7 154.88 198.02 154.88 199.32 154.88C199.53 149.03 194.83 143.84 189.18 143.37C187.7 143.25 186.21 143.35 184.72 143.28C182.94 143.2 182.44 142.72 182.17 141.05C182.05 140.29 181.93 139.53 181.78 138.57C178.77 140.2 175.97 140.09 173.11 138.57C173.05 139.35 173.02 139.88 172.97 140.42C172.78 142.65 172.17 143.23 169.91 143.29C168.9 143.32 167.88 143.26 166.87 143.3C162 143.49 157.72 146.61 156.14 151.21C155.77 152.29 155.69 153.48 155.44 154.85C156.99 154.85 158.13 154.87 159.27 154.85C166.29 154.69 165.26 155.16 165.32 160.93C165.35 163.89 165.32 166.85 165.32 170.01H165.33ZM151.27 90.16C139.91 99.69 123.26 99.27 112.42 89.84C110.99 91.71 109.58 93.57 108.12 95.48C114.26 99.89 120.79 103.27 127.52 106.3C128.01 106.52 128.61 106.64 128.96 107.01C129.31 107.38 129.73 108.18 129.56 108.46C129.29 108.9 128.57 109.27 128.03 109.28C127.4 109.29 126.72 108.96 126.13 108.65C120.81 105.85 115.5 103.03 110.22 100.17C108.94 99.48 107.75 98.6 106.42 97.75C104.84 99.81 103.37 101.72 101.89 103.65C102.14 103.85 102.28 104.01 102.45 104.1C111.85 108.57 121.27 113.01 130.66 117.5C131.67 117.98 132.45 117.71 133.33 117.3C140.61 113.88 147.9 110.48 155.18 107.06C157.37 106.03 159.53 104.96 161.87 103.83C158.27 99.19 154.81 94.72 151.27 90.16ZM130.62 154.7C130.62 153.27 130.62 152.19 130.62 151.11C130.59 141.7 130.55 132.29 130.52 122.89C130.52 121.47 130.28 120.41 128.71 119.69C119.68 115.55 110.71 111.27 101.71 107.05C101.12 106.78 100.5 106.58 99.4397 106.17C99.7997 111.12 100.12 115.67 100.43 120.02C104.93 122.23 109.02 124.31 113.18 126.25C114.58 126.91 115.17 127.78 115.29 129.33C115.4 130.79 114.43 131.17 113.55 131.75C112.82 132.24 112.08 132.72 111.33 133.18C110.63 133.61 109.8 134.16 109.23 133.16C108.69 132.21 109.55 131.69 110.24 131.26C111.2 130.66 112.2 130.12 113.62 129.3C110.11 127.55 107 126 103.51 124.26C105.64 132.91 110.1 139.49 116.13 145.25C119.48 143.27 122.62 141.41 125.76 139.56C126.28 139.25 126.8 138.89 127.38 138.74C127.76 138.64 128.56 138.83 128.59 139C128.68 139.44 128.6 140.1 128.31 140.4C127.8 140.92 127.09 141.24 126.45 141.61C123.62 143.28 120.78 144.94 117.78 146.7C121.68 150.06 125.89 152.44 130.61 154.69L130.62 154.7ZM149.92 129.24C151.52 130.21 152.77 130.88 153.9 131.71C154.28 131.99 154.67 132.78 154.54 133.15C154.24 133.99 153.47 133.77 152.84 133.41C151.67 132.74 150.46 132.11 149.39 131.3C148.93 130.95 148.58 130.24 148.51 129.65C148.25 127.53 148.38 127.32 150.33 126.36C154.56 124.26 158.82 122.21 163.35 119.99C163.62 115.56 163.89 111.07 164.19 106.23C163.21 106.58 162.63 106.73 162.1 106.98C153.04 111.22 144 115.49 134.92 119.68C133.67 120.26 133.27 120.97 133.28 122.3C133.33 132.45 133.3 142.59 133.31 152.74C133.31 153.24 133.42 153.74 133.51 154.48C137.97 152.29 142.1 150.07 145.66 146.8C141.92 144.28 137.84 142.47 134.33 139.92C134.85 138.44 135.59 138.34 136.53 138.87C137.41 139.37 138.29 139.88 139.16 140.4C141.94 142.05 144.71 143.69 147.51 145.36C153.56 139.48 158.2 132.98 160.21 124.89C160.09 124.77 159.98 124.66 159.86 124.54C156.7 126.03 153.54 127.52 149.91 129.23L149.92 129.24ZM192.74 157.73C192.74 159.38 192.74 160.79 192.74 162.21C192.72 164.85 192.78 167.49 192.65 170.12C192.56 171.97 191.77 172.83 190.01 172.85C181.89 172.92 173.77 172.88 165.65 172.88C165.58 172.88 165.52 172.86 165.45 172.85C163.49 172.56 162.71 171.78 162.68 169.78C162.62 166.53 162.66 163.28 162.65 160.03C162.65 159.3 162.58 158.57 162.54 157.78H155.55C155.55 163.29 155.5 168.63 155.58 173.97C155.61 175.94 156.78 177.06 159.05 177.7C160.26 176.48 161.86 176.38 163.52 176.39C175.63 176.45 187.75 176.43 199.86 176.61C202.02 176.64 203.01 175.74 203.9 173.94C200.68 172.25 199.32 169.57 199.43 166.07C199.5 163.91 199.51 161.74 199.53 159.57C199.53 158.98 199.48 158.4 199.45 157.74H192.75L192.74 157.73ZM101.13 157.71C101.13 161.5 101.13 165.08 101.13 168.65C101.12 172.04 100.22 172.92 96.7597 172.93C93.6497 172.94 90.5396 172.93 87.4197 172.93C83.1597 172.93 78.8997 172.96 74.6297 172.93C71.8697 172.91 70.9597 171.99 70.9297 169.29C70.8997 166.65 70.9097 164.01 70.9097 161.38C70.9097 160.19 70.9097 159 70.9097 157.77H64.0497C64.0497 158.58 64.0497 159.25 64.0497 159.91C64.0497 162.28 64.0497 164.65 64.0297 167.01C64.0297 169.72 62.9197 171.84 60.6197 173.31C60.2897 173.52 59.9897 173.78 59.6997 174C60.6997 176.05 62.1997 176.65 64.4397 176.61C76.2797 176.43 88.1197 176.44 99.9496 176.37C101.61 176.36 103.2 176.51 104.36 177.76C106.91 176.93 107.86 175.79 107.89 173.37C107.94 168.84 107.92 164.31 107.91 159.77C107.91 159.11 107.83 158.46 107.79 157.69H101.13V157.71ZM105.76 93.79C107.34 91.72 108.84 89.75 110.36 87.75C107.03 83.73 104.27 79.58 103.27 74.52C105.37 73.66 105.34 73.72 106.13 75.35C107.43 78.01 108.82 80.64 110.25 83.24C110.68 84.02 111.39 84.66 112.07 85.48C115.4 81.21 118.55 77.15 121.7 73.1C122.07 72.62 122.42 72.13 122.66 71.8C121.46 69.79 120.34 67.9 119.21 66.01C110.96 67.5 97.0897 75.76 93.3297 81.48C96.8097 86.15 101.07 90.07 105.75 93.81L105.76 93.79ZM141.74 62.66C141.83 57.48 137.42 52.9 132.23 52.78C126.84 52.65 122.2 56.97 122.09 62.22C121.98 67.68 126.31 72.3 131.7 72.47C137.03 72.64 141.64 68.13 141.74 62.66ZM114.08 87.72C118.97 91.67 124.21 94.04 130.47 94.24V75.48C128.63 74.84 126.94 74.26 125.06 73.62C121.49 78.2 117.85 82.88 114.07 87.73L114.08 87.72ZM138.43 73.82C136.61 74.41 135.04 74.92 133.53 75.4V94.33C139.66 93.94 144.86 91.91 149.53 87.96C145.78 83.18 142.13 78.53 138.43 73.82ZM161.78 179.32C161.56 181.79 161.64 181.93 163.83 181.93C174.44 181.96 185.04 181.9 195.65 182.02C197.77 182.04 198.77 181.05 199.68 179.31H161.77L161.78 179.32ZM101.88 181.94C101.83 180.88 101.79 180.15 101.75 179.32H63.9497C65.0997 181.21 66.3797 182.04 68.5997 182C78.6796 181.85 88.7697 181.93 98.8497 181.93H101.87L101.88 181.94ZM86.1996 136.85C89.3697 136.88 91.9097 134.47 91.9797 131.35C92.0497 128.39 89.1697 125.58 86.0797 125.62C83.1797 125.65 80.4597 128.28 80.3697 131.13C80.2797 134.21 82.9397 136.83 86.1897 136.86L86.1996 136.85ZM183.19 131.24C183.15 128.15 180.58 125.64 177.44 125.64C174.41 125.64 171.74 128.35 171.79 131.36C171.85 134.55 174.46 136.95 177.8 136.87C180.88 136.8 183.22 134.35 183.18 131.23L183.19 131.24ZM168.51 187.23C169.57 187.23 170.38 187.23 171.18 187.23C177.59 187.23 184 187.14 190.41 187.26C192.36 187.29 193.47 186.42 194.57 184.91H168.14C168.27 185.71 168.36 186.35 168.5 187.23H168.51ZM69.3497 184.84C70.3097 186.87 71.8196 187.31 73.8396 187.27C80.1196 187.14 86.4097 187.21 92.6897 187.21C93.4897 187.21 94.2797 187.21 95.2397 187.21C95.3197 186.3 95.3697 185.62 95.4397 184.84H69.3497Z" fill="#7FCCDB"/>
<path d="M235.49 130.17C233.4 159.57 221.55 184.1 198.87 203.14C184.86 214.9 168.83 222.54 150.84 226.02C148.96 226.38 148.04 226.12 148 225.11C147.93 223.45 149.27 223.51 150.39 223.29C170.37 219.34 187.73 210.29 202.42 196.21C217.16 182.08 226.65 164.98 230.67 144.95C231.64 140.13 231.98 135.18 232.6 130.28C232.62 130.15 232.6 130.01 232.6 129.87C232.63 128.83 232.89 127.85 234.16 127.99C235.35 128.12 235.56 129.1 235.46 130.16L235.49 130.17Z" fill="#7FCCDB"/>
<path d="M102.98 29.46C102.34 30.16 102.06 30.65 101.64 30.88C100.99 31.23 100.25 31.4 99.5402 31.62C71.5402 40.17 50.9502 57.53 37.7702 83.66C37.0702 85.04 36.5502 86.52 35.9502 87.95C35.5602 88.87 35.0902 89.77 33.8702 89.3C32.6102 88.81 32.9002 87.77 33.3302 86.91C35.8402 81.97 38.0302 76.83 41.0102 72.19C54.8302 50.66 74.1702 36.34 98.6402 28.93C99.4102 28.7 100.22 28.37 101 28.42C101.59 28.45 102.14 29 102.98 29.47V29.46Z" fill="#7FCCDB"/>
<path d="M28.6003 141.02C28.8303 141.44 29.3403 142.04 29.5203 142.73C29.9803 144.56 30.2403 146.45 30.6803 148.28C35.5003 168.04 45.5003 184.73 60.4803 198.46C61.1303 199.05 61.8803 199.59 62.3503 200.3C62.6403 200.74 62.7103 201.69 62.4303 202.01C62.1203 202.36 61.2703 202.37 60.6903 202.28C60.2803 202.22 59.9203 201.76 59.5703 201.44C42.2503 185.77 31.0803 166.62 26.7803 143.57C26.4703 141.93 27.0303 140.91 28.6003 141.01V141.02Z" fill="#7FCCDB"/>
<path d="M189.699 50.01C189.109 49.67 188.569 49.4 188.079 49.06C174.749 39.94 159.999 34.68 143.979 32.87C143.639 32.83 143.22 32.9 142.99 32.71C142.51 32.33 142.139 31.81 141.729 31.35C142.249 30.91 142.749 30.12 143.289 30.09C144.619 30.02 145.98 30.26 147.32 30.45C162.41 32.64 176.379 37.79 189.029 46.37C189.309 46.56 189.599 46.74 189.869 46.95C191.389 48.08 191.389 48.51 189.689 50.01H189.699Z" fill="#7FCCDB"/>
<path d="M78.2295 211.99C78.8395 212.27 79.2795 212.44 79.6895 212.65C82.6295 214.15 85.5694 215.67 88.5194 217.17C88.8194 217.32 89.1395 217.45 89.4295 217.61C90.1495 218.03 90.6695 218.67 90.0795 219.41C89.7595 219.81 88.8195 220.19 88.4295 220.01C84.8295 218.31 81.2794 216.53 77.7694 214.66C77.3594 214.44 77.1395 213.52 77.1795 212.95C77.1995 212.6 77.8795 212.29 78.2395 211.98L78.2295 211.99Z" fill="#7FCCDB"/>
<path d="M75.6296 70.86C76.1396 71.19 76.6296 71.43 77.0196 71.77C78.8796 73.43 80.7196 75.11 82.5596 76.8C82.7996 77.02 83.0796 77.3 83.1496 77.6C83.2496 78.01 83.3296 78.62 83.1096 78.86C82.8896 79.09 82.2896 78.98 81.8496 78.98C81.7396 78.98 81.6096 78.87 81.5096 78.78C79.3696 76.82 77.2196 74.88 75.1296 72.88C74.8496 72.61 74.6896 72.04 74.7396 71.64C74.7796 71.36 75.2796 71.14 75.6296 70.85V70.86Z" fill="#7FCCDB"/>
<path d="M178.14 75.81C176.82 75.27 176.69 74.52 177.38 73.8C179.3 71.82 181.28 69.89 183.32 68.03C183.64 67.74 184.4 67.94 184.95 67.91C184.92 68.39 185.08 69.06 184.82 69.32C182.61 71.55 180.32 73.71 178.14 75.81Z" fill="#7FCCDB"/>
<path d="M77.5703 68.62C78.4403 67.29 79.1203 67.2 79.8703 67.89C81.8403 69.72 83.8203 71.54 85.7603 73.4C86.5303 74.14 86.6303 74.9 85.2403 75.66C82.7403 73.36 80.1603 70.99 77.5703 68.61V68.62Z" fill="#7FCCDB"/>
<path d="M179.63 78.18C180.21 77.52 180.66 76.93 181.18 76.43C182.89 74.79 184.62 73.18 186.37 71.58C186.87 71.12 187.46 70.63 188.13 71.31C188.8 72 188.28 72.57 187.79 73.04C185.89 74.87 183.99 76.71 182.04 78.48C181.15 79.29 181.02 79.23 179.63 78.18Z" fill="#7FCCDB"/>
<path d="M118.66 129.15C121.11 130.52 123.449 131.82 125.779 133.13C126.369 133.46 127.029 133.74 127.459 134.22C127.749 134.54 127.919 135.28 127.739 135.62C127.589 135.9 126.729 136.1 126.389 135.93C123.519 134.44 120.639 132.94 117.879 131.27C116.509 130.44 116.96 127.55 118.61 126.37C120.42 125.08 122.349 123.96 124.239 122.78C124.579 122.56 124.939 122.37 125.279 122.16C126.179 121.6 126.8 121.86 127.29 123.02C124.86 125.46 121.439 126.63 118.64 129.15H118.66Z" fill="#7FCCDB"/>
<path d="M136.71 136.33C135.33 134.77 136.07 134.14 137.04 133.59C139.22 132.37 141.4 131.15 143.58 129.93C143.98 129.71 144.37 129.47 145.09 129.05C142.88 127.62 140.87 126.32 138.87 125.01C138.14 124.53 137.37 124.07 136.75 123.47C136.51 123.24 136.41 122.53 136.59 122.27C136.78 121.99 137.37 121.92 137.79 121.88C138.02 121.86 138.28 122.08 138.51 122.23C140.5 123.5 142.45 124.84 144.49 126.03C146.09 126.97 146.25 128.48 146.35 130.04C146.37 130.37 146.1 130.87 145.82 131.04C142.82 132.82 139.79 134.55 136.72 136.32L136.71 136.33Z" fill="#7FCCDB"/>
</svg>
