<svg width="265" height="263" viewBox="0 0 265 263" fill="none" xmlns="http://www.w3.org/2000/svg">
<g clip-path="url(#clip0_48_1262)">
<mask id="path-1-outside-1_48_1262" maskUnits="userSpaceOnUse" x="-1" y="-1.00537" width="267" height="265" fill="black">
<rect fill="white" x="-1" y="-1.00537" width="267" height="265"/>
<path d="M13.4496 208.11C17.9996 209.16 22.2196 210 26.9196 209.68C26.3996 208.93 26.0496 208.38 25.6596 207.85C17.3196 196.63 10.9096 184.4 6.48965 171.14C1.50965 156.15 -0.650353 140.74 0.169647 124.96C1.44965 100.31 9.30965 77.95 23.8496 57.96C24.3996 57.2 24.9796 56.47 25.6996 55.54C21.6996 54.7 17.8996 55.12 13.6696 55.85C15.8996 53.65 18.2396 52.48 20.7496 51.56C23.3696 50.6 26.0896 51.01 28.8496 50.91C29.0396 50.71 29.2696 50.5 29.4496 50.26C43.7796 31.75 61.8996 18.28 83.5596 9.51C94.0296 5.27001 104.89 2.58001 116.08 1.10001C125.34 -0.119995 134.64 -0.369995 143.9 0.550005C170.22 3.17001 193.91 12.49 214.6 29.09C221.53 34.65 227.76 40.93 233.33 47.87C233.41 47.97 233.49 48.06 233.56 48.17C234.86 50.33 236.72 51.18 239.26 50.96C243.42 50.6 246.98 52.26 250.25 54.66C250.64 54.95 250.98 55.31 251.24 55.54C248.6 55.42 245.92 55.26 243.24 55.21C242.14 55.19 241.04 55.42 239.59 55.58C256.83 78.67 265.14 104.41 264.85 132.9C264.56 161.36 254.99 186.64 238.04 209.71C240.53 209.81 242.69 209.81 244.83 209.46C246.98 209.1 249.13 208.71 251.42 208.31C246.77 213.19 240.98 214.42 234.64 214.14C234.11 214.72 233.58 215.26 233.1 215.83C215.37 236.73 193.3 250.89 166.9 258.22C153.86 261.84 140.53 263.39 127.02 262.67C96.7496 261.07 69.9397 250.61 46.7696 230.97C41.5797 226.57 36.8097 221.77 32.3997 216.59C32.0696 216.21 31.6996 215.86 31.3896 215.47C30.4996 214.35 29.3896 213.97 27.9296 214.05C22.3396 214.36 17.6696 212.29 13.4796 208.11H13.4496ZM35.9096 48.66C36.4697 48.64 37.0396 48.7 37.5896 48.6C44.5396 47.45 51.4996 47.57 58.3997 48.77C70.8397 50.92 82.1897 55.72 92.3596 63.25C92.9896 63.72 93.6396 64.17 94.2597 64.61C94.4897 64.33 94.6096 64.25 94.6296 64.15C94.7896 63.35 94.9396 62.55 95.0896 61.75C97.2496 50.23 101.07 39.34 107.44 29.44C111 23.9 115.21 18.94 120.78 15.29C124.98 12.53 129.54 10.94 134.64 11.39C139.01 11.78 142.87 13.52 146.39 16.05C150.93 19.31 154.56 23.46 157.74 28.03C164.15 37.24 168 47.52 170.47 58.38C170.98 60.61 171.36 62.87 171.82 65.19C188.88 52.56 207.46 45.78 229.1 48.7C228.67 48.14 228.46 47.84 228.22 47.56C222.11 40.51 215.36 34.14 207.8 28.66C188.79 14.86 167.6 6.85001 144.21 4.51001C133.64 3.45001 123.13 3.84 112.67 5.45001C98.4196 7.65001 84.8896 12.13 72.1696 18.97C58.8796 26.13 47.1596 35.26 37.2696 46.7C36.7496 47.3 36.3497 48.01 35.8997 48.67C35.8497 48.68 35.7896 48.7 35.7397 48.71C35.7896 48.75 35.8396 48.8 35.8797 48.84C35.8797 48.79 35.8997 48.73 35.9096 48.68V48.66ZM171.06 199.95C170.92 200.25 170.83 200.4 170.78 200.57C170.64 201.12 170.5 201.66 170.38 202.21C168 213.26 164.39 223.84 158.4 233.51C154.96 239.05 150.92 244.06 145.59 247.91C137.31 253.88 128.62 254 120.22 248.25C115.86 245.26 112.36 241.43 109.34 237.13C102.23 227 98.0097 215.67 95.4397 203.65C95.1997 202.51 94.9397 201.37 94.6597 200.09C77.2697 213.07 58.1596 218.7 36.6696 215.43C82.7096 270.08 174.72 276.58 228.3 215.45C217.89 217.33 207.92 216.48 198.11 213.7C188.23 210.9 179.19 206.38 171.07 199.95H171.06ZM97.3796 197.54C99.3896 207.18 102.38 216.64 106.94 225.58C109.49 230.58 112.46 235.29 116.24 239.46C118.96 242.46 121.98 245.09 125.7 246.79C128.67 248.15 131.74 248.76 135.03 248.18C138.46 247.58 141.46 246.12 144.17 244.01C149.53 239.85 153.4 234.47 156.74 228.67C162.22 219.19 165.59 208.9 168.08 198.3C168.18 197.89 168.15 197.44 168.16 197.3C164.09 193.15 160.19 189.18 156.35 185.26C140.73 191.48 125.15 191.39 109.78 185.3C105.58 189.45 101.53 193.45 97.3796 197.55V197.54ZM89.8396 171.44C82.8396 164.14 78.0797 155.62 75.2297 145.91C67.4996 143.17 60.5996 138.88 53.9996 134.02C53.5496 134.32 53.1697 134.53 52.8396 134.8C41.2896 144.68 32.9796 156.7 28.9096 171.44C26.0596 181.74 25.5996 192.11 28.7496 202.46C29.4896 204.91 30.2896 207.35 31.6496 209.47C31.8896 209.5 32.0196 209.55 32.1396 209.53C32.9996 209.36 33.8596 209.2 34.7096 209C43.1596 206.98 50.8997 203.31 58.1996 198.67C69.6796 191.37 79.5396 182.17 88.9996 172.5C89.2997 172.19 89.5296 171.83 89.8297 171.44H89.8396ZM169.2 67.67C168.26 63.89 167.41 60.04 166.35 56.24C163.53 46.13 159.36 36.65 153.03 28.21C150.15 24.37 146.84 20.94 142.72 18.41C136.07 14.32 129.47 14.37 122.92 18.68C118.71 21.45 115.37 25.08 112.45 29.12C105.78 38.36 101.65 48.74 98.8796 59.71C98.2196 62.31 97.7197 64.95 97.1696 67.47C100.53 70.63 103.71 73.63 106.8 76.54C124.57 68.39 142.13 68.43 159.56 76.63C162.75 73.67 165.83 70.81 169.2 67.68V67.67ZM211.64 134C205.17 138.91 198.32 142.93 190.9 145.93C188.04 155.73 183.22 164.34 176.08 171.73C177.54 173.22 178.9 174.6 180.26 175.99C187.3 183.19 194.63 190.04 202.9 195.84C211.33 201.76 220.22 206.71 230.36 209.07C231.38 209.31 232.41 209.5 233.45 209.72C233.87 208.88 234.22 208.21 234.53 207.54C239.01 197.89 239.57 187.8 237.75 177.51C235.41 164.26 229.47 152.72 220.64 142.63C217.95 139.56 215.07 136.68 211.64 134.01V134ZM86.3196 93.1C85.5196 92.46 84.7296 91.92 84.0596 91.27C74.6296 82.17 64.4296 74.08 53.2197 67.27C46.9897 63.49 40.5396 60.15 33.5396 57.99C32.5396 57.68 31.5196 57.43 30.4296 57.14C30.1496 57.82 29.9296 58.33 29.7396 58.85C26.4896 67.81 26.0996 76.99 27.8096 86.29C30.4396 100.58 37.0496 112.84 46.9196 123.4C49.0896 125.72 51.4796 127.85 53.8596 130.14C60.3596 125.73 67.0696 122.14 74.2896 119.42C76.1296 109.77 79.9296 101.07 86.3096 93.11L86.3196 93.1ZM211.58 129.96C211.91 129.76 212.14 129.66 212.32 129.5C220.34 122.2 227.07 113.9 231.74 104.05C237.22 92.47 240.08 80.42 237.99 67.52C237.42 64.04 236.35 60.73 235.17 57.38C234.78 57.47 234.54 57.51 234.3 57.57C229.52 58.94 224.97 60.9 220.57 63.21C207.26 70.22 195.34 79.17 184.36 89.41C182.96 90.72 181.69 92.17 180.33 93.59C186.36 101.32 190.14 110.11 191.99 119.61C199.12 122.26 205.49 125.87 211.58 129.95V129.96ZM23.7496 198.12C21.2896 185.41 23.2196 173.25 28.1596 161.49C33.1196 149.7 40.6796 139.85 50.8196 131.95C50.5196 131.67 50.3496 131.5 50.1596 131.34C37.2496 120.84 28.8996 107.44 24.7996 91.37C22.9796 84.25 22.4096 77.02 23.4096 69.71C23.6396 68.06 23.9096 66.41 24.1596 64.76C17.2596 74.34 12.2296 84.8 8.88965 96.03C2.90965 116.16 2.06965 136.54 6.51965 157.07C9.70965 171.78 15.5296 185.43 23.7496 198.12ZM241.38 65.23C241.42 65.66 241.42 66.09 241.5 66.51C242.77 72.86 242.92 79.23 241.75 85.6C238.42 103.72 229.99 118.95 215.88 130.92C215.51 131.24 215.04 131.44 214.5 131.77C216.06 133.07 217.24 133.99 218.35 134.98C225.99 141.82 231.94 149.92 236.19 159.23C240.64 168.96 242.97 179.17 242.41 189.93C242.28 192.54 241.81 195.13 241.5 197.7C267.02 159.04 268.41 105.81 241.37 65.22L241.38 65.23ZM154.78 130.29C154.9 118.45 145.4 108.82 133.63 108.55C121.57 108.27 111.3 117.87 111.17 129.81C111.04 141.94 121.21 151.7 132.57 151.9C144.67 152.11 154.65 142.32 154.77 130.29H154.78ZM87.5396 91.28C88.9196 89.95 90.0597 88.68 91.3697 87.62C92.3596 86.82 92.6596 85.86 92.7396 84.69C93.0096 80.68 93.2996 76.68 93.5996 72.67C93.6896 71.43 93.8496 70.2 93.9697 68.99C93.3196 68.48 92.7896 68.04 92.2396 67.63C87.6696 64.29 82.8196 61.42 77.6897 59.02C64.5597 52.89 50.8296 50.6 36.4396 52.47C35.2496 52.62 34.0896 53 32.9196 53.28C32.9196 53.42 32.9296 53.56 32.9396 53.71C33.4996 53.9 34.0696 54.08 34.6297 54.27C36.8797 55.03 39.1897 55.66 41.3797 56.59C48.3997 59.56 54.8797 63.52 61.0396 67.99C69.0897 73.84 76.3797 80.56 83.5396 87.45C84.8496 88.71 86.1696 89.96 87.5696 91.29L87.5396 91.28ZM178.53 91.44C178.97 91.09 179.37 90.8 179.73 90.47C182.11 88.24 184.49 86 186.86 83.75C193.62 77.36 200.63 71.27 208.33 66.02C215.66 61.03 223.3 56.6 231.98 54.3C232.23 54.24 232.42 53.99 232.69 53.8C229.58 51.96 220.27 51.28 211.05 52.53C196.6 54.49 183.91 60.63 172.37 69.25C172.37 69.72 172.35 70.03 172.37 70.34C172.74 75.47 173.1 80.6 173.49 85.73C173.52 86.14 173.67 86.63 173.94 86.9C175.42 88.42 176.95 89.89 178.54 91.44H178.53ZM92.1597 173.04C91.2197 173.8 90.5196 174.27 89.9296 174.86C87.3196 177.49 84.7496 180.15 82.1497 182.79C76.2997 188.75 70.3696 194.62 63.5996 199.57C56.7196 204.59 49.3896 208.75 41.2397 211.37C40.8097 211.51 40.3796 211.66 39.9596 211.8C60.3196 213.94 78.1996 207.95 94.0596 195.95C93.4296 188.29 92.8197 180.93 92.1597 173.04ZM171.67 195.82C185.13 206.35 204.26 214.01 224 212.28C224.38 212.25 224.75 212.15 225.26 212.06C222.1 210.79 219.08 209.74 216.21 208.38C207.85 204.45 200.34 199.21 193.7 192.81C187.69 187.02 181.9 180.98 176.01 175.06C175.41 174.46 174.74 173.93 173.75 173.07C173.03 180.91 172.36 188.3 171.67 195.82ZM132.36 74.48C120.66 73.75 102.27 81.3 95.0896 89.69C95.0896 92.15 95.0696 94.66 95.1096 97.16C95.1096 97.63 95.2197 98.23 95.5097 98.54C96.6597 99.73 97.9196 100.84 99.2396 102.07C103.5 97.1 108.35 93.18 114.03 90.33C119.76 87.46 125.92 86.17 132.36 85.81C132.36 81.93 132.36 78.25 132.36 74.46V74.48ZM133.83 85.87C140.43 86.01 146.54 87.41 152.31 90.25C158.07 93.09 162.93 97.09 167.19 101.91C168.23 101 169.23 100.23 170.09 99.33C170.48 98.92 170.8 98.26 170.81 97.7C170.88 94.94 170.84 92.18 170.85 89.37C160.41 79.72 148.07 74.86 133.84 74.35C133.84 78.26 133.84 81.99 133.84 85.88L133.83 85.87ZM132.31 185.92C132.31 181.73 132.31 177.8 132.31 173.71C120.88 173.43 111.2 169.05 102.77 161.51C99.9096 164.51 97.1997 167.36 94.3697 170.34C104.84 180.38 117.49 185.49 132.31 185.92ZM171.91 170.36C169.1 167.27 166.3 164.38 163.32 161.59C159.11 165.38 154.64 168.36 149.6 170.44C144.57 172.52 139.28 173.4 133.76 173.77C133.76 177.9 133.76 181.82 133.76 185.94C148.47 185.57 161.06 180.38 171.91 170.36ZM165.09 159.91C168.1 162.7 171.03 165.43 174.05 168.23C183.51 157.92 188.77 145.55 188.97 131.07C185.64 130.65 178.77 130.85 177.3 131.39C176.64 142.2 172.7 151.67 165.09 159.92V159.91ZM153.86 115.07C157.51 111.51 161.04 108.07 164.69 104.51C156.5 95.18 146.49 90.06 134.1 89.53C134.1 94.59 134.1 99.51 134.1 104.57C142.26 105.05 148.67 108.66 153.86 115.08V115.07ZM77.1597 130.91C77.5997 145.42 82.5696 157.8 92.3596 168.43C95.3596 165.41 98.1696 162.6 101.04 159.71C97.1597 155.66 94.2996 151.27 92.1996 146.39C90.0796 141.47 89.1996 136.24 88.8196 130.91H77.1597ZM112.17 115.18C114.73 111.91 117.6 109.41 121.02 107.59C124.44 105.77 128.14 104.89 132.03 104.59C132.03 99.53 132.03 94.61 132.03 89.57C119.6 90.15 109.7 95.36 101.79 104.53C105.28 108.11 108.64 111.56 112.17 115.19V115.18ZM89.0896 95.87C81.2696 105.95 77.4597 117.03 77.2297 129.36C81.2197 129.36 84.9996 129.36 88.8697 129.36C89.2397 119.94 91.7697 111.49 97.4797 103.98C94.6997 101.3 91.9797 98.66 89.0797 95.86L89.0896 95.87ZM177.21 95.9C174.32 98.7 171.61 101.34 168.91 103.96C171.61 107.8 173.63 111.73 175.04 115.99C176.47 120.3 177.04 124.75 177.35 129.42H188.98C188.73 117.01 184.75 106.03 177.2 95.89L177.21 95.9ZM134.19 155.79C133.79 158.12 133.93 168.65 134.39 170.06C144.47 169.48 153.31 165.96 160.9 158.95C157.45 155.41 154.14 152 150.76 148.53C146.02 152.98 140.49 155.37 134.19 155.79ZM105.74 159.22C113.07 165.79 121.76 169.66 132.03 170.01C132.03 165.14 132.03 160.52 132.03 155.76C125.69 155.43 120.3 153.04 115.51 148.69C112.24 152.21 109.06 155.64 105.74 159.22ZM162.88 157.02C169.43 149.8 173.04 141.32 173.71 131.44H158.62C158.27 137.32 156.13 142.38 152.52 146.84C155.94 150.2 159.33 153.54 162.88 157.02ZM113.61 146.74C109.74 142.51 107.78 137.19 107.31 131.38C102.26 131.38 97.4396 131.38 92.4196 131.38C93.2296 141.34 96.6096 149.94 103.64 157.14C107.02 153.62 110.23 150.27 113.61 146.75V146.74ZM158.7 128.96H173.69C173.38 120.69 170.86 113.36 166.17 106.44C162.45 110.07 158.87 113.56 155.21 117.13C157.19 120.87 158.37 124.8 158.7 128.96ZM107.37 129.01C107.68 124.71 108.68 120.81 110.86 117.21C107.23 113.62 103.69 110.12 99.9996 106.48C95.2396 113.4 92.7597 120.76 92.4596 129C97.5196 129 102.33 129 107.36 129L107.37 129.01ZM73.7197 122.96C70.1897 123.6 58.9296 129.76 56.6796 132.23C62.1297 136.35 67.9196 139.83 74.5696 142.78C73.2896 135.96 72.9797 129.49 73.7197 122.96ZM192.44 122.79C193.01 129.57 192.98 135.97 191.6 142.64C198.02 139.68 203.8 136.35 209.11 131.92C203.82 128.23 198.43 125.26 192.44 122.78V122.79ZM107.05 184.31C102.91 181.66 99.1396 179.24 95.2197 176.73C95.3797 182.43 95.8397 188.03 96.8997 194.05C100.49 190.61 103.77 187.46 107.05 184.31ZM168.87 193.85C169.88 187.95 170.51 182.48 170.6 176.93C166.71 179.4 162.94 181.8 158.96 184.33C162.17 187.42 165.36 190.48 168.87 193.85ZM104.26 77.73C102.06 75.18 99.4797 73.05 96.6796 70.84C95.8596 75.2 95.4696 79.38 95.4496 83.79C98.4996 81.69 101.33 79.76 104.27 77.74L104.26 77.73ZM169.74 71.16C166.78 73.3 164.49 75.61 161.91 77.83C163.61 78.91 165.06 79.78 166.44 80.73C167.85 81.7 169.19 82.76 170.88 84.02C170.48 79.56 170.12 75.54 169.73 71.16H169.74ZM173.5 91.86C173.5 93.39 173.5 94.51 173.5 95.92C174.31 95.24 174.89 94.75 175.58 94.18C174.88 93.4 174.32 92.77 173.5 91.86ZM92.8096 92.14C91.9596 92.79 91.2997 93.29 90.5396 93.86C91.3596 94.53 91.8596 94.95 92.6296 95.58C92.6996 94.29 92.7496 93.32 92.8096 92.14Z"/>
</mask>
<path d="M13.4496 208.11C17.9996 209.16 22.2196 210 26.9196 209.68C26.3996 208.93 26.0496 208.38 25.6596 207.85C17.3196 196.63 10.9096 184.4 6.48965 171.14C1.50965 156.15 -0.650353 140.74 0.169647 124.96C1.44965 100.31 9.30965 77.95 23.8496 57.96C24.3996 57.2 24.9796 56.47 25.6996 55.54C21.6996 54.7 17.8996 55.12 13.6696 55.85C15.8996 53.65 18.2396 52.48 20.7496 51.56C23.3696 50.6 26.0896 51.01 28.8496 50.91C29.0396 50.71 29.2696 50.5 29.4496 50.26C43.7796 31.75 61.8996 18.28 83.5596 9.51C94.0296 5.27001 104.89 2.58001 116.08 1.10001C125.34 -0.119995 134.64 -0.369995 143.9 0.550005C170.22 3.17001 193.91 12.49 214.6 29.09C221.53 34.65 227.76 40.93 233.33 47.87C233.41 47.97 233.49 48.06 233.56 48.17C234.86 50.33 236.72 51.18 239.26 50.96C243.42 50.6 246.98 52.26 250.25 54.66C250.64 54.95 250.98 55.31 251.24 55.54C248.6 55.42 245.92 55.26 243.24 55.21C242.14 55.19 241.04 55.42 239.59 55.58C256.83 78.67 265.14 104.41 264.85 132.9C264.56 161.36 254.99 186.64 238.04 209.71C240.53 209.81 242.69 209.81 244.83 209.46C246.98 209.1 249.13 208.71 251.42 208.31C246.77 213.19 240.98 214.42 234.64 214.14C234.11 214.72 233.58 215.26 233.1 215.83C215.37 236.73 193.3 250.89 166.9 258.22C153.86 261.84 140.53 263.39 127.02 262.67C96.7496 261.07 69.9397 250.61 46.7696 230.97C41.5797 226.57 36.8097 221.77 32.3997 216.59C32.0696 216.21 31.6996 215.86 31.3896 215.47C30.4996 214.35 29.3896 213.97 27.9296 214.05C22.3396 214.36 17.6696 212.29 13.4796 208.11H13.4496ZM35.9096 48.66C36.4697 48.64 37.0396 48.7 37.5896 48.6C44.5396 47.45 51.4996 47.57 58.3997 48.77C70.8397 50.92 82.1897 55.72 92.3596 63.25C92.9896 63.72 93.6396 64.17 94.2597 64.61C94.4897 64.33 94.6096 64.25 94.6296 64.15C94.7896 63.35 94.9396 62.55 95.0896 61.75C97.2496 50.23 101.07 39.34 107.44 29.44C111 23.9 115.21 18.94 120.78 15.29C124.98 12.53 129.54 10.94 134.64 11.39C139.01 11.78 142.87 13.52 146.39 16.05C150.93 19.31 154.56 23.46 157.74 28.03C164.15 37.24 168 47.52 170.47 58.38C170.98 60.61 171.36 62.87 171.82 65.19C188.88 52.56 207.46 45.78 229.1 48.7C228.67 48.14 228.46 47.84 228.22 47.56C222.11 40.51 215.36 34.14 207.8 28.66C188.79 14.86 167.6 6.85001 144.21 4.51001C133.64 3.45001 123.13 3.84 112.67 5.45001C98.4196 7.65001 84.8896 12.13 72.1696 18.97C58.8796 26.13 47.1596 35.26 37.2696 46.7C36.7496 47.3 36.3497 48.01 35.8997 48.67C35.8497 48.68 35.7896 48.7 35.7397 48.71C35.7896 48.75 35.8396 48.8 35.8797 48.84C35.8797 48.79 35.8997 48.73 35.9096 48.68V48.66ZM171.06 199.95C170.92 200.25 170.83 200.4 170.78 200.57C170.64 201.12 170.5 201.66 170.38 202.21C168 213.26 164.39 223.84 158.4 233.51C154.96 239.05 150.92 244.06 145.59 247.91C137.31 253.88 128.62 254 120.22 248.25C115.86 245.26 112.36 241.43 109.34 237.13C102.23 227 98.0097 215.67 95.4397 203.65C95.1997 202.51 94.9397 201.37 94.6597 200.09C77.2697 213.07 58.1596 218.7 36.6696 215.43C82.7096 270.08 174.72 276.58 228.3 215.45C217.89 217.33 207.92 216.48 198.11 213.7C188.23 210.9 179.19 206.38 171.07 199.95H171.06ZM97.3796 197.54C99.3896 207.18 102.38 216.64 106.94 225.58C109.49 230.58 112.46 235.29 116.24 239.46C118.96 242.46 121.98 245.09 125.7 246.79C128.67 248.15 131.74 248.76 135.03 248.18C138.46 247.58 141.46 246.12 144.17 244.01C149.53 239.85 153.4 234.47 156.74 228.67C162.22 219.19 165.59 208.9 168.08 198.3C168.18 197.89 168.15 197.44 168.16 197.3C164.09 193.15 160.19 189.18 156.35 185.26C140.73 191.48 125.15 191.39 109.78 185.3C105.58 189.45 101.53 193.45 97.3796 197.55V197.54ZM89.8396 171.44C82.8396 164.14 78.0797 155.62 75.2297 145.91C67.4996 143.17 60.5996 138.88 53.9996 134.02C53.5496 134.32 53.1697 134.53 52.8396 134.8C41.2896 144.68 32.9796 156.7 28.9096 171.44C26.0596 181.74 25.5996 192.11 28.7496 202.46C29.4896 204.91 30.2896 207.35 31.6496 209.47C31.8896 209.5 32.0196 209.55 32.1396 209.53C32.9996 209.36 33.8596 209.2 34.7096 209C43.1596 206.98 50.8997 203.31 58.1996 198.67C69.6796 191.37 79.5396 182.17 88.9996 172.5C89.2997 172.19 89.5296 171.83 89.8297 171.44H89.8396ZM169.2 67.67C168.26 63.89 167.41 60.04 166.35 56.24C163.53 46.13 159.36 36.65 153.03 28.21C150.15 24.37 146.84 20.94 142.72 18.41C136.07 14.32 129.47 14.37 122.92 18.68C118.71 21.45 115.37 25.08 112.45 29.12C105.78 38.36 101.65 48.74 98.8796 59.71C98.2196 62.31 97.7197 64.95 97.1696 67.47C100.53 70.63 103.71 73.63 106.8 76.54C124.57 68.39 142.13 68.43 159.56 76.63C162.75 73.67 165.83 70.81 169.2 67.68V67.67ZM211.64 134C205.17 138.91 198.32 142.93 190.9 145.93C188.04 155.73 183.22 164.34 176.08 171.73C177.54 173.22 178.9 174.6 180.26 175.99C187.3 183.19 194.63 190.04 202.9 195.84C211.33 201.76 220.22 206.71 230.36 209.07C231.38 209.31 232.41 209.5 233.45 209.72C233.87 208.88 234.22 208.21 234.53 207.54C239.01 197.89 239.57 187.8 237.75 177.51C235.41 164.26 229.47 152.72 220.64 142.63C217.95 139.56 215.07 136.68 211.64 134.01V134ZM86.3196 93.1C85.5196 92.46 84.7296 91.92 84.0596 91.27C74.6296 82.17 64.4296 74.08 53.2197 67.27C46.9897 63.49 40.5396 60.15 33.5396 57.99C32.5396 57.68 31.5196 57.43 30.4296 57.14C30.1496 57.82 29.9296 58.33 29.7396 58.85C26.4896 67.81 26.0996 76.99 27.8096 86.29C30.4396 100.58 37.0496 112.84 46.9196 123.4C49.0896 125.72 51.4796 127.85 53.8596 130.14C60.3596 125.73 67.0696 122.14 74.2896 119.42C76.1296 109.77 79.9296 101.07 86.3096 93.11L86.3196 93.1ZM211.58 129.96C211.91 129.76 212.14 129.66 212.32 129.5C220.34 122.2 227.07 113.9 231.74 104.05C237.22 92.47 240.08 80.42 237.99 67.52C237.42 64.04 236.35 60.73 235.17 57.38C234.78 57.47 234.54 57.51 234.3 57.57C229.52 58.94 224.97 60.9 220.57 63.21C207.26 70.22 195.34 79.17 184.36 89.41C182.96 90.72 181.69 92.17 180.33 93.59C186.36 101.32 190.14 110.11 191.99 119.61C199.12 122.26 205.49 125.87 211.58 129.95V129.96ZM23.7496 198.12C21.2896 185.41 23.2196 173.25 28.1596 161.49C33.1196 149.7 40.6796 139.85 50.8196 131.95C50.5196 131.67 50.3496 131.5 50.1596 131.34C37.2496 120.84 28.8996 107.44 24.7996 91.37C22.9796 84.25 22.4096 77.02 23.4096 69.71C23.6396 68.06 23.9096 66.41 24.1596 64.76C17.2596 74.34 12.2296 84.8 8.88965 96.03C2.90965 116.16 2.06965 136.54 6.51965 157.07C9.70965 171.78 15.5296 185.43 23.7496 198.12ZM241.38 65.23C241.42 65.66 241.42 66.09 241.5 66.51C242.77 72.86 242.92 79.23 241.75 85.6C238.42 103.72 229.99 118.95 215.88 130.92C215.51 131.24 215.04 131.44 214.5 131.77C216.06 133.07 217.24 133.99 218.35 134.98C225.99 141.82 231.94 149.92 236.19 159.23C240.64 168.96 242.97 179.17 242.41 189.93C242.28 192.54 241.81 195.13 241.5 197.7C267.02 159.04 268.41 105.81 241.37 65.22L241.38 65.23ZM154.78 130.29C154.9 118.45 145.4 108.82 133.63 108.55C121.57 108.27 111.3 117.87 111.17 129.81C111.04 141.94 121.21 151.7 132.57 151.9C144.67 152.11 154.65 142.32 154.77 130.29H154.78ZM87.5396 91.28C88.9196 89.95 90.0597 88.68 91.3697 87.62C92.3596 86.82 92.6596 85.86 92.7396 84.69C93.0096 80.68 93.2996 76.68 93.5996 72.67C93.6896 71.43 93.8496 70.2 93.9697 68.99C93.3196 68.48 92.7896 68.04 92.2396 67.63C87.6696 64.29 82.8196 61.42 77.6897 59.02C64.5597 52.89 50.8296 50.6 36.4396 52.47C35.2496 52.62 34.0896 53 32.9196 53.28C32.9196 53.42 32.9296 53.56 32.9396 53.71C33.4996 53.9 34.0696 54.08 34.6297 54.27C36.8797 55.03 39.1897 55.66 41.3797 56.59C48.3997 59.56 54.8797 63.52 61.0396 67.99C69.0897 73.84 76.3797 80.56 83.5396 87.45C84.8496 88.71 86.1696 89.96 87.5696 91.29L87.5396 91.28ZM178.53 91.44C178.97 91.09 179.37 90.8 179.73 90.47C182.11 88.24 184.49 86 186.86 83.75C193.62 77.36 200.63 71.27 208.33 66.02C215.66 61.03 223.3 56.6 231.98 54.3C232.23 54.24 232.42 53.99 232.69 53.8C229.58 51.96 220.27 51.28 211.05 52.53C196.6 54.49 183.91 60.63 172.37 69.25C172.37 69.72 172.35 70.03 172.37 70.34C172.74 75.47 173.1 80.6 173.49 85.73C173.52 86.14 173.67 86.63 173.94 86.9C175.42 88.42 176.95 89.89 178.54 91.44H178.53ZM92.1597 173.04C91.2197 173.8 90.5196 174.27 89.9296 174.86C87.3196 177.49 84.7496 180.15 82.1497 182.79C76.2997 188.75 70.3696 194.62 63.5996 199.57C56.7196 204.59 49.3896 208.75 41.2397 211.37C40.8097 211.51 40.3796 211.66 39.9596 211.8C60.3196 213.94 78.1996 207.95 94.0596 195.95C93.4296 188.29 92.8197 180.93 92.1597 173.04ZM171.67 195.82C185.13 206.35 204.26 214.01 224 212.28C224.38 212.25 224.75 212.15 225.26 212.06C222.1 210.79 219.08 209.74 216.21 208.38C207.85 204.45 200.34 199.21 193.7 192.81C187.69 187.02 181.9 180.98 176.01 175.06C175.41 174.46 174.74 173.93 173.75 173.07C173.03 180.91 172.36 188.3 171.67 195.82ZM132.36 74.48C120.66 73.75 102.27 81.3 95.0896 89.69C95.0896 92.15 95.0696 94.66 95.1096 97.16C95.1096 97.63 95.2197 98.23 95.5097 98.54C96.6597 99.73 97.9196 100.84 99.2396 102.07C103.5 97.1 108.35 93.18 114.03 90.33C119.76 87.46 125.92 86.17 132.36 85.81C132.36 81.93 132.36 78.25 132.36 74.46V74.48ZM133.83 85.87C140.43 86.01 146.54 87.41 152.31 90.25C158.07 93.09 162.93 97.09 167.19 101.91C168.23 101 169.23 100.23 170.09 99.33C170.48 98.92 170.8 98.26 170.81 97.7C170.88 94.94 170.84 92.18 170.85 89.37C160.41 79.72 148.07 74.86 133.84 74.35C133.84 78.26 133.84 81.99 133.84 85.88L133.83 85.87ZM132.31 185.92C132.31 181.73 132.31 177.8 132.31 173.71C120.88 173.43 111.2 169.05 102.77 161.51C99.9096 164.51 97.1997 167.36 94.3697 170.34C104.84 180.38 117.49 185.49 132.31 185.92ZM171.91 170.36C169.1 167.27 166.3 164.38 163.32 161.59C159.11 165.38 154.64 168.36 149.6 170.44C144.57 172.52 139.28 173.4 133.76 173.77C133.76 177.9 133.76 181.82 133.76 185.94C148.47 185.57 161.06 180.38 171.91 170.36ZM165.09 159.91C168.1 162.7 171.03 165.43 174.05 168.23C183.51 157.92 188.77 145.55 188.97 131.07C185.64 130.65 178.77 130.85 177.3 131.39C176.64 142.2 172.7 151.67 165.09 159.92V159.91ZM153.86 115.07C157.51 111.51 161.04 108.07 164.69 104.51C156.5 95.18 146.49 90.06 134.1 89.53C134.1 94.59 134.1 99.51 134.1 104.57C142.26 105.05 148.67 108.66 153.86 115.08V115.07ZM77.1597 130.91C77.5997 145.42 82.5696 157.8 92.3596 168.43C95.3596 165.41 98.1696 162.6 101.04 159.71C97.1597 155.66 94.2996 151.27 92.1996 146.39C90.0796 141.47 89.1996 136.24 88.8196 130.91H77.1597ZM112.17 115.18C114.73 111.91 117.6 109.41 121.02 107.59C124.44 105.77 128.14 104.89 132.03 104.59C132.03 99.53 132.03 94.61 132.03 89.57C119.6 90.15 109.7 95.36 101.79 104.53C105.28 108.11 108.64 111.56 112.17 115.19V115.18ZM89.0896 95.87C81.2696 105.95 77.4597 117.03 77.2297 129.36C81.2197 129.36 84.9996 129.36 88.8697 129.36C89.2397 119.94 91.7697 111.49 97.4797 103.98C94.6997 101.3 91.9797 98.66 89.0797 95.86L89.0896 95.87ZM177.21 95.9C174.32 98.7 171.61 101.34 168.91 103.96C171.61 107.8 173.63 111.73 175.04 115.99C176.47 120.3 177.04 124.75 177.35 129.42H188.98C188.73 117.01 184.75 106.03 177.2 95.89L177.21 95.9ZM134.19 155.79C133.79 158.12 133.93 168.65 134.39 170.06C144.47 169.48 153.31 165.96 160.9 158.95C157.45 155.41 154.14 152 150.76 148.53C146.02 152.98 140.49 155.37 134.19 155.79ZM105.74 159.22C113.07 165.79 121.76 169.66 132.03 170.01C132.03 165.14 132.03 160.52 132.03 155.76C125.69 155.43 120.3 153.04 115.51 148.69C112.24 152.21 109.06 155.64 105.74 159.22ZM162.88 157.02C169.43 149.8 173.04 141.32 173.71 131.44H158.62C158.27 137.32 156.13 142.38 152.52 146.84C155.94 150.2 159.33 153.54 162.88 157.02ZM113.61 146.74C109.74 142.51 107.78 137.19 107.31 131.38C102.26 131.38 97.4396 131.38 92.4196 131.38C93.2296 141.34 96.6096 149.94 103.64 157.14C107.02 153.62 110.23 150.27 113.61 146.75V146.74ZM158.7 128.96H173.69C173.38 120.69 170.86 113.36 166.17 106.44C162.45 110.07 158.87 113.56 155.21 117.13C157.19 120.87 158.37 124.8 158.7 128.96ZM107.37 129.01C107.68 124.71 108.68 120.81 110.86 117.21C107.23 113.62 103.69 110.12 99.9996 106.48C95.2396 113.4 92.7597 120.76 92.4596 129C97.5196 129 102.33 129 107.36 129L107.37 129.01ZM73.7197 122.96C70.1897 123.6 58.9296 129.76 56.6796 132.23C62.1297 136.35 67.9196 139.83 74.5696 142.78C73.2896 135.96 72.9797 129.49 73.7197 122.96ZM192.44 122.79C193.01 129.57 192.98 135.97 191.6 142.64C198.02 139.68 203.8 136.35 209.11 131.92C203.82 128.23 198.43 125.26 192.44 122.78V122.79ZM107.05 184.31C102.91 181.66 99.1396 179.24 95.2197 176.73C95.3797 182.43 95.8397 188.03 96.8997 194.05C100.49 190.61 103.77 187.46 107.05 184.31ZM168.87 193.85C169.88 187.95 170.51 182.48 170.6 176.93C166.71 179.4 162.94 181.8 158.96 184.33C162.17 187.42 165.36 190.48 168.87 193.85ZM104.26 77.73C102.06 75.18 99.4797 73.05 96.6796 70.84C95.8596 75.2 95.4696 79.38 95.4496 83.79C98.4996 81.69 101.33 79.76 104.27 77.74L104.26 77.73ZM169.74 71.16C166.78 73.3 164.49 75.61 161.91 77.83C163.61 78.91 165.06 79.78 166.44 80.73C167.85 81.7 169.19 82.76 170.88 84.02C170.48 79.56 170.12 75.54 169.73 71.16H169.74ZM173.5 91.86C173.5 93.39 173.5 94.51 173.5 95.92C174.31 95.24 174.89 94.75 175.58 94.18C174.88 93.4 174.32 92.77 173.5 91.86ZM92.8096 92.14C91.9596 92.79 91.2997 93.29 90.5396 93.86C91.3596 94.53 91.8596 94.95 92.6296 95.58C92.6996 94.29 92.7496 93.32 92.8096 92.14Z" fill="#7FCCDB"/>
<path d="M13.4496 208.11C17.9996 209.16 22.2196 210 26.9196 209.68C26.3996 208.93 26.0496 208.38 25.6596 207.85C17.3196 196.63 10.9096 184.4 6.48965 171.14C1.50965 156.15 -0.650353 140.74 0.169647 124.96C1.44965 100.31 9.30965 77.95 23.8496 57.96C24.3996 57.2 24.9796 56.47 25.6996 55.54C21.6996 54.7 17.8996 55.12 13.6696 55.85C15.8996 53.65 18.2396 52.48 20.7496 51.56C23.3696 50.6 26.0896 51.01 28.8496 50.91C29.0396 50.71 29.2696 50.5 29.4496 50.26C43.7796 31.75 61.8996 18.28 83.5596 9.51C94.0296 5.27001 104.89 2.58001 116.08 1.10001C125.34 -0.119995 134.64 -0.369995 143.9 0.550005C170.22 3.17001 193.91 12.49 214.6 29.09C221.53 34.65 227.76 40.93 233.33 47.87C233.41 47.97 233.49 48.06 233.56 48.17C234.86 50.33 236.72 51.18 239.26 50.96C243.42 50.6 246.98 52.26 250.25 54.66C250.64 54.95 250.98 55.31 251.24 55.54C248.6 55.42 245.92 55.26 243.24 55.21C242.14 55.19 241.04 55.42 239.59 55.58C256.83 78.67 265.14 104.41 264.85 132.9C264.56 161.36 254.99 186.64 238.04 209.71C240.53 209.81 242.69 209.81 244.83 209.46C246.98 209.1 249.13 208.71 251.42 208.31C246.77 213.19 240.98 214.42 234.64 214.14C234.11 214.72 233.58 215.26 233.1 215.83C215.37 236.73 193.3 250.89 166.9 258.22C153.86 261.84 140.53 263.39 127.02 262.67C96.7496 261.07 69.9397 250.61 46.7696 230.97C41.5797 226.57 36.8097 221.77 32.3997 216.59C32.0696 216.21 31.6996 215.86 31.3896 215.47C30.4996 214.35 29.3896 213.97 27.9296 214.05C22.3396 214.36 17.6696 212.29 13.4796 208.11H13.4496ZM35.9096 48.66C36.4697 48.64 37.0396 48.7 37.5896 48.6C44.5396 47.45 51.4996 47.57 58.3997 48.77C70.8397 50.92 82.1897 55.72 92.3596 63.25C92.9896 63.72 93.6396 64.17 94.2597 64.61C94.4897 64.33 94.6096 64.25 94.6296 64.15C94.7896 63.35 94.9396 62.55 95.0896 61.75C97.2496 50.23 101.07 39.34 107.44 29.44C111 23.9 115.21 18.94 120.78 15.29C124.98 12.53 129.54 10.94 134.64 11.39C139.01 11.78 142.87 13.52 146.39 16.05C150.93 19.31 154.56 23.46 157.74 28.03C164.15 37.24 168 47.52 170.47 58.38C170.98 60.61 171.36 62.87 171.82 65.19C188.88 52.56 207.46 45.78 229.1 48.7C228.67 48.14 228.46 47.84 228.22 47.56C222.11 40.51 215.36 34.14 207.8 28.66C188.79 14.86 167.6 6.85001 144.21 4.51001C133.64 3.45001 123.13 3.84 112.67 5.45001C98.4196 7.65001 84.8896 12.13 72.1696 18.97C58.8796 26.13 47.1596 35.26 37.2696 46.7C36.7496 47.3 36.3497 48.01 35.8997 48.67C35.8497 48.68 35.7896 48.7 35.7397 48.71C35.7896 48.75 35.8396 48.8 35.8797 48.84C35.8797 48.79 35.8997 48.73 35.9096 48.68V48.66ZM171.06 199.95C170.92 200.25 170.83 200.4 170.78 200.57C170.64 201.12 170.5 201.66 170.38 202.21C168 213.26 164.39 223.84 158.4 233.51C154.96 239.05 150.92 244.06 145.59 247.91C137.31 253.88 128.62 254 120.22 248.25C115.86 245.26 112.36 241.43 109.34 237.13C102.23 227 98.0097 215.67 95.4397 203.65C95.1997 202.51 94.9397 201.37 94.6597 200.09C77.2697 213.07 58.1596 218.7 36.6696 215.43C82.7096 270.08 174.72 276.58 228.3 215.45C217.89 217.33 207.92 216.48 198.11 213.7C188.23 210.9 179.19 206.38 171.07 199.95H171.06ZM97.3796 197.54C99.3896 207.18 102.38 216.64 106.94 225.58C109.49 230.58 112.46 235.29 116.24 239.46C118.96 242.46 121.98 245.09 125.7 246.79C128.67 248.15 131.74 248.76 135.03 248.18C138.46 247.58 141.46 246.12 144.17 244.01C149.53 239.85 153.4 234.47 156.74 228.67C162.22 219.19 165.59 208.9 168.08 198.3C168.18 197.89 168.15 197.44 168.16 197.3C164.09 193.15 160.19 189.18 156.35 185.26C140.73 191.48 125.15 191.39 109.78 185.3C105.58 189.45 101.53 193.45 97.3796 197.55V197.54ZM89.8396 171.44C82.8396 164.14 78.0797 155.62 75.2297 145.91C67.4996 143.17 60.5996 138.88 53.9996 134.02C53.5496 134.32 53.1697 134.53 52.8396 134.8C41.2896 144.68 32.9796 156.7 28.9096 171.44C26.0596 181.74 25.5996 192.11 28.7496 202.46C29.4896 204.91 30.2896 207.35 31.6496 209.47C31.8896 209.5 32.0196 209.55 32.1396 209.53C32.9996 209.36 33.8596 209.2 34.7096 209C43.1596 206.98 50.8997 203.31 58.1996 198.67C69.6796 191.37 79.5396 182.17 88.9996 172.5C89.2997 172.19 89.5296 171.83 89.8297 171.44H89.8396ZM169.2 67.67C168.26 63.89 167.41 60.04 166.35 56.24C163.53 46.13 159.36 36.65 153.03 28.21C150.15 24.37 146.84 20.94 142.72 18.41C136.07 14.32 129.47 14.37 122.92 18.68C118.71 21.45 115.37 25.08 112.45 29.12C105.78 38.36 101.65 48.74 98.8796 59.71C98.2196 62.31 97.7197 64.95 97.1696 67.47C100.53 70.63 103.71 73.63 106.8 76.54C124.57 68.39 142.13 68.43 159.56 76.63C162.75 73.67 165.83 70.81 169.2 67.68V67.67ZM211.64 134C205.17 138.91 198.32 142.93 190.9 145.93C188.04 155.73 183.22 164.34 176.08 171.73C177.54 173.22 178.9 174.6 180.26 175.99C187.3 183.19 194.63 190.04 202.9 195.84C211.33 201.76 220.22 206.71 230.36 209.07C231.38 209.31 232.41 209.5 233.45 209.72C233.87 208.88 234.22 208.21 234.53 207.54C239.01 197.89 239.57 187.8 237.75 177.51C235.41 164.26 229.47 152.72 220.64 142.63C217.95 139.56 215.07 136.68 211.64 134.01V134ZM86.3196 93.1C85.5196 92.46 84.7296 91.92 84.0596 91.27C74.6296 82.17 64.4296 74.08 53.2197 67.27C46.9897 63.49 40.5396 60.15 33.5396 57.99C32.5396 57.68 31.5196 57.43 30.4296 57.14C30.1496 57.82 29.9296 58.33 29.7396 58.85C26.4896 67.81 26.0996 76.99 27.8096 86.29C30.4396 100.58 37.0496 112.84 46.9196 123.4C49.0896 125.72 51.4796 127.85 53.8596 130.14C60.3596 125.73 67.0696 122.14 74.2896 119.42C76.1296 109.77 79.9296 101.07 86.3096 93.11L86.3196 93.1ZM211.58 129.96C211.91 129.76 212.14 129.66 212.32 129.5C220.34 122.2 227.07 113.9 231.74 104.05C237.22 92.47 240.08 80.42 237.99 67.52C237.42 64.04 236.35 60.73 235.17 57.38C234.78 57.47 234.54 57.51 234.3 57.57C229.52 58.94 224.97 60.9 220.57 63.21C207.26 70.22 195.34 79.17 184.36 89.41C182.96 90.72 181.69 92.17 180.33 93.59C186.36 101.32 190.14 110.11 191.99 119.61C199.12 122.26 205.49 125.87 211.58 129.95V129.96ZM23.7496 198.12C21.2896 185.41 23.2196 173.25 28.1596 161.49C33.1196 149.7 40.6796 139.85 50.8196 131.95C50.5196 131.67 50.3496 131.5 50.1596 131.34C37.2496 120.84 28.8996 107.44 24.7996 91.37C22.9796 84.25 22.4096 77.02 23.4096 69.71C23.6396 68.06 23.9096 66.41 24.1596 64.76C17.2596 74.34 12.2296 84.8 8.88965 96.03C2.90965 116.16 2.06965 136.54 6.51965 157.07C9.70965 171.78 15.5296 185.43 23.7496 198.12ZM241.38 65.23C241.42 65.66 241.42 66.09 241.5 66.51C242.77 72.86 242.92 79.23 241.75 85.6C238.42 103.72 229.99 118.95 215.88 130.92C215.51 131.24 215.04 131.44 214.5 131.77C216.06 133.07 217.24 133.99 218.35 134.98C225.99 141.82 231.94 149.92 236.19 159.23C240.64 168.96 242.97 179.17 242.41 189.93C242.28 192.54 241.81 195.13 241.5 197.7C267.02 159.04 268.41 105.81 241.37 65.22L241.38 65.23ZM154.78 130.29C154.9 118.45 145.4 108.82 133.63 108.55C121.57 108.27 111.3 117.87 111.17 129.81C111.04 141.94 121.21 151.7 132.57 151.9C144.67 152.11 154.65 142.32 154.77 130.29H154.78ZM87.5396 91.28C88.9196 89.95 90.0597 88.68 91.3697 87.62C92.3596 86.82 92.6596 85.86 92.7396 84.69C93.0096 80.68 93.2996 76.68 93.5996 72.67C93.6896 71.43 93.8496 70.2 93.9697 68.99C93.3196 68.48 92.7896 68.04 92.2396 67.63C87.6696 64.29 82.8196 61.42 77.6897 59.02C64.5597 52.89 50.8296 50.6 36.4396 52.47C35.2496 52.62 34.0896 53 32.9196 53.28C32.9196 53.42 32.9296 53.56 32.9396 53.71C33.4996 53.9 34.0696 54.08 34.6297 54.27C36.8797 55.03 39.1897 55.66 41.3797 56.59C48.3997 59.56 54.8797 63.52 61.0396 67.99C69.0897 73.84 76.3797 80.56 83.5396 87.45C84.8496 88.71 86.1696 89.96 87.5696 91.29L87.5396 91.28ZM178.53 91.44C178.97 91.09 179.37 90.8 179.73 90.47C182.11 88.24 184.49 86 186.86 83.75C193.62 77.36 200.63 71.27 208.33 66.02C215.66 61.03 223.3 56.6 231.98 54.3C232.23 54.24 232.42 53.99 232.69 53.8C229.58 51.96 220.27 51.28 211.05 52.53C196.6 54.49 183.91 60.63 172.37 69.25C172.37 69.72 172.35 70.03 172.37 70.34C172.74 75.47 173.1 80.6 173.49 85.73C173.52 86.14 173.67 86.63 173.94 86.9C175.42 88.42 176.95 89.89 178.54 91.44H178.53ZM92.1597 173.04C91.2197 173.8 90.5196 174.27 89.9296 174.86C87.3196 177.49 84.7496 180.15 82.1497 182.79C76.2997 188.75 70.3696 194.62 63.5996 199.57C56.7196 204.59 49.3896 208.75 41.2397 211.37C40.8097 211.51 40.3796 211.66 39.9596 211.8C60.3196 213.94 78.1996 207.95 94.0596 195.95C93.4296 188.29 92.8197 180.93 92.1597 173.04ZM171.67 195.82C185.13 206.35 204.26 214.01 224 212.28C224.38 212.25 224.75 212.15 225.26 212.06C222.1 210.79 219.08 209.74 216.21 208.38C207.85 204.45 200.34 199.21 193.7 192.81C187.69 187.02 181.9 180.98 176.01 175.06C175.41 174.46 174.74 173.93 173.75 173.07C173.03 180.91 172.36 188.3 171.67 195.82ZM132.36 74.48C120.66 73.75 102.27 81.3 95.0896 89.69C95.0896 92.15 95.0696 94.66 95.1096 97.16C95.1096 97.63 95.2197 98.23 95.5097 98.54C96.6597 99.73 97.9196 100.84 99.2396 102.07C103.5 97.1 108.35 93.18 114.03 90.33C119.76 87.46 125.92 86.17 132.36 85.81C132.36 81.93 132.36 78.25 132.36 74.46V74.48ZM133.83 85.87C140.43 86.01 146.54 87.41 152.31 90.25C158.07 93.09 162.93 97.09 167.19 101.91C168.23 101 169.23 100.23 170.09 99.33C170.48 98.92 170.8 98.26 170.81 97.7C170.88 94.94 170.84 92.18 170.85 89.37C160.41 79.72 148.07 74.86 133.84 74.35C133.84 78.26 133.84 81.99 133.84 85.88L133.83 85.87ZM132.31 185.92C132.31 181.73 132.31 177.8 132.31 173.71C120.88 173.43 111.2 169.05 102.77 161.51C99.9096 164.51 97.1997 167.36 94.3697 170.34C104.84 180.38 117.49 185.49 132.31 185.92ZM171.91 170.36C169.1 167.27 166.3 164.38 163.32 161.59C159.11 165.38 154.64 168.36 149.6 170.44C144.57 172.52 139.28 173.4 133.76 173.77C133.76 177.9 133.76 181.82 133.76 185.94C148.47 185.57 161.06 180.38 171.91 170.36ZM165.09 159.91C168.1 162.7 171.03 165.43 174.05 168.23C183.51 157.92 188.77 145.55 188.97 131.07C185.64 130.65 178.77 130.85 177.3 131.39C176.64 142.2 172.7 151.67 165.09 159.92V159.91ZM153.86 115.07C157.51 111.51 161.04 108.07 164.69 104.51C156.5 95.18 146.49 90.06 134.1 89.53C134.1 94.59 134.1 99.51 134.1 104.57C142.26 105.05 148.67 108.66 153.86 115.08V115.07ZM77.1597 130.91C77.5997 145.42 82.5696 157.8 92.3596 168.43C95.3596 165.41 98.1696 162.6 101.04 159.71C97.1597 155.66 94.2996 151.27 92.1996 146.39C90.0796 141.47 89.1996 136.24 88.8196 130.91H77.1597ZM112.17 115.18C114.73 111.91 117.6 109.41 121.02 107.59C124.44 105.77 128.14 104.89 132.03 104.59C132.03 99.53 132.03 94.61 132.03 89.57C119.6 90.15 109.7 95.36 101.79 104.53C105.28 108.11 108.64 111.56 112.17 115.19V115.18ZM89.0896 95.87C81.2696 105.95 77.4597 117.03 77.2297 129.36C81.2197 129.36 84.9996 129.36 88.8697 129.36C89.2397 119.94 91.7697 111.49 97.4797 103.98C94.6997 101.3 91.9797 98.66 89.0797 95.86L89.0896 95.87ZM177.21 95.9C174.32 98.7 171.61 101.34 168.91 103.96C171.61 107.8 173.63 111.73 175.04 115.99C176.47 120.3 177.04 124.75 177.35 129.42H188.98C188.73 117.01 184.75 106.03 177.2 95.89L177.21 95.9ZM134.19 155.79C133.79 158.12 133.93 168.65 134.39 170.06C144.47 169.48 153.31 165.96 160.9 158.95C157.45 155.41 154.14 152 150.76 148.53C146.02 152.98 140.49 155.37 134.19 155.79ZM105.74 159.22C113.07 165.79 121.76 169.66 132.03 170.01C132.03 165.14 132.03 160.52 132.03 155.76C125.69 155.43 120.3 153.04 115.51 148.69C112.24 152.21 109.06 155.64 105.74 159.22ZM162.88 157.02C169.43 149.8 173.04 141.32 173.71 131.44H158.62C158.27 137.32 156.13 142.38 152.52 146.84C155.94 150.2 159.33 153.54 162.88 157.02ZM113.61 146.74C109.74 142.51 107.78 137.19 107.31 131.38C102.26 131.38 97.4396 131.38 92.4196 131.38C93.2296 141.34 96.6096 149.94 103.64 157.14C107.02 153.62 110.23 150.27 113.61 146.75V146.74ZM158.7 128.96H173.69C173.38 120.69 170.86 113.36 166.17 106.44C162.45 110.07 158.87 113.56 155.21 117.13C157.19 120.87 158.37 124.8 158.7 128.96ZM107.37 129.01C107.68 124.71 108.68 120.81 110.86 117.21C107.23 113.62 103.69 110.12 99.9996 106.48C95.2396 113.4 92.7597 120.76 92.4596 129C97.5196 129 102.33 129 107.36 129L107.37 129.01ZM73.7197 122.96C70.1897 123.6 58.9296 129.76 56.6796 132.23C62.1297 136.35 67.9196 139.83 74.5696 142.78C73.2896 135.96 72.9797 129.49 73.7197 122.96ZM192.44 122.79C193.01 129.57 192.98 135.97 191.6 142.64C198.02 139.68 203.8 136.35 209.11 131.92C203.82 128.23 198.43 125.26 192.44 122.78V122.79ZM107.05 184.31C102.91 181.66 99.1396 179.24 95.2197 176.73C95.3797 182.43 95.8397 188.03 96.8997 194.05C100.49 190.61 103.77 187.46 107.05 184.31ZM168.87 193.85C169.88 187.95 170.51 182.48 170.6 176.93C166.71 179.4 162.94 181.8 158.96 184.33C162.17 187.42 165.36 190.48 168.87 193.85ZM104.26 77.73C102.06 75.18 99.4797 73.05 96.6796 70.84C95.8596 75.2 95.4696 79.38 95.4496 83.79C98.4996 81.69 101.33 79.76 104.27 77.74L104.26 77.73ZM169.74 71.16C166.78 73.3 164.49 75.61 161.91 77.83C163.61 78.91 165.06 79.78 166.44 80.73C167.85 81.7 169.19 82.76 170.88 84.02C170.48 79.56 170.12 75.54 169.73 71.16H169.74ZM173.5 91.86C173.5 93.39 173.5 94.51 173.5 95.92C174.31 95.24 174.89 94.75 175.58 94.18C174.88 93.4 174.32 92.77 173.5 91.86ZM92.8096 92.14C91.9596 92.79 91.2997 93.29 90.5396 93.86C91.3596 94.53 91.8596 94.95 92.6296 95.58C92.6996 94.29 92.7496 93.32 92.8096 92.14Z" stroke="#7FCCDB" mask="url(#path-1-outside-1_48_1262)"/>
<path d="M186.738 43.58C188.813 43.5613 190.432 41.8998 190.47 39.7157L190.47 39.7155C190.507 37.6175 188.822 35.9097 186.699 35.9C184.621 35.9004 182.793 37.7731 182.84 39.8844L186.738 43.58ZM186.738 43.58C184.6 43.5989 182.887 41.963 182.84 39.8845L186.738 43.58ZM180.51 39.91C180.51 43.2885 183.21 45.9444 186.629 45.96V45.96C190.016 45.9704 192.88 43.1295 192.88 39.76C192.88 36.4409 189.927 33.51 186.61 33.51L186.609 33.51C183.311 33.5205 180.51 36.4732 180.51 39.91Z" fill="#7FCCDB" stroke="#7FCCDB" stroke-width="0.5"/>
<path d="M79.2596 45.9615L79.0081 45.96C75.5547 45.9392 72.7593 43.1815 72.7696 39.7696C72.7698 36.254 75.5104 33.5174 78.9641 33.58L78.9642 33.58C82.313 33.6424 85.1085 36.3759 85.1296 39.6581M79.2596 45.9615V45.7V45.71V45.9461M79.2596 45.9615V45.9461M79.2596 45.9615V45.9461M85.1296 39.6581C85.1296 39.6582 85.1296 39.6583 85.1296 39.6584L84.8796 39.66L85.1295 39.6577C85.1295 39.6578 85.1296 39.6579 85.1296 39.6581ZM85.1296 39.6581C85.1598 43.0054 82.502 45.826 79.2596 45.9461M82.7296 39.7194C82.7199 41.9407 81.1322 43.5813 79.0074 43.6C76.8268 43.6188 75.0696 41.8815 75.0696 39.68C75.0696 37.631 76.7161 35.9161 78.7064 35.8599C80.8585 35.8037 82.7292 37.6134 82.7296 39.7194Z" fill="#7FCCDB" stroke="#7FCCDB" stroke-width="0.5"/>
<path d="M186.67 232.96L186.669 232.96C183.218 232.96 180.49 230.325 180.479 226.941L180.479 226.94C180.479 223.477 183.308 220.468 186.593 220.52L186.67 232.96ZM186.67 232.96C190.019 232.95 192.757 230.218 192.809 226.844M186.67 232.96L192.809 226.844M186.781 230.6L186.795 230.601C188.375 230.765 190.373 229.384 190.44 226.704C190.486 224.605 188.79 222.961 186.621 222.97L186.619 222.97C184.539 222.97 182.838 224.677 182.819 226.772L186.781 230.6ZM186.781 230.6L186.767 230.6M186.781 230.6L186.767 230.6M186.767 230.6C184.53 230.619 182.801 228.935 182.819 226.772L186.767 230.6ZM192.809 226.844C192.862 223.483 189.998 220.572 186.593 220.52L192.809 226.844Z" fill="#7FCCDB" stroke="#7FCCDB" stroke-width="0.5"/>
<path d="M82.9501 226.72C82.9701 224.52 81.1501 222.65 78.9201 222.58L82.9501 226.72ZM82.9501 226.72C82.9301 229.08 81.2701 230.79 78.9701 230.8L82.9501 226.72ZM72.8001 226.728L72.8001 226.728C72.7696 230.175 75.2889 232.784 78.7101 232.906V232.92H78.9601C82.4103 232.92 85.1517 230.135 85.11 226.667L85.11 226.667C85.0683 223.329 82.0956 220.428 78.7769 220.47L78.7769 220.47C75.4606 220.512 72.8312 223.292 72.8001 226.728ZM82.7001 226.718L82.7001 226.718C82.6812 228.948 81.1251 230.541 78.969 230.55L78.9679 230.55C76.7491 230.569 75.0619 228.864 75.09 226.643C75.1183 224.553 76.9315 222.765 78.9119 222.83L78.9122 222.83C81.0095 222.896 82.7188 224.657 82.7001 226.718Z" fill="#7FCCDB" stroke="#7FCCDB" stroke-width="0.5"/>
<path d="M132.91 222.86L132.91 222.86C137.418 222.85 140.93 219.328 140.9 214.828L140.9 214.828C140.869 210.471 137.147 206.779 132.788 206.8L132.788 206.8C128.461 206.821 124.919 210.552 124.94 215.031L124.94 215.031C124.96 219.412 128.485 222.86 132.91 222.86ZM137.92 215.099L137.92 215.099V215.11V215.115C137.803 217.916 135.528 220.036 132.737 219.95C130.044 219.864 127.753 217.448 127.829 214.767L127.829 214.767C127.906 211.961 130.304 209.765 133.17 209.88L133.17 209.88C135.959 209.985 138.044 212.275 137.92 215.099Z" fill="#7FCCDB" stroke="#7FCCDB" stroke-width="0.5"/>
<path d="M43.8496 165.63V165.38C43.8496 163.152 45.3912 161.521 47.5571 161.5L43.8496 165.63ZM43.8496 165.63H43.8671M43.8496 165.63H43.8671M43.8671 165.63C43.9856 167.601 45.5 169.078 47.4932 169.13L47.4933 169.13C49.6215 169.183 51.5218 167.342 51.4896 165.226L51.4896 165.226C51.4573 163.141 49.677 161.479 47.5571 161.5L43.8671 165.63Z" fill="#7FCCDB" stroke="#7FCCDB" stroke-width="0.5"/>
<path d="M133.14 54.0843V54.33V54.3345C136.021 54.2071 138.28 51.8868 138.27 48.99C138.27 45.99 135.89 43.69 132.85 43.71M133.14 54.0843C135.885 53.9572 138.029 51.747 138.02 48.9909L138.02 48.99C138.02 46.1339 135.758 43.9409 132.852 43.96L132.85 43.71M133.14 54.0843V54.0809L132.891 54.08C130.109 54.0705 127.761 51.703 127.79 48.9226M133.14 54.0843L127.79 48.9226M132.85 43.71L132.851 43.96M132.85 43.71C129.94 43.73 127.57 46.06 127.54 48.92C127.51 51.84 129.97 54.32 132.89 54.33L132.851 43.96M132.851 43.96C130.074 43.9791 127.818 46.2025 127.79 48.9226M132.851 43.96L127.79 48.9226M124.97 49.0989V49.1V49.1094C124.949 53.4854 128.429 57.0387 132.787 57.08L132.788 57.08C137.261 57.1212 140.929 53.5948 140.96 49.1918V49.1917C140.991 44.7074 137.293 40.9193 132.889 40.94L132.889 40.94C128.554 40.9607 124.99 44.6388 124.97 49.0989Z" fill="#7FCCDB" stroke="#7FCCDB" stroke-width="0.5"/>
<path d="M218.88 161.52L218.878 161.52C216.61 161.531 214.967 163.205 215.01 165.474C215.042 167.559 216.692 169.182 218.743 169.15L218.744 169.15C220.922 169.107 222.766 167.272 222.679 165.16L222.679 165.16C222.594 163.095 220.943 161.52 218.88 161.52Z" fill="#7FCCDB" stroke="#7FCCDB" stroke-width="0.5"/>
<path d="M51.2693 101.029C51.2586 98.9292 49.5675 97.2772 47.4231 97.2402L47.4231 97.2401C45.3043 97.208 43.5814 98.889 43.5493 101.006L43.5493 101.006C43.5172 103.155 45.117 104.816 47.2819 104.88L47.282 104.88C49.491 104.944 51.28 103.213 51.2693 101.029L51.2693 101.029Z" fill="#7FCCDB" stroke="#7FCCDB" stroke-width="0.5"/>
<path d="M214.04 100.926L214.04 100.926C214.157 98.8831 215.967 97.1797 218.02 97.19C220.161 97.1904 221.974 99.0674 221.899 101.209C221.866 102.202 221.363 103.139 220.632 103.823C219.901 104.506 218.922 104.955 217.908 104.95L214.04 100.926ZM214.04 100.926C213.921 103.034 215.76 104.939 217.908 104.95L214.04 100.926Z" fill="#7FCCDB" stroke="#7FCCDB" stroke-width="0.5"/>
<path d="M19.8439 136.06C16.8142 136.003 14.5637 133.699 14.5594 130.659C14.57 127.673 16.9114 125.401 19.9778 125.42C23.0125 125.439 25.3467 127.798 25.2894 130.775C25.2321 133.738 22.7848 136.108 19.8439 136.06ZM11.5294 130.789C11.5089 135.367 15.1607 139.04 19.7489 139.04C24.6619 139.05 28.2794 135.523 28.2794 130.71C28.2794 126.005 24.6607 122.321 19.9905 122.3C15.3001 122.279 11.5398 126.043 11.5294 130.789Z" fill="#7FCCDB" stroke="#7FCCDB" stroke-width="0.5"/>
<path d="M245.308 139.11H245.308L253.669 130.74L253.919 130.744C253.919 130.744 253.919 130.744 253.919 130.744C253.991 126.249 250.094 122.371 245.51 122.35C240.898 122.329 237.21 126.066 237.199 130.76C237.189 135.442 240.715 139.089 245.308 139.11ZM245.436 136.031L245.424 136.03L245.411 136.03C242.023 136.144 240.091 133.144 240.119 130.643C240.157 127.709 242.606 125.403 245.643 125.48L245.644 125.48C248.574 125.547 250.812 127.883 250.869 130.805L250.869 130.805C250.893 131.989 250.369 133.358 249.412 134.402C248.461 135.441 247.094 136.145 245.436 136.031Z" fill="#7FCCDB" stroke="#7FCCDB" stroke-width="0.5"/>
<path d="M123.919 129.993C123.978 124.974 128.182 120.901 133.299 120.92L133.299 120.92C138.275 120.93 142.408 125.192 142.369 130.278V130.28V130.289C142.33 135.261 138.192 139.359 133.22 139.34H133.22C128.067 139.321 123.861 135.092 123.919 129.993ZM123.919 129.993L123.67 129.99M123.919 129.993L123.67 129.99M123.67 129.99C123.73 124.83 128.05 120.65 133.3 120.67L133.22 139.59C127.93 139.57 123.61 135.23 123.67 129.99ZM133.108 143.83L133.108 143.83C140.482 143.861 146.72 137.453 146.69 130.009C146.659 122.63 140.626 116.64 133.22 116.63C125.764 116.62 119.652 122.698 119.65 130.135C119.377 136.903 125.406 143.789 133.108 143.83Z" fill="#7FCCDB" stroke="#7FCCDB" stroke-width="0.5"/>
</g>
<defs>
<clipPath id="clip0_48_1262">
<rect width="264.83" height="262.84" fill="white"/>
</clipPath>
</defs>
</svg>
